<svg width="166" height="100" viewBox="0 0 166 100" fill="none" xmlns="http://www.w3.org/2000/svg">
<g clip-path="url(#clip0_770_2040)">
<path d="M31.2537 67.3501H43.4817V60.2834V59.8109V55.8705V55.0562V54.3224V53.8399V41.1941V39.7969" stroke="#1393EA" stroke-width="0.5" stroke-miterlimit="10"/>
<path d="M71.994 43.2751C70.2779 47.296 68.4281 49.4472 65.0628 49.4472C59.9591 49.4472 56.2818 44.592 56.2818 37.3141C56.2818 31.5642 59.2533 26.126 64.7805 26.126C68.3241 26.126 70.4933 27.8147 71.3848 32.097L72.3654 31.8256C72.1649 29.6342 71.9346 27.9756 71.6671 25.7942C69.6858 25.1564 67.6627 24.786 65.6274 24.6885C58.087 24.6885 52.6787 30.0162 52.6787 38.1384C52.6787 44.2401 56.3932 50.9651 64.8028 50.9651C66.902 50.8639 68.9892 50.4903 71.0357 49.8493C71.7995 47.8919 72.4334 45.8466 72.93 43.7375L71.994 43.2751Z" fill="#144682"/>
<path d="M86.7926 24.6782C79.7351 24.6782 75.4041 31.0614 75.4041 38.0578C75.4041 45.4864 80.27 50.9549 86.384 50.9549C92.4981 50.9549 97.7058 45.8081 97.7058 37.4748C97.6835 29.7446 92.5055 24.6782 86.7926 24.6782ZM87.0749 49.4973C82.4096 49.4973 78.9477 44.1495 78.9477 37.0526C78.9477 29.7446 82.4244 26.1258 86.0795 26.1258C90.3585 26.1258 94.0507 30.408 94.0507 38.5001C94.073 45.9689 90.73 49.4973 87.0749 49.4973Z" fill="#144682"/>
<path d="M117.378 47.8388C116.422 46.5965 115.543 45.2519 114.748 43.8179C113.767 42.0487 112.452 39.5155 111.88 38.2489C114.205 37.0627 115.988 35.0623 115.988 31.7049C116.009 30.6804 115.82 29.6681 115.44 28.7807C115.061 27.8934 114.508 27.1657 113.841 26.6788C112.601 25.6735 111.011 25.3418 108.552 25.3418H100.232V26.5079C102.75 26.7089 103.04 26.92 103.04 30.2171V45.4363C103.04 48.6832 102.735 48.9747 100.105 49.236V50.3418H108.901V49.2562C106.301 48.9948 105.989 48.7033 105.989 45.4564V39.425H106.903C108.574 39.425 109.131 39.8975 109.733 41.0032C110.706 42.8529 111.769 45.2051 112.883 47.0346C114.369 49.5678 115.728 50.4122 118.358 50.573C118.744 50.573 119.101 50.6434 119.51 50.6434L119.658 49.5678C118.782 49.3307 117.984 48.7256 117.378 47.8388ZM110.989 37.0225C110.164 37.8167 109.079 38.1283 107.445 38.1283H105.959V28.6389C105.959 27.6337 106.093 27.1814 106.308 26.9703C106.856 26.6513 107.453 26.5234 108.047 26.5983C110.461 26.5983 112.705 28.1363 112.705 32.2779C112.751 33.2072 112.614 34.1365 112.307 34.9704C112 35.8042 111.535 36.5125 110.959 37.0225H110.989Z" fill="#144682"/>
<path d="M136.411 43.9383C136.012 45.2918 135.452 46.5481 134.754 47.6576C134.011 48.6628 133.038 48.9242 130.675 48.9242C129.19 48.9242 127.979 48.9242 127.347 48.4718C126.716 48.0195 126.56 47.1248 126.56 45.3054V38.1984H129.531C132.384 38.1984 132.614 38.4095 133.075 41.2141H134.056V33.6749H133.075C132.666 36.2784 132.451 36.6001 129.531 36.6001H126.56V27.9451C126.56 26.7891 126.627 26.6886 127.696 26.6886H130.103C132.332 26.6886 133.238 26.9499 133.714 27.7943C134.215 28.822 134.578 29.9623 134.784 31.1618L135.779 31.001C135.653 28.8398 135.519 26.2764 135.475 25.2812H120.735V26.4473C123.261 26.7087 123.544 26.8092 123.544 30.3476V45.426C123.544 48.5925 123.261 48.9644 120.327 49.2258V50.3315H136.284C136.559 49.0951 137.191 45.5366 137.406 44.089L136.411 43.9383Z" fill="#144682"/>
<path d="M59.9295 65.0283C59.8648 64.4562 59.713 63.9085 59.4838 63.4199C59.2684 63.0178 59.0381 62.8871 58.05 62.8871H57.1585V71.2808C57.1585 72.6479 57.27 72.8489 58.5106 72.9595V73.4521H54.655V72.9595C55.8436 72.8489 55.9551 72.668 55.9551 71.2808V62.8871H55.2122C54.083 62.8871 53.8155 63.048 53.6372 63.4199C53.4264 63.9196 53.2783 64.463 53.1989 65.0283H52.8052C52.8646 63.9124 52.924 62.7665 52.9538 61.8115H53.2286C53.4218 62.2538 53.5852 62.2538 53.9715 62.2538H59.2461C59.3776 62.268 59.5096 62.2345 59.6284 62.1568C59.7473 62.079 59.8486 61.9599 59.9221 61.8115H60.1747C60.1747 62.6057 60.2416 63.9325 60.301 64.9679L59.9295 65.0283Z" fill="#144682"/>
<path d="M64.5132 71.9241C64.2638 72.4097 63.9392 72.8158 63.562 73.1144C63.1848 73.413 62.7641 73.5968 62.3291 73.6531C61.9825 73.6526 61.6397 73.5562 61.3217 73.3698C61.0037 73.1834 60.7172 72.9109 60.4799 72.5691C60.2426 72.2273 60.0595 71.8234 59.9419 71.3823C59.8242 70.9412 59.7745 70.4722 59.7958 70.0041C59.7855 68.9147 60.0831 67.8611 60.6279 67.0588C60.8674 66.6684 61.1639 66.3491 61.4988 66.1208C61.8337 65.8925 62.1998 65.7601 62.5742 65.7319C63.0917 65.7392 63.5872 66.0158 63.9579 66.5044C64.3287 66.9929 64.5461 67.6558 64.5652 68.3556C64.5652 68.6873 64.4983 68.8381 64.2606 68.9085C64.0229 68.9788 62.4034 69.1598 60.9176 69.2301C60.9176 71.4617 61.9056 72.3765 62.7971 72.3765C63.3569 72.3625 63.8903 72.0521 64.2829 71.512L64.5132 71.9241ZM62.2845 66.3853C61.7273 66.3853 61.1702 67.0588 60.9844 68.4963C61.6753 68.4963 62.3662 68.4963 63.0868 68.4963C63.3097 68.4963 63.3914 68.3958 63.3914 68.1646C63.4144 67.9443 63.403 67.72 63.3582 67.5061C63.3134 67.2921 63.2361 67.0931 63.1312 66.9218C63.0264 66.7506 62.8962 66.6108 62.7491 66.5115C62.6021 66.4122 62.4413 66.3555 62.2771 66.3451L62.2845 66.3853Z" fill="#144682"/>
<path d="M70.3078 71.8637C70.0517 72.3592 69.7204 72.7751 69.3361 73.0837C68.9518 73.3922 68.5232 73.5863 68.0791 73.653C67.7273 73.6667 67.3772 73.5835 67.05 73.4083C66.7228 73.2331 66.4254 72.9696 66.1759 72.6338C65.9264 72.2981 65.73 71.8971 65.5987 71.4554C65.4673 71.0136 65.4039 70.5403 65.4121 70.0643C65.4109 69.4031 65.5303 68.7517 65.7597 68.1678C65.9891 67.5839 66.3213 67.0856 66.727 66.7169C67.3025 66.1156 67.9994 65.7651 68.7254 65.7117C69.1412 65.6883 69.551 65.8508 69.8917 66.1741C69.9569 66.2319 70.0101 66.311 70.0465 66.4042C70.0829 66.4974 70.1012 66.6015 70.0998 66.7069C70.0942 66.8852 70.0475 67.0568 69.9663 67.1974C69.885 67.338 69.7732 67.4407 69.6466 67.4909C69.5723 67.4909 69.5054 67.4909 69.394 67.2899C69.0375 66.8281 68.5651 66.5659 68.0716 66.5561C67.2693 66.5561 66.5413 67.4206 66.5413 69.2501C66.4767 69.8349 66.5539 70.4323 66.7614 70.9527C66.9689 71.4731 67.2955 71.8884 67.6922 72.1365C68.0889 72.3845 68.5344 72.4518 68.9617 72.3283C69.3891 72.2048 69.7754 71.8972 70.0626 71.4515L70.3078 71.8637Z" fill="#144682"/>
<path d="M74.3267 73.452V72.9896C75.0696 72.889 75.1662 72.7684 75.1662 71.6526V68.8581C75.1662 67.4306 74.7278 66.7571 73.9255 66.7571C73.6763 66.7681 73.4315 66.8487 73.2064 66.9941C72.9814 67.1394 72.781 67.3462 72.618 67.6015V71.6224C72.618 72.7181 72.6997 72.8589 73.4426 72.9594V73.4218H70.6196V72.9594C71.3625 72.8589 71.5037 72.7483 71.5037 71.6224V63.46C71.5037 62.3744 71.5037 62.3241 70.6419 62.2135V61.8014C71.3105 61.6651 71.9709 61.4635 72.618 61.1982V66.9883C73.1007 66.2726 73.7625 65.8248 74.4753 65.7318C75.5376 65.7318 76.2879 66.6064 76.2879 68.7475V71.6828C76.2879 72.8388 76.3845 72.9192 77.12 73.0197V73.4821L74.3267 73.452Z" fill="#144682"/>
<path d="M81.4808 73.4521V72.9897C82.2237 72.8892 82.3128 72.7485 82.3128 71.5322V68.7276C82.3128 67.5313 81.9563 66.8076 81.1614 66.8076C80.6517 66.878 80.1736 67.1749 79.8019 67.652V71.6729C79.8019 72.849 79.8761 72.9194 80.619 73.0199V73.4823H77.7515V73.0199C78.6132 72.8792 78.6801 72.7987 78.6801 71.6427V68.1546C78.6801 67.0287 78.5909 66.9584 77.9372 66.7975V66.3452C78.5825 66.2096 79.2151 65.9804 79.8241 65.6616V67.0488C80.0842 66.7875 80.3665 66.5161 80.6933 66.2245C81.0039 65.9126 81.3766 65.734 81.7631 65.7119C82.7957 65.7119 83.4495 66.7171 83.4495 68.4059V71.6226C83.4495 72.7987 83.5238 72.8389 84.2741 72.9696V73.432L81.4808 73.4521Z" fill="#144682"/>
<path d="M87.8995 65.7316C88.2746 65.7223 88.6473 65.8141 88.9958 66.0019C89.3444 66.1897 89.6617 66.4696 89.9294 66.8252C90.1971 67.1809 90.4097 67.6051 90.5548 68.0732C90.6999 68.5413 90.7746 69.0439 90.7745 69.5515C90.7947 70.0803 90.7351 70.6092 90.5993 71.1059C90.4635 71.6025 90.2544 72.0565 89.9847 72.4403C89.715 72.824 89.3904 73.1294 89.0306 73.3379C88.6708 73.5464 88.2835 73.6535 87.8921 73.6528C87.5111 73.6829 87.1295 73.6075 86.7707 73.4313C86.4119 73.2551 86.0834 72.9818 85.8053 72.6281C85.5272 72.2744 85.3053 71.8476 85.1532 71.3739C85.0011 70.9003 84.9219 70.3896 84.9205 69.8731C84.9086 69.335 84.9766 68.7992 85.1206 68.2973C85.2646 67.7955 85.4816 67.3379 85.7587 66.9516C86.0359 66.5654 86.3675 66.2584 86.734 66.0488C87.1004 65.8392 87.4943 65.7314 87.8921 65.7316H87.8995ZM87.7361 66.3146C86.9932 66.3146 86.2875 67.3199 86.2875 69.3303C86.2875 71.5117 86.9858 73.0999 88.0333 73.0999C88.7762 73.0999 89.4522 72.4164 89.4522 70.0038C89.4522 67.9934 88.843 66.3649 87.751 66.3649L87.7361 66.3146Z" fill="#144682"/>
<path d="M91.3762 73.4518V72.9894C92.186 72.8587 92.2974 72.7682 92.2974 71.6122V63.5704C92.2974 62.4043 92.2083 62.3742 91.4134 62.2636V61.8414C92.0908 61.7163 92.7592 61.5145 93.4118 61.2383V71.6122C93.4118 72.7783 93.5232 72.8889 94.3701 72.9894V73.4518H91.3762Z" fill="#144682"/>
<path d="M97.8915 65.7316C98.2665 65.7223 98.6392 65.8141 98.9877 66.0019C99.3363 66.1897 99.6536 66.4696 99.9213 66.8252C100.189 67.1809 100.402 67.6051 100.547 68.0732C100.692 68.5413 100.767 69.0439 100.766 69.5515C100.787 70.0803 100.727 70.6092 100.591 71.1059C100.455 71.6025 100.246 72.0565 99.9766 72.4403C99.7069 72.824 99.3823 73.1294 99.0225 73.3379C98.6628 73.5464 98.2754 73.6535 97.884 73.6528C97.5063 73.6744 97.1292 73.5928 96.7752 73.413C96.4213 73.2331 96.0977 72.9586 95.8238 72.6059C95.55 72.2531 95.3314 71.8294 95.1812 71.3599C95.031 70.8904 94.9522 70.3847 94.9496 69.8731C94.9377 69.3393 95.0046 68.8075 95.1463 68.309C95.2879 67.8104 95.5016 67.3551 95.7748 66.9695C96.048 66.584 96.3752 66.2759 96.7374 66.0634C97.0995 65.8508 97.4893 65.738 97.884 65.7316H97.8915ZM97.728 66.3146C96.9851 66.3146 96.2868 67.3199 96.2868 69.3303C96.2868 71.5117 96.9777 73.0999 98.0252 73.0999C98.7681 73.0999 99.4441 72.4164 99.4441 70.0038C99.4441 67.9934 98.8349 66.3649 97.7429 66.3649L97.728 66.3146Z" fill="#144682"/>
<path d="M107.393 66.0734C107.258 66.4327 107.056 66.7377 106.806 66.958H106.063C106.307 67.3907 106.435 67.922 106.427 68.4658C106.416 68.8557 106.347 69.2386 106.223 69.5908C106.099 69.9431 105.923 70.2573 105.706 70.5143C105.489 70.7713 105.235 70.9655 104.961 71.0852C104.686 71.2048 104.396 71.2473 104.109 71.2101C103.883 71.2019 103.657 71.1716 103.433 71.1196C103.348 71.192 103.274 71.2874 103.216 71.3997C103.159 71.512 103.119 71.6391 103.099 71.773C103.099 72.1047 103.337 72.4465 103.924 72.4465C104.377 72.4465 104.815 72.4465 105.261 72.4465C106.048 72.4465 107.148 72.7782 107.148 74.5072C107.148 76.2362 105.603 77.9752 103.872 77.9752C102.386 77.9752 101.643 76.8393 101.598 75.8643C101.594 75.6734 101.622 75.4836 101.68 75.3094C101.738 75.1352 101.824 74.9812 101.933 74.859C102.222 74.4871 102.676 74.0448 102.98 73.7131C102.582 73.5738 102.237 73.2364 102.014 72.7682C101.904 72.5423 101.852 72.274 101.866 72.0042C102.305 71.8041 102.701 71.4585 103.017 70.999C102.678 70.8123 102.387 70.4922 102.183 70.0802C101.98 69.6681 101.871 69.1829 101.873 68.6869C101.887 68.2881 101.96 67.897 102.087 67.5364C102.214 67.1758 102.392 66.8529 102.612 66.5863C102.832 66.3198 103.088 66.115 103.367 65.9838C103.646 65.8526 103.941 65.7976 104.236 65.8221C104.674 65.8318 105.105 65.9835 105.491 66.2643C106.152 66.2643 106.821 66.1136 107.304 66.0231L107.393 66.0734ZM104.362 73.7131C103.971 73.6439 103.575 73.7689 103.248 74.0649C103.095 74.2138 102.967 74.4044 102.873 74.6243C102.778 74.8442 102.718 75.0886 102.698 75.3415C102.698 76.2463 103.441 77.0102 104.414 77.0102C105.58 77.0102 106.219 76.1859 106.219 75.1405C106.23 74.8755 106.178 74.6127 106.069 74.3916C105.961 74.1704 105.802 74.0029 105.617 73.9141C105.216 73.7469 104.796 73.6788 104.377 73.7131H104.362ZM104.124 66.2744C103.604 66.2744 103.099 66.958 103.099 68.2849C103.099 69.6118 103.56 70.5667 104.265 70.5667C104.823 70.5667 105.305 69.8832 105.305 68.5563C105.305 67.2294 104.86 66.2643 104.139 66.2643L104.124 66.2744Z" fill="#144682"/>
<path d="M113.945 66.3954C113.262 66.5361 113.143 66.6769 112.801 67.672C112.46 68.6672 112.059 69.9841 111.16 72.7786C110.634 74.3089 110.175 75.8797 109.785 77.4831C109.771 77.6085 109.721 77.7214 109.646 77.7982C109.571 77.875 109.477 77.9097 109.384 77.8952C109.202 77.897 109.025 77.8078 108.888 77.6446C108.751 77.4815 108.663 77.2558 108.641 77.0106C108.641 76.7291 108.753 76.5783 108.968 76.3773C109.401 76.0131 109.743 75.4806 109.949 74.8494C110.1 74.496 110.229 74.1261 110.335 73.7436C110.373 73.621 110.392 73.4894 110.392 73.3566C110.392 73.2237 110.373 73.0922 110.335 72.9696C109.793 70.9591 109.191 68.7878 108.849 67.6519C108.567 66.7573 108.426 66.5361 107.735 66.3954V65.933H110.469V66.3954C109.867 66.5361 109.793 66.6869 109.956 67.3102L111.122 71.5321C111.472 70.4465 112.029 68.4058 112.281 67.3705C112.445 66.7372 112.341 66.5361 111.62 66.3652V65.9028H113.975L113.945 66.3954Z" fill="#144682"/>
<path d="M122.192 64.948C121.969 63.8422 121.568 62.5957 120.468 62.5957C120.281 62.5772 120.093 62.6123 119.916 62.6988C119.739 62.7852 119.578 62.9211 119.443 63.0975C119.307 63.2739 119.201 63.4869 119.131 63.7226C119.06 63.9583 119.028 64.2114 119.034 64.4654C119.034 65.6818 119.629 66.2648 120.691 66.9584C121.753 67.652 122.92 68.5065 122.92 70.4063C122.92 72.3062 121.753 73.7236 119.948 73.7236C119.504 73.7269 119.062 73.6319 118.641 73.4421C118.419 73.343 118.203 73.2221 117.994 73.0802C117.913 72.7385 117.719 71.1703 117.638 70.3259L118.031 70.1751C118.247 71.2708 118.886 73.0802 120.216 73.0802C120.414 73.0997 120.614 73.061 120.801 72.9669C120.987 72.8727 121.157 72.7253 121.298 72.5346C121.439 72.3439 121.548 72.1143 121.618 71.8616C121.687 71.6088 121.716 71.3388 121.701 71.0698C121.701 69.8233 121.003 69.2302 120.015 68.5266C119.027 67.8229 117.861 67.0489 117.861 65.1591C117.861 63.4401 118.886 62.0127 120.587 62.0127C121.162 62.0309 121.73 62.17 122.273 62.4248C122.325 63.038 122.392 63.7417 122.504 64.8776L122.192 64.948Z" fill="#144682"/>
<path d="M127.035 65.7316C127.41 65.7223 127.783 65.8141 128.131 66.0019C128.48 66.1897 128.797 66.4696 129.065 66.8252C129.333 67.1809 129.545 67.6051 129.69 68.0732C129.836 68.5413 129.91 69.0439 129.91 69.5515C129.93 70.0803 129.871 70.6092 129.735 71.1059C129.599 71.6025 129.39 72.0565 129.12 72.4403C128.851 72.824 128.526 73.1294 128.166 73.3379C127.806 73.5464 127.419 73.6535 127.028 73.6528C126.647 73.6814 126.267 73.605 125.909 73.4282C125.551 73.2514 125.223 72.9779 124.946 72.6243C124.669 72.2707 124.447 71.8444 124.296 71.3715C124.144 70.8985 124.065 70.3887 124.064 69.8731C124.052 69.3393 124.119 68.8075 124.26 68.309C124.402 67.8104 124.616 67.3551 124.889 66.9695C125.162 66.584 125.489 66.2759 125.851 66.0634C126.214 65.8508 126.603 65.738 126.998 65.7316H127.035ZM126.872 66.3146C126.129 66.3146 125.423 67.3199 125.423 69.3303C125.423 71.5117 126.121 73.0999 127.161 73.0999C127.904 73.0999 128.58 72.4164 128.58 70.0038C128.58 67.9934 127.971 66.3649 126.887 66.3649L126.872 66.3146Z" fill="#144682"/>
<path d="M130.438 73.4518V72.9894C131.248 72.8587 131.359 72.7682 131.359 71.6122V63.5704C131.359 62.4043 131.27 62.3742 130.467 62.2636V61.8414C131.147 61.7173 131.818 61.5155 132.473 61.2383V71.6122C132.473 72.7783 132.585 72.8889 133.432 72.9894V73.4518H130.438Z" fill="#144682"/>
<path d="M140.274 73.0398C139.931 73.1039 139.591 73.1945 139.256 73.3112L138.283 73.653L138.194 73.5625V72.3763C137.896 72.6679 137.644 72.9594 137.28 73.2609C136.973 73.527 136.619 73.6764 136.255 73.6932C135.348 73.6932 134.613 72.9594 134.613 71.1098V67.7825C134.613 66.8476 134.509 66.7772 134.182 66.6566L133.833 66.536V66.1238C134.093 66.1238 134.442 66.0535 134.806 66.0032C135.17 65.9529 135.549 65.8625 135.779 65.8223C135.779 66.345 135.779 67.1693 135.779 68.3152V70.6373C135.779 72.0748 136.314 72.5171 136.894 72.5171C137.394 72.5079 137.871 72.2336 138.223 71.7531V67.7825C138.223 66.8476 138.112 66.7772 137.688 66.6466L137.228 66.536V66.1238C137.635 66.106 138.042 66.0591 138.446 65.9831C138.748 65.9513 139.048 65.8976 139.345 65.8223V71.4917C139.345 72.3965 139.449 72.497 139.954 72.5573H140.303L140.274 73.0398Z" fill="#144682"/>
<path d="M143.334 73.3817C143.169 73.5145 142.983 73.5937 142.792 73.6129C141.93 73.6129 141.447 72.9494 141.447 71.6024V66.6567H140.571L140.511 66.4557L140.868 65.9329H141.447V64.6865L142.398 63.4902H142.569V65.8927H144.055C144.085 65.9479 144.106 66.0105 144.118 66.0771C144.13 66.1436 144.131 66.2126 144.123 66.28C144.115 66.3475 144.096 66.412 144.069 66.4698C144.042 66.5275 144.007 66.5774 143.966 66.6165H142.606V70.9591C142.606 72.3563 143.052 72.5875 143.349 72.5875C143.615 72.5954 143.879 72.5233 144.122 72.3764L144.233 72.8489L143.334 73.3817Z" fill="#144682"/>
<path d="M144.776 73.452V72.9896C145.585 72.8891 145.682 72.7785 145.682 71.5823V68.1143C145.682 67.0286 145.637 66.9482 144.872 66.7773V66.3451C145.53 66.2074 146.177 65.9852 146.804 65.6816V71.5622C146.804 72.7484 146.893 72.8388 147.717 72.9695V73.4319L144.776 73.452ZM145.452 63.3998C145.452 63.1332 145.53 62.8775 145.669 62.689C145.809 62.5004 145.998 62.3945 146.195 62.3945C146.368 62.4187 146.529 62.5293 146.646 62.7047C146.763 62.8802 146.828 63.1081 146.828 63.3445C146.828 63.5808 146.763 63.8087 146.646 63.9842C146.529 64.1597 146.368 64.2702 146.195 64.2944C146.003 64.2946 145.818 64.1942 145.679 64.0143C145.541 63.8344 145.459 63.589 145.452 63.3294V63.3998Z" fill="#144682"/>
<path d="M151.313 65.7316C151.688 65.7223 152.061 65.8141 152.409 66.0019C152.758 66.1897 153.075 66.4696 153.343 66.8252C153.611 67.1809 153.823 67.6051 153.968 68.0732C154.113 68.5413 154.188 69.0439 154.188 69.5515C154.208 70.0803 154.149 70.6092 154.013 71.1059C153.877 71.6025 153.668 72.0565 153.398 72.4403C153.129 72.824 152.804 73.1294 152.444 73.3379C152.084 73.5464 151.697 73.6535 151.306 73.6528C150.928 73.6758 150.55 73.5952 150.196 73.4159C149.841 73.2365 149.517 72.9621 149.243 72.6091C148.969 72.2561 148.751 71.8317 148.601 71.3616C148.451 70.8914 148.373 70.3852 148.371 69.8731C148.359 69.3393 148.426 68.8075 148.568 68.309C148.71 67.8104 148.923 67.3551 149.196 66.9695C149.47 66.584 149.797 66.2759 150.159 66.0634C150.521 65.8508 150.911 65.738 151.306 65.7316H151.313ZM151.15 66.3146C150.407 66.3146 149.664 67.3199 149.664 69.3303C149.664 71.5117 150.362 73.0999 151.41 73.0999C152.153 73.0999 152.829 72.4164 152.829 70.0038C152.829 67.9934 152.212 66.3649 151.127 66.3649L151.15 66.3146Z" fill="#144682"/>
<path d="M158.608 73.4521V72.9897C159.351 72.8892 159.433 72.7485 159.433 71.5322V68.7276C159.433 67.5313 159.076 66.8076 158.289 66.8076C157.779 66.878 157.301 67.1749 156.929 67.652V71.6729C156.929 72.849 156.996 72.9194 157.747 73.0199V73.4823H154.872V73.0199C155.733 72.8792 155.808 72.7987 155.808 71.6427V68.1546C155.808 67.0287 155.718 66.9584 155.065 66.7975V66.3452C155.713 66.2109 156.348 65.9817 156.959 65.6616V67.0488C157.219 66.7875 157.494 66.5161 157.828 66.2245C158.138 65.9115 158.511 65.7327 158.898 65.7119C159.923 65.7119 160.577 66.7171 160.577 68.4059V71.6226C160.577 72.7987 160.659 72.8389 161.409 72.9696V73.432L158.608 73.4521Z" fill="#144682"/>
<path d="M165.413 68.0339C165.161 67.0287 164.707 66.3049 164.076 66.3049C163.967 66.3018 163.858 66.3294 163.757 66.3861C163.657 66.4428 163.566 66.5272 163.49 66.634C163.415 66.7408 163.356 66.8677 163.319 67.0066C163.282 67.1455 163.266 67.2934 163.274 67.4408C163.274 68.1545 163.764 68.5667 164.343 68.8682C165.331 69.401 166 70.0242 166 71.2406C166 72.8489 164.901 73.6531 163.831 73.6531C163.306 73.6659 162.789 73.4702 162.345 73.0902C162.206 72.398 162.129 71.686 162.115 70.9692L162.471 70.8988C162.716 72.0548 163.296 73.0801 164.069 73.0801C164.295 73.0749 164.511 72.9501 164.671 72.7322C164.831 72.5144 164.921 72.2208 164.923 71.9141C164.923 71.2004 164.581 70.8184 163.92 70.4163C163.259 70.0142 162.278 69.4111 162.278 67.9937C162.295 67.6652 162.36 67.3446 162.471 67.0511C162.581 66.7577 162.734 66.4976 162.921 66.2863C163.108 66.075 163.324 65.917 163.557 65.8218C163.79 65.7265 164.035 65.6959 164.277 65.7319C164.677 65.7204 165.075 65.8267 165.443 66.0435C165.591 66.6438 165.69 67.264 165.74 67.8932L165.413 68.0339Z" fill="#144682"/>
<path d="M41.4462 34.9818C41.0822 35.8563 40.7033 36.7308 40.3542 37.5953C39.8713 38.7413 39.381 39.8772 38.8684 41.0131L38.2072 42.521L37.9992 42.9934C37.5683 43.9986 37.13 45.0039 36.6843 46.0091C35.9859 47.5772 35.2876 49.1555 34.567 50.7136L34.4927 50.8844V50.9548L34.2253 51.5177C34.1584 51.6786 34.0841 51.8294 34.0098 51.9902L33.0441 54.061L32.9178 54.3424C32.8212 54.5334 32.7321 54.7345 32.6355 54.9355L31.6771 56.946C30.9442 58.4739 30.2013 59.9918 29.4485 61.4996L29.2107 61.9721L28.765 62.8567C28.4901 63.4096 28.193 63.9825 27.9775 64.3947L27.7398 64.8571L27.6952 64.9476L26.8112 66.6464L25.6077 68.9082L24.8648 70.3155L24.3225 71.3207H24.6791L26.0014 68.9182L26.9895 67.0787L27.1158 66.8374C27.3238 66.4454 27.985 64.8269 28.1038 64.5354L28.1558 64.4349L29.3816 62.0626L29.5673 61.7007C29.5802 61.6603 29.5977 61.623 29.6193 61.5901L32.8881 55.0159L33.0589 54.654L33.1555 54.4631L33.3858 53.9906C33.7127 53.3271 34.0098 52.7039 34.2921 52.1108L34.463 51.759L34.5224 51.6384C35.4288 49.7385 36.3425 47.7481 37.2414 45.7176C37.6129 44.8732 37.9843 44.0187 38.3632 43.1542L38.5118 42.8024C38.5318 42.7645 38.5492 42.7241 38.5638 42.6818H38.7718C39.2101 41.6766 39.641 40.6713 40.057 39.6158L40.1387 39.4048C40.3616 38.8519 40.5845 38.299 40.7925 37.7461L40.9559 37.3239C41.2308 36.6002 41.4982 35.8664 41.7582 35.1325L41.4462 34.9818ZM11.4184 34.9818C11.1342 34.9683 10.8509 35.0312 10.5847 35.1667C10.3186 35.3021 10.0749 35.5076 9.86774 35.7711C9.66056 36.0346 9.49398 36.351 9.37761 36.7021C9.26123 37.0531 9.19737 37.4319 9.1897 37.8165V68.4659C9.19737 68.8505 9.26123 69.2292 9.37761 69.5803C9.49398 69.9314 9.66056 70.2478 9.86774 70.5113C10.0749 70.7748 10.3186 70.9802 10.5847 71.1157C10.8509 71.2512 11.1342 71.314 11.4184 71.3006H23.7727L24.315 70.2954L25.0579 68.8881L25.8974 67.3501L26.0831 66.9982H26.1277C26.1797 66.8877 26.2392 66.7871 26.2986 66.6766L27.1826 64.9777L27.2346 64.8873C27.2792 64.7867 27.3609 64.6259 27.4724 64.4148L28.2153 62.8869L28.661 62.0023C28.7427 61.8414 28.8244 61.6906 28.8987 61.5298C29.2182 60.9066 29.5302 60.2733 29.8348 59.65L30.2434 58.8157L31.1423 56.9761L32.1006 54.9657C32.1972 54.7646 32.2863 54.5636 32.3829 54.3726L32.5092 54.0911L33.475 52.0204C33.5492 51.8595 33.6235 51.7087 33.6904 51.5479L33.9578 50.985V50.9146L34.0321 50.7437C34.775 49.1856 35.4511 47.6074 36.1494 46.0392C36.5951 45.034 37.0334 44.0288 37.4643 43.0236L37.6129 42.6918L37.6723 42.5511L38.3335 41.0433L38.8312 39.9174C38.8832 39.7968 38.9278 39.6762 38.9798 39.5656C39.2621 38.9222 39.537 38.2789 39.8044 37.6255C40.1759 36.761 40.5473 35.8865 40.8965 35.0119L11.4184 34.9818Z" fill="url(#paint0_linear_770_2040)"/>
<path d="M37.5164 53.5785C37.6924 53.4423 37.8405 53.2489 37.9472 53.0156C37.7912 53.2167 37.6426 53.3976 37.5164 53.5785Z" fill="url(#paint1_linear_770_2040)"/>
<path d="M45.2721 35.1828C45.1653 35.1354 45.056 35.0984 44.9453 35.0723H44.8487H44.7744H44.5515L44.1578 35.1225L43.3703 35.2231C43.1595 35.9581 42.8984 36.6648 42.5903 37.334L42.4268 37.6859C42.256 38.0377 42.0554 38.48 41.8102 39.0932C41.6765 39.445 41.5874 39.7164 41.5502 39.7968C40.9633 41.4655 39.5444 44.3103 38.4078 47.0646C37.6129 48.9947 37.7837 48.8539 37.1969 50.2009C37.1785 50.2193 37.1611 50.2395 37.1449 50.2612C36.8774 50.8577 36.6174 51.4106 36.3648 51.9199C35.9065 52.8605 35.4105 53.7666 34.879 54.634C34.2624 55.9106 33.6458 57.1772 33.0069 58.4337C32.368 59.6903 31.7589 60.9569 31.12 62.2134C30.7188 63.0075 30.3102 63.7916 29.9016 64.5757C29.493 65.3598 29.1587 66.0433 28.7427 66.7771C28.3267 67.5109 27.9998 68.1643 27.6284 68.858C27.2569 69.5516 26.7443 70.4563 26.2986 71.2604H44.5738C44.858 71.2739 45.1413 71.211 45.4074 71.0755C45.6736 70.9401 45.9173 70.7346 46.1245 70.4711C46.3316 70.2076 46.4982 69.8912 46.6146 69.5401C46.731 69.1891 46.7948 68.8103 46.8025 68.4257V37.8165C46.7851 37.2153 46.6277 36.637 46.3529 36.164C46.078 35.691 45.6998 35.3476 45.2721 35.1828ZM37.5163 53.5785L37.9323 53.0457C37.8861 53.1593 37.8257 53.2613 37.754 53.3473L37.6352 53.488L37.5089 53.5986L37.5163 53.5785Z" stroke="#1E9CD7" stroke-width="0.5" stroke-miterlimit="10"/>
<path d="M33.9058 53.689L33.7275 54.0508C33.7795 53.9302 33.8464 53.8096 33.9058 53.689Z" fill="#FAFBFC"/>
<path d="M37.5164 53.5785C37.6924 53.4423 37.8405 53.2489 37.9472 53.0156C37.7912 53.2167 37.6426 53.3976 37.5164 53.5785Z" stroke="#148CEF" stroke-miterlimit="10"/>
<path d="M27.3387 45.356H9.21948V45.8284H27.3387V45.356Z" fill="white"/>
<path d="M28.2599 46.5422C28.6661 46.5422 28.9953 46.1191 28.9953 45.5973C28.9953 45.0754 28.6661 44.6523 28.2599 44.6523C27.8537 44.6523 27.5244 45.0754 27.5244 45.5973C27.5244 46.1191 27.8537 46.5422 28.2599 46.5422Z" fill="white"/>
<path d="M28.2301 44.4112C28.0585 44.421 27.8928 44.4989 27.7536 44.6351C27.6144 44.7712 27.5079 44.9597 27.4472 45.1772C27.3865 45.3946 27.3743 45.6314 27.4122 45.858C27.4501 46.0847 27.5364 46.2913 27.6604 46.4522C27.7843 46.6131 27.9405 46.7212 28.1094 46.7631C28.2784 46.8049 28.4527 46.7787 28.6107 46.6876C28.7688 46.5965 28.9035 46.4447 28.9983 46.2508C29.0931 46.057 29.1437 45.8298 29.1439 45.5973C29.1361 45.2774 29.0362 44.9742 28.8655 44.7525C28.6947 44.5309 28.4667 44.4084 28.2301 44.4112ZM28.2301 46.301C28.1598 46.3037 28.0899 46.2876 28.0242 46.2537C27.9586 46.2198 27.8985 46.1687 27.8475 46.1033C27.7964 46.038 27.7554 45.9597 27.7267 45.8728C27.698 45.786 27.6823 45.6924 27.6804 45.5973C27.6804 45.4001 27.7383 45.2109 27.8414 45.0714C27.9445 44.9319 28.0843 44.8535 28.2301 44.8535C28.3759 44.8535 28.5157 44.9319 28.6188 45.0714C28.7219 45.2109 28.7798 45.4001 28.7798 45.5973C28.7779 45.6924 28.7622 45.786 28.7335 45.8728C28.7048 45.9597 28.6638 46.038 28.6127 46.1033C28.5617 46.1687 28.5016 46.2198 28.436 46.2537C28.3703 46.2876 28.3003 46.3037 28.2301 46.301Z" fill="white"/>
<path d="M15.9945 51.2565C16.4007 51.2565 16.73 50.8335 16.73 50.3116C16.73 49.7898 16.4007 49.3667 15.9945 49.3667C15.5883 49.3667 15.259 49.7898 15.259 50.3116C15.259 50.8335 15.5883 51.2565 15.9945 51.2565Z" fill="white"/>
<path d="M15.9946 49.1355C15.7928 49.1304 15.5955 49.2166 15.434 49.3805C15.2725 49.5444 15.156 49.7766 15.1031 50.0402C15.0958 50.1304 15.0958 50.2214 15.1031 50.3116C15.0994 50.3785 15.0994 50.4457 15.1031 50.5126C15.1418 50.7982 15.2541 51.056 15.4201 51.2401C15.586 51.4242 15.7949 51.5226 16.0095 51.5179C16.24 51.5179 16.4611 51.3939 16.6241 51.1734C16.7871 50.9528 16.8787 50.6537 16.8787 50.3417C16.8787 50.0298 16.7871 49.7307 16.6241 49.5101C16.4611 49.2895 16.24 49.1656 16.0095 49.1656L15.9946 49.1355ZM15.9946 51.0152C15.8932 51.0074 15.7958 50.9595 15.7142 50.8776C15.6327 50.7957 15.5707 50.6832 15.5359 50.5542C15.501 50.4251 15.4949 50.285 15.5182 50.1513C15.5415 50.0176 15.5932 49.896 15.667 49.8015C15.7407 49.7071 15.8333 49.644 15.9333 49.6199C16.0333 49.5959 16.1363 49.612 16.2296 49.6662C16.3229 49.7204 16.4024 49.8105 16.4584 49.9251C16.5143 50.0398 16.5442 50.1742 16.5443 50.3116C16.5424 50.4066 16.5267 50.5002 16.498 50.5871C16.4693 50.6739 16.4283 50.7522 16.3772 50.8176C16.3262 50.8829 16.2661 50.934 16.2005 50.9679C16.1348 51.0018 16.0649 51.0179 15.9946 51.0152Z" fill="white"/>
<path d="M22.5841 55.4987C22.9903 55.4987 23.3196 55.0757 23.3196 54.5538C23.3196 54.0319 22.9903 53.6089 22.5841 53.6089C22.1779 53.6089 21.8486 54.0319 21.8486 54.5538C21.8486 55.0757 22.1779 55.4987 22.5841 55.4987Z" fill="white"/>
<path d="M22.584 53.3776C22.3766 53.3705 22.1738 53.4608 22.01 53.633C21.8461 53.8052 21.7314 54.0488 21.6851 54.3225C21.6815 54.3995 21.6815 54.4767 21.6851 54.5537C21.6815 54.634 21.6815 54.7146 21.6851 54.795C21.7326 55.0677 21.8477 55.3103 22.0113 55.4822C22.1748 55.6541 22.377 55.745 22.584 55.7399C22.7054 55.755 22.8278 55.7358 22.9434 55.6833C23.059 55.6309 23.1652 55.5463 23.2553 55.4352C23.3454 55.324 23.4174 55.1887 23.4666 55.0378C23.5158 54.8868 23.5413 54.7237 23.5413 54.5587C23.5413 54.3938 23.5158 54.2306 23.4666 54.0797C23.4174 53.9288 23.3454 53.7934 23.2553 53.6823C23.1652 53.5711 23.059 53.4866 22.9434 53.4341C22.8278 53.3817 22.7054 53.3624 22.584 53.3776ZM22.584 55.2674C22.4723 55.2683 22.363 55.2237 22.2703 55.1394C22.1776 55.0552 22.1057 54.9352 22.064 54.795C22.0533 54.7152 22.0533 54.6335 22.064 54.5537C22.0528 54.4774 22.0528 54.3988 22.064 54.3225C22.1057 54.1823 22.1776 54.0623 22.2703 53.978C22.363 53.8938 22.4723 53.8492 22.584 53.85C22.6581 53.8381 22.7331 53.8475 22.8042 53.8777C22.8754 53.9078 22.941 53.958 22.9967 54.025C23.0524 54.092 23.0971 54.1742 23.1276 54.2662C23.1582 54.3581 23.174 54.4579 23.174 54.5587C23.174 54.6596 23.1582 54.7593 23.1276 54.8513C23.0971 54.9433 23.0524 55.0255 22.9967 55.0925C22.941 55.1594 22.8754 55.2096 22.8042 55.2398C22.7331 55.2699 22.6581 55.2794 22.584 55.2674Z" fill="white"/>
<path d="M17.6439 59.7507C18.0501 59.7507 18.3794 59.3276 18.3794 58.8058C18.3794 58.2839 18.0501 57.8608 17.6439 57.8608C17.2377 57.8608 16.9084 58.2839 16.9084 58.8058C16.9084 59.3276 17.2377 59.7507 17.6439 59.7507Z" fill="white"/>
<path d="M18.5131 58.4439C18.4487 58.202 18.3306 57.9929 18.175 57.8454C18.0194 57.6978 17.8339 57.619 17.6439 57.6196C17.4768 57.6341 17.3162 57.713 17.1812 57.8471C17.0463 57.9811 16.9425 58.1646 16.8821 58.376C16.8218 58.5873 16.8075 58.8176 16.8408 59.0396C16.8742 59.2617 16.9538 59.4661 17.0703 59.6288C17.1868 59.7915 17.3353 59.9057 17.4983 59.9578C17.6612 60.0099 17.8318 59.9977 17.9898 59.9228C18.1478 59.8478 18.2867 59.7132 18.3899 59.5349C18.4932 59.3565 18.5565 59.1419 18.5725 58.9164C18.5725 58.9164 18.5725 58.836 18.5725 58.8058C18.5694 58.6812 18.5493 58.5585 18.5131 58.4439ZM17.6439 59.5095C17.5515 59.5073 17.4612 59.4723 17.3819 59.4081C17.3027 59.3439 17.2373 59.2526 17.1923 59.1434C17.1473 59.0342 17.1243 58.911 17.1256 58.786C17.1269 58.661 17.1524 58.5387 17.1996 58.4312C17.2468 58.3238 17.314 58.235 17.3946 58.1737C17.4751 58.1125 17.5661 58.0809 17.6585 58.0822C17.7508 58.0835 17.8413 58.1176 17.9209 58.181C18.0005 58.2445 18.0663 58.3352 18.1119 58.4439C18.1623 58.5521 18.1881 58.6779 18.1862 58.8058C18.1895 58.8425 18.1895 58.8797 18.1862 58.9164C18.1631 59.0867 18.0958 59.2401 17.9963 59.3489C17.8968 59.4577 17.7717 59.5147 17.6439 59.5095Z" fill="white"/>
<path d="M28.9879 55.4987C29.3941 55.4987 29.7234 55.0757 29.7234 54.5538C29.7234 54.0319 29.3941 53.6089 28.9879 53.6089C28.5817 53.6089 28.2524 54.0319 28.2524 54.5538C28.2524 55.0757 28.5817 55.4987 28.9879 55.4987Z" fill="white"/>
<path d="M29.8869 54.2823C29.8319 54.0145 29.7118 53.7795 29.546 53.6154C29.3802 53.4512 29.1784 53.3674 28.9731 53.3776C28.8517 53.3624 28.7293 53.3817 28.6137 53.4341C28.4981 53.4866 28.3919 53.5711 28.3018 53.6823C28.2117 53.7934 28.1398 53.9288 28.0905 54.0797C28.0413 54.2306 28.0159 54.3938 28.0159 54.5587C28.0159 54.7237 28.0413 54.8868 28.0905 55.0378C28.1398 55.1887 28.2117 55.324 28.3018 55.4352C28.3919 55.5463 28.4981 55.6309 28.6137 55.6833C28.7293 55.7358 28.8517 55.755 28.9731 55.7399C29.1655 55.7434 29.3539 55.6647 29.5113 55.5149C29.6687 55.365 29.7871 55.1518 29.8497 54.9055C29.8615 54.7888 29.8615 54.6704 29.8497 54.5537C29.8668 54.4645 29.8792 54.3738 29.8869 54.2823ZM29.5377 54.5235C29.5405 54.6484 29.5145 54.7713 29.4634 54.8754C29.4264 55.0006 29.3646 55.1096 29.2848 55.1905C29.205 55.2713 29.1103 55.3208 29.011 55.3335C28.9118 55.3462 28.8119 55.3217 28.7223 55.2626C28.6326 55.2035 28.5568 55.1122 28.5031 54.9985C28.4493 54.8849 28.4198 54.7535 28.4177 54.6186C28.4155 54.4838 28.4409 54.3507 28.491 54.2341C28.5411 54.1175 28.614 54.0218 28.7017 53.9576C28.7894 53.8934 28.8884 53.8632 28.988 53.8701C29.0988 53.8685 29.2075 53.9116 29.3001 53.994C29.3928 54.0763 29.4651 54.1942 29.508 54.3326C29.5244 54.4044 29.5344 54.4786 29.5377 54.5537V54.5235Z" fill="white"/>
<path d="M38.8825 61.0252C39.1425 60.602 39.1125 59.9882 38.8155 59.6542C38.5186 59.3202 38.0671 59.3925 37.8071 59.8157C37.5472 60.239 37.5772 60.8528 37.8741 61.1868C38.1711 61.5208 38.6226 61.4484 38.8825 61.0252Z" fill="#148CEF"/>
<path d="M41.9321 65.2545C42.1918 64.8318 42.1619 64.2188 41.8653 63.8851C41.5687 63.5515 41.1178 63.6236 40.8581 64.0463C40.5985 64.4689 40.6284 65.082 40.9249 65.4156C41.2215 65.7492 41.6724 65.6771 41.9321 65.2545Z" fill="#148CEF"/>
<path d="M39.942 58.0189C40.1144 57.5212 39.9711 56.9382 39.6219 56.7167C39.2727 56.4952 38.8499 56.719 38.6775 57.2166C38.505 57.7143 38.6483 58.2973 38.9975 58.5188C39.3467 58.7403 39.7696 58.5165 39.942 58.0189Z" fill="#148CEF"/>
<path d="M33.0143 49.6081C33.4205 49.6081 33.7497 49.185 33.7497 48.6632C33.7497 48.1413 33.4205 47.7183 33.0143 47.7183C32.6081 47.7183 32.2788 48.1413 32.2788 48.6632C32.2788 49.185 32.6081 49.6081 33.0143 49.6081Z" fill="white"/>
<path d="M33.0145 47.4869C32.8087 47.4831 32.608 47.5733 32.4449 47.7429C32.2818 47.9126 32.1657 48.1518 32.1155 48.4218C32.1119 48.5021 32.1119 48.5827 32.1155 48.663C32.1115 48.74 32.1115 48.8173 32.1155 48.8943C32.1643 49.1661 32.2797 49.4076 32.443 49.5792C32.6063 49.7509 32.8077 49.8425 33.0145 49.8392C33.245 49.8392 33.4661 49.7153 33.6291 49.4947C33.7921 49.2741 33.8836 48.975 33.8836 48.663C33.8836 48.3511 33.7921 48.052 33.6291 47.8314C33.4661 47.6108 33.245 47.4869 33.0145 47.4869ZM33.0145 49.3667C32.9036 49.3683 32.795 49.3239 32.7033 49.2394C32.6117 49.1549 32.5413 49.0345 32.5019 48.8943C32.4906 48.8179 32.4906 48.7394 32.5019 48.663C32.4906 48.5834 32.4906 48.5015 32.5019 48.4218C32.5413 48.2816 32.6117 48.1611 32.7033 48.0766C32.795 47.9921 32.9036 47.9477 33.0145 47.9493C33.157 47.9466 33.2947 48.02 33.3975 48.1536C33.5004 48.2871 33.5603 48.4702 33.5642 48.663C33.5623 48.7581 33.5465 48.8517 33.5178 48.9385C33.4892 49.0254 33.4481 49.1037 33.3971 49.169C33.346 49.2344 33.286 49.2855 33.2203 49.3194C33.1547 49.3533 33.0847 49.3694 33.0145 49.3667Z" fill="white"/>
<path d="M41.6021 57.8607H39.6038V57.3883H41.4461L42.7091 54.5435L42.9468 54.8149L41.6021 57.8607Z" fill="#148CEF"/>
<path d="M23.7727 71.3008L22.9406 72.8187L22.5989 71.3008H23.7727Z" fill="url(#paint2_linear_770_2040)"/>
<path d="M24.6345 71.3007V71.361L24.5825 71.4514L24.5379 71.5319L23.3939 73.5423L23.2676 73.7735L23.2081 73.864L23.1116 73.4418C23.5177 72.718 23.9189 71.9943 24.3151 71.2705L24.6345 71.3007Z" fill="url(#paint3_linear_770_2040)"/>
<path d="M21.9377 75.4824C21.9172 75.53 21.8922 75.574 21.8634 75.613C21.0908 76.9533 20.3033 78.2936 19.501 79.6339L19.0404 80.408L18.9661 80.5286H19.2187C19.761 79.644 20.2959 78.7594 20.8234 77.8647C21.3508 76.9701 21.804 76.2162 22.3091 75.3818L21.9377 75.4824ZM21.2691 75.5929L10.5937 77.3119C10.5343 78.4176 10.4674 79.5133 10.408 80.609H18.3272H18.4461L18.5204 80.4984L18.981 79.7144C19.7585 78.3741 20.5287 77.0338 21.2914 75.6935C21.3202 75.6544 21.3451 75.6105 21.3657 75.5628L21.2691 75.5929Z" fill="url(#paint4_linear_770_2040)"/>
<path d="M23.7728 76.0756L23.9288 75.8243C23.869 75.8986 23.8166 75.9831 23.7728 76.0756ZM29.0697 75.5931V71.8838L28.9657 71.9441L28.2302 72.3763H28.141H28.0593L27.049 72.9795L24.8723 74.3868C24.8723 74.3868 24.4117 75.0704 23.9437 75.7941C24.0008 75.7281 24.0631 75.6708 24.1294 75.6232C24.3221 75.4857 24.5356 75.41 24.7534 75.4021V75.1206L27.4204 73.1102L27.8513 72.8589H27.9256L28.0222 72.7985L28.7651 72.3361L28.8988 72.2557V75.8243L39.5371 77.4025V80.4182L24.6049 80.4785H21.4698C22.0196 79.4732 22.599 78.468 23.2305 77.312C23.5128 76.7893 23.6317 76.3772 23.7877 76.0756C23.5054 76.5179 23.2379 76.9401 23.1042 77.1914L22.5619 78.1966C22.1087 79.041 21.6704 79.815 21.247 80.5488L21.1504 80.7197H24.6049L39.6931 80.6594V77.2014L29.0697 75.5931Z" fill="url(#paint5_linear_770_2040)" stroke="url(#paint6_linear_770_2040)" stroke-width="0.75" stroke-miterlimit="10"/>
<path d="M37.5164 53.5785C37.6924 53.4423 37.8405 53.2489 37.9472 53.0156C37.7912 53.2167 37.6426 53.3976 37.5164 53.5785Z" fill="#4C5B7F"/>
<path d="M31.6994 42.6717H37.702L37.494 43.0034H31.5508L28.2821 40.6813L28.1558 40.6009L28.3712 40.3496L28.8392 40.6813L31.6994 42.6717Z" fill="#FFFFFD"/>
<path d="M38.5785 42.5312C38.564 42.5735 38.5466 42.6139 38.5265 42.6519L38.3779 43.0037H38.0139L38.2219 42.5312H38.5785Z" fill="#FFFFFD"/>
<path d="M33.6903 51.4878C33.6235 51.6487 33.5492 51.8095 33.4749 51.9603H21.4994L18.6838 45.8284L18.6318 45.7178L18.9439 45.4766L19.1147 45.8284L21.7149 51.4878H33.6903Z" fill="#FFFFFD"/>
<path d="M34.5372 51.4878L34.4778 51.6084L34.3069 51.9602H33.9949C34.0692 51.8095 34.1435 51.6486 34.2103 51.4878H34.5372Z" fill="#FFFFFD"/>
<path d="M27.153 51.8598L26.8484 51.5984L28.5273 48.4219H32.6504V48.8943H28.7205L27.153 51.8598Z" fill="#FFFFFD"/>
<path d="M28.8987 61.4795L28.6609 61.952H12.3618V61.4795H28.8987Z" fill="white"/>
<path d="M29.6118 61.4795C29.5901 61.5145 29.5703 61.5514 29.5524 61.5901L29.3741 61.952H29.1809L29.4186 61.4795H29.6118Z" fill="white"/>
<path d="M30.6372 61.8115V61.9523H30.5703L30.6372 61.8115Z" fill="white"/>
<path d="M15.2592 50.04H9.21948V50.5125H15.2592V50.04Z" fill="white"/>
<path d="M46.743 54.4429H37.1967C37.191 54.5994 37.2061 54.756 37.2413 54.9053H46.743V54.4429Z" fill="#148CEF"/>
<path d="M32.383 54.2822L32.1007 54.8753H29.2183V54.2822H32.383Z" fill="white"/>
<path d="M33.1703 54.2824L33.0737 54.4734C33.0143 54.594 32.9623 54.7247 32.9028 54.8353H32.6428C32.732 54.6342 32.8285 54.4432 32.9251 54.2422L33.1703 54.2824Z" fill="white"/>
<path d="M29.1735 58.9162H17.7329V58.4437H28.9878L31.1273 54.5435L31.4245 54.8149L29.1735 58.9162Z" fill="white"/>
<path d="M22.2127 54.3223H9.21948V54.7947H22.2127V54.3223Z" fill="white"/>
<path d="M23.847 64.3346H27.4352L27.19 64.8071H26.6329H23.6613L21.4326 61.9422L21.3137 61.7914L21.5663 61.4697L21.9303 61.9422L23.847 64.3346Z" fill="white"/>
<path d="M28.126 64.3346L28.074 64.4352C28.0213 64.5464 27.9642 64.6538 27.9031 64.7568H27.71C27.762 64.6664 27.8437 64.4955 27.9477 64.2944L28.126 64.3346Z" fill="white"/>
<path d="M32.6428 64.8672L40.7032 64.9275H41.253V64.4651L40.7032 64.455L32.8731 64.4048L32.6428 64.8672Z" fill="#148CEF"/>
<path d="M46.7431 60.354H38.0513V60.8265H46.7431V60.354Z" fill="#148CEF"/>
<path d="M50.9627 7.83072C50.9392 8.76324 50.8747 9.69305 50.7695 10.6152C50.6065 12.172 50.3808 13.7157 50.0935 15.2392C50.0415 15.5006 49.9895 15.762 49.9524 16.0233V16.1037C49.7964 16.8979 49.6403 17.7021 49.4695 18.4861C49.2986 19.2702 49.1352 20.0442 48.9495 20.8082L48.786 21.5119C48.734 21.7029 48.6894 21.8938 48.6449 22.0748C48.4963 22.688 48.3403 23.3012 48.1843 23.9043C47.4414 26.6787 46.6985 29.423 45.7847 32.1371C45.4727 33.0954 45.1458 34.0504 44.8041 35.002C44.5069 35.8665 44.2024 36.731 43.8978 37.5955C43.5932 38.46 43.3183 39.2139 43.0211 40.0281L42.9766 40.1488L42.8057 40.6212C42.7314 40.8223 42.6571 41.0334 42.5754 41.2344C42.4937 41.4355 42.4417 41.6064 42.3674 41.7973C40.9856 45.4296 39.4924 49.0417 37.8877 52.6337L37.8506 52.7041C37.7986 52.8347 37.7392 52.9654 37.6797 53.0961L37.6129 53.2268C37.5534 53.3776 37.4866 53.5183 37.4197 53.659L36.6322 55.4081L36.4985 55.6996L36.3945 55.9308C35.7259 57.3683 35.0499 58.8158 34.3664 60.2433L34.3144 60.3538L34.1584 60.6755C34.1428 60.7138 34.1254 60.7507 34.1064 60.7861C34.0173 60.9871 33.9207 61.1781 33.8241 61.3691V61.4596L33.6532 61.8114C32.5017 64.1737 31.3205 66.536 30.1022 68.848C29.6862 69.6522 29.2627 70.4564 28.8318 71.2505L28.2301 72.3764C28.2127 72.4041 28.1978 72.4344 28.1855 72.4668L28.0592 72.6779L27.7918 73.1705L27.5912 73.5123C27.5021 73.6932 27.4055 73.8641 27.3089 74.035C26.7146 75.1005 26.1128 76.1661 25.4962 77.2216C24.8796 78.277 24.2185 79.413 23.5796 80.4684L23.4458 80.6896L22.6064 82.0366C20.6131 85.2265 18.4953 88.2699 16.262 91.154C15.0809 92.6632 13.8409 94.086 12.5476 95.4162C11.8864 96.0997 11.1881 96.7632 10.4452 97.4266C10.2 97.6277 9.96972 97.8187 9.70228 98.0097C9.13526 98.4547 8.54422 98.8411 7.93419 99.1657C7.43485 99.444 6.91758 99.6594 6.38897 99.809C6.00338 99.9283 5.61043 99.999 5.21519 100.02H5.08147C4.45074 99.9564 3.83514 99.7277 3.26881 99.3466C3.26881 99.3466 3.23166 99.3466 3.22423 99.3466C2.7609 99.0143 2.34566 98.5716 1.99846 98.0398C1.47605 97.2025 1.07302 96.2413 0.809822 95.2051C0.578211 94.265 0.406714 93.2998 0.297224 92.3201C-0.0668034 88.6534 -0.101725 84.9406 0.193219 81.2626C0.423517 77.9353 0.765248 74.608 1.23327 71.3108C1.23327 74.618 1.23327 77.9152 1.34471 81.1922C1.41157 82.9715 1.50814 84.7407 1.66415 86.4897C1.80623 88.2263 2.04211 89.9465 2.3699 91.6365C2.53937 92.4456 2.75547 93.2354 3.01622 93.9988C3.24597 94.705 3.56528 95.3514 3.9597 95.9087C4.12292 96.1085 4.30534 96.2776 4.50201 96.4113C4.65657 96.4892 4.81998 96.53 4.9849 96.532H5.2672C5.34625 96.5423 5.42586 96.5423 5.50492 96.532C5.79183 96.5213 6.07547 96.4465 6.34439 96.3108C6.57317 96.2112 6.79658 96.0903 7.013 95.9489L7.09472 95.8886C7.6911 95.4935 8.26257 95.0329 8.80338 94.5115L9.04853 94.2803C9.5537 93.7877 10.044 93.275 10.5343 92.7121C11.6517 91.4148 12.7203 90.0426 13.7362 88.6007C14.7614 87.1733 15.7495 85.6956 16.7078 84.1878C17.4606 83.0217 18.2035 81.8423 18.9365 80.6494L19.0033 80.5288L19.0776 80.4081L19.5382 79.6341C20.3405 78.2938 21.128 76.9535 21.9006 75.6132C21.9272 75.5715 21.952 75.5279 21.9749 75.4825C22.002 75.4414 22.0268 75.3978 22.0492 75.3518L22.1384 75.201C22.4652 74.6281 22.7847 74.0551 23.1041 73.4721C23.4236 72.889 23.9139 72.0245 24.3076 71.3008L24.8499 70.2955L25.5928 68.8882L26.7963 66.6265L27.6729 64.9276C27.693 64.9006 27.7105 64.8702 27.7249 64.8372C27.7769 64.7467 27.8586 64.5758 27.9627 64.3748L28.7501 62.8368L29.1959 61.9522L29.4336 61.4797C30.1765 59.9719 30.9194 58.464 31.6623 56.926C31.9891 56.2525 32.3086 55.579 32.628 54.9156C32.7172 54.7145 32.8138 54.5235 32.9103 54.3225L33.0366 54.041L34.0024 51.9702C34.0767 51.8195 34.151 51.6586 34.2178 51.4978L34.4853 50.9349C34.4828 50.9115 34.4828 50.8878 34.4853 50.8645L34.5596 50.6936C35.3025 49.1355 35.9785 47.5573 36.6694 45.9891C37.1226 44.9839 37.5609 43.9787 37.9917 42.9735L38.1998 42.501L38.8609 40.9932C39.3587 39.8573 39.849 38.7214 40.3467 37.5754C40.7182 36.7109 41.0896 35.8363 41.4388 34.9618C41.9737 33.6215 42.5011 32.298 43.0211 30.9912C44.2692 27.7945 45.4876 24.5778 46.5648 21.3309L46.7282 20.8283C47.2854 19.1094 47.8054 17.3804 48.2586 15.6413C48.3997 15.0684 48.5409 14.4954 48.6672 13.9123C48.9197 12.7664 49.1426 11.6204 49.306 10.4745C49.5722 8.79013 49.6299 7.05772 49.4769 5.34781C49.4293 4.95508 49.3496 4.57073 49.2392 4.20185C49.15 3.83758 49.0142 3.49733 48.838 3.19662C48.7209 2.99115 48.5834 2.80849 48.4294 2.6538C48.3101 2.53522 48.1804 2.43729 48.0431 2.36228C47.8544 2.24641 47.6542 2.16852 47.4488 2.13108C47.1397 2.06057 46.8257 2.03697 46.5128 2.06072C45.952 2.038 45.3912 2.10208 44.8412 2.25171C44.0861 2.47043 43.3418 2.75244 42.6126 3.0961C41.8697 3.45798 41.1268 3.86007 40.3839 4.29232C39.641 4.72457 38.8981 5.17692 38.1552 5.65943C36.7065 6.66466 35.2653 7.66988 33.8687 8.67511C32.472 9.68034 31.0605 10.8565 29.7159 11.9723C28.3712 13.0881 26.9523 14.2139 25.5854 15.3599L21.6778 18.6369C21.6844 18.5818 21.7055 18.5318 21.7372 18.4962C24.1962 15.8524 26.7294 13.269 29.3816 10.8263C32.0569 8.32131 34.8375 6.02887 37.7094 3.9606C39.224 2.88381 40.793 1.95333 42.4045 1.17612C43.2646 0.782042 44.1432 0.466364 45.0344 0.231202C45.51 0.106718 45.9917 0.0294451 46.4756 0L46.7059 0C46.9213 0 47.1294 0 47.3374 0.0904705H47.4785C48.002 0.202921 48.5056 0.444861 48.9643 0.804182C49.3346 1.12532 49.6592 1.53391 49.9226 2.01045L49.9821 2.11098C50.2124 2.54039 50.3928 3.01499 50.517 3.5183C50.6595 4.00562 50.7665 4.51064 50.8364 5.02614C50.9498 5.95261 50.9922 6.89247 50.9627 7.83072Z" fill="#A8C441"/>
<path d="M51.4827 7.83072C51.4494 8.76405 51.375 9.69386 51.2599 10.6152C51.0968 12.172 50.8712 13.7157 50.5838 15.2392C50.5318 15.5006 50.4798 15.762 50.4427 16.0233C50.4407 16.0501 50.4407 16.077 50.4427 16.1037C50.2867 16.8979 50.1307 17.702 49.9598 18.4861C49.7889 19.2702 49.6255 20.0442 49.4398 20.8082L49.2763 21.5119C49.2243 21.7029 49.1798 21.8938 49.1352 22.0748C48.9866 22.688 48.8306 23.3012 48.6672 23.9043C47.9589 26.6787 47.164 29.433 46.2825 32.1673C45.9556 33.1725 45.6139 34.1777 45.2721 35.1829C44.9898 36.0072 44.7075 36.8215 44.4178 37.6357C44.1281 38.4499 43.8309 39.2039 43.5412 40.0281L43.4966 40.1488L43.3257 40.6212C43.2514 40.8223 43.1772 41.0334 43.0954 41.2344C43.0137 41.4355 42.9617 41.6064 42.8874 41.7973C41.5056 45.4564 40.0198 49.0685 38.4301 52.6337V52.7041C38.378 52.8347 38.3186 52.9654 38.2592 53.0961L38.1923 53.2268C38.1329 53.3776 38.066 53.5183 37.9992 53.659L37.6574 54.433L37.442 54.8955C37.3603 55.0663 37.286 55.2372 37.2117 55.4081L37.078 55.6996C37.0408 55.7801 37.0037 55.8504 36.974 55.9308C36.3054 57.3683 35.6293 58.8158 34.9459 60.2433L34.8939 60.3538L34.7379 60.6755C34.7222 60.7138 34.7049 60.7507 34.6859 60.7861L34.4036 61.3691V61.4596L34.1733 61.8215C33.7572 62.6759 33.3338 63.5303 32.9029 64.3948C32.8286 64.5456 32.7543 64.7065 32.6726 64.8572C31.9991 66.1976 31.3156 67.5379 30.6222 68.8782C30.2062 69.6823 29.7827 70.4865 29.3519 71.2807C29.2404 71.4918 29.129 71.7129 29.0101 71.924L28.8244 72.2758L28.7724 72.3663L28.7204 72.4769L28.5941 72.688L28.3044 73.2308L28.1038 73.5726L27.8215 74.0953C27.2272 75.1608 26.6254 76.2264 26.0088 77.2819C25.3922 78.3373 24.7385 79.4129 24.0996 80.4684L23.9659 80.6795L23.1264 82.0366C21.1332 85.2265 19.0154 88.2699 16.7821 91.154C15.6009 92.6632 14.361 94.086 13.0676 95.4162C12.4064 96.0997 11.7081 96.7632 10.9652 97.4266C10.72 97.6277 10.4898 97.8186 10.2223 98.0096C9.65529 98.4546 9.06424 98.8411 8.45422 99.1657C7.95487 99.444 7.4376 99.6594 6.909 99.809C6.3536 99.9789 5.78418 100.05 5.21519 100.02H5.08147C4.45074 99.9564 3.83514 99.7277 3.26881 99.3466C3.26881 99.3466 3.23166 99.3466 3.22423 99.3466C2.7609 99.0143 2.34566 98.5716 1.99846 98.0398C1.47605 97.2025 1.07302 96.2413 0.809822 95.2051C0.578211 94.265 0.406714 93.2998 0.297224 92.3201C-0.0668034 88.6534 -0.101725 84.9406 0.193219 81.2626C0.423517 77.9353 0.765248 74.608 1.23327 71.3108C1.27785 71.0193 1.31499 70.7177 1.35956 70.4262C1.37343 70.3606 1.40442 70.3041 1.44679 70.2671C1.48915 70.2301 1.53999 70.2152 1.58986 70.2252C1.68644 70.2252 1.7533 70.3257 1.7533 70.4262C1.7533 74.035 1.7533 77.6337 1.86473 81.1922C1.93159 82.9714 2.02817 84.7406 2.18418 86.4897C2.33846 88.2276 2.58676 89.9478 2.92707 91.6365C3.09654 92.4456 3.31264 93.2354 3.57339 93.9988C3.78136 94.7169 4.08055 95.3803 4.45744 95.959C4.62066 96.1588 4.80308 96.3279 4.99975 96.4616C5.07973 96.4998 5.16167 96.53 5.24491 96.5521C5.32397 96.5624 5.40358 96.5624 5.48264 96.5521C5.76955 96.5414 6.05319 96.4666 6.32211 96.3309C6.55089 96.2313 6.77429 96.1104 6.99071 95.969L7.07243 95.9087C7.66882 95.5136 8.24028 95.053 8.78109 94.5316L9.02625 94.3004C9.53142 93.8078 10.0217 93.2951 10.512 92.7322C11.6294 91.4349 12.698 90.0627 13.7139 88.6208C14.7391 87.1934 15.7272 85.7157 16.6855 84.2079C17.4383 83.0418 18.1812 81.8623 18.9142 80.6695L18.981 80.5488L19.0553 80.4282L19.5159 79.6542C20.3183 78.3139 21.1057 76.9736 21.8783 75.6333C21.9049 75.5916 21.9297 75.548 21.9526 75.5026C21.9797 75.4615 22.0045 75.4179 22.0269 75.3719L22.1161 75.2211C22.4429 74.6482 22.7624 74.0752 23.0818 73.4922C23.4013 72.9091 23.8916 72.0446 24.2853 71.3209L24.8276 70.3156L25.5705 68.9083L26.774 66.6466L27.6506 64.9477C27.6707 64.9207 27.6882 64.8903 27.7026 64.8572C27.7546 64.7668 27.8364 64.5959 27.9404 64.3948L28.7278 62.8568L29.1736 61.9723L29.4113 61.4998C30.1542 59.992 30.8971 58.4841 31.64 56.9461C31.9669 56.2726 32.2863 55.5991 32.6058 54.9357C32.6949 54.7346 32.7915 54.5436 32.8881 54.3426L33.0143 54.0611L33.9801 51.9903C34.0544 51.8396 34.1287 51.6787 34.1955 51.5179L34.463 50.955C34.4606 50.9316 34.4606 50.9079 34.463 50.8846L34.5373 50.7137C35.2802 49.1556 35.9562 47.5774 36.6471 46.0092C37.1003 45.004 37.5386 43.9988 37.9695 42.9936L38.1775 42.5211L38.8386 41.0133C39.3364 39.8774 39.8267 38.7415 40.3244 37.5955C40.6959 36.731 41.0673 35.8564 41.4165 34.9819C41.9514 33.6416 42.4788 32.3181 42.9989 31.0113C44.2469 27.8146 45.4653 24.5979 46.5425 21.351L46.7059 20.8484C47.2631 19.1295 47.7831 17.4005 48.2363 15.6614C48.3774 15.0885 48.5186 14.5155 48.6449 13.9324C48.8975 12.7865 49.1203 11.6405 49.2838 10.4946C49.5499 8.81023 49.6076 7.07782 49.4546 5.36791C49.407 4.97518 49.3273 4.59083 49.2169 4.22195C49.1277 3.85768 48.9919 3.51744 48.8157 3.21673C48.6986 3.01125 48.5611 2.82859 48.4071 2.6739C48.2879 2.55532 48.1581 2.45739 48.0208 2.38239C47.8321 2.26651 47.6319 2.18862 47.4265 2.15119C47.1174 2.08067 46.8034 2.05707 46.4905 2.08082C46.1044 2.11655 45.72 2.1803 45.339 2.27181C44.5839 2.49054 43.8395 2.77254 43.1103 3.1162C42.3674 3.47809 41.6245 3.88018 40.8816 4.31242C40.1387 4.74467 39.3958 5.19702 38.6529 5.67953C37.1671 6.68476 35.7631 7.68999 34.359 8.69521C32.9549 9.70044 31.5508 10.8464 30.1691 11.9622C28.7873 13.078 27.4055 14.2039 26.0386 15.3498L21.9229 18.7977C21.8827 18.8363 21.8347 18.857 21.7855 18.857C21.7362 18.857 21.6882 18.8363 21.648 18.7977C21.6339 18.7801 21.6231 18.7581 21.6167 18.7336C21.6102 18.7091 21.6082 18.6828 21.6109 18.657C21.6175 18.6019 21.6386 18.552 21.6703 18.5163C24.1293 15.8725 26.6626 13.2891 29.3147 10.8464C32.0113 8.33152 34.8143 6.03232 37.7094 3.96059C39.224 2.88381 40.793 1.95333 42.4045 1.17612C43.2646 0.782042 44.1432 0.466364 45.0344 0.231202C45.51 0.106718 45.9917 0.029445 46.4756 0L47.2185 0C47.4339 0 47.642 0 47.85 0.0904704H47.9911C48.5146 0.202921 49.0182 0.444861 49.4769 0.804182C49.8499 1.12436 50.177 1.533 50.4427 2.01045L50.5021 2.11098C50.7415 2.54632 50.9318 3.02738 51.0667 3.5384C51.1982 4.02064 51.2952 4.51883 51.3564 5.02614C51.4699 5.95261 51.5122 6.89247 51.4827 7.83072Z" fill="#144682"/>
<path d="M12.5774 66.9582H26.0461L25.8604 67.3101H12.3174V39.5356H39.0096C38.9576 39.6462 38.913 39.7668 38.861 39.8875H12.5774V66.9582Z" stroke="white" stroke-width="0.25" stroke-miterlimit="10"/>
</g>
<defs>
<linearGradient id="paint0_linear_770_2040" x1="-83.6797" y1="53.1462" x2="-83.5459" y2="53.1462" gradientUnits="userSpaceOnUse">
<stop stop-color="#CCE0F4"/>
<stop offset="0.06" stop-color="#C4D7ED"/>
<stop offset="0.15" stop-color="#AEBDDB"/>
<stop offset="0.27" stop-color="#8A94BE"/>
<stop offset="0.41" stop-color="#585A95"/>
<stop offset="0.57" stop-color="#1B1464"/>
<stop offset="0.87" stop-color="#0075BE"/>
<stop offset="0.99" stop-color="#005B97"/>
</linearGradient>
<linearGradient id="paint1_linear_770_2040" x1="37.5164" y1="53.2971" x2="37.9472" y2="53.2971" gradientUnits="userSpaceOnUse">
<stop stop-color="#CCE0F4"/>
<stop offset="0.05" stop-color="#C3DCF2"/>
<stop offset="0.14" stop-color="#A9D2EE"/>
<stop offset="0.26" stop-color="#80C2E7"/>
<stop offset="0.39" stop-color="#47ACDE"/>
<stop offset="0.47" stop-color="#1E9CD7"/>
<stop offset="0.77" stop-color="#0075BE"/>
<stop offset="0.92" stop-color="#005B97"/>
</linearGradient>
<linearGradient id="paint2_linear_770_2040" x1="22.5766" y1="72.0547" x2="23.7504" y2="72.0547" gradientUnits="userSpaceOnUse">
<stop stop-color="#CCE0F4"/>
<stop offset="0.05" stop-color="#C3DCF2"/>
<stop offset="0.14" stop-color="#A9D2EE"/>
<stop offset="0.26" stop-color="#80C2E7"/>
<stop offset="0.39" stop-color="#47ACDE"/>
<stop offset="0.47" stop-color="#1E9CD7"/>
<stop offset="0.77" stop-color="#0075BE"/>
<stop offset="0.92" stop-color="#005B97"/>
</linearGradient>
<linearGradient id="paint3_linear_770_2040" x1="23.067" y1="72.5974" x2="24.6345" y2="72.5974" gradientUnits="userSpaceOnUse">
<stop stop-color="#CCE0F4"/>
<stop offset="0.05" stop-color="#C3DCF2"/>
<stop offset="0.14" stop-color="#A9D2EE"/>
<stop offset="0.26" stop-color="#80C2E7"/>
<stop offset="0.39" stop-color="#47ACDE"/>
<stop offset="0.47" stop-color="#1E9CD7"/>
<stop offset="0.77" stop-color="#0075BE"/>
<stop offset="0.92" stop-color="#005B97"/>
</linearGradient>
<linearGradient id="paint4_linear_770_2040" x1="-83.6798" y1="78.0155" x2="-83.546" y2="78.0155" gradientUnits="userSpaceOnUse">
<stop stop-color="#CCE0F4"/>
<stop offset="0.06" stop-color="#C4D7ED"/>
<stop offset="0.15" stop-color="#AEBDDB"/>
<stop offset="0.27" stop-color="#8A94BE"/>
<stop offset="0.41" stop-color="#585A95"/>
<stop offset="0.57" stop-color="#1B1464"/>
<stop offset="0.87" stop-color="#0075BE"/>
<stop offset="0.99" stop-color="#005B97"/>
</linearGradient>
<linearGradient id="paint5_linear_770_2040" x1="21.1504" y1="76.2867" x2="39.6931" y2="76.2867" gradientUnits="userSpaceOnUse">
<stop stop-color="#CCE0F4"/>
<stop offset="0.05" stop-color="#C3DCF2"/>
<stop offset="0.14" stop-color="#A9D2EE"/>
<stop offset="0.26" stop-color="#80C2E7"/>
<stop offset="0.39" stop-color="#47ACDE"/>
<stop offset="0.47" stop-color="#1E9CD7"/>
<stop offset="0.77" stop-color="#0075BE"/>
<stop offset="0.92" stop-color="#005B97"/>
</linearGradient>
<linearGradient id="paint6_linear_770_2040" x1="20.5858" y1="76.1862" x2="39.9679" y2="76.1862" gradientUnits="userSpaceOnUse">
<stop stop-color="#CCE0F4"/>
<stop offset="0.05" stop-color="#C3DCF2"/>
<stop offset="0.14" stop-color="#A9D2EE"/>
<stop offset="0.26" stop-color="#80C2E7"/>
<stop offset="0.39" stop-color="#47ACDE"/>
<stop offset="0.47" stop-color="#1E9CD7"/>
<stop offset="0.77" stop-color="#0075BE"/>
<stop offset="0.92" stop-color="#005B97"/>
</linearGradient>
<clipPath id="clip0_770_2040">
<rect width="166" height="100" fill="white"/>
</clipPath>
</defs>
</svg>
