<svg width="155" height="74" viewBox="0 0 155 74" fill="none" xmlns="http://www.w3.org/2000/svg">
<g clip-path="url(#clip0_770_1888)">
<path d="M29.1826 49.8391H40.6004V44.6097V44.2601V41.3442V40.7416V40.1986V39.8415V30.4837V29.4497" stroke="#1393EA" stroke-width="0.5" stroke-miterlimit="10"/>
<path d="M67.2233 32.0234C65.621 34.9989 63.8937 36.5908 60.7514 36.5908C55.9859 36.5908 52.5523 32.9979 52.5523 27.6123C52.5523 23.3573 55.3269 19.333 60.4878 19.333C63.7966 19.333 65.8221 20.5827 66.6545 23.7516L67.5702 23.5508C67.3829 21.9291 67.1678 20.7017 66.9181 19.0875C65.0681 18.6156 63.179 18.3415 61.2786 18.2693C54.2379 18.2693 49.188 22.2118 49.188 28.2222C49.188 32.7375 52.6563 37.714 60.5086 37.714C62.4688 37.6391 64.4177 37.3626 66.3285 36.8883C67.0417 35.4398 67.6337 33.9263 68.0974 32.3656L67.2233 32.0234Z" fill="#144682"/>
<path d="M81.0412 18.262C74.4513 18.262 70.4072 22.9855 70.4072 28.1628C70.4072 33.66 74.9507 37.7067 80.6596 37.7067C86.3685 37.7067 91.2311 33.8981 91.2311 27.7314C91.2103 22.0111 86.3755 18.262 81.0412 18.262ZM81.3047 36.6281C76.9485 36.6281 73.716 32.6707 73.716 27.419C73.716 22.0111 76.9624 19.3331 80.3752 19.3331C84.3708 19.3331 87.8183 22.502 87.8183 28.4901C87.8391 34.0171 84.7176 36.6281 81.3047 36.6281Z" fill="#144682"/>
<path d="M109.599 35.4007C108.708 34.4814 107.886 33.4864 107.144 32.4252C106.228 31.116 105 29.2415 104.466 28.3042C106.637 27.4264 108.302 25.9461 108.302 23.4616C108.322 22.7035 108.145 21.9544 107.791 21.2977C107.437 20.6411 106.92 20.1026 106.298 19.7423C105.139 18.9984 103.655 18.7529 101.359 18.7529H93.5896V19.6158C95.9411 19.7646 96.2117 19.9208 96.2117 22.3607V33.6229C96.2117 36.0255 95.9273 36.2413 93.4717 36.4347V37.2529H101.685V36.4496C99.2569 36.2561 98.9655 36.0404 98.9655 33.6377V29.1745H99.8187C101.379 29.1745 101.9 29.5241 102.462 30.3424C103.37 31.7111 104.362 33.4518 105.403 34.8056C106.79 36.6802 108.06 37.305 110.515 37.424C110.876 37.424 111.209 37.4761 111.59 37.4761L111.729 36.6802C110.911 36.5047 110.166 36.057 109.599 35.4007ZM103.634 27.3967C102.864 27.9843 101.851 28.2149 100.325 28.2149H98.9378V21.1928C98.9378 20.4489 99.0626 20.1142 99.2638 19.958C99.7748 19.722 100.333 19.6273 100.887 19.6828C103.141 19.6828 105.236 20.8209 105.236 23.8856C105.28 24.5733 105.151 25.261 104.865 25.8781C104.579 26.4951 104.144 27.0193 103.606 27.3967H103.634Z" fill="#144682"/>
<path d="M127.371 32.5144C126.999 33.516 126.476 34.4457 125.825 35.2668C125.131 36.0106 124.222 36.204 122.016 36.204C120.629 36.204 119.498 36.204 118.909 35.8693C118.319 35.5345 118.173 34.8725 118.173 33.5261V28.267H120.948C123.612 28.267 123.827 28.4232 124.257 30.4986H125.172V24.9196H124.257C123.875 26.8462 123.674 27.0842 120.948 27.0842H118.173V20.6795C118.173 19.8241 118.236 19.7497 119.235 19.7497H121.482C123.563 19.7497 124.409 19.9431 124.853 20.5679C125.322 21.3284 125.66 22.1722 125.852 23.0599L126.782 22.9409C126.664 21.3415 126.539 19.4447 126.497 18.7083H112.735V19.5711C115.094 19.7645 115.357 19.8389 115.357 22.4573V33.6154C115.357 35.9586 115.094 36.2338 112.354 36.4272V37.2454H127.253C127.51 36.3305 128.1 33.6972 128.301 32.626L127.371 32.5144Z" fill="#144682"/>
<path d="M55.9579 48.1209C55.8975 47.6975 55.7558 47.2922 55.5417 46.9307C55.3406 46.6331 55.1255 46.5364 54.203 46.5364H53.3706V52.7477C53.3706 53.7594 53.4746 53.9081 54.633 53.99V54.3545H51.0329V53.99C52.1428 53.9081 52.2468 53.7743 52.2468 52.7477V46.5364H51.5531C50.4988 46.5364 50.249 46.6554 50.0826 46.9307C49.8858 47.3004 49.7475 47.7026 49.6733 48.1209H49.3057C49.3612 47.2952 49.4166 46.4472 49.4444 45.7405H49.7011C49.8814 46.0678 50.034 46.0678 50.3947 46.0678H55.3198C55.4426 46.0783 55.5658 46.0535 55.6768 45.996C55.7877 45.9384 55.8824 45.8502 55.951 45.7405H56.1868C56.1868 46.3281 56.2493 47.31 56.3048 48.0762L55.9579 48.1209Z" fill="#144682"/>
<path d="M60.2379 53.2238C60.005 53.5831 59.7019 53.8837 59.3497 54.1046C58.9975 54.3256 58.6047 54.4616 58.1985 54.5033C57.8749 54.5029 57.5548 54.4316 57.2579 54.2936C56.9609 54.1557 56.6934 53.954 56.4719 53.7011C56.2503 53.4482 56.0794 53.1493 55.9695 52.8229C55.8596 52.4965 55.8132 52.1494 55.8331 51.803C55.8234 50.9969 56.1013 50.2172 56.61 49.6235C56.8337 49.3346 57.1105 49.0983 57.4232 48.9293C57.7359 48.7604 58.0778 48.6624 58.4274 48.6416C58.9106 48.647 59.3733 48.8517 59.7194 49.2132C60.0656 49.5747 60.2686 50.0653 60.2864 50.5831C60.2864 50.8286 60.224 50.9402 60.002 50.9922C59.7801 51.0443 58.2679 51.1782 56.8805 51.2303C56.8805 52.8817 57.8031 53.5586 58.6355 53.5586C59.1582 53.5482 59.6563 53.3185 60.0228 52.9188L60.2379 53.2238ZM58.1569 49.1251C57.6366 49.1251 57.1164 49.6235 56.943 50.6872C57.5881 50.6872 58.2332 50.6872 58.906 50.6872C59.1141 50.6872 59.1904 50.6129 59.1904 50.4418C59.2118 50.2788 59.2013 50.1128 59.1595 49.9544C59.1176 49.7961 59.0454 49.6488 58.9475 49.5221C58.8496 49.3954 58.728 49.292 58.5907 49.2185C58.4534 49.145 58.3033 49.1031 58.1499 49.0954L58.1569 49.1251Z" fill="#144682"/>
<path d="M65.6486 53.1791C65.4095 53.5458 65.1001 53.8536 64.7413 54.0819C64.3824 54.3102 63.9823 54.4539 63.5676 54.5032C63.2392 54.5134 62.9122 54.4518 62.6067 54.3221C62.3012 54.1925 62.0235 53.9975 61.7905 53.749C61.5575 53.5006 61.3741 53.2039 61.2515 52.877C61.1289 52.5501 61.0697 52.1998 61.0773 51.8476C61.0763 51.3583 61.1877 50.8762 61.4019 50.4441C61.6161 50.0121 61.9263 49.6433 62.3051 49.3705C62.8425 48.9255 63.4932 48.6661 64.1711 48.6266C64.5593 48.6093 64.942 48.7296 65.2601 48.9688C65.3209 49.0116 65.3707 49.0701 65.4046 49.1391C65.4386 49.208 65.4557 49.2851 65.4544 49.3631C65.4492 49.4951 65.4056 49.622 65.3297 49.7261C65.2538 49.8301 65.1494 49.9061 65.0312 49.9433C64.9619 49.9433 64.8994 49.9433 64.7954 49.7945C64.4625 49.4528 64.0214 49.2588 63.5606 49.2515C62.8115 49.2515 62.1317 49.8912 62.1317 51.2451C62.0714 51.6778 62.1435 52.1199 62.3372 52.505C62.531 52.8901 62.836 53.1974 63.2064 53.381C63.5768 53.5645 63.9927 53.6143 64.3918 53.5229C64.7908 53.4315 65.1515 53.2039 65.4197 52.8741L65.6486 53.1791Z" fill="#144682"/>
<path d="M69.4013 54.3544V54.0122C70.095 53.9378 70.1852 53.8485 70.1852 53.0228V50.9549C70.1852 49.8986 69.7759 49.4002 69.0268 49.4002C68.7941 49.4083 68.5654 49.468 68.3553 49.5755C68.1452 49.6831 67.9581 49.8361 67.8059 50.0251V53.0005C67.8059 53.8113 67.8822 53.9155 68.5759 53.9899V54.3321H65.9399V53.9899C66.6336 53.9155 66.7654 53.8337 66.7654 53.0005V46.9603C66.7654 46.1569 66.7654 46.1198 65.9608 46.0379V45.7329C66.585 45.6321 67.2017 45.4829 67.8059 45.2866V49.5713C68.2566 49.0417 68.8746 48.7103 69.5401 48.6415C70.532 48.6415 71.2326 49.2886 71.2326 50.8731V53.0452C71.2326 53.9006 71.3228 53.9601 72.0095 54.0345V54.3767L69.4013 54.3544Z" fill="#144682"/>
<path d="M76.0813 54.3543V54.0122C76.775 53.9378 76.8582 53.8336 76.8582 52.9335V50.8582C76.8582 49.973 76.5253 49.4374 75.7831 49.4374C75.3071 49.4895 74.8608 49.7092 74.5136 50.0622V53.0377C74.5136 53.908 74.583 53.9601 75.2767 54.0345V54.3766H72.5991V54.0345C73.4038 53.9303 73.4662 53.8708 73.4662 53.0154V50.4342C73.4662 49.601 73.383 49.5489 72.7725 49.4299V49.0952C73.3751 48.9949 73.9658 48.8253 74.5344 48.5894V49.6159C74.7772 49.4225 75.0408 49.2216 75.346 49.0059C75.6361 48.7751 75.984 48.6429 76.3449 48.6266C77.3091 48.6266 77.9195 49.3704 77.9195 50.6201V53.0005C77.9195 53.8708 77.9889 53.9006 78.6895 53.9973V54.3395L76.0813 54.3543Z" fill="#144682"/>
<path d="M82.0748 48.6416C82.4251 48.6347 82.7731 48.7027 83.0985 48.8416C83.4239 48.9806 83.7203 49.1877 83.9702 49.4509C84.2201 49.714 84.4187 50.028 84.5542 50.3744C84.6896 50.7208 84.7594 51.0927 84.7593 51.4683C84.7782 51.8596 84.7225 52.251 84.5957 52.6185C84.4689 52.9861 84.2736 53.322 84.0218 53.606C83.77 53.89 83.4669 54.116 83.131 54.2703C82.795 54.4245 82.4333 54.5038 82.0679 54.5033C81.7121 54.5255 81.3558 54.4698 81.0208 54.3394C80.6858 54.209 80.3791 54.0068 80.1194 53.745C79.8597 53.4832 79.6525 53.1674 79.5105 52.8169C79.3684 52.4664 79.2945 52.0885 79.2932 51.7063C79.2821 51.3081 79.3456 50.9116 79.4801 50.5402C79.6145 50.1689 79.8171 49.8302 80.0759 49.5444C80.3347 49.2586 80.6443 49.0314 80.9865 48.8763C81.3287 48.7212 81.6964 48.6414 82.0679 48.6416H82.0748ZM81.9222 49.073C81.2286 49.073 80.5696 49.8169 80.5696 51.3046C80.5696 52.9188 81.2216 54.0941 82.1997 54.0941C82.8934 54.0941 83.5246 53.5883 83.5246 51.803C83.5246 50.3153 82.9558 49.1102 81.9361 49.1102L81.9222 49.073Z" fill="#144682"/>
<path d="M85.3213 54.3544V54.0122C86.0774 53.9155 86.1814 53.8486 86.1814 52.9931V47.0422C86.1814 46.1793 86.0982 46.157 85.356 46.0752V45.7627C85.9885 45.6701 86.6127 45.5208 87.2219 45.3164V52.9931C87.2219 53.856 87.326 53.9378 88.1168 54.0122V54.3544H85.3213Z" fill="#144682"/>
<path d="M91.4044 48.6416C91.7547 48.6347 92.1026 48.7027 92.4281 48.8416C92.7535 48.9806 93.0498 49.1877 93.2998 49.4509C93.5497 49.714 93.7482 50.028 93.8837 50.3744C94.0192 50.7208 94.089 51.0927 94.0889 51.4683C94.1078 51.8596 94.0521 52.251 93.9253 52.6185C93.7985 52.9861 93.6032 53.322 93.3514 53.606C93.0996 53.89 92.7965 54.116 92.4605 54.2703C92.1246 54.4245 91.7629 54.5038 91.3975 54.5033C91.0448 54.5193 90.6927 54.4589 90.3622 54.3258C90.0317 54.1927 89.7295 53.9896 89.4738 53.7286C89.2181 53.4675 89.014 53.1539 88.8738 52.8065C88.7335 52.4591 88.66 52.0849 88.6575 51.7063C88.6464 51.3113 88.7088 50.9178 88.8411 50.5488C88.9734 50.1799 89.173 49.843 89.428 49.5577C89.6831 49.2723 89.9887 49.0444 90.3268 48.8871C90.665 48.7298 91.0289 48.6464 91.3975 48.6416H91.4044ZM91.2518 49.073C90.5582 49.073 89.9061 49.8169 89.9061 51.3046C89.9061 52.9188 90.5512 54.0941 91.5293 54.0941C92.223 54.0941 92.8542 53.5883 92.8542 51.803C92.8542 50.3153 92.2854 49.1102 91.2657 49.1102L91.2518 49.073Z" fill="#144682"/>
<path d="M100.277 48.8945C100.151 49.1604 99.9617 49.3861 99.7288 49.5491H99.0351C99.2624 49.8693 99.3822 50.2625 99.375 50.6649C99.3649 50.9535 99.2999 51.2368 99.184 51.4974C99.0682 51.7581 98.9039 51.9906 98.7013 52.1808C98.4986 52.3709 98.2619 52.5147 98.0056 52.6032C97.7493 52.6918 97.4788 52.7232 97.2107 52.6957C96.9991 52.6896 96.7881 52.6672 96.5795 52.6287C96.4996 52.6823 96.4307 52.7528 96.377 52.836C96.3233 52.9191 96.286 53.0131 96.2674 53.1122C96.2674 53.3577 96.4893 53.6106 97.0373 53.6106C97.4605 53.6106 97.8697 53.6106 98.2859 53.6106C99.0212 53.6106 100.048 53.8561 100.048 55.1355C100.048 56.415 98.605 57.7019 96.9888 57.7019C95.6014 57.7019 94.9078 56.8613 94.8661 56.1398C94.862 55.9985 94.888 55.8581 94.9421 55.7292C94.9962 55.6003 95.077 55.4863 95.1783 55.3959C95.4488 55.1207 95.872 54.7934 96.1564 54.5479C95.7844 54.4448 95.4624 54.1951 95.2546 53.8486C95.152 53.6815 95.1032 53.483 95.1159 53.2833C95.5264 53.1352 95.896 52.8795 96.1911 52.5394C95.874 52.4013 95.6028 52.1645 95.4125 51.8595C95.2221 51.5546 95.1212 51.1955 95.1228 50.8285C95.1361 50.5334 95.2039 50.244 95.3223 49.9771C95.4407 49.7103 95.6073 49.4713 95.8125 49.2741C96.0177 49.0769 96.2574 48.9253 96.5177 48.8282C96.778 48.7311 97.0536 48.6905 97.3287 48.7085C97.7382 48.7158 98.1402 48.828 98.501 49.0358C99.1183 49.0358 99.7426 48.9242 100.194 48.8573L100.277 48.8945ZM97.4466 54.5479C97.0818 54.4967 96.7121 54.5892 96.4061 54.8082C96.2637 54.9184 96.1444 55.0595 96.056 55.2222C95.9676 55.3849 95.912 55.5657 95.8928 55.7529C95.8928 56.4224 96.5864 56.9878 97.4952 56.9878C98.5842 56.9878 99.1808 56.3778 99.1808 55.6042C99.1913 55.4081 99.1422 55.2136 99.0409 55.05C98.9396 54.8863 98.7915 54.7623 98.6189 54.6967C98.2442 54.5729 97.8518 54.5225 97.4605 54.5479H97.4466ZM97.2246 49.0433C96.7391 49.0433 96.2674 49.5491 96.2674 50.531C96.2674 51.5129 96.6974 52.2196 97.3564 52.2196C97.8767 52.2196 98.3275 51.7137 98.3275 50.7318C98.3275 49.7499 97.9113 49.0358 97.2385 49.0358L97.2246 49.0433Z" fill="#144682"/>
<path d="M106.395 49.1326C105.757 49.2367 105.646 49.3408 105.327 50.0773C105.007 50.8137 104.633 51.7882 103.794 53.8561C103.302 54.9885 102.874 56.151 102.51 57.3374C102.496 57.4302 102.45 57.5138 102.38 57.5706C102.31 57.6274 102.223 57.6532 102.136 57.6424C101.965 57.6437 101.8 57.5777 101.672 57.457C101.544 57.3363 101.462 57.1692 101.442 56.9878C101.442 56.7795 101.546 56.6679 101.747 56.5192C102.152 56.2497 102.471 55.8556 102.663 55.3885C102.804 55.127 102.925 54.8533 103.024 54.5702C103.059 54.4795 103.077 54.3822 103.077 54.2838C103.077 54.1855 103.059 54.0882 103.024 53.9975C102.517 52.5097 101.955 50.903 101.636 50.0624C101.373 49.4004 101.241 49.2367 100.596 49.1326V48.7904H103.148V49.1326C102.587 49.2367 102.517 49.3483 102.67 49.8095L103.759 52.9337C104.085 52.1304 104.605 50.6203 104.841 49.8541C104.994 49.3855 104.896 49.2367 104.224 49.1102V48.7681H106.423L106.395 49.1326Z" fill="#144682"/>
<path d="M114.094 48.0613C113.886 47.243 113.512 46.3206 112.485 46.3206C112.31 46.3069 112.135 46.3329 111.97 46.3968C111.805 46.4608 111.654 46.5614 111.528 46.6919C111.401 46.8224 111.302 46.9801 111.236 47.1545C111.171 47.3289 111.14 47.5162 111.146 47.7042C111.146 48.6043 111.701 49.0357 112.693 49.549C113.685 50.0623 114.774 50.6945 114.774 52.1005C114.774 53.5064 113.685 54.5552 112 54.5552C111.585 54.5577 111.172 54.4873 110.779 54.3469C110.572 54.2736 110.37 54.1841 110.175 54.0791C110.099 53.8262 109.919 52.6658 109.842 52.0409L110.21 51.9294C110.411 52.7402 111.008 54.0791 112.249 54.0791C112.435 54.0935 112.621 54.0649 112.796 53.9953C112.97 53.9256 113.128 53.8165 113.26 53.6753C113.392 53.5342 113.493 53.3644 113.558 53.1773C113.623 52.9903 113.65 52.7905 113.637 52.5914C113.637 51.669 112.985 51.2301 112.062 50.7094C111.139 50.1887 110.05 49.6159 110.05 48.2175C110.05 46.9455 111.008 45.8892 112.596 45.8892C113.133 45.9027 113.664 46.0056 114.171 46.1941C114.219 46.6479 114.282 47.1686 114.386 48.0092L114.094 48.0613Z" fill="#144682"/>
<path d="M118.617 48.6416C118.967 48.6347 119.315 48.7027 119.641 48.8416C119.966 48.9806 120.263 49.1877 120.513 49.4509C120.763 49.714 120.961 50.028 121.097 50.3744C121.232 50.7208 121.302 51.0927 121.302 51.4683C121.321 51.8596 121.265 52.251 121.138 52.6185C121.011 52.9861 120.816 53.322 120.564 53.606C120.312 53.89 120.009 54.116 119.673 54.2703C119.337 54.4245 118.976 54.5038 118.61 54.5033C118.255 54.5245 117.9 54.4679 117.565 54.3371C117.231 54.2062 116.925 54.0038 116.666 53.7422C116.407 53.4805 116.201 53.1651 116.059 52.8151C115.918 52.4651 115.844 52.0879 115.843 51.7063C115.831 51.3113 115.894 50.9178 116.026 50.5488C116.159 50.1799 116.358 49.843 116.613 49.5577C116.868 49.2723 117.174 49.0444 117.512 48.8871C117.85 48.7298 118.214 48.6464 118.583 48.6416H118.617ZM118.465 49.073C117.771 49.073 117.112 49.8169 117.112 51.3046C117.112 52.9188 117.764 54.0941 118.735 54.0941C119.429 54.0941 120.06 53.5883 120.06 51.803C120.06 50.3153 119.491 49.1102 118.479 49.1102L118.465 49.073Z" fill="#144682"/>
<path d="M121.794 54.3544V54.0122C122.55 53.9155 122.654 53.8486 122.654 52.9931V47.0422C122.654 46.1793 122.571 46.157 121.822 46.0752V45.7627C122.457 45.6709 123.083 45.5216 123.695 45.3164V52.9931C123.695 53.856 123.799 53.9378 124.589 54.0122V54.3544H121.794Z" fill="#144682"/>
<path d="M130.978 54.0495C130.658 54.0969 130.341 54.1639 130.028 54.2503L129.119 54.5032L129.036 54.4363V53.5585C128.759 53.7742 128.523 53.99 128.183 54.2131C127.896 54.41 127.566 54.5205 127.226 54.533C126.379 54.533 125.693 53.99 125.693 52.6212V50.159C125.693 49.4672 125.596 49.4152 125.29 49.3259L124.964 49.2366V48.9317C125.207 48.9317 125.533 48.8796 125.873 48.8424C126.213 48.8052 126.567 48.7383 126.782 48.7085C126.782 49.0953 126.782 49.7053 126.782 50.5533V52.2716C126.782 53.3354 127.281 53.6627 127.822 53.6627C128.289 53.6559 128.735 53.4529 129.064 53.0973V50.159C129.064 49.4672 128.96 49.4152 128.564 49.3185L128.134 49.2366V48.9317C128.515 48.9185 128.895 48.8837 129.272 48.8275C129.554 48.804 129.834 48.7643 130.111 48.7085V52.9039C130.111 53.5734 130.208 53.6478 130.68 53.6924H131.006L130.978 54.0495Z" fill="#144682"/>
<path d="M133.836 54.3023C133.682 54.4006 133.509 54.4592 133.33 54.4734C132.525 54.4734 132.074 53.9825 132.074 52.9857V49.3258H131.256L131.2 49.1771L131.533 48.7903H132.074V47.8679L132.962 46.9827H133.122V48.7605H134.509C134.537 48.8013 134.557 48.8477 134.568 48.8969C134.579 48.9461 134.58 48.9972 134.573 49.0471C134.565 49.097 134.548 49.1447 134.523 49.1875C134.497 49.2303 134.464 49.2672 134.426 49.2961H133.156V52.5096C133.156 53.5436 133.573 53.7147 133.85 53.7147C134.098 53.7205 134.345 53.6671 134.571 53.5585L134.675 53.9081L133.836 54.3023Z" fill="#144682"/>
<path d="M135.182 54.3544V54.0122C135.938 53.9379 136.028 53.856 136.028 52.9708V50.4045C136.028 49.6011 135.987 49.5416 135.272 49.4151V49.0953C135.887 48.9934 136.491 48.829 137.076 48.6043V52.956C137.076 53.8337 137.159 53.9007 137.929 53.9974V54.3395L135.182 54.3544ZM135.813 46.9157C135.813 46.7185 135.886 46.5293 136.017 46.3897C136.147 46.2502 136.323 46.1719 136.507 46.1719C136.669 46.1898 136.82 46.2716 136.929 46.4014C137.038 46.5313 137.098 46.6999 137.098 46.8748C137.098 47.0497 137.038 47.2184 136.929 47.3482C136.82 47.4781 136.669 47.5599 136.507 47.5778C136.328 47.5779 136.155 47.5037 136.026 47.3705C135.897 47.2374 135.821 47.0558 135.813 46.8637V46.9157Z" fill="#144682"/>
<path d="M141.286 48.6416C141.636 48.6347 141.984 48.7027 142.31 48.8416C142.635 48.9806 142.932 49.1877 143.182 49.4509C143.432 49.714 143.63 50.028 143.766 50.3744C143.901 50.7208 143.971 51.0927 143.971 51.4683C143.99 51.8596 143.934 52.251 143.807 52.6185C143.68 52.9861 143.485 53.322 143.233 53.606C142.981 53.89 142.678 54.116 142.342 54.2703C142.006 54.4245 141.645 54.5038 141.279 54.5033C140.926 54.5203 140.574 54.4607 140.243 54.328C139.912 54.1952 139.609 53.9922 139.354 53.7309C139.098 53.4697 138.894 53.1557 138.754 52.8078C138.614 52.4599 138.541 52.0852 138.539 51.7063C138.528 51.3113 138.591 50.9178 138.723 50.5488C138.855 50.1799 139.055 49.843 139.31 49.5577C139.565 49.2723 139.871 49.0444 140.209 48.8871C140.547 48.7298 140.911 48.6464 141.279 48.6416H141.286ZM141.134 49.073C140.44 49.073 139.746 49.8169 139.746 51.3046C139.746 52.9188 140.398 54.0941 141.376 54.0941C142.07 54.0941 142.701 53.5883 142.701 51.803C142.701 50.3153 142.126 49.1102 141.113 49.1102L141.134 49.073Z" fill="#144682"/>
<path d="M148.098 54.3543V54.0122C148.792 53.9378 148.868 53.8336 148.868 52.9335V50.8582C148.868 49.973 148.535 49.4374 147.8 49.4374C147.324 49.4895 146.877 49.7092 146.53 50.0622V53.0377C146.53 53.908 146.593 53.9601 147.293 54.0345V54.3766H144.609V54.0345C145.414 53.9303 145.483 53.8708 145.483 53.0154V50.4342C145.483 49.601 145.4 49.5489 144.789 49.4299V49.0952C145.394 48.9958 145.987 48.8262 146.558 48.5894V49.6159C146.801 49.4225 147.058 49.2216 147.37 49.0059C147.659 48.7742 148.008 48.642 148.369 48.6266C149.326 48.6266 149.936 49.3704 149.936 50.6201V53.0005C149.936 53.8708 150.013 53.9006 150.713 53.9973V54.3395L148.098 54.3543Z" fill="#144682"/>
<path d="M154.452 50.3449C154.216 49.601 153.793 49.0655 153.203 49.0655C153.101 49.0631 153 49.0836 152.906 49.1255C152.812 49.1675 152.727 49.2299 152.656 49.309C152.586 49.388 152.532 49.4819 152.497 49.5847C152.462 49.6875 152.447 49.7969 152.454 49.906C152.454 50.4342 152.912 50.7392 153.453 50.9623C154.376 51.3566 155 51.8178 155 52.7178C155 53.908 153.973 54.5031 152.974 54.5031C152.484 54.5126 152.002 54.3678 151.587 54.0866C151.458 53.5744 151.385 53.0475 151.372 52.517L151.705 52.4649C151.934 53.3204 152.475 54.0791 153.196 54.0791C153.408 54.0752 153.61 53.9829 153.759 53.8217C153.908 53.6605 153.992 53.4432 153.994 53.2162C153.994 52.6881 153.675 52.4054 153.058 52.1079C152.44 51.8103 151.525 51.364 151.525 50.3152C151.54 50.072 151.601 49.8348 151.704 49.6177C151.808 49.4005 151.951 49.208 152.125 49.0517C152.299 48.8954 152.501 48.7784 152.719 48.7079C152.936 48.6374 153.165 48.6148 153.391 48.6414C153.765 48.6329 154.137 48.7116 154.48 48.872C154.618 49.3163 154.711 49.7752 154.757 50.2408L154.452 50.3449Z" fill="#144682"/>
<path d="M38.6996 25.8866C38.3597 26.5337 38.0059 27.1809 37.6799 27.8206C37.229 28.6686 36.7712 29.5092 36.2926 30.3498L35.6752 31.4656L35.481 31.8152C35.0787 32.5591 34.6694 33.3029 34.2532 34.0468C33.6012 35.2072 32.9491 36.3751 32.2762 37.5281L32.2069 37.6546V37.7066L31.9572 38.1232C31.8947 38.2422 31.8254 38.3538 31.756 38.4728L30.8542 40.0052L30.7363 40.2135C30.6461 40.3548 30.5629 40.5036 30.4727 40.6523L29.5779 42.1401C28.8935 43.2708 28.1998 44.394 27.4969 45.5098L27.2749 45.8594L26.8587 46.514C26.602 46.9232 26.3246 47.3472 26.1234 47.6521L25.9014 47.9943L25.8598 48.0613L25.0344 49.3184L23.9106 50.9921L23.217 52.0335L22.7106 52.7774H23.0435L24.2783 50.9996L25.2008 49.6383L25.3188 49.4597C25.513 49.1696 26.1304 47.972 26.2413 47.7563L26.2899 47.6819L27.4344 45.9264L27.6079 45.6586C27.6199 45.6287 27.6363 45.6011 27.6564 45.5768L30.7086 40.7119L30.8681 40.4441L30.9583 40.3027L31.1733 39.9531C31.4785 39.4622 31.756 39.001 32.0196 38.5621L32.1791 38.3017L32.2346 38.2125C33.0809 36.8065 33.9341 35.3337 34.7735 33.8311C35.1203 33.2062 35.4671 32.5739 35.8209 31.9342L35.9596 31.6739C35.9783 31.6458 35.9946 31.6159 36.0082 31.5846H36.2024C36.6117 30.8407 37.014 30.0969 37.4024 29.3158L37.4788 29.1596C37.6869 28.7505 37.895 28.3413 38.0892 27.9322L38.2418 27.6198C38.4984 27.0842 38.7482 26.5412 38.9909 25.9981L38.6996 25.8866ZM10.6616 25.8866C10.3962 25.8766 10.1317 25.9231 9.88317 26.0234C9.63467 26.1236 9.40713 26.2757 9.21368 26.4707C9.02023 26.6657 8.86468 26.8998 8.75602 27.1596C8.64736 27.4194 8.58773 27.6997 8.58057 27.9843V50.6648C8.58773 50.9494 8.64736 51.2297 8.75602 51.4895C8.86468 51.7493 9.02023 51.9834 9.21368 52.1784C9.40713 52.3734 9.63467 52.5254 9.88317 52.6257C10.1317 52.7259 10.3962 52.7724 10.6616 52.7625H22.1973L22.7036 52.0187L23.3973 50.9772L24.1811 49.8391L24.3546 49.5788H24.3962C24.4447 49.4969 24.5002 49.4226 24.5557 49.3407L25.3812 48.0836L25.4297 48.0166C25.4714 47.9423 25.5477 47.8232 25.6517 47.667L26.3454 46.5363L26.7616 45.8817C26.8379 45.7627 26.9142 45.6511 26.9836 45.5321C27.2818 45.0709 27.5732 44.6023 27.8576 44.1411L28.2391 43.5237L29.0784 42.1624L29.9733 40.6747C30.0634 40.5259 30.1467 40.3771 30.2369 40.2358L30.3548 40.0275L31.2566 38.4951C31.3259 38.3761 31.3953 38.2645 31.4577 38.1455L31.7074 37.7289V37.6769L31.7768 37.5504C32.4705 36.3974 33.1017 35.2295 33.7538 34.0691C34.17 33.3252 34.5792 32.5814 34.9816 31.8375L35.1203 31.592L35.1758 31.4879L35.7931 30.3721L36.2579 29.539C36.3065 29.4497 36.3481 29.3604 36.3966 29.2786C36.6602 28.8025 36.9169 28.3265 37.1666 27.8429C37.5134 27.2032 37.8603 26.556 38.1863 25.9089L10.6616 25.8866Z" fill="url(#paint0_linear_770_1888)"/>
<path d="M35.0303 39.6483C35.1946 39.5475 35.3329 39.4043 35.4326 39.2317C35.2869 39.3805 35.1482 39.5144 35.0303 39.6483Z" fill="url(#paint1_linear_770_1888)"/>
<path d="M42.2719 26.0354C42.1722 26.0003 42.0702 25.973 41.9667 25.9536H41.8765H41.8072H41.5991L41.2314 25.9908L40.4961 26.0652C40.2993 26.6091 40.0555 27.1321 39.7678 27.6273L39.6152 27.8877C39.4556 28.148 39.2683 28.4753 39.0394 28.9291C38.9146 29.1894 38.8313 29.3903 38.7967 29.4498C38.2487 30.6846 36.9238 32.7898 35.8624 34.828C35.1202 36.2562 35.2798 36.152 34.7318 37.1488C34.7146 37.1624 34.6984 37.1774 34.6832 37.1935C34.4335 37.6348 34.1907 38.044 33.9549 38.4208C33.5269 39.1169 33.0637 39.7874 32.5675 40.4293C31.9918 41.374 31.416 42.3113 30.8195 43.2411C30.2229 44.1709 29.6541 45.1082 29.0576 46.0381C28.683 46.6257 28.3015 47.2059 27.92 47.7861C27.5384 48.3664 27.2263 48.8722 26.8378 49.4152C26.4494 49.9582 26.1442 50.4418 25.7973 50.955C25.4505 51.4683 24.9719 52.1378 24.5557 52.7329H41.6199C41.8852 52.7428 42.1498 52.6963 42.3983 52.596C42.6468 52.4958 42.8743 52.3438 43.0678 52.1488C43.2612 51.9538 43.4168 51.7196 43.5254 51.4598C43.6341 51.2001 43.6937 50.9198 43.7009 50.6352V27.9844C43.6846 27.5395 43.5377 27.1115 43.281 26.7615C43.0244 26.4115 42.6712 26.1574 42.2719 26.0354ZM35.03 39.6482L35.4185 39.254C35.3753 39.338 35.319 39.4135 35.252 39.4771L35.141 39.5813L35.0231 39.6631L35.03 39.6482Z" stroke="#1E9CD7" stroke-width="0.5" stroke-miterlimit="10"/>
<path d="M31.6592 39.73L31.4927 39.9978C31.5412 39.9085 31.6037 39.8192 31.6592 39.73Z" fill="#FAFBFC"/>
<path d="M35.0303 39.6483C35.1946 39.5475 35.3329 39.4043 35.4326 39.2317C35.2869 39.3805 35.1482 39.5144 35.0303 39.6483Z" stroke="#148CEF" stroke-miterlimit="10"/>
<path d="M25.5269 33.5632H8.6084V33.9129H25.5269V33.5632Z" fill="white"/>
<path d="M26.3869 34.4412C26.7662 34.4412 27.0737 34.1281 27.0737 33.742C27.0737 33.3558 26.7662 33.0427 26.3869 33.0427C26.0077 33.0427 25.7002 33.3558 25.7002 33.742C25.7002 34.1281 26.0077 34.4412 26.3869 34.4412Z" fill="white"/>
<path d="M26.3595 32.864C26.1993 32.8713 26.0446 32.9289 25.9146 33.0297C25.7846 33.1305 25.6851 33.27 25.6285 33.4309C25.5718 33.5918 25.5605 33.767 25.5959 33.9347C25.6313 34.1025 25.7118 34.2554 25.8276 34.3744C25.9433 34.4935 26.0891 34.5735 26.2469 34.6044C26.4046 34.6354 26.5674 34.616 26.7149 34.5486C26.8625 34.4812 26.9883 34.3688 27.0768 34.2254C27.1653 34.082 27.2126 33.9138 27.2127 33.7418C27.2055 33.505 27.1122 33.2807 26.9528 33.1166C26.7934 32.9526 26.5804 32.862 26.3595 32.864ZM26.3595 34.2625C26.2939 34.2645 26.2286 34.2526 26.1673 34.2275C26.106 34.2024 26.0499 34.1646 26.0023 34.1162C25.9546 34.0679 25.9163 34.0099 25.8895 33.9457C25.8627 33.8814 25.848 33.8122 25.8462 33.7418C25.8462 33.5958 25.9003 33.4558 25.9966 33.3526C26.0928 33.2493 26.2234 33.1913 26.3595 33.1913C26.4957 33.1913 26.6262 33.2493 26.7225 33.3526C26.8188 33.4558 26.8728 33.5958 26.8728 33.7418C26.871 33.8122 26.8563 33.8814 26.8296 33.9457C26.8028 34.0099 26.7645 34.0679 26.7168 34.1162C26.6691 34.1646 26.613 34.2024 26.5517 34.2275C26.4904 34.2526 26.4251 34.2645 26.3595 34.2625Z" fill="white"/>
<path d="M14.9348 37.9297C15.314 37.9297 15.6215 37.6167 15.6215 37.2305C15.6215 36.8443 15.314 36.5312 14.9348 36.5312C14.5555 36.5312 14.248 36.8443 14.248 37.2305C14.248 37.6167 14.5555 37.9297 14.9348 37.9297Z" fill="white"/>
<path d="M14.9347 36.3603C14.7462 36.3565 14.562 36.4203 14.4112 36.5416C14.2604 36.6629 14.1517 36.8347 14.1023 37.0297C14.0955 37.0965 14.0955 37.1638 14.1023 37.2306C14.0988 37.2801 14.0988 37.3298 14.1023 37.3794C14.1384 37.5907 14.2433 37.7815 14.3982 37.9177C14.5532 38.0539 14.7482 38.1267 14.9486 38.1232C15.1638 38.1232 15.3702 38.0315 15.5224 37.8683C15.6746 37.7051 15.7601 37.4837 15.7601 37.2529C15.7601 37.0221 15.6746 36.8007 15.5224 36.6375C15.3702 36.4743 15.1638 36.3826 14.9486 36.3826L14.9347 36.3603ZM14.9347 37.7513C14.84 37.7455 14.749 37.7101 14.6729 37.6494C14.5968 37.5888 14.5389 37.5056 14.5063 37.4101C14.4738 37.3146 14.4681 37.211 14.4898 37.112C14.5116 37.013 14.5599 36.923 14.6287 36.8532C14.6976 36.7833 14.7841 36.7366 14.8774 36.7188C14.9708 36.701 15.067 36.7129 15.1541 36.753C15.2412 36.7932 15.3155 36.8598 15.3677 36.9446C15.4199 37.0295 15.4478 37.1289 15.448 37.2306C15.4462 37.3009 15.4315 37.3702 15.4047 37.4344C15.3779 37.4987 15.3396 37.5567 15.292 37.605C15.2443 37.6534 15.1882 37.6912 15.1269 37.7163C15.0656 37.7414 15.0003 37.7533 14.9347 37.7513Z" fill="white"/>
<path d="M21.0876 41.0689C21.4669 41.0689 21.7743 40.7558 21.7743 40.3696C21.7743 39.9835 21.4669 39.6704 21.0876 39.6704C20.7083 39.6704 20.4009 39.9835 20.4009 40.3696C20.4009 40.7558 20.7083 41.0689 21.0876 41.0689Z" fill="white"/>
<path d="M21.0875 39.4993C20.8939 39.4941 20.7045 39.5609 20.5515 39.6883C20.3985 39.8158 20.2913 39.996 20.2482 40.1986C20.2448 40.2555 20.2448 40.3127 20.2482 40.3697C20.2447 40.4291 20.2447 40.4887 20.2482 40.5482C20.2925 40.75 20.4 40.9295 20.5527 41.0567C20.7054 41.1839 20.8942 41.2512 21.0875 41.2474C21.2009 41.2586 21.3152 41.2444 21.4231 41.2056C21.531 41.1667 21.6302 41.1042 21.7143 41.022C21.7984 40.9397 21.8656 40.8395 21.9116 40.7279C21.9576 40.6162 21.9813 40.4954 21.9813 40.3734C21.9813 40.2513 21.9576 40.1306 21.9116 40.0189C21.8656 39.9072 21.7984 39.807 21.7143 39.7248C21.6302 39.6425 21.531 39.58 21.4231 39.5412C21.3152 39.5024 21.2009 39.4881 21.0875 39.4993ZM21.0875 40.8978C20.9832 40.8984 20.8812 40.8654 20.7946 40.8031C20.708 40.7407 20.6409 40.6519 20.602 40.5482C20.5919 40.4892 20.5919 40.4287 20.602 40.3697C20.5915 40.3132 20.5915 40.255 20.602 40.1986C20.6409 40.0948 20.708 40.006 20.7946 39.9437C20.8812 39.8813 20.9832 39.8483 21.0875 39.8489C21.1566 39.8401 21.2267 39.8471 21.2931 39.8694C21.3595 39.8917 21.4208 39.9289 21.4728 39.9784C21.5249 40.028 21.5666 40.0888 21.5951 40.1569C21.6236 40.2249 21.6384 40.2987 21.6384 40.3734C21.6384 40.448 21.6236 40.5218 21.5951 40.5899C21.5666 40.658 21.5249 40.7188 21.4728 40.7683C21.4208 40.8179 21.3595 40.855 21.2931 40.8774C21.2267 40.8997 21.1566 40.9066 21.0875 40.8978Z" fill="white"/>
<path d="M16.4748 44.2156C16.8541 44.2156 17.1615 43.9026 17.1615 43.5164C17.1615 43.1302 16.8541 42.8171 16.4748 42.8171C16.0955 42.8171 15.7881 43.1302 15.7881 43.5164C15.7881 43.9026 16.0955 44.2156 16.4748 44.2156Z" fill="white"/>
<path d="M17.2863 43.2484C17.2262 43.0694 17.116 42.9147 16.9707 42.8055C16.8254 42.6963 16.6522 42.6379 16.4747 42.6384C16.3187 42.6491 16.1688 42.7075 16.0428 42.8067C15.9167 42.9059 15.8198 43.0417 15.7635 43.1981C15.7071 43.3545 15.6938 43.5249 15.7249 43.6892C15.756 43.8535 15.8304 44.0048 15.9392 44.1252C16.048 44.2456 16.1867 44.3301 16.3388 44.3686C16.491 44.4072 16.6502 44.3982 16.7978 44.3428C16.9453 44.2873 17.075 44.1877 17.1714 44.0557C17.2678 43.9237 17.3269 43.7649 17.3418 43.598C17.3418 43.598 17.3418 43.5385 17.3418 43.5162C17.339 43.424 17.3202 43.3332 17.2863 43.2484ZM16.4747 44.0369C16.3885 44.0353 16.3042 44.0094 16.2302 43.9619C16.1562 43.9144 16.0951 43.8468 16.0531 43.766C16.0111 43.6852 15.9896 43.594 15.9908 43.5015C15.992 43.409 16.0159 43.3185 16.0599 43.239C16.104 43.1595 16.1668 43.0938 16.2419 43.0484C16.3171 43.0031 16.4021 42.9798 16.4884 42.9807C16.5746 42.9817 16.6591 43.0069 16.7334 43.0539C16.8077 43.1009 16.8692 43.1679 16.9118 43.2484C16.9588 43.3285 16.9829 43.4216 16.9811 43.5162C16.9842 43.5434 16.9842 43.5708 16.9811 43.598C16.9596 43.724 16.8967 43.8376 16.8038 43.9181C16.7109 43.9986 16.5941 44.0408 16.4747 44.0369Z" fill="white"/>
<path d="M27.0671 41.0689C27.4464 41.0689 27.7538 40.7558 27.7538 40.3696C27.7538 39.9835 27.4464 39.6704 27.0671 39.6704C26.6878 39.6704 26.3804 39.9835 26.3804 40.3696C26.3804 40.7558 26.6878 41.0689 27.0671 41.0689Z" fill="white"/>
<path d="M27.9062 40.1688C27.8549 39.9706 27.7427 39.7967 27.5879 39.6753C27.4331 39.5538 27.2447 39.4918 27.053 39.4993C26.9396 39.4881 26.8253 39.5024 26.7174 39.5412C26.6095 39.58 26.5103 39.6425 26.4262 39.7248C26.3421 39.807 26.2749 39.9072 26.2289 40.0189C26.1829 40.1306 26.1592 40.2513 26.1592 40.3734C26.1592 40.4954 26.1829 40.6162 26.2289 40.7279C26.2749 40.8395 26.3421 40.9397 26.4262 41.022C26.5103 41.1042 26.6095 41.1667 26.7174 41.2056C26.8253 41.2444 26.9396 41.2586 27.053 41.2474C27.2327 41.2501 27.4085 41.1918 27.5555 41.0809C27.7025 40.97 27.8131 40.8122 27.8715 40.63C27.8825 40.5436 27.8825 40.456 27.8715 40.3697C27.8875 40.3037 27.8991 40.2365 27.9062 40.1688ZM27.5802 40.3473C27.5827 40.4397 27.5585 40.5307 27.5108 40.6077C27.4762 40.7004 27.4185 40.7811 27.344 40.8409C27.2695 40.9007 27.181 40.9373 27.0884 40.9467C26.9957 40.9561 26.9024 40.938 26.8188 40.8943C26.7351 40.8505 26.6643 40.7829 26.6141 40.6988C26.5639 40.6148 26.5363 40.5175 26.5343 40.4177C26.5324 40.3179 26.5561 40.2194 26.6028 40.1332C26.6496 40.0469 26.7177 39.9761 26.7996 39.9286C26.8814 39.881 26.9739 39.8586 27.0669 39.8638C27.1703 39.8626 27.2718 39.8945 27.3583 39.9554C27.4448 40.0164 27.5124 40.1036 27.5524 40.206C27.5678 40.2592 27.5771 40.3141 27.5802 40.3697V40.3473Z" fill="white"/>
<path d="M36.306 45.1588C36.5487 44.8456 36.5207 44.3914 36.2434 44.1442C35.9661 43.8971 35.5445 43.9506 35.3018 44.2638C35.0591 44.5769 35.0871 45.0312 35.3644 45.2783C35.6417 45.5255 36.0632 45.472 36.306 45.1588Z" fill="#148CEF"/>
<path d="M39.1532 48.2882C39.3957 47.9755 39.3678 47.5218 39.0909 47.2749C38.814 47.028 38.3929 47.0814 38.1505 47.3942C37.908 47.7069 37.9359 48.1606 38.2128 48.4075C38.4897 48.6544 38.9108 48.601 39.1532 48.2882Z" fill="#148CEF"/>
<path d="M37.295 42.9342C37.456 42.566 37.3222 42.1345 36.9962 41.9706C36.6701 41.8067 36.2753 41.9723 36.1143 42.3405C35.9533 42.7088 36.0871 43.1402 36.4131 43.3042C36.7392 43.4681 37.134 43.3025 37.295 42.9342Z" fill="#148CEF"/>
<path d="M30.8264 36.71C31.2056 36.71 31.5131 36.3969 31.5131 36.0108C31.5131 35.6246 31.2056 35.3115 30.8264 35.3115C30.4471 35.3115 30.1396 35.6246 30.1396 36.0108C30.1396 36.3969 30.4471 36.71 30.8264 36.71Z" fill="white"/>
<path d="M30.8265 35.1402C30.6344 35.1374 30.447 35.2041 30.2947 35.3297C30.1424 35.4552 30.034 35.6322 29.9872 35.832C29.9837 35.8915 29.9837 35.9511 29.9872 36.0105C29.9834 36.0675 29.9834 36.1247 29.9872 36.1816C30.0327 36.3828 30.1405 36.5615 30.2929 36.6885C30.4454 36.8155 30.6335 36.8833 30.8265 36.8809C31.0418 36.8809 31.2482 36.7892 31.4004 36.626C31.5526 36.4627 31.6381 36.2414 31.6381 36.0105C31.6381 35.7797 31.5526 35.5584 31.4004 35.3951C31.2482 35.2319 31.0418 35.1402 30.8265 35.1402ZM30.8265 36.5313C30.723 36.5325 30.6216 36.4996 30.536 36.4371C30.4504 36.3745 30.3848 36.2854 30.3479 36.1816C30.3374 36.1252 30.3374 36.067 30.3479 36.0105C30.3374 35.9516 30.3374 35.891 30.3479 35.832C30.3848 35.7283 30.4504 35.6391 30.536 35.5766C30.6216 35.5141 30.723 35.4812 30.8265 35.4824C30.9596 35.4804 31.0881 35.5347 31.1842 35.6335C31.2803 35.7324 31.3362 35.8678 31.3398 36.0105C31.338 36.0809 31.3233 36.1502 31.2966 36.2144C31.2698 36.2787 31.2315 36.3366 31.1838 36.385C31.1361 36.4333 31.08 36.4711 31.0187 36.4962C30.9574 36.5213 30.8921 36.5332 30.8265 36.5313Z" fill="white"/>
<path d="M38.8455 42.8171H36.9795V42.4675H38.6998L39.879 40.3623L40.101 40.5631L38.8455 42.8171Z" fill="#148CEF"/>
<path d="M22.1976 52.7625L21.4206 53.8857L21.1016 52.7625H22.1976Z" fill="url(#paint2_linear_770_1888)"/>
<path d="M23.0021 52.7625V52.8072L22.9535 52.8741L22.9119 52.9336L21.8437 54.4214L21.7257 54.5925L21.6703 54.6594L21.5801 54.347C21.9593 53.8114 22.3339 53.2758 22.7038 52.7402L23.0021 52.7625Z" fill="url(#paint3_linear_770_1888)"/>
<path d="M20.484 55.8571C20.4648 55.8924 20.4415 55.9249 20.4146 55.9538C19.6932 56.9456 18.9579 57.9375 18.2088 58.9293L17.7787 59.5021L17.7093 59.5913H17.9452C18.4515 58.9367 18.951 58.2821 19.4435 57.6201C19.936 56.958 20.3591 56.4001 20.8308 55.7827L20.484 55.8571ZM19.8597 55.9389L9.89168 57.2109C9.83619 58.0292 9.77376 58.84 9.71826 59.6508H17.1128H17.2237L17.2931 59.569L17.7232 58.9888C18.4492 57.997 19.1683 57.0051 19.8805 56.0133C19.9074 55.9844 19.9307 55.9519 19.9499 55.9166L19.8597 55.9389Z" fill="url(#paint4_linear_770_1888)"/>
<path d="M22.1972 56.296L22.3429 56.1101C22.287 56.1651 22.2381 56.2276 22.1972 56.296ZM27.143 55.939V53.1941L27.0459 53.2387L26.3592 53.5586H26.2759H26.1996L25.2563 54.0049L23.2238 55.0463C23.2238 55.0463 22.7937 55.5522 22.3567 56.0877C22.41 56.0389 22.4682 55.9965 22.5301 55.9613C22.7101 55.8595 22.9095 55.8035 23.1128 55.7976V55.5893L25.6031 54.1016L26.0054 53.9156H26.0748L26.165 53.871L26.8586 53.5288L26.9835 53.4693V56.1101L36.9168 57.2779V59.5095L22.9741 59.5542H20.0468C20.5601 58.8103 21.1012 58.0664 21.6908 57.211C21.9544 56.8242 22.0654 56.5192 22.2111 56.296C21.9475 56.6233 21.6977 56.9357 21.5729 57.1217L21.0665 57.8656C20.6434 58.4904 20.2341 59.0632 19.8387 59.6062L19.7485 59.7327H22.9741L37.0625 59.6881V57.1292L27.143 55.939Z" fill="url(#paint5_linear_770_1888)" stroke="url(#paint6_linear_770_1888)" stroke-width="0.75" stroke-miterlimit="10"/>
<path d="M35.0303 39.6483C35.1946 39.5475 35.3329 39.4043 35.4326 39.2317C35.2869 39.3805 35.1482 39.5144 35.0303 39.6483Z" fill="#4C5B7F"/>
<path d="M29.5988 31.5772H35.2037L35.0094 31.8227H29.4601L26.408 30.1044L26.29 30.0449L26.4912 29.8589L26.9282 30.1044L29.5988 31.5772Z" fill="#FFFFFD"/>
<path d="M36.0223 31.4731C36.0087 31.5044 35.9925 31.5343 35.9737 31.5624L35.835 31.8228H35.4951L35.6893 31.4731H36.0223Z" fill="#FFFFFD"/>
<path d="M31.4576 38.1009C31.3952 38.2199 31.3258 38.339 31.2565 38.4505H20.0745L17.4455 33.9129L17.397 33.8311L17.6883 33.6526L17.8479 33.9129L20.2757 38.1009H31.4576Z" fill="#FFFFFD"/>
<path d="M32.2486 38.1008L32.1931 38.1901L32.0335 38.4504H31.7422C31.8116 38.3389 31.8809 38.2198 31.9434 38.1008H32.2486Z" fill="#FFFFFD"/>
<path d="M25.3537 38.3761L25.0693 38.1827L26.637 35.832H30.4869V36.1817H26.8174L25.3537 38.3761Z" fill="#FFFFFD"/>
<path d="M26.9835 45.4949L26.7615 45.8445H11.5425V45.4949H26.9835Z" fill="white"/>
<path d="M27.6494 45.4949C27.6292 45.5208 27.6106 45.5481 27.5939 45.5767L27.4274 45.8445H27.2471L27.469 45.4949H27.6494Z" fill="white"/>
<path d="M28.6069 45.7405V45.8446H28.5444L28.6069 45.7405Z" fill="white"/>
<path d="M14.2479 37.0298H8.6084V37.3794H14.2479V37.0298Z" fill="white"/>
<path d="M43.6457 40.2878H34.7321C34.7267 40.4037 34.7408 40.5196 34.7737 40.63H43.6457V40.2878Z" fill="#148CEF"/>
<path d="M30.2368 40.1689L29.9732 40.6078H27.2817V40.1689H30.2368Z" fill="white"/>
<path d="M30.9725 40.1689L30.8823 40.3102C30.8268 40.3995 30.7783 40.4962 30.7228 40.578H30.48C30.5632 40.4293 30.6534 40.2879 30.7436 40.1392L30.9725 40.1689Z" fill="white"/>
<path d="M27.2401 43.5981H16.5576V43.2485H27.0667L29.0644 40.3623L29.3419 40.5631L27.2401 43.5981Z" fill="white"/>
<path d="M20.7406 40.1987H8.6084V40.5483H20.7406V40.1987Z" fill="white"/>
<path d="M22.2668 47.6076H25.6172L25.3883 47.9572H24.868H22.0934L20.0124 45.8372L19.9014 45.7256L20.1372 45.4875L20.4771 45.8372L22.2668 47.6076Z" fill="white"/>
<path d="M26.2625 47.6076L26.2139 47.682C26.1647 47.7643 26.1115 47.8438 26.0544 47.9201H25.874C25.9226 47.8531 25.9989 47.7267 26.096 47.5779L26.2625 47.6076Z" fill="white"/>
<path d="M30.48 48.0018L38.0063 48.0465H38.5196V47.7043L38.0063 47.6969L30.695 47.6597L30.48 48.0018Z" fill="#148CEF"/>
<path d="M43.6457 44.6619H35.5298V45.0115H43.6457V44.6619Z" fill="#148CEF"/>
<path d="M47.5856 5.79473C47.5637 6.4848 47.5034 7.17286 47.4052 7.85525C47.253 9.00731 47.0423 10.1496 46.774 11.277C46.7254 11.4704 46.6769 11.6639 46.6422 11.8573V11.9168C46.4965 12.5044 46.3509 13.0995 46.1913 13.6797C46.0318 14.26 45.8792 14.8327 45.7058 15.3981L45.5531 15.9188C45.5046 16.0601 45.463 16.2014 45.4214 16.3353C45.2826 16.7891 45.1369 17.2429 44.9913 17.6892C44.2976 19.7423 43.6039 21.773 42.7507 23.7815C42.4594 24.4906 42.1542 25.1973 41.8351 25.9015C41.5576 26.5412 41.2732 27.1809 40.9888 27.8207C40.7044 28.4604 40.4478 29.0183 40.1703 29.6208L40.1287 29.7101L39.9691 30.0597C39.8998 30.2085 39.8304 30.3647 39.7541 30.5135C39.6778 30.6622 39.6292 30.7887 39.5599 30.93C38.2696 33.6179 36.8754 36.2908 35.377 38.9489L35.3424 39.001C35.2938 39.0977 35.2383 39.1944 35.1828 39.2911L35.1204 39.3878C35.0649 39.4994 35.0025 39.6035 34.94 39.7077L34.2047 41.002L34.0799 41.2177L33.9828 41.3888C33.3585 42.4526 32.7272 43.5237 32.0891 44.58L32.0405 44.6618L31.8948 44.8999C31.8802 44.9282 31.864 44.9555 31.8463 44.9817C31.763 45.1305 31.6729 45.2718 31.5827 45.4131V45.4801L31.4231 45.7405C30.348 47.4885 29.245 49.2366 28.1074 50.9475C27.719 51.5426 27.3236 52.1377 26.9212 52.7254L26.3594 53.5585C26.3431 53.579 26.3292 53.6015 26.3177 53.6254L26.1998 53.7817L25.9501 54.1462L25.7628 54.3991C25.6796 54.533 25.5894 54.6594 25.4992 54.7859C24.9443 55.5744 24.3824 56.3629 23.8067 57.1439C23.2309 57.925 22.6136 58.7656 22.017 59.5466L21.8921 59.7103L21.1083 60.7071C19.2471 63.0676 17.2697 65.3198 15.1844 67.454C14.0815 68.5708 12.9237 69.6236 11.716 70.608C11.0987 71.1138 10.4466 71.6047 9.75296 72.0957C9.52405 72.2445 9.30902 72.3858 9.0593 72.5271C8.52985 72.8564 7.97797 73.1424 7.40837 73.3826C6.94211 73.5886 6.45912 73.7479 5.96554 73.8587C5.6055 73.947 5.23859 73.9993 4.86954 74.0149H4.74468C4.15575 73.9677 3.58094 73.7985 3.05214 73.5165C3.05214 73.5165 3.01745 73.5165 3.01052 73.5165C2.57788 73.2706 2.19016 72.943 1.86596 72.5495C1.37818 71.9299 1.00185 71.2186 0.756096 70.4517C0.539832 69.7561 0.3797 69.0419 0.277466 68.3168C-0.0624399 65.6035 -0.0950479 62.856 0.180352 60.1343C0.395389 57.6721 0.714476 55.2099 1.15149 52.77C1.15149 55.2173 1.15149 57.6572 1.25554 60.0822C1.31797 61.3989 1.40814 62.7081 1.55381 64.0024C1.68648 65.2875 1.90673 66.5604 2.2128 67.811C2.37104 68.4097 2.57282 68.9942 2.81629 69.5591C3.03082 70.0817 3.32896 70.5601 3.69725 70.9725C3.84965 71.1203 4.01998 71.2454 4.20362 71.3444C4.34794 71.402 4.50052 71.4322 4.65451 71.4337H4.9181C4.99192 71.4413 5.06626 71.4413 5.14007 71.4337C5.40797 71.4257 5.67282 71.3704 5.92392 71.27C6.13754 71.1963 6.34614 71.1068 6.54822 71.0022L6.62452 70.9576C7.18139 70.6652 7.71499 70.3243 8.21996 69.9385L8.44887 69.7674C8.92056 69.4029 9.37838 69.0235 9.8362 68.607C10.8795 67.647 11.8773 66.6315 12.8259 65.5645C13.7832 64.5082 14.7057 63.4148 15.6006 62.299C16.3035 61.4361 16.9972 60.5633 17.6816 59.6805L17.744 59.5913L17.8134 59.502L18.2435 58.9292C18.9926 57.9374 19.7279 56.9456 20.4493 55.9538C20.4741 55.9229 20.4973 55.8906 20.5187 55.8571C20.544 55.8267 20.5671 55.7943 20.5881 55.7604L20.6713 55.6488C20.9765 55.2248 21.2748 54.8008 21.5731 54.3693C21.8713 53.9379 22.3292 53.2982 22.6968 52.7626L23.2032 52.0187L23.8968 50.9773L25.0206 49.3036L25.8391 48.0464C25.8579 48.0264 25.8742 48.0039 25.8877 47.9795C25.9362 47.9125 26.0125 47.7861 26.1096 47.6373L26.8449 46.4992L27.2611 45.8446L27.4831 45.495C28.1768 44.3792 28.8704 43.2634 29.5641 42.1253C29.8693 41.6269 30.1676 41.1285 30.4659 40.6375C30.5491 40.4887 30.6393 40.3474 30.7295 40.1986L30.8474 39.9903L31.7492 38.458C31.8185 38.3464 31.8879 38.2274 31.9503 38.1084L32.2 37.6918C32.1978 37.6745 32.1978 37.657 32.2 37.6397L32.2694 37.5133C32.9631 36.3603 33.5943 35.1924 34.2394 34.032C34.6626 33.2881 35.0718 32.5442 35.4742 31.8004L35.6684 31.4507L36.2857 30.3349C36.7505 29.4944 37.2083 28.6538 37.6731 27.8058C38.0199 27.1661 38.3667 26.5189 38.6928 25.8717C39.1922 24.8799 39.6847 23.9005 40.1703 22.9335C41.3356 20.568 42.4733 18.1876 43.4791 15.7849L43.6317 15.4129C44.1519 14.1409 44.6375 12.8615 45.0606 11.5746C45.1924 11.1506 45.3242 10.7266 45.4422 10.2951C45.678 9.44713 45.8861 8.59912 46.0387 7.75111C46.2872 6.5047 46.3411 5.22271 46.1983 3.95738C46.1538 3.66676 46.0794 3.38234 45.9763 3.10937C45.893 2.83981 45.7662 2.58802 45.6017 2.3655C45.4923 2.21345 45.364 2.07828 45.2202 1.96381C45.1088 1.87606 44.9876 1.80359 44.8595 1.74809C44.6833 1.66234 44.4963 1.6047 44.3045 1.577C44.0159 1.52482 43.7228 1.50736 43.4305 1.52493C42.9069 1.50812 42.3833 1.55554 41.8698 1.66626C41.1647 1.82812 40.4697 2.0368 39.7888 2.29111C39.0951 2.55891 38.4014 2.85645 37.7078 3.17632C37.0141 3.49618 36.3204 3.83092 35.6268 4.18798C34.2741 4.93185 32.9284 5.67571 31.6243 6.41958C30.3202 7.16345 29.0022 8.03378 27.7467 8.85947C26.4912 9.68516 25.1663 10.5183 23.8899 11.3663L20.2412 13.7913C20.2474 13.7506 20.2671 13.7136 20.2967 13.6872C22.5927 11.7308 24.9582 9.81906 27.4345 8.01146C29.9326 6.15777 32.5289 4.46137 35.2106 2.93084C36.6248 2.13402 38.0897 1.44546 39.5945 0.870326C40.3976 0.578711 41.218 0.345109 42.0501 0.17109C42.4942 0.0789716 42.944 0.0217893 43.3958 0L43.6109 0C43.812 0 44.0063 0 44.2005 0.0669481H44.3323C44.8211 0.150162 45.2913 0.329197 45.7196 0.595094C46.0654 0.832738 46.3685 1.13509 46.6145 1.48774L46.6699 1.56212C46.885 1.87989 47.0535 2.23109 47.1694 2.60354C47.3025 2.96416 47.4024 3.33787 47.4677 3.71934C47.5736 4.40493 47.6131 5.10043 47.5856 5.79473Z" fill="#A8C441"/>
<path d="M48.0712 5.79473C48.0401 6.4854 47.9706 7.17346 47.8631 7.85525C47.7108 9.00731 47.5001 10.1496 47.2318 11.277C47.1833 11.4704 47.1347 11.6639 47.1 11.8573C47.0982 11.877 47.0982 11.897 47.1 11.9168C46.9544 12.5044 46.8087 13.0995 46.6491 13.6797C46.4896 14.26 46.337 14.8327 46.1636 15.3981L46.011 15.9188C45.9624 16.0601 45.9208 16.2014 45.8792 16.3353C45.7404 16.7891 45.5948 17.2429 45.4422 17.6892C44.7809 19.7423 44.0386 21.7805 43.2155 23.8038C42.9103 24.5476 42.5912 25.2915 42.2721 26.0354C42.0085 26.6454 41.7449 27.2479 41.4744 27.8504C41.2039 28.453 40.9264 29.0109 40.6559 29.6208L40.6142 29.7101L40.4547 30.0597C40.3853 30.2085 40.316 30.3647 40.2397 30.5135C40.1633 30.6622 40.1148 30.7887 40.0454 30.93C38.7552 33.6377 37.3679 36.3107 35.8834 38.9489V39.001C35.8349 39.0977 35.7794 39.1944 35.7239 39.2911L35.6614 39.3878C35.606 39.4994 35.5435 39.6035 35.4811 39.7077L35.162 40.2805L34.9608 40.6226C34.8845 40.7491 34.8152 40.8755 34.7458 41.002L34.6209 41.2177C34.5863 41.2772 34.5516 41.3293 34.5238 41.3888C33.8995 42.4525 33.2683 43.5237 32.6301 44.58L32.5816 44.6618L32.4359 44.8999C32.4213 44.9282 32.4051 44.9555 32.3873 44.9817L32.1237 45.4131V45.4801L31.9087 45.7479C31.5203 46.3802 31.1249 47.0125 30.7225 47.6522C30.6532 47.7638 30.5838 47.8828 30.5075 47.9944C29.8786 48.9862 29.2404 49.978 28.593 50.9698C28.2045 51.5649 27.8091 52.16 27.4068 52.7477C27.3028 52.9039 27.1987 53.0675 27.0877 53.2238L26.9143 53.4841L26.8657 53.5511L26.8172 53.6329L26.6993 53.7891L26.4287 54.1908L26.2414 54.4437L25.9778 54.8305C25.4229 55.619 24.861 56.4075 24.2853 57.1886C23.7096 57.9696 23.0991 58.7656 22.5026 59.5466L22.3777 59.7029L21.5939 60.7071C19.7327 63.0676 17.7552 65.3198 15.6699 67.454C14.567 68.5708 13.4093 69.6236 12.2016 70.608C11.5842 71.1138 10.9322 71.6047 10.2385 72.0957C10.0096 72.2445 9.79458 72.3858 9.54486 72.5271C9.01541 72.8564 8.46354 73.1424 7.89394 73.3826C7.42768 73.5886 6.94469 73.7479 6.45111 73.8587C5.93251 73.9844 5.40083 74.0369 4.86954 74.0149H4.74468C4.15575 73.9677 3.58094 73.7985 3.05214 73.5165C3.05214 73.5165 3.01745 73.5165 3.01052 73.5165C2.57788 73.2706 2.19016 72.943 1.86596 72.5495C1.37818 71.9299 1.00185 71.2186 0.756096 70.4517C0.539832 69.7561 0.3797 69.0419 0.277466 68.3168C-0.0624399 65.6035 -0.0950479 62.856 0.180352 60.1343C0.395389 57.6721 0.714476 55.2099 1.15149 52.77C1.19311 52.5543 1.22779 52.3311 1.26941 52.1154C1.28236 52.0669 1.3113 52.025 1.35085 51.9977C1.3904 51.9703 1.43788 51.9593 1.48445 51.9666C1.57462 51.9666 1.63705 52.041 1.63705 52.1154C1.63705 54.7859 1.63705 57.4489 1.7411 60.0822C1.80353 61.3989 1.89371 62.7081 2.03938 64.0024C2.18344 65.2884 2.41528 66.5614 2.73305 67.811C2.89129 68.4097 3.09307 68.9942 3.33654 69.5591C3.53072 70.0905 3.81009 70.5814 4.162 71.0096C4.31441 71.1575 4.48474 71.2826 4.66838 71.3816C4.74306 71.4099 4.81957 71.4322 4.89729 71.4485C4.97111 71.4562 5.04545 71.4562 5.11926 71.4485C5.38716 71.4406 5.65201 71.3853 5.90311 71.2849C6.11673 71.2112 6.32533 71.1217 6.52741 71.0171L6.60371 70.9725C7.16058 70.68 7.69417 70.3392 8.19915 69.9534L8.42806 69.7823C8.89975 69.4178 9.35757 69.0384 9.81539 68.6218C10.8587 67.6618 11.8565 66.6464 12.8051 65.5794C13.7624 64.5231 14.6849 63.4296 15.5798 62.3138C16.2827 61.4509 16.9764 60.5781 17.6608 59.6954L17.7232 59.6061L17.7926 59.5169L18.2226 58.9441C18.9718 57.9523 19.7071 56.9605 20.4285 55.9686C20.4533 55.9378 20.4764 55.9055 20.4979 55.8719C20.5231 55.8415 20.5463 55.8092 20.5672 55.7752L20.6505 55.6636C20.9557 55.2396 21.254 54.8156 21.5522 54.3842C21.8505 53.9528 22.3083 53.313 22.676 52.7774L23.1824 52.0336L23.876 50.9922L24.9998 49.3185L25.8183 48.0613C25.8371 48.0413 25.8534 48.0188 25.8669 47.9944C25.9154 47.9274 25.9917 47.801 26.0888 47.6522L26.8241 46.5141L27.2403 45.8595L27.4623 45.5098C28.156 44.394 28.8496 43.2782 29.5433 42.1401C29.8485 41.6417 30.1468 41.1433 30.4451 40.6524C30.5283 40.5036 30.6185 40.3623 30.7087 40.2135L30.8266 40.0052L31.7284 38.4729C31.7977 38.3613 31.8671 38.2423 31.9295 38.1232L32.1792 37.7067C32.177 37.6894 32.177 37.6719 32.1792 37.6546L32.2486 37.5281C32.9423 36.3751 33.5735 35.2073 34.2186 34.0468C34.6418 33.303 35.051 32.5591 35.4533 31.8152L35.6476 31.4656L36.2649 30.3498C36.7297 29.5092 37.1875 28.6687 37.6523 27.8207C37.9991 27.1809 38.3459 26.5338 38.672 25.8866C39.1714 24.8948 39.6639 23.9154 40.1495 22.9483C41.3148 20.5828 42.4525 18.2025 43.4583 15.7998L43.6109 15.4278C44.1311 14.1558 44.6167 12.8764 45.0398 11.5895C45.1716 11.1655 45.3034 10.7415 45.4214 10.31C45.6572 9.462 45.8653 8.61399 46.0179 7.76598C46.2664 6.51957 46.3203 5.23759 46.1774 3.97226C46.133 3.68164 46.0585 3.39722 45.9555 3.12425C45.8722 2.85468 45.7454 2.6029 45.5809 2.38038C45.4715 2.22832 45.3432 2.09316 45.1994 1.97869C45.088 1.89094 44.9668 1.81847 44.8387 1.76297C44.6625 1.67722 44.4755 1.61958 44.2837 1.59188C43.9951 1.5397 43.702 1.52223 43.4097 1.53981C43.0492 1.56625 42.6903 1.61342 42.3345 1.68114C41.6295 1.843 40.9345 2.05168 40.2535 2.30599C39.5599 2.57378 38.8662 2.87133 38.1725 3.19119C37.4789 3.51106 36.7852 3.8458 36.0915 4.20285C34.7042 4.94672 33.3932 5.69059 32.0821 6.43446C30.7711 7.17833 29.4601 8.02634 28.1698 8.85203C26.8796 9.67772 25.5894 10.5109 24.313 11.3589L20.4701 13.9103C20.4326 13.9388 20.3878 13.9541 20.3418 13.9541C20.2958 13.9541 20.251 13.9388 20.2135 13.9103C20.2003 13.8973 20.1902 13.881 20.1842 13.8628C20.1781 13.8447 20.1763 13.8253 20.1788 13.8062C20.185 13.7654 20.2047 13.7284 20.2343 13.702C22.5303 11.7457 24.8957 9.83394 27.3721 8.02634C29.89 6.16533 32.5073 4.46392 35.2106 2.93084C36.6248 2.13402 38.0897 1.44546 39.5945 0.870326C40.3976 0.578711 41.218 0.345109 42.0501 0.17109C42.4942 0.0789716 42.944 0.0217893 43.3958 0L44.0895 0C44.2907 0 44.4849 0 44.6791 0.0669481H44.8109C45.2997 0.150162 45.77 0.329197 46.1983 0.595094C46.5465 0.832026 46.852 1.13442 47.1 1.48774L47.1555 1.56212C47.3791 1.88428 47.5567 2.24026 47.6827 2.61842C47.8055 2.97528 47.8961 3.34394 47.9532 3.71934C48.0592 4.40493 48.0987 5.10043 48.0712 5.79473Z" fill="#144682"/>
<path d="M11.7438 49.5491H24.32L24.1465 49.8094H11.501V29.2563H36.4244C36.3759 29.3382 36.3343 29.4274 36.2857 29.5167H11.7438V49.5491Z" stroke="white" stroke-width="0.25" stroke-miterlimit="10"/>
</g>
<defs>
<linearGradient id="paint0_linear_770_1888" x1="-78.1348" y1="39.3283" x2="-78.0099" y2="39.3283" gradientUnits="userSpaceOnUse">
<stop stop-color="#CCE0F4"/>
<stop offset="0.06" stop-color="#C4D7ED"/>
<stop offset="0.15" stop-color="#AEBDDB"/>
<stop offset="0.27" stop-color="#8A94BE"/>
<stop offset="0.41" stop-color="#585A95"/>
<stop offset="0.57" stop-color="#1B1464"/>
<stop offset="0.87" stop-color="#0075BE"/>
<stop offset="0.99" stop-color="#005B97"/>
</linearGradient>
<linearGradient id="paint1_linear_770_1888" x1="35.0303" y1="39.44" x2="35.4326" y2="39.44" gradientUnits="userSpaceOnUse">
<stop stop-color="#CCE0F4"/>
<stop offset="0.05" stop-color="#C3DCF2"/>
<stop offset="0.14" stop-color="#A9D2EE"/>
<stop offset="0.26" stop-color="#80C2E7"/>
<stop offset="0.39" stop-color="#47ACDE"/>
<stop offset="0.47" stop-color="#1E9CD7"/>
<stop offset="0.77" stop-color="#0075BE"/>
<stop offset="0.92" stop-color="#005B97"/>
</linearGradient>
<linearGradient id="paint2_linear_770_1888" x1="21.0808" y1="53.3204" x2="22.1767" y2="53.3204" gradientUnits="userSpaceOnUse">
<stop stop-color="#CCE0F4"/>
<stop offset="0.05" stop-color="#C3DCF2"/>
<stop offset="0.14" stop-color="#A9D2EE"/>
<stop offset="0.26" stop-color="#80C2E7"/>
<stop offset="0.39" stop-color="#47ACDE"/>
<stop offset="0.47" stop-color="#1E9CD7"/>
<stop offset="0.77" stop-color="#0075BE"/>
<stop offset="0.92" stop-color="#005B97"/>
</linearGradient>
<linearGradient id="paint3_linear_770_1888" x1="21.5385" y1="53.7221" x2="23.0021" y2="53.7221" gradientUnits="userSpaceOnUse">
<stop stop-color="#CCE0F4"/>
<stop offset="0.05" stop-color="#C3DCF2"/>
<stop offset="0.14" stop-color="#A9D2EE"/>
<stop offset="0.26" stop-color="#80C2E7"/>
<stop offset="0.39" stop-color="#47ACDE"/>
<stop offset="0.47" stop-color="#1E9CD7"/>
<stop offset="0.77" stop-color="#0075BE"/>
<stop offset="0.92" stop-color="#005B97"/>
</linearGradient>
<linearGradient id="paint4_linear_770_1888" x1="-78.1347" y1="57.7317" x2="-78.0099" y2="57.7317" gradientUnits="userSpaceOnUse">
<stop stop-color="#CCE0F4"/>
<stop offset="0.06" stop-color="#C4D7ED"/>
<stop offset="0.15" stop-color="#AEBDDB"/>
<stop offset="0.27" stop-color="#8A94BE"/>
<stop offset="0.41" stop-color="#585A95"/>
<stop offset="0.57" stop-color="#1B1464"/>
<stop offset="0.87" stop-color="#0075BE"/>
<stop offset="0.99" stop-color="#005B97"/>
</linearGradient>
<linearGradient id="paint5_linear_770_1888" x1="19.7485" y1="56.4522" x2="37.0625" y2="56.4522" gradientUnits="userSpaceOnUse">
<stop stop-color="#CCE0F4"/>
<stop offset="0.05" stop-color="#C3DCF2"/>
<stop offset="0.14" stop-color="#A9D2EE"/>
<stop offset="0.26" stop-color="#80C2E7"/>
<stop offset="0.39" stop-color="#47ACDE"/>
<stop offset="0.47" stop-color="#1E9CD7"/>
<stop offset="0.77" stop-color="#0075BE"/>
<stop offset="0.92" stop-color="#005B97"/>
</linearGradient>
<linearGradient id="paint6_linear_770_1888" x1="19.2213" y1="56.3778" x2="37.3191" y2="56.3778" gradientUnits="userSpaceOnUse">
<stop stop-color="#CCE0F4"/>
<stop offset="0.05" stop-color="#C3DCF2"/>
<stop offset="0.14" stop-color="#A9D2EE"/>
<stop offset="0.26" stop-color="#80C2E7"/>
<stop offset="0.39" stop-color="#47ACDE"/>
<stop offset="0.47" stop-color="#1E9CD7"/>
<stop offset="0.77" stop-color="#0075BE"/>
<stop offset="0.92" stop-color="#005B97"/>
</linearGradient>
<clipPath id="clip0_770_1888">
<rect width="155" height="74" fill="white"/>
</clipPath>
</defs>
</svg>
