<svg width="182" height="155" viewBox="0 0 182 155" fill="none" xmlns="http://www.w3.org/2000/svg">
<g id="services5" clip-path="url(#clip0_370_3097)">
<g id="Group">
<g id="Group_2">
<path id="Vector" d="M147.178 153.77H35.6542V155H147.178V153.77Z" fill="#1D0030"/>
</g>
<g id="Group_3">
<g id="Group_4">
<g id="Group_5">
<path id="Vector_2" d="M162.435 35.4243V126.145C162.435 129.536 159.681 132.295 156.296 132.295H112.099" stroke="#C370FF" stroke-width="1.335" stroke-miterlimit="10" stroke-dasharray="2.67 2.67"/>
<path id="Vector_3" d="M24.9313 118.866V35.4245C24.9313 32.0336 27.6856 29.2739 31.0698 29.2739H75.3502" stroke="#C370FF" stroke-width="1.335" stroke-miterlimit="10" stroke-dasharray="2.67 2.67"/>
</g>
<g id="Group_6">
<g id="Group_7">
<path id="Vector_4" d="M103.118 118.557H84.2476L72.1222 150.595H115.239L103.118 118.557Z" fill="#C1C9D9"/>
<path id="Vector_5" d="M117.676 154.99H69.6852L67.6068 150.535H119.759L117.676 154.99Z" fill="#DCE6F2"/>
<path id="Vector_6" d="M80.192 129.273L111.634 141.063L105.864 125.813H81.4979L80.192 129.273Z" fill="#A5ACBA"/>
</g>
<g id="Group_8">
<path id="Vector_7" d="M156.296 129.218H31.0698C29.3731 129.218 28.0028 127.84 28.0028 126.145V35.4246C28.0028 33.7245 29.3777 32.3516 31.0698 32.3516H156.296C157.993 32.3516 159.363 33.7291 159.363 35.4246V126.145C159.363 127.845 157.988 129.218 156.296 129.218Z" fill="#C1C9D9"/>
<path id="Vector_8" d="M95.7292 36.1435C95.7292 37.2768 94.8142 38.1937 93.683 38.1937C92.5519 38.1937 91.6368 37.2768 91.6368 36.1435C91.6368 35.0101 92.5519 34.0933 93.683 34.0933C94.8096 34.0933 95.7292 35.0101 95.7292 36.1435Z" fill="#0A1D45"/>
<path id="Vector_9" d="M151.998 118.56L151.998 39.731L35.3652 39.731L35.3652 118.56L151.998 118.56Z" fill="#0A1D45"/>
</g>
</g>
<g id="Group_9">
<g id="Group_10">
<g id="Group_11">
<path id="Vector_10" d="M6.44657 134.853C6.44657 135.415 5.99136 135.871 5.43038 135.871C4.8694 135.871 4.41418 135.415 4.41418 134.853C4.41418 134.291 4.8694 133.834 5.43038 133.834C5.99136 133.834 6.44657 134.291 6.44657 134.853Z" fill="#F15A24"/>
<path id="Vector_11" d="M9.77559 135.871C10.3368 135.871 10.7918 135.415 10.7918 134.853C10.7918 134.29 10.3368 133.834 9.77559 133.834C9.21437 133.834 8.7594 134.29 8.7594 134.853C8.7594 135.415 9.21437 135.871 9.77559 135.871Z" fill="#F15A24"/>
<path id="Vector_12" d="M14.1163 135.871C14.6775 135.871 15.1325 135.415 15.1325 134.853C15.1325 134.29 14.6775 133.834 14.1163 133.834C13.5551 133.834 13.1001 134.29 13.1001 134.853C13.1001 135.415 13.5551 135.871 14.1163 135.871Z" fill="#F15A24"/>
<path id="Vector_13" d="M18.4616 135.871C19.0229 135.871 19.4778 135.415 19.4778 134.853C19.4778 134.29 19.0229 133.834 18.4616 133.834C17.9004 133.834 17.4454 134.29 17.4454 134.853C17.4454 135.415 17.9004 135.871 18.4616 135.871Z" fill="#F15A24"/>
<path id="Vector_14" d="M22.8068 135.871C23.3681 135.871 23.823 135.415 23.823 134.853C23.823 134.29 23.3681 133.834 22.8068 133.834C22.2456 133.834 21.7906 134.29 21.7906 134.853C21.7906 135.415 22.2456 135.871 22.8068 135.871Z" fill="#F15A24"/>
<path id="Vector_15" d="M27.1475 135.871C27.7088 135.871 28.1637 135.415 28.1637 134.853C28.1637 134.29 27.7088 133.834 27.1475 133.834C26.5863 133.834 26.1313 134.29 26.1313 134.853C26.1313 135.415 26.5863 135.871 27.1475 135.871Z" fill="#F15A24"/>
<path id="Vector_16" d="M31.4928 135.871C32.054 135.871 32.509 135.415 32.509 134.853C32.509 134.29 32.054 133.834 31.4928 133.834C30.9315 133.834 30.4766 134.29 30.4766 134.853C30.4766 135.415 30.9315 135.871 31.4928 135.871Z" fill="#F15A24"/>
<path id="Vector_17" d="M35.8381 135.871C36.3993 135.871 36.8543 135.415 36.8543 134.853C36.8543 134.29 36.3993 133.834 35.8381 133.834C35.2769 133.834 34.8219 134.29 34.8219 134.853C34.8219 135.415 35.2769 135.871 35.8381 135.871Z" fill="#F15A24"/>
</g>
<g id="Group_12">
<path id="Vector_18" d="M90.7217 13.8815C90.7217 14.4436 90.2665 14.8997 89.7055 14.8997C89.1445 14.8997 88.6893 14.4436 88.6893 13.8815C88.6893 13.3194 89.1445 12.8633 89.7055 12.8633C90.2665 12.8633 90.7217 13.3148 90.7217 13.8815Z" fill="#F15A24"/>
<path id="Vector_19" d="M95.0669 13.8815C95.0669 14.4436 94.6117 14.8997 94.0507 14.8997C93.4898 14.8997 93.0345 14.4436 93.0345 13.8815C93.0345 13.3194 93.4898 12.8633 94.0507 12.8633C94.6117 12.8633 95.0669 13.3148 95.0669 13.8815Z" fill="#F15A24"/>
<path id="Vector_20" d="M99.4076 13.8815C99.4076 14.4436 98.9524 14.8997 98.3914 14.8997C97.8305 14.8997 97.3752 14.4436 97.3752 13.8815C97.3752 13.3194 97.8305 12.8633 98.3914 12.8633C98.9524 12.8587 99.4076 13.3148 99.4076 13.8815Z" fill="#F15A24"/>
<path id="Vector_21" d="M103.753 13.8815C103.753 14.4436 103.298 14.8997 102.737 14.8997C102.176 14.8997 101.721 14.4436 101.721 13.8815C101.721 13.3194 102.176 12.8633 102.737 12.8633C103.298 12.8587 103.753 13.3148 103.753 13.8815Z" fill="#F15A24"/>
<path id="Vector_22" d="M108.098 13.8815C108.098 14.4436 107.643 14.8997 107.082 14.8997C106.521 14.8997 106.066 14.4436 106.066 13.8815C106.066 13.3194 106.521 12.8633 107.082 12.8633C107.643 12.8633 108.098 13.3148 108.098 13.8815Z" fill="#F15A24"/>
<path id="Vector_23" d="M112.439 13.8815C112.439 14.4436 111.984 14.8997 111.423 14.8997C110.862 14.8997 110.406 14.4436 110.406 13.8815C110.406 13.3194 110.862 12.8633 111.423 12.8633C111.984 12.8633 112.439 13.3148 112.439 13.8815Z" fill="#F15A24"/>
<path id="Vector_24" d="M116.784 13.8815C116.784 14.4436 116.329 14.8997 115.768 14.8997C115.207 14.8997 114.752 14.4436 114.752 13.8815C114.752 13.3194 115.207 12.8633 115.768 12.8633C116.329 12.8587 116.784 13.3148 116.784 13.8815Z" fill="#F15A24"/>
<path id="Vector_25" d="M121.129 13.8815C121.129 14.4436 120.674 14.8997 120.113 14.8997C119.552 14.8997 119.097 14.4436 119.097 13.8815C119.097 13.3194 119.552 12.8633 120.113 12.8633C120.674 12.8587 121.129 13.3148 121.129 13.8815Z" fill="#F15A24"/>
</g>
</g>
<g id="Group_13">
<path id="Vector_26" d="M173.3 116.194C173.3 117.663 172.114 118.852 170.647 118.852C169.18 118.852 167.994 117.663 167.994 116.194C167.994 114.724 169.18 113.535 170.647 113.535C172.109 113.535 173.3 114.724 173.3 116.194Z" fill="#0CBA83"/>
<path id="Vector_27" d="M20.0985 30.2741C20.0985 31.7438 18.9122 32.9324 17.4454 32.9324C15.9786 32.9324 14.7922 31.7438 14.7922 30.2741C14.7922 28.8044 15.9786 27.6157 17.4454 27.6157C18.9076 27.6157 20.0985 28.8044 20.0985 30.2741Z" fill="#ED1E79"/>
<path id="Vector_28" d="M60.121 130.444C60.121 131.914 58.9347 133.102 57.4678 133.102C56.001 133.102 54.8147 131.914 54.8147 130.444C54.8147 128.974 56.001 127.786 57.4678 127.786C58.9301 127.786 60.121 128.979 60.121 130.444Z" fill="#29ABE2"/>
</g>
</g>
<g id="Group_14">
<g id="Group_15">
<path id="Vector_29" d="M114.149 49.2368H44.5792C42.8825 49.2368 41.5122 50.6144 41.5122 52.3098V54.1573V121.404H117.221V54.1573V52.3098C117.221 50.6144 115.846 49.2368 114.149 49.2368Z" fill="#A5ACBA"/>
<g id="Group_16">
<path id="Vector_30" d="M114.145 45.9843C114.145 44.2843 112.77 42.9067 111.078 42.9067H41.503C39.8063 42.9067 38.436 44.2843 38.436 45.9843V47.8272H114.145V45.9843Z" fill="#0059D6"/>
<path id="Vector_31" d="M114.145 47.8271H38.436V115.074H114.145V47.8271Z" fill="#E4EBFD"/>
</g>
</g>
<g id="Group_17">
<g id="Group_18">
<path id="Vector_32" d="M108.719 52.9551H88.6157V56.1064H108.719V52.9551Z" fill="#BECBEB"/>
<path id="Vector_33" d="M108.719 58.5664H88.6157V61.7177H108.719V58.5664Z" fill="#BECBEB"/>
<path id="Vector_34" d="M108.719 64.1782H88.6157V67.3295H108.719V64.1782Z" fill="#BECBEB"/>
<path id="Vector_35" d="M108.719 69.7896H88.6157V72.9409H108.719V69.7896Z" fill="#BECBEB"/>
<path id="Vector_36" d="M108.719 75.4014H88.6157V78.5527H108.719V75.4014Z" fill="#BECBEB"/>
</g>
<g id="Group_19">
<path id="Vector_37" d="M110.002 82.46H87.9031V112.904H110.002V82.46Z" stroke="#0068FA" stroke-width="0.6675" stroke-miterlimit="10" stroke-dasharray="2.67 2.67"/>
<g id="Group_20">
<path id="Vector_38" d="M108.439 84.022H89.4619V111.347H108.439V84.022Z" fill="white"/>
<path id="Vector_39" d="M106.494 85.6299H91.407V109.735H106.494V85.6299Z" fill="#2FCBE0"/>
<g id="Group_21">
<path id="Vector_40" d="M98.0375 88.8457H99.5595L102.695 106.519H101.252L100.672 102.935H97.1455L96.6121 106.519H95.2004L98.0375 88.8457ZM100.475 101.7L98.8514 91.6976H98.833L97.3386 101.7H100.475Z" fill="black"/>
</g>
</g>
</g>
<g id="Group_22">
<g id="Group_23">
<path id="Vector_41" d="M84.0636 82.1694H42.3214V85.3208H84.0636V82.1694Z" fill="#BECBEB"/>
<path id="Vector_42" d="M84.0636 88.3477H42.3214V91.499H84.0636V88.3477Z" fill="#BECBEB"/>
<path id="Vector_43" d="M67.2986 94.5215H42.3214V97.6728H67.2986V94.5215Z" fill="#BECBEB"/>
<path id="Vector_44" d="M62.0567 100.7H42.3214V103.851H62.0567V100.7Z" fill="#BECBEB"/>
<path id="Vector_45" d="M73.1659 106.878H68.0114V110.029H73.1659V106.878Z" fill="#ED1E79"/>
<path id="Vector_46" d="M65.7859 106.878H42.3214V110.029H65.7859V106.878Z" fill="#BECBEB"/>
<path id="Vector_47" d="M79.3643 94.5215H69.2483V97.6728H79.3643V94.5215Z" fill="#FBB03B"/>
<path id="Vector_48" d="M84.0636 100.7H65.0317V103.851H84.0636V100.7Z" fill="#BECBEB"/>
<path id="Vector_49" d="M84.0682 106.878H76.0398V110.029H84.0682V106.878Z" fill="#BECBEB"/>
</g>
<g id="Group_24">
<g id="Group_25">
<path id="Vector_50" d="M81.2036 55.5171H45.1815V76.5812H81.2036V55.5171Z" fill="#0A1D45"/>
<g id="Group_26">
<path id="Vector_51" d="M66.8297 63.4372L62.7419 72.1079L56.3596 58.5674L47.8668 76.5815H64.8478L64.8249 76.5309H73.0004L66.8297 63.4372Z" fill="#133785"/>
<path id="Vector_52" d="M75.3501 57.8208C73.5982 57.8208 72.1774 59.2444 72.1774 60.9998C72.1774 62.7551 73.5982 64.1787 75.3501 64.1787C77.102 64.1787 78.5228 62.7551 78.5228 60.9998C78.5228 59.2444 77.102 57.8208 75.3501 57.8208Z" fill="#FBB03B"/>
</g>
</g>
<g id="Group_27">
<path id="Vector_53" d="M84.0636 52.9551H42.3214V79.147H84.0636V52.9551Z" stroke="#0068FA" stroke-width="0.6675" stroke-miterlimit="10" stroke-dasharray="2.67 2.67"/>
<g id="Group_28">
<g id="Group_29">
<path id="Vector_54" d="M84.7855 52.2319H83.3463V53.674H84.7855V52.2319Z" fill="#0A1D45"/>
<path id="Vector_55" d="M43.0434 52.2319H41.6041V53.674H43.0434V52.2319Z" fill="#0A1D45"/>
</g>
<g id="Group_30">
<path id="Vector_56" d="M84.7855 78.4238H83.3463V79.8659H84.7855V78.4238Z" fill="#0A1D45"/>
<path id="Vector_57" d="M43.0434 78.4238H41.6041V79.8659H43.0434V78.4238Z" fill="#0A1D45"/>
</g>
</g>
</g>
</g>
</g>
</g>
</g>
<g id="Group_31">
<path id="Vector_58" d="M146.829 45.3672H119.309V72.9413H146.829V45.3672Z" stroke="#0068FA" stroke-width="0.6675" stroke-miterlimit="10" stroke-dasharray="2.67 2.67"/>
<g id="Group_32">
<path id="Vector_59" d="M144.373 47.8276H121.764V70.4812H144.373V47.8276Z" fill="#103173"/>
<g id="Group_33">
<path id="Vector_60" d="M137.954 64.0494C140.651 61.347 140.651 56.9655 137.954 54.2631C135.257 51.5607 130.884 51.5607 128.187 54.2631C125.49 56.9655 125.49 61.347 128.187 64.0494C130.884 66.7518 135.257 66.7518 137.954 64.0494Z" fill="#0A1D45"/>
<path id="Vector_61" d="M131.572 54.8857V63.4229L137.007 59.1566L131.572 54.8857Z" fill="#ED1E79"/>
</g>
</g>
</g>
<g id="Group_34">
<path id="Vector_62" d="M108.094 32.3472C108.457 35.6321 111.234 38.1891 114.614 38.1891H148.53C151.905 38.1891 154.687 35.6321 155.05 32.3472H108.094Z" fill="#A5ACBA"/>
<g id="Group_35">
<path id="Vector_63" d="M146.401 36.1433H112.485C108.862 36.1433 105.923 33.1993 105.923 29.5688V29.5642C105.923 25.9337 108.862 22.9897 112.485 22.9897H146.401C150.024 22.9897 152.963 25.9337 152.963 29.5642V29.5688C152.963 33.1993 150.024 36.1433 146.401 36.1433Z" fill="#DCE6F2"/>
<g id="Group_36">
<path id="Vector_64" d="M145.858 33.7567H112.903C110.595 33.7567 108.724 31.8816 108.724 29.5688C108.724 27.256 110.595 25.3809 112.903 25.3809H145.858C148.167 25.3809 150.038 27.256 150.038 29.5688C150.038 31.8816 148.167 33.7567 145.858 33.7567Z" fill="#BECBEB"/>
<path id="Vector_65" d="M116.54 31.1997L115.115 29.882C115.262 29.6102 115.34 29.3061 115.34 28.9974C115.34 27.9608 114.499 27.1177 113.464 27.1177C112.43 27.1177 111.588 27.9608 111.588 28.9974C111.588 30.034 112.43 30.8771 113.464 30.8771C113.823 30.8771 114.168 30.7712 114.476 30.5731L115.901 31.8907C115.989 31.9737 116.099 32.0151 116.219 32.0151C116.347 32.0151 116.476 31.9598 116.563 31.8631C116.651 31.7709 116.692 31.6512 116.688 31.5268C116.688 31.3978 116.632 31.2826 116.54 31.1997ZM114.568 28.9928C114.568 29.601 114.076 30.0939 113.469 30.0939C112.862 30.0939 112.37 29.601 112.37 28.9928C112.37 28.3847 112.862 27.8917 113.469 27.8917C114.076 27.8917 114.568 28.3893 114.568 28.9928Z" fill="#E4EBFD"/>
</g>
</g>
</g>
<g id="Group_37">
<path id="Vector_66" d="M159.363 88.3477H127.034C126.358 88.3477 125.806 88.9005 125.806 89.5778V108.785C125.806 109.462 126.358 110.015 127.034 110.015H159.363V88.3477Z" fill="#A5ACBA"/>
<g id="Group_38">
<g id="Group_39">
<g id="Group_40">
<g id="Group_41">
<path id="Vector_67" d="M168.109 106.311V106.924H167.497" stroke="#0068FA" stroke-width="0.6675" stroke-miterlimit="10"/>
<path id="Vector_68" d="M166.283 106.924H120.835" stroke="#0068FA" stroke-width="0.6675" stroke-miterlimit="10" stroke-dasharray="2.64 2.64"/>
<path id="Vector_69" d="M120.233 106.924H119.617V106.311" stroke="#0068FA" stroke-width="0.6675" stroke-miterlimit="10"/>
<path id="Vector_70" d="M119.617 105.132V82.1558" stroke="#0068FA" stroke-width="0.6675" stroke-miterlimit="10" stroke-dasharray="2.56 2.56"/>
<path id="Vector_71" d="M119.617 81.5659V80.9531H120.233" stroke="#0068FA" stroke-width="0.6675" stroke-miterlimit="10"/>
<path id="Vector_72" d="M121.442 80.9531H166.89" stroke="#0068FA" stroke-width="0.6675" stroke-miterlimit="10" stroke-dasharray="2.64 2.64"/>
<path id="Vector_73" d="M167.497 80.9531H168.109V81.5659" stroke="#0068FA" stroke-width="0.6675" stroke-miterlimit="10"/>
<path id="Vector_74" d="M168.109 82.7451V105.721" stroke="#0068FA" stroke-width="0.6675" stroke-miterlimit="10" stroke-dasharray="2.56 2.56"/>
</g>
</g>
<g id="Group_42">
<g id="Group_43">
<path id="Vector_75" d="M168.831 80.23H167.392V81.672H168.831V80.23Z" fill="#DCE6F2"/>
<path id="Vector_76" d="M120.339 80.23H118.899V81.672H120.339V80.23Z" fill="#DCE6F2"/>
</g>
<g id="Group_44">
<path id="Vector_77" d="M168.831 106.206H167.392V107.648H168.831V106.206Z" fill="#DCE6F2"/>
<path id="Vector_78" d="M120.339 106.206H118.899V107.648H120.339V106.206Z" fill="#DCE6F2"/>
</g>
</g>
</g>
<g id="Group_45">
<path id="Vector_79" d="M164.734 104.773H122.992C122.316 104.773 121.764 104.22 121.764 103.543V84.3351C121.764 83.6578 122.316 83.105 122.992 83.105H164.734C165.41 83.105 165.962 83.6578 165.962 84.3351V103.543C165.962 104.22 165.414 104.773 164.734 104.773Z" fill="#DCE6F2"/>
<g id="Group_46">
<g id="Group_47">
<g id="Group_48">
<path id="Vector_80" d="M151.841 86.3809H138.184V89.0576H151.841V86.3809Z" fill="#BECBEB"/>
<path id="Vector_81" d="M155.597 90.7852H138.184V93.4619H155.597V90.7852Z" fill="#BECBEB"/>
<path id="Vector_82" d="M164.504 90.7852H157.101V93.4619H164.504V90.7852Z" fill="#E43438"/>
<path id="Vector_83" d="M152.88 89.0596H156.683V86.3828H152.88V89.0596Z" fill="#BECBEB"/>
<path id="Vector_84" d="M157.598 89.0596H163.534V86.3828H157.598V89.0596Z" fill="#BECBEB"/>
</g>
<g id="Group_49">
<path id="Vector_85" d="M151.841 95.1943H138.184V97.8711H151.841V95.1943Z" fill="#BECBEB"/>
<path id="Vector_86" d="M164.499 99.5986H138.184V102.275H164.499V99.5986Z" fill="#BECBEB"/>
<path id="Vector_87" d="M152.88 97.8721H156.683V95.1953H152.88V97.8721Z" fill="#ED1E79"/>
<path id="Vector_88" d="M157.598 97.8721H163.534V95.1953H157.598V97.8721Z" fill="#BECBEB"/>
</g>
</g>
<g id="Group_50">
<path id="Vector_89" d="M130.013 86.897C127.595 86.897 125.636 88.8596 125.636 91.283V92.6652H127.029V91.1448C127.029 89.4908 128.367 88.1547 130.013 88.1547C131.664 88.1547 132.997 89.4954 132.997 91.1448V92.6652H134.391V91.283C134.391 88.8596 132.432 86.897 130.013 86.897Z" fill="#0A1D45"/>
<path id="Vector_90" d="M134.358 92.665H125.668C125.346 92.665 125.089 92.923 125.089 93.2455V100.396C125.089 100.718 125.346 100.976 125.668 100.976H134.358C134.68 100.976 134.938 100.718 134.938 100.396V93.2455C134.938 92.9276 134.676 92.665 134.358 92.665ZM130.675 98.378H129.356L129.526 96.9267C129.277 96.7654 129.116 96.489 129.116 96.1711C129.116 95.6735 129.521 95.2681 130.018 95.2681C130.514 95.2681 130.919 95.6735 130.919 96.1711C130.919 96.489 130.753 96.7654 130.51 96.9267L130.675 98.378Z" fill="#FBBF62"/>
</g>
</g>
</g>
</g>
</g>
<g id="Group_51">
<path id="Vector_91" d="M130.487 115.899C122.817 115.899 116.6 119.981 116.6 125.012C116.6 128.965 120.44 132.333 125.81 133.595V139.681L131.374 134.107C138.63 133.807 144.378 129.854 144.378 125.012C144.373 119.976 138.157 115.899 130.487 115.899ZM124.399 126.938C123.337 126.938 122.472 126.072 122.472 125.007C122.472 123.943 123.332 123.077 124.399 123.077C125.461 123.077 126.325 123.943 126.325 125.007C126.325 126.076 125.461 126.938 124.399 126.938ZM130.487 126.938C129.425 126.938 128.56 126.072 128.56 125.007C128.56 123.943 129.425 123.077 130.487 123.077C131.549 123.077 132.413 123.943 132.413 125.007C132.413 126.076 131.549 126.938 130.487 126.938ZM136.575 126.938C135.513 126.938 134.648 126.072 134.648 125.007C134.648 123.943 135.513 123.077 136.575 123.077C137.637 123.077 138.501 123.943 138.501 125.007C138.501 126.076 137.637 126.938 136.575 126.938Z" fill="#E43438"/>
<g id="Group_52">
<g id="Group_53">
<g id="Group_54">
<path id="Vector_92" d="M77.9114 20.8474V18.4102L76.3434 18.0923C76.302 17.9771 76.2514 17.8666 76.2008 17.756L76.2054 17.7606L77.0883 16.4291L75.3686 14.706L74.0397 15.5906V15.5952C73.9293 15.5445 73.819 15.4985 73.704 15.4524L73.3868 13.8813H70.9543L70.637 15.4524C70.5221 15.4939 70.4117 15.5445 70.3014 15.5952L70.306 15.5906L68.9771 14.706L67.2574 16.4291L68.1402 17.7606L68.1448 17.756C68.0943 17.8666 68.0483 17.9771 68.0023 18.0923L66.4343 18.4102V20.8474L68.0023 21.1653C68.0437 21.2805 68.0943 21.3911 68.1448 21.5017L68.1402 21.497L67.2574 22.8285L68.9771 24.5516L70.306 23.667L70.3014 23.6624C70.4117 23.7131 70.5221 23.7592 70.637 23.8053L70.9543 25.3763H73.3868L73.704 23.8053C73.819 23.7638 73.9293 23.7131 74.0397 23.6624V23.667L75.3686 24.5516L77.0883 22.8285L76.2054 21.497L76.2008 21.5017C76.2514 21.3911 76.2974 21.2805 76.3434 21.1653L77.9114 20.8474ZM72.1774 21.9071C70.9221 21.9071 69.9059 20.8889 69.9059 19.6311C69.9059 18.3734 70.9221 17.3552 72.1774 17.3552C73.4327 17.3552 74.4489 18.3734 74.4489 19.6311C74.4489 20.8843 73.4327 21.9071 72.1774 21.9071Z" fill="#0059D6"/>
</g>
</g>
<g id="Group_55">
<g id="Group_56">
<g id="Group_57">
<path id="Vector_93" d="M45.0115 32.3472L48.2946 35.6367L50.8879 33.909L50.8833 33.9044C51.0994 34.0058 51.3156 34.0979 51.5409 34.1808L52.157 37.24H56.8977L57.5139 34.1808C57.7392 34.0979 57.9553 34.0058 58.1714 33.9044L58.1668 33.909L60.7602 35.6367L64.0433 32.3472H45.0115Z" fill="#A5ACBA"/>
</g>
</g>
<g id="Group_58">
<g id="Group_59">
<path id="Vector_94" d="M63.4133 26.5698V21.8198L60.3601 21.2024C60.2773 20.9767 60.1854 20.7601 60.0842 20.5436L60.0888 20.5482L61.8131 17.9497L58.4611 14.5911L55.8677 16.3188L55.8723 16.3234C55.6562 16.222 55.4401 16.1299 55.2148 16.047L54.5986 12.9878H49.8579L49.2417 16.047C49.0164 16.1299 48.8003 16.222 48.5842 16.3234L48.5888 16.3188L45.9954 14.5911L42.6434 17.9497L44.3677 20.5482L44.3723 20.5436C44.2711 20.7601 44.1792 20.9767 44.0964 21.2024L41.0432 21.8198V26.5698L44.0964 27.1872C44.1792 27.4129 44.2711 27.6295 44.3723 27.846L44.3677 27.8414L42.6434 30.4399L45.9954 33.7985L48.5888 32.0708L48.5842 32.0662C48.8003 32.1676 49.0164 32.2597 49.2417 32.3426L49.8579 35.4018H54.5986L55.2148 32.3426C55.4401 32.2597 55.6562 32.1676 55.8723 32.0662L55.8677 32.0708L58.4611 33.7985L61.8131 30.4399L60.0888 27.8414L60.0842 27.846C60.1854 27.6295 60.2773 27.4129 60.3601 27.1872L63.4133 26.5698ZM52.2351 28.6338C49.7889 28.6338 47.8071 26.6481 47.8071 24.1971C47.8071 21.7461 49.7889 19.7604 52.2351 19.7604C54.6814 19.7604 56.6632 21.7461 56.6632 24.1971C56.6632 26.6481 54.6814 28.6338 52.2351 28.6338Z" fill="#0CBA83"/>
</g>
</g>
</g>
</g>
<g id="Group_60">
<path id="Vector_95" d="M178.142 65.8644C183.285 60.7114 183.285 52.3569 178.142 47.204C172.999 42.0511 164.661 42.0511 159.518 47.204C154.376 52.3569 154.376 60.7115 159.518 65.8644C164.661 71.0173 172.999 71.0173 178.142 65.8644Z" fill="#E4EBFD"/>
<path id="Vector_96" d="M171.125 46.2744V53.8763L168.831 55.0926L166.536 53.8763V46.2744C163.814 47.2235 161.865 49.8173 161.865 52.8673C161.865 55.8436 163.727 58.3821 166.343 59.3865V67.638C167.143 67.8177 167.976 67.919 168.831 67.919C169.686 67.919 170.518 67.8177 171.318 67.638V59.3865C173.935 58.3821 175.797 55.8436 175.797 52.8673C175.797 49.8127 173.843 47.2235 171.125 46.2744Z" fill="#0059D6"/>
</g>
<g id="Group_61">
<g id="Group_62">
<path id="Vector_97" d="M47.1174 94.5952H28.104V116.143H47.122C47.798 116.143 48.3497 115.775 48.3497 115.318V95.4245C48.3451 94.9638 47.7979 94.5952 47.1174 94.5952Z" fill="#A5ACBA"/>
<g id="Group_63">
<path id="Vector_98" d="M44.7126 112.904H2.29447C1.74729 112.904 1.30127 112.458 1.30127 111.909V92.9092C1.30127 92.361 1.74729 91.9141 2.29447 91.9141H44.7126C45.2597 91.9141 45.7058 92.361 45.7058 92.9092V111.909C45.7058 112.458 45.2597 112.904 44.7126 112.904Z" fill="#DCE6F2"/>
<g id="Group_64">
<g id="Group_65">
<path id="Vector_99" d="M22.8501 109.734H42.121V107.034H22.8501V109.734Z" fill="#BECBEB"/>
<path id="Vector_100" d="M22.8501 105.635H42.121V102.935H22.8501V105.635Z" fill="#BECBEB"/>
<path id="Vector_101" d="M22.8516 101.537H34.6091V98.8368H22.8516V101.537Z" fill="#BECBEB"/>
<path id="Vector_102" d="M36.7011 101.537H42.1223V98.8368H36.7011V101.537Z" fill="#0CBA83"/>
<path id="Vector_103" d="M22.8501 97.4336H42.121V94.7338H22.8501V97.4336Z" fill="#BECBEB"/>
</g>
<g id="Group_66">
<g id="Group_67">
<path id="Vector_104" d="M20.1261 94.5356H4.88782V109.804H20.1261V94.5356Z" fill="#0059D6"/>
<g id="Group_68">
<path id="Vector_105" d="M7.55017 102.331V101.59L10.562 100.272V101.032L8.29967 101.963L10.562 102.88V103.649L7.55017 102.331Z" fill="white"/>
<path id="Vector_106" d="M13.1231 99.3228H14.1163L11.8954 104.598H10.8976L13.1231 99.3228Z" fill="white"/>
<path id="Vector_107" d="M14.4567 102.88L16.719 101.963L14.4567 101.032V100.272L17.4685 101.59V102.331L14.4567 103.649V102.88Z" fill="white"/>
</g>
</g>
</g>
</g>
</g>
</g>
<g id="Group_69">
<path id="Vector_108" d="M34.4219 61.3774H27.9983V78.9539H34.4219V61.3774Z" fill="#A5ACBA"/>
<g id="Group_70">
<path id="Vector_109" d="M31.9205 57.793H0V75.3694H31.9205V57.793Z" fill="#FBB03B"/>
<path id="Vector_110" d="M15.9602 75.3696H31.9205L15.9602 64.3584L0 75.3696H15.9602Z" fill="#FBBF62"/>
<path id="Vector_111" d="M15.9602 57.793H0L15.9602 68.8042L31.9205 57.793H15.9602Z" fill="#FF9129"/>
</g>
</g>
</g>
</g>
</g>
</g>
</g>
</g>
<defs>
<clipPath id="clip0_370_3097">
<rect width="182" height="155" fill="white"/>
</clipPath>
</defs>
</svg>
