<svg width="68" height="68" viewBox="0 0 68 68" fill="none" xmlns="http://www.w3.org/2000/svg">
<path d="M51 6.375H17C11.1418 6.375 6.375 11.1418 6.375 17V51C6.375 56.8582 11.1418 61.625 17 61.625H51C56.8582 61.625 61.625 56.8582 61.625 51V17C61.625 11.1418 56.8582 6.375 51 6.375ZM57.375 51C57.375 54.5154 54.5154 57.375 51 57.375H17C13.4846 57.375 10.625 54.5154 10.625 51V17C10.625 13.4846 13.4846 10.625 17 10.625H51C54.5154 10.625 57.375 13.4846 57.375 17V51ZM51.7512 19.2538L37.005 34L51.7512 48.7462C52.1662 49.1612 52.1662 49.8338 51.7512 50.249L50.249 51.7512C49.834 52.1662 49.1614 52.1662 48.7462 51.7512L34 37.005L19.2538 51.7512C18.8388 52.1662 18.1662 52.1662 17.751 51.7512L16.2488 50.249C15.8338 49.834 15.8338 49.1614 16.2488 48.7462L30.995 34L16.2488 19.2538C15.8338 18.8388 15.8338 18.1662 16.2488 17.751L17.751 16.2488C18.166 15.8338 18.8386 15.8338 19.2538 16.2488L34 30.995L48.7462 16.2488C49.1612 15.8338 49.8338 15.8338 50.249 16.2488L51.7512 17.751C52.1662 18.1662 52.1662 18.8388 51.7512 19.2538Z" fill="#528CFF"/>
</svg>
