<svg width="32" height="32" viewBox="0 0 32 32" fill="none" xmlns="http://www.w3.org/2000/svg">
<path d="M9.85 20.0001C9.8 20.0001 9.7 20.0001 9.65 19.9501L0.8 16.2001C0.6 16.1501 0.5 15.9501 0.5 15.7501C0.5 15.5501 0.65 15.4001 0.8 15.3001L30.85 3.65007C31.1 3.55007 31.35 3.65007 31.45 3.85007C31.55 4.05007 31.5 4.35007 31.3 4.45007L10.1 19.9501C10.05 20.0001 9.95 20.0001 9.85 20.0001ZM2.2 15.8001L9.75 19.0501L27.85 5.85007L2.2 15.8001Z" fill="white"/>
<path d="M12.4001 28.3499C12.2001 28.3499 12.0001 28.1999 11.9501 27.9999L9.35007 19.6499C9.30007 19.4499 9.35007 19.2499 9.55007 19.0999L30.7501 3.69994C30.9501 3.54994 31.2501 3.59994 31.4001 3.74994C31.5501 3.94994 31.5501 4.24994 31.4001 4.39994L14.8001 21.4499L12.8501 28.0499C12.8501 28.2499 12.6501 28.3499 12.4001 28.3499ZM10.4001 19.7499L12.4501 26.2999L13.9501 21.0999C13.9501 20.9999 14.0001 20.9499 14.0501 20.8999L26.8501 7.79994L10.4001 19.7499Z" fill="white"/>
<path d="M26.0984 26.2C26.0484 26.2 25.9984 26.2 25.9484 26.15L14.2484 21.65C14.0984 21.6 13.9984 21.45 13.9484 21.3C13.8984 21.15 13.9484 20.95 14.0984 20.85L30.6484 3.79998C30.7984 3.64998 31.0484 3.59998 31.2484 3.69998C31.4484 3.79998 31.5484 3.99998 31.4984 4.24998L26.5984 25.85C26.5484 26 26.4984 26.1 26.3484 26.15C26.2484 26.15 26.1984 26.2 26.0984 26.2ZM15.2484 21.05L25.7984 25.1L30.1984 5.64998L15.2484 21.05Z" fill="white"/>
<path d="M12.4002 28.3499C12.3502 28.3499 12.2502 28.3499 12.2002 28.2999C12.0002 28.1999 11.9002 27.9499 11.9502 27.7499L13.9002 21.0499C13.9502 20.8999 14.0502 20.7999 14.1502 20.7499C14.2502 20.6999 14.4002 20.6999 14.5502 20.7499L16.8002 21.5999C16.9502 21.6499 17.0502 21.7499 17.1002 21.8999C17.1502 22.0499 17.1002 22.1999 17.0502 22.2999L12.8502 28.0999C12.7002 28.2999 12.5502 28.3499 12.4002 28.3499ZM14.7002 21.7999L13.6502 25.3999L15.9502 22.2999L14.7002 21.7999Z" fill="white"/>
</svg>
