<svg width="48" height="48" viewBox="0 0 48 48" fill="none" xmlns="http://www.w3.org/2000/svg">
<g clip-path="url(#clip0_664_162)">
<path d="M24 0C19.2533 0 14.6131 1.40758 10.6663 4.04473C6.71954 6.68188 3.64341 10.4302 1.8269 14.8156C0.0103989 19.201 -0.464881 24.0266 0.461164 28.6822C1.38721 33.3377 3.67299 37.6141 7.02945 40.9706C10.3859 44.327 14.6623 46.6128 19.3178 47.5388C23.9734 48.4649 28.799 47.9896 33.1844 46.1731C37.5698 44.3566 41.3181 41.2805 43.9553 37.3337C46.5924 33.3869 48 28.7468 48 24C47.9931 17.6369 45.4624 11.5364 40.963 7.03704C36.4636 2.53766 30.3631 0.00688216 24 0ZM24 44C20.0444 44 16.1776 42.827 12.8886 40.6294C9.59962 38.4318 7.03617 35.3082 5.52242 31.6537C4.00867 27.9991 3.6126 23.9778 4.38431 20.0982C5.15601 16.2186 7.06082 12.6549 9.85787 9.85786C12.6549 7.06081 16.2186 5.156 20.0982 4.38429C23.9778 3.61259 27.9992 4.00866 31.6537 5.52241C35.3082 7.03616 38.4318 9.59961 40.6294 12.8886C42.827 16.1776 44 20.0444 44 24C43.9942 29.3025 41.8852 34.3862 38.1357 38.1357C34.3862 41.8852 29.3026 43.9942 24 44Z" fill="#528CFF"/>
<path d="M21.2827 12.464C21.081 12.2956 20.8481 12.1687 20.5973 12.0903C20.3465 12.012 20.0828 11.9838 19.8211 12.0074C19.5594 12.031 19.305 12.1059 19.0722 12.2278C18.8395 12.3497 18.6331 12.5163 18.4647 12.718C18.2964 12.9197 18.1694 13.1526 18.091 13.4034C18.0127 13.6542 17.9845 13.9179 18.0081 14.1796C18.0317 14.4413 18.1066 14.6958 18.2285 14.9285C18.3504 15.1612 18.517 15.3676 18.7187 15.536L28.8747 24L18.7187 32.464C18.3113 32.804 18.0557 33.2919 18.0081 33.8204C17.9604 34.3489 18.1247 34.8746 18.4647 35.282C18.8047 35.6894 19.2926 35.945 19.8211 35.9926C20.3496 36.0403 20.8753 35.876 21.2827 35.536L33.2827 25.536C33.5078 25.3483 33.6889 25.1134 33.8131 24.848C33.9374 24.5826 34.0018 24.2931 34.0018 24C34.0018 23.7069 33.9374 23.4174 33.8131 23.152C33.6889 22.8866 33.5078 22.6517 33.2827 22.464L21.2827 12.464Z" fill="#528CFF"/>
</g>
<defs>
<clipPath id="clip0_664_162">
<rect width="48" height="48" fill="white"/>
</clipPath>
</defs>
</svg>
