<svg width="48" height="48" viewBox="0 0 48 48" fill="none" xmlns="http://www.w3.org/2000/svg">
<g clip-path="url(#clip0_664_166)">
<path d="M24 0C28.7467 0 33.3869 1.40758 37.3337 4.04473C41.2805 6.68188 44.3566 10.4302 46.1731 14.8156C47.9896 19.201 48.4649 24.0266 47.5388 28.6822C46.6128 33.3377 44.327 37.6141 40.9706 40.9706C37.6141 44.327 33.3377 46.6128 28.6822 47.5388C24.0266 48.4649 19.201 47.9896 14.8156 46.1731C10.4302 44.3566 6.68187 41.2805 4.04472 37.3337C1.40757 33.3869 -1.14441e-05 28.7468 -1.14441e-05 24C0.00687072 17.6369 2.53764 11.5364 7.03703 7.03704C11.5364 2.53766 17.6369 0.00688216 24 0ZM24 44C27.9556 44 31.8224 42.827 35.1114 40.6294C38.4004 38.4318 40.9638 35.3082 42.4776 31.6537C43.9913 27.9991 44.3874 23.9778 43.6157 20.0982C42.844 16.2186 40.9392 12.6549 38.1421 9.85786C35.3451 7.06081 31.7814 5.156 27.9018 4.38429C24.0222 3.61259 20.0008 4.00866 16.3463 5.52241C12.6918 7.03616 9.56823 9.59961 7.3706 12.8886C5.17297 16.1776 3.99999 20.0444 3.99999 24C4.00581 29.3025 6.11482 34.3862 9.86428 38.1357C13.6138 41.8852 18.6974 43.9942 24 44Z" fill="#528CFF"/>
<path d="M26.7173 12.464C26.919 12.2956 27.1519 12.1687 27.4027 12.0903C27.6535 12.012 27.9172 11.9838 28.1789 12.0074C28.4406 12.031 28.695 12.1059 28.9278 12.2278C29.1605 12.3497 29.3669 12.5163 29.5353 12.718C29.7036 12.9197 29.8306 13.1526 29.909 13.4034C29.9873 13.6542 30.0155 13.9179 29.9919 14.1796C29.9683 14.4413 29.8934 14.6958 29.7715 14.9285C29.6496 15.1612 29.483 15.3676 29.2813 15.536L19.1253 24L29.2813 32.464C29.6887 32.804 29.9443 33.2919 29.9919 33.8204C30.0396 34.3489 29.8753 34.8746 29.5353 35.282C29.1953 35.6894 28.7074 35.945 28.1789 35.9926C27.6504 36.0403 27.1247 35.876 26.7173 35.536L14.7173 25.536C14.4922 25.3483 14.3111 25.1134 14.1869 24.848C14.0626 24.5826 13.9982 24.2931 13.9982 24C13.9982 23.7069 14.0626 23.4174 14.1869 23.152C14.3111 22.8866 14.4922 22.6517 14.7173 22.464L26.7173 12.464Z" fill="#528CFF"/>
</g>
<defs>
<clipPath id="clip0_664_166">
<rect width="48" height="48" fill="white" transform="matrix(-1 0 0 1 48 0)"/>
</clipPath>
</defs>
</svg>
