<svg width="40" height="28" viewBox="0 0 40 28" fill="none" xmlns="http://www.w3.org/2000/svg">
<g id="fxemoji:email" clip-path="url(#clip0_403_29894)">
<path id="Vector" d="M39.987 25.2037C40.1387 24.7939 22.728 11.6475 22.728 11.6475C20.5483 10.039 19.4019 10.0137 17.2464 11.6475C17.2464 11.6475 -0.138906 24.7833 0.00742188 25.1875L0.00390625 25.1904C0.00570313 25.1939 0.00859375 25.1964 0.0110156 25.1996C0.158432 25.6014 0.372903 25.9754 0.645312 26.3056C0.760391 26.4451 0.899063 26.562 1.03242 26.6835L1.02594 26.6885C1.03656 26.6979 1.0507 26.7023 1.06133 26.7118C1.62656 27.216 2.33938 27.5425 3.13125 27.6357C3.14367 27.6372 3.15367 27.6437 3.16609 27.6452H3.21391C3.3343 27.6567 3.44875 27.6856 3.57203 27.6856H36.4409C38.0594 27.6856 39.4306 26.6678 39.9753 25.241C39.9818 25.2304 39.9918 25.2227 39.9977 25.2118L39.987 25.2037Z" fill="#96A9B2"/>
<path id="Vector_2" d="M20.0091 10.1388L0.09375 25.0754V3.91529C0.09375 1.85279 1.76539 0.181152 3.82789 0.181152H36.1904C38.2529 0.181152 39.9245 1.85279 39.9245 3.91529V25.0754L20.0091 10.1388Z" fill="#B9C5C6"/>
<path id="Vector_3" d="M0.328125 2.61705L17.3316 15.9724C19.4777 17.5561 20.6065 17.5811 22.7288 15.9724L39.7056 2.63822C39.411 2.10432 38.9701 1.68252 38.4658 1.34619L38.6993 1.16322C38.1294 0.644395 37.4009 0.308066 36.5922 0.221191L3.43164 0.222364C2.62523 0.308067 1.89555 0.645567 1.3268 1.16322L1.55859 1.34393C1.06016 1.67557 0.623281 2.0901 0.328125 2.61705Z" fill="#EDECE6"/>
<path id="Vector_4" d="M0.322969 2.64484C0.173672 3.04836 17.3161 15.9921 17.3161 15.9921C19.4622 17.5758 20.5909 17.6008 22.7132 15.9921C22.7132 15.9921 39.8306 3.05883 39.6865 2.66086L39.69 2.65797C39.6883 2.65445 39.6854 2.65219 39.683 2.64898C39.5379 2.25331 39.3267 1.88509 39.0585 1.56C38.9452 1.42258 38.8087 1.30758 38.6774 1.18789L38.6838 1.18297C38.6734 1.17367 38.6595 1.1693 38.649 1.16C38.0924 0.663594 37.3906 0.342031 36.611 0.250234C36.5988 0.24875 36.5889 0.242422 36.5767 0.240938H36.5297C36.4112 0.22961 36.2984 0.201172 36.177 0.201172H3.81453C2.22094 0.201172 0.870781 1.20336 0.334609 2.60812C0.328203 2.61859 0.318359 2.62617 0.3125 2.63687L0.322969 2.64484Z" fill="#DCE2E2"/>
<path id="Vector_5" d="M22.7641 4.08166H19.746C19.6185 4.08166 19.4962 4.13232 19.406 4.2225C19.3158 4.31268 19.2652 4.43499 19.2652 4.56252V6.25955C19.2652 6.38708 19.3158 6.50939 19.406 6.59957C19.4962 6.68975 19.6185 6.74041 19.746 6.74041H22.2003C22.3278 6.74041 22.4502 6.79107 22.5403 6.88125C22.6305 6.97143 22.6812 7.09374 22.6812 7.22127V8.12877C22.6812 8.2563 22.6305 8.37861 22.5403 8.46879C22.4502 8.55897 22.3278 8.60963 22.2003 8.60963H19.746C19.6185 8.60963 19.4962 8.66029 19.406 8.75047C19.3158 8.84065 19.2652 8.96296 19.2652 9.09049V10.9325C19.2652 11.0601 19.3158 11.1824 19.406 11.2725C19.4962 11.3627 19.6185 11.4134 19.746 11.4134H22.9738C23.1014 11.4134 23.2237 11.464 23.3138 11.5542C23.404 11.6444 23.4547 11.7667 23.4547 11.8942V12.8662C23.4547 12.9937 23.404 13.116 23.3138 13.2062C23.2237 13.2964 23.1014 13.3471 22.9738 13.3471H17.0551C16.9275 13.3471 16.8052 13.2964 16.7151 13.2062C16.6249 13.116 16.5742 12.9937 16.5742 12.8662V2.66104C16.5742 2.5335 16.6249 2.4112 16.7151 2.32102C16.8052 2.23084 16.9275 2.18018 17.0551 2.18018H22.8996C23.1925 2.18018 23.4173 2.43971 23.3755 2.72963L23.2402 3.66932C23.2237 3.7838 23.1665 3.88851 23.079 3.96424C22.9916 4.03997 22.8798 4.08166 22.7641 4.08166Z" fill="#597B91"/>
</g>
<defs>
<clipPath id="clip0_403_29894">
<rect width="40" height="28" fill="white"/>
</clipPath>
</defs>
</svg>
