<svg width="25" height="26" viewBox="0 0 25 26" fill="none" xmlns="http://www.w3.org/2000/svg">
<path fill-rule="evenodd" clip-rule="evenodd" d="M1.079e-05 20.4147V6.23933C-0.00141117 5.52717 0.137725 4.82174 0.409434 4.16351C0.681143 3.50529 1.08008 2.90723 1.58334 2.40365C2.08661 1.90008 2.68431 1.5009 3.34213 1.22902C3.99995 0.957145 4.70495 0.817924 5.41668 0.819347H19.5833C20.2951 0.817924 21.0001 0.957145 21.6579 1.22902C22.3157 1.5009 22.9134 1.90008 23.4167 2.40365C23.9199 2.90723 24.3189 3.50529 24.5906 4.16351C24.8623 4.82174 25.0014 5.52717 25 6.23933V20.4147C25.0014 21.1268 24.8623 21.8323 24.5906 22.4905C24.3189 23.1487 23.9199 23.7468 23.4167 24.2504C22.9134 24.7539 22.3157 25.1531 21.6579 25.425C21.0001 25.6969 20.2951 25.8361 19.5833 25.8347H5.41668C3.98029 25.834 2.60293 25.2628 1.58725 24.2465C0.571569 23.2302 0.000673279 21.852 1.079e-05 20.4147Z" fill="url(#paint0_linear_370_2827)"/>
<path fill-rule="evenodd" clip-rule="evenodd" d="M20.875 19.0901C20.6845 19.1986 20.4693 19.2561 20.25 19.2569H5.25005C5.03048 19.2589 4.81449 19.2012 4.62505 19.0901L9.62505 14.0871L10.8542 15.317C11.105 15.5585 11.4026 15.7461 11.7287 15.868C12.0548 15.9899 12.4024 16.0436 12.75 16.0258C13.0975 16.0417 13.4446 15.9871 13.7704 15.8653C14.0962 15.7435 14.394 15.557 14.6459 15.317L15.875 14.0871L20.875 19.0901ZM21.3125 18.6315L16.3125 13.6284L21.3125 8.62538C21.421 8.816 21.4784 9.03142 21.4792 9.25077V18.0061C21.4986 18.2277 21.4397 18.449 21.3125 18.6315ZM4.16671 18.6315C4.05826 18.4409 4.00085 18.2255 4.00005 18.0061V9.25077C3.99809 9.03106 4.05569 8.81494 4.16671 8.62538L9.16671 13.6284L4.16671 18.6315ZM20.875 8.16677L14.1875 14.8584C13.9971 15.0415 13.7715 15.1839 13.5244 15.2771C13.2773 15.3703 13.0139 15.4122 12.75 15.4004C12.4862 15.4122 12.2228 15.3703 11.9757 15.2771C11.7286 15.1839 11.5029 15.0415 11.3125 14.8584L4.62505 8.16677C4.81555 8.05825 5.03084 8.0008 5.25005 8H20.25C20.4693 8.0008 20.6845 8.05825 20.875 8.16677Z" fill="white"/>
<defs>
<linearGradient id="paint0_linear_370_2827" x1="12.5" y1="0.819347" x2="12.5" y2="25.8349" gradientUnits="userSpaceOnUse">
<stop stop-color="#205783"/>
<stop offset="1" stop-color="#1AC8FC"/>
</linearGradient>
</defs>
</svg>
