<svg width="92" height="84" viewBox="0 0 92 84" fill="none" xmlns="http://www.w3.org/2000/svg">
<path d="M87.8674 42.2576C87.8674 64.9017 69.3055 83.2568 46.4081 83.2568C23.5107 83.2568 4.94873 64.9002 4.94873 42.2576C4.94873 19.6135 23.5107 1.25684 46.4081 1.25684C69.3055 1.25684 87.8674 19.6135 87.8674 42.2576Z" fill="#C7B299"/>
<path d="M54.4838 68.5396C48.8947 63.0123 48.8961 54.0188 54.4838 48.493C60.0714 42.9672 69.1655 42.9672 74.7546 48.493C80.3422 54.0188 80.3422 63.0123 74.7531 68.5382C69.1669 74.0654 60.0714 74.0654 54.4838 68.5396Z" stroke="black" stroke-miterlimit="10"/>
<path d="M75.6498 49.4683L77.2481 47.6072L77.8153 47.5655C78.1949 47.5079 78.5599 47.344 78.8537 47.0535C79.5751 46.3401 79.5736 45.1837 78.8522 44.4703C78.1323 43.7569 76.9616 43.7555 76.2402 44.4689C75.9479 44.758 75.7792 45.1204 75.7239 45.4958L75.7166 46.0193L73.7998 47.6331C74.127 47.9035 74.447 48.1882 74.7539 48.4917C75.0724 48.8067 75.3691 49.1332 75.6498 49.4683Z" stroke="black" stroke-miterlimit="10"/>
<path d="M65.5736 44.3837L65.3598 41.8006L65.7321 41.3749C65.959 41.07 66.1001 40.6974 66.1001 40.2861C66.1001 39.2779 65.2725 38.4609 64.2516 38.4609C63.2335 38.4595 62.4031 39.2779 62.4031 40.2875C62.4031 40.696 62.5427 41.07 62.7725 41.3734L63.1419 41.7488L62.9223 44.4513C63.8036 44.3478 64.6908 44.3262 65.5736 44.3837Z" stroke="black" stroke-miterlimit="10"/>
<path d="M55.0922 47.9294L52.8031 46.0064L52.7623 45.4455C52.7056 45.0701 52.5384 44.7077 52.2446 44.4171C51.5232 43.7037 50.3539 43.7052 49.6326 44.4186C48.9112 45.1305 48.9098 46.2883 49.6311 47.0031C49.9234 47.2922 50.2899 47.4591 50.6695 47.5123L51.1989 47.5195L53.2452 49.8955C53.6233 49.4079 54.0335 48.9376 54.4843 48.4917C54.6835 48.2976 54.8857 48.112 55.0922 47.9294Z" stroke="black" stroke-miterlimit="10"/>
<path d="M50.3349 57.4876L46.9317 57.7624L46.5012 57.3942C46.1929 57.1698 45.8148 57.0303 45.4003 57.0303C44.3808 57.0303 43.5547 57.8487 43.5547 58.8583C43.5547 59.8651 44.3808 60.6864 45.4017 60.6864C45.8148 60.6864 46.1929 60.5468 46.4998 60.321L46.8793 59.9557L50.4018 60.2362C50.2898 59.3229 50.268 58.4024 50.3349 57.4876Z" stroke="black" stroke-miterlimit="10"/>
<path d="M53.5095 67.4736L51.1854 70.1819L50.6182 70.2236C50.2387 70.2797 49.8722 70.4451 49.5784 70.7356C48.857 71.449 48.8585 72.6054 49.5798 73.3188C50.2997 74.0321 51.4705 74.0336 52.1933 73.3202C52.4856 73.0311 52.6529 72.6687 52.7082 72.2933L52.7154 71.7697L55.4845 69.4383C55.1398 69.1578 54.8068 68.8601 54.4854 68.5423C54.1378 68.1971 53.8135 67.8418 53.5095 67.4736Z" stroke="black" stroke-miterlimit="10"/>
<path d="M73.2788 69.8063L75.6291 71.7796L75.6698 72.3405C75.7279 72.7145 75.8937 73.0784 76.1875 73.3675C76.9089 74.0808 78.0782 74.0794 78.7995 73.366C79.5209 72.6541 79.5224 71.4963 78.7995 70.7815C78.5072 70.4924 78.1407 70.327 77.7611 70.2723L77.2317 70.2651L75.2742 67.9912C75.1055 68.1767 74.9324 68.358 74.7521 68.5363C74.2852 69.0009 73.7922 69.4223 73.2788 69.8063Z" stroke="black" stroke-miterlimit="10"/>
<path d="M83.0318 57.1025C82.6187 57.1025 82.2406 57.2406 81.9337 57.4679L81.5541 57.8332L78.9145 57.6232C78.9697 58.4962 78.9436 59.3721 78.8374 60.2394L81.5032 60.0237L81.9337 60.3919C82.242 60.6162 82.6187 60.7557 83.0347 60.7557C84.0542 60.7557 84.8803 59.9374 84.8803 58.9291C84.8788 57.9224 84.0527 57.1025 83.0318 57.1025Z" stroke="black" stroke-miterlimit="10"/>
<path d="M70.9811 49.7715L66.4683 55.9877" stroke="black" stroke-miterlimit="10"/>
<path d="M63.8838 47.877L64.467 55.507" stroke="black" stroke-miterlimit="10"/>
<path d="M57.8047 51.5215L62.6215 56.4145" stroke="black" stroke-miterlimit="10"/>
<path d="M54.0986 57.5244L61.7965 58.2809" stroke="black" stroke-miterlimit="10"/>
<path d="M55.9907 64.5492L62.3812 60.2344" stroke="black" stroke-miterlimit="10"/>
<path d="M62.0044 68.7291L64.0972 61.3623" stroke="black" stroke-miterlimit="10"/>
<path d="M69.0106 67.4722L66.144 61.1338" stroke="black" stroke-miterlimit="10"/>
<path d="M74.5352 62.9734L67.563 59.6582" stroke="black" stroke-miterlimit="10"/>
<path d="M75.1872 55.7324L67.6914 57.6252" stroke="black" stroke-miterlimit="10"/>
<path d="M60.0118 49.4821C64.9028 46.6889 71.1551 48.3458 73.9795 53.1813C76.8024 58.0182 75.127 64.2013 70.2374 66.9944" stroke="black" stroke-miterlimit="10"/>
<path d="M57.1572 51.8979C57.5572 51.4089 58.0022 50.9559 58.488 50.5488Z" fill="#26BDCF"/>
<path d="M57.1572 51.8979C57.5572 51.4089 58.0022 50.9559 58.488 50.5488" stroke="black" stroke-miterlimit="10"/>
<path d="M67.4841 76.4827V58.5906C67.4841 56.8058 66.021 55.3574 64.2147 55.3574C62.4099 55.3574 60.9468 56.8058 60.9468 58.5906V76.3935" fill="#FFD45B"/>
<path d="M67.4841 76.4827V58.5906C67.4841 56.8058 66.021 55.3574 64.2147 55.3574C62.4099 55.3574 60.9468 56.8058 60.9468 58.5906V76.3935" stroke="black" stroke-miterlimit="10"/>
<path d="M57.98 77.8232H65.2358" stroke="black" stroke-miterlimit="10"/>
<path d="M66.1235 77.8232H68.4025" stroke="black" stroke-miterlimit="10"/>
<path d="M3.6353 50.5692C3.98434 49.4632 4.54718 48.4118 5.33253 47.4827L5.32089 47.4928L4.26212 45.3555L6.17751 43.8137L8.07836 45.275L8.06527 45.285C9.14149 44.7169 10.2977 44.3789 11.4641 44.2725L12.2465 42.0273L14.6986 42.2762L14.9982 44.6277C16.118 44.97 17.187 45.5281 18.1236 46.2918L20.2731 45.2491L21.8351 47.1461L20.3633 49.0173C20.9378 50.0802 21.2708 51.2222 21.3828 52.38L23.6472 53.1452L23.3986 55.5773L21.0192 55.8721C20.676 56.9796 20.1117 58.0353 19.3351 58.9644L20.3866 61.0873L18.4712 62.6291L16.5849 61.1779C15.5072 61.7417 14.3466 62.0725 13.1788 62.1804L12.3978 64.4255L9.94284 64.1767L9.6447 61.815C8.52339 61.4756 7.46025 60.9132 6.5251 60.1495L4.36975 61.1952L2.80922 59.2995L4.28539 57.424C3.71819 56.3626 3.38515 55.2191 3.27461 54.0671L1 53.2962L1.25015 50.8655L3.6353 50.5692ZM14.9429 51.1201C13.7663 49.689 11.6444 49.4776 10.1988 50.6397C8.75463 51.8033 8.53502 53.8974 9.7116 55.3285C10.8867 56.7567 13.0101 56.9753 14.4557 55.8146C15.9013 54.6525 16.121 52.5483 14.9429 51.1201Z" stroke="black" stroke-miterlimit="10" stroke-linejoin="round"/>
<path d="M16.7831 57.9752C14.1289 60.4649 9.936 60.3541 7.41851 57.7293C4.90102 55.1045 5.01155 50.9594 7.6672 48.4697" stroke="black" stroke-miterlimit="10"/>
<path d="M18.2122 56.0264C18.0348 56.3931 17.8239 56.7469 17.5811 57.0749" stroke="black" stroke-miterlimit="10"/>
<path d="M8.97559 49.7652C10.971 47.8954 14.1211 47.9774 16.0147 49.9507C17.9068 51.924 17.8239 55.0393 15.8285 56.9119" stroke="black" stroke-miterlimit="10"/>
<path d="M7.90088 51.2296C8.03468 50.9534 8.1932 50.6902 8.37645 50.4414" stroke="black" stroke-miterlimit="10"/>
<path d="M71.3167 9.29004H62.7563V17.3429H64.8477L64.375 20.0842L66.4766 17.3429H71.3167V9.29004Z" fill="white"/>
<path d="M66.6149 14.5185C66.4971 14.5185 66.3865 14.471 66.3051 14.3861L65.6041 13.6598C65.4412 13.4901 65.4485 13.2226 65.6186 13.0615C65.7902 12.9018 66.0593 12.9076 66.2222 13.0759L66.5901 13.457L67.8307 11.9627C67.979 11.7814 68.2496 11.7555 68.4314 11.9037C68.6146 12.0518 68.6408 12.3179 68.491 12.4977L66.9465 14.3617C66.8694 14.4552 66.753 14.5113 66.6323 14.5141C66.625 14.5185 66.6207 14.5185 66.6149 14.5185Z" fill="black"/>
<path d="M26.71 69.8164H22.4487V74.0305H26.71V69.8164Z" fill="white"/>
<path d="M26.71 76.3818H22.4487V80.5974H26.71V76.3818Z" fill="white"/>
<path d="M26.71 63.248H22.4487V67.4622H26.71V63.248Z" fill="white"/>
<path d="M24.3329 66.9001C24.2238 66.9001 24.1206 66.844 24.0464 66.739L23.3934 65.8631C23.2421 65.6603 23.2494 65.3367 23.4065 65.144C23.565 64.9498 23.8166 64.9541 23.9679 65.1584L24.3096 65.62L25.4629 63.8165C25.6011 63.5964 25.8556 63.5662 26.0229 63.746C26.1916 63.9229 26.2163 64.2465 26.0767 64.4637L24.6398 66.7131C24.567 66.8268 24.4623 66.8943 24.3489 66.8987C24.3431 66.9001 24.3373 66.9001 24.3329 66.9001Z" fill="black"/>
<path d="M46.0413 64.2451H27.9971V64.9269H46.0413V64.2451Z" fill="black"/>
<path d="M39.8661 66.4316H27.9971V67.1163H39.8661V66.4316Z" fill="black"/>
<path d="M46.0413 70.5957H27.9971V71.276H46.0413V70.5957Z" fill="black"/>
<path d="M39.8661 72.7803H27.9971V73.4649H39.8661V72.7803Z" fill="black"/>
<path d="M46.0413 76.9463H27.9971V77.6266H46.0413V76.9463Z" fill="black"/>
<path d="M39.8661 79.1328H27.9971V79.8174H39.8661V79.1328Z" fill="black"/>
<path d="M54.2148 1.28516H39.4501C38.6241 1.28516 37.9507 1.95395 37.9507 2.76801V10.8597C37.9507 11.6752 38.6241 12.3426 39.4501 12.3426H45.1207L46.8324 15.2738L48.5428 12.3426H54.2148C55.0408 12.3426 55.7157 11.6738 55.7157 10.8597V2.76801C55.7171 1.95395 55.0408 1.28516 54.2148 1.28516Z" fill="#FFD45B" stroke="black"/>
<path d="M43.8267 6.55682C43.8267 7.09042 43.3889 7.52478 42.8479 7.52478C42.3084 7.52478 41.8691 7.09042 41.8691 6.55682C41.8691 6.02179 42.3084 5.58887 42.8479 5.58887C43.3889 5.58887 43.8267 6.02322 43.8267 6.55682Z" fill="black"/>
<path d="M47.8116 6.55682C47.8116 7.09042 47.3738 7.52478 46.8342 7.52478C46.2932 7.52478 45.8555 7.09042 45.8555 6.55682C45.8555 6.02179 46.2932 5.58887 46.8342 5.58887C47.3738 5.58887 47.8116 6.02322 47.8116 6.55682Z" fill="black"/>
<path d="M51.7975 6.55682C51.7975 7.09042 51.3583 7.52478 50.8187 7.52478C50.2777 7.52478 49.84 7.09042 49.84 6.55682C49.84 6.02179 50.2777 5.58887 50.8187 5.58887C51.3583 5.58887 51.7975 6.02322 51.7975 6.55682Z" fill="black"/>
<path d="M39.7131 29.9414C39.7131 34.5669 35.9899 38.3164 31.3971 38.3164C26.8042 38.3164 23.0825 34.5669 23.0825 29.9414C23.0825 25.3145 26.8057 21.5635 31.3971 21.5635C35.9914 21.5635 39.7131 25.313 39.7131 29.9414Z" fill="white"/>
<path d="M23.1787 29.9414H39.6173" stroke="black" stroke-miterlimit="10"/>
<path d="M36.7625 23.541C35.5161 25.1289 33.5775 26.1486 31.3988 26.1486C29.2202 26.1486 27.2801 25.1289 26.0352 23.541" stroke="black" stroke-miterlimit="10"/>
<path d="M26.0337 36.3385C27.2801 34.6068 29.2187 33.4922 31.3974 33.4922C33.576 33.4922 35.5161 34.6068 36.761 36.3385" stroke="black" stroke-miterlimit="10"/>
<path d="M35.5279 29.9396C35.5279 26.2044 33.8204 23.0072 31.3989 21.6768C28.9774 23.0072 27.27 26.2044 27.27 29.9396C27.27 33.6762 28.9774 36.8735 31.3989 38.2039C33.8204 36.8735 35.5279 33.6762 35.5279 29.9396Z" stroke="black" stroke-miterlimit="10"/>
<path d="M31.3989 21.6611V38.2185" stroke="black" stroke-miterlimit="10"/>
<path d="M14.2041 29.6896C14.2041 38.85 21.7129 46.2757 30.9757 46.2757C40.2385 46.2757 47.7474 38.85 47.7474 29.6896C47.7474 20.5293 40.2385 13.1035 30.9757 13.1035C21.7129 13.1035 14.2041 20.5293 14.2041 29.6896ZM43.5588 29.6896C43.5588 36.5617 37.9261 42.1335 30.9757 42.1335C24.0268 42.1335 18.3926 36.5617 18.3926 29.6896C18.3926 22.8176 24.0268 17.2457 30.9757 17.2457C37.9247 17.2457 43.5588 22.8176 43.5588 29.6896Z" fill="white"/>
<path d="M45.2208 21.4043C49.8005 29.2443 47.0838 39.269 39.1561 43.7967C31.2284 48.3229 21.0915 45.6362 16.5146 37.7977" stroke="black" stroke-miterlimit="10"/>
<path d="M41.2605 16.8262C42.0618 17.4633 42.8036 18.1781 43.4726 18.9577Z" fill="#26BDCF"/>
<path d="M41.2605 16.8262C42.0618 17.4633 42.8036 18.1781 43.4726 18.9577" stroke="black" stroke-miterlimit="10"/>
<path d="M20.8546 34.8325C17.5387 29.1557 19.5064 21.8996 25.2453 18.6218C30.9842 15.344 38.3243 17.2885 41.6388 22.9639" stroke="black" stroke-miterlimit="10"/>
<path d="M23.7228 38.1472C23.1425 37.6841 22.6044 37.1663 22.1216 36.6025Z" fill="#26BDCF"/>
<path d="M23.7228 38.1472C23.1425 37.6841 22.6044 37.1663 22.1216 36.6025" stroke="black" stroke-miterlimit="10"/>
<path d="M45.8521 33.5273L56.5983 34.4493V25.335L45.8521 26.2569" fill="white"/>
<path d="M45.8521 33.5273L56.5983 34.4493V25.335L45.8521 26.2569" stroke="black" stroke-miterlimit="10"/>
<path d="M50.9873 33.5226V26.2607" stroke="black" stroke-miterlimit="10"/>
<path d="M52.7979 33.5227V28.332" stroke="black" stroke-miterlimit="10"/>
<path d="M55.2637 25.0928V34.6903" stroke="black" stroke-miterlimit="10"/>
<path d="M55.6577 34.6903H91.0001V25.0928H55.6577" fill="#FFD45B"/>
<path d="M55.6577 34.6903H91.0001V25.0928H55.6577" stroke="black" stroke-miterlimit="10"/>
<path d="M59.4492 32.8379H63.5214" stroke="black" stroke-miterlimit="10"/>
<path d="M65.6304 32.8379H80.5623" stroke="black" stroke-miterlimit="10"/>
<path d="M8.0347 7.92285H3.77344V12.137H8.0347V7.92285Z" fill="white"/>
<path d="M5.65764 11.5753C5.54857 11.5753 5.44531 11.5178 5.36968 11.4142L4.71813 10.5383C4.56688 10.3355 4.57269 10.0119 4.73122 9.81916C4.88974 9.62499 5.14135 9.62931 5.2926 9.83354L5.63437 10.2952L6.78768 8.4902C6.9273 8.27158 7.1789 8.24138 7.34761 8.41972C7.51631 8.59663 7.54104 8.92024 7.40142 9.13742L5.96451 11.3869C5.8918 11.5019 5.78563 11.5695 5.67364 11.5724C5.66782 11.5753 5.66201 11.5753 5.65764 11.5753Z" fill="black"/>
<path d="M27.366 8.91797H9.32178V9.59971H27.366V8.91797Z" fill="black"/>
<path d="M21.1908 11.1045H9.32178V11.7891H21.1908V11.1045Z" fill="black"/>
</svg>
