<svg width="90" height="92" viewBox="0 0 90 92" fill="none" xmlns="http://www.w3.org/2000/svg">
<g clip-path="url(#clip0_370_5706)">
<path opacity="0.3" d="M5.46612 61.8405C13.8123 82.2612 36.0405 93.702 55.3158 90.6167C58.4519 90.114 67.0511 88.619 74.667 81.5613C89.3234 67.9782 92.4564 41.078 80.6326 22.1227C72.0272 8.32603 56.6025 0.502747 41.946 0.897032C38.7877 0.982461 26.6889 1.5016 16.057 10.6129C14.4952 11.9502 11.0492 15.1307 7.94469 20.1776C0.654402 32.0259 0.0284389 48.5333 5.46612 61.8405Z" fill="url(#paint0_linear_370_5706)"/>
<path d="M4.20471 24.1135L84.3631 22.7039C87.591 22.6481 90.1802 25.5231 89.9905 28.9534L87.2306 78.2687C87.0788 80.9662 84.9923 83.0822 82.4505 83.1085L5.39657 83.9004C3.49338 83.9201 1.92214 82.3265 1.84943 80.3025L0.00630607 28.8351C-0.0853758 26.2854 1.80833 24.1562 4.20471 24.1135Z" fill="url(#paint1_linear_370_5706)"/>
<path d="M5.43138 25.3684L83.5001 24.0311C86.6426 23.9753 89.1654 26.7123 88.9789 29.975L86.2916 76.8917C86.1431 79.4611 84.1102 81.472 81.6348 81.495L6.59162 82.2474C4.73902 82.2671 3.20572 80.7491 3.13616 78.8237L1.34047 29.8567C1.25511 27.4351 3.09823 25.4078 5.43138 25.3684Z" fill="url(#paint2_linear_370_5706)"/>
<path d="M83.6803 23.992L5.28596 25.3359C2.94333 25.3753 1.09073 27.4092 1.17925 29.8439L1.30571 33.2972H88.9915L89.1812 29.9622C89.3709 26.6863 86.8386 23.9362 83.6803 23.992Z" fill="url(#paint3_linear_370_5706)"/>
<g opacity="0.85">
<path d="M7.75183 27.0052C7.75183 27.4093 7.43569 27.7379 7.04684 27.7379C6.65798 27.7379 6.34183 27.4093 6.34183 27.0052C6.34183 26.601 6.65798 26.2725 7.04684 26.2725C7.43569 26.2725 7.75183 26.601 7.75183 27.0052Z" fill="white"/>
<path d="M7.75183 29.1507C7.75183 29.5548 7.43569 29.8834 7.04684 29.8834C6.65798 29.8834 6.34183 29.5548 6.34183 29.1507C6.34183 28.7465 6.65798 28.418 7.04684 28.418C7.43569 28.418 7.75183 28.7465 7.75183 29.1507Z" fill="white"/>
<path d="M7.75183 31.2991C7.75183 31.7033 7.43569 32.0318 7.04684 32.0318C6.65798 32.0318 6.34183 31.7033 6.34183 31.2991C6.34183 30.895 6.65798 30.5664 7.04684 30.5664C7.43569 30.5664 7.75183 30.895 7.75183 31.2991Z" fill="white"/>
</g>
<path opacity="0.54" d="M18.4723 61.8359H10.0155C8.86155 61.8359 7.93842 62.5227 7.99532 63.3441L8.9564 77.3281C9.01014 78.0937 9.8985 78.6949 10.9766 78.6949H18.4692C19.5852 78.6949 20.4893 78.0509 20.4893 77.2558V63.2718C20.4957 62.4799 19.5883 61.8359 18.4723 61.8359Z" fill="white"/>
<path opacity="0.54" d="M55.9987 35.5374L9.45907 36.303C7.66654 36.3326 6.25337 37.936 6.34189 39.8417L7.11645 56.6843C7.19865 58.4816 8.59284 59.8944 10.2842 59.8944H56.0493C57.8007 59.8944 59.2202 58.383 59.2202 56.52V38.9119C59.2171 37.0292 57.7691 35.5112 55.9987 35.5374Z" fill="white"/>
<path opacity="0.54" d="M38.8415 61.8359H25.0228C23.9069 61.8359 23.0027 62.4799 23.0027 63.2751V77.2591C23.0027 78.0542 23.9069 78.6982 25.0228 78.6982H38.8415C39.9575 78.6982 40.8617 78.0542 40.8617 77.2591V63.2751C40.8648 62.4799 39.9575 61.8359 38.8415 61.8359Z" fill="white"/>
<path opacity="0.54" d="M80.0099 35.5938H63.9655C62.6693 35.5938 61.6197 36.5137 61.6197 37.6506V57.6409C61.6197 58.7777 62.6693 59.6977 63.9655 59.6977H80.0099C81.306 59.6977 82.3556 58.7777 82.3556 57.6409V37.6506C82.3588 36.5137 81.306 35.5938 80.0099 35.5938Z" fill="white"/>
<path opacity="0.54" d="M79.3396 61.6689H57.4656C55.6983 61.6689 54.2662 62.3524 54.2662 63.1935V78.0187C54.2662 78.8598 55.6983 79.5432 57.4656 79.5432H79.3396C81.1069 79.5432 82.539 78.8598 82.539 78.0187V63.1935C82.539 62.3524 81.1069 61.6689 79.3396 61.6689Z" fill="white"/>
<path opacity="0.6" d="M55.828 37.098L28.042 37.7585C26.9735 37.7848 26.1294 39.168 26.1799 40.8142L26.6415 55.3535C26.6921 56.9043 27.5235 58.1233 28.532 58.1233H55.8564C56.9029 58.1233 57.7501 56.8189 57.7501 55.2122V40.0125C57.7501 38.3828 56.8839 37.0718 55.828 37.098Z" fill="white"/>
<g opacity="0.6">
<path d="M66.0901 73.139C66.1248 73.4216 66.1533 73.7009 66.1754 73.9834C66.1817 74.0524 66.1691 74.1411 66.1059 74.1477C66.0679 74.151 66.0363 74.1181 66.011 74.0886C65.9035 73.9604 65.7866 73.7961 65.8403 73.6319C65.8593 73.5694 65.9004 73.5201 65.9162 73.4577C65.9415 73.3657 65.9035 73.2639 65.913 73.1686C65.9225 73.0733 66.0332 72.978 66.0964 73.047L66.0901 73.139Z" fill="white"/>
<path d="M73.0326 63.8895C73.4562 63.6562 73.7249 63.6234 74.1802 63.676C74.6101 63.7252 74.901 63.9487 75.1982 64.2707C75.2645 64.343 75.3309 64.4251 75.4195 64.4645C75.7862 64.6387 76.2478 64.6058 76.624 64.7767C77.0697 64.9837 77.193 65.6244 77.6009 65.907C77.8348 66.0712 78.132 66.091 78.3912 66.2092C78.7737 66.3834 78.9508 66.7448 79.1658 67.0964C79.2985 67.3132 79.7917 67.6812 79.7633 67.9342C79.757 67.9802 79.7412 68.023 79.7159 68.0624C79.5799 68.2891 79.3776 68.3121 79.1658 68.3778C78.8844 68.4632 78.7137 68.5947 78.4639 68.7787C78.2047 68.9692 77.8506 69.1368 77.8285 69.4752C77.819 69.633 77.8885 69.7808 77.9233 69.932C78.0782 70.622 77.5028 71.2397 76.9433 71.611C76.3837 71.9822 75.7198 72.3502 75.5428 73.0337C75.5269 73.0961 75.5143 73.1618 75.47 73.2078C75.3056 73.3754 75.1823 72.9975 75.1349 72.876C75.1033 72.7971 75.1318 72.7051 75.1823 72.6394C75.2329 72.5737 75.2993 72.5277 75.3626 72.4751C75.5712 72.2944 75.704 72.0217 75.7261 71.7358C75.7293 71.6997 75.7293 71.6602 75.7103 71.6307C75.6123 71.4762 75.372 71.4138 75.2519 71.2298C75.0812 70.9637 75.0432 70.714 75.0148 70.3985C74.9073 69.242 73.8956 69.6527 73.2602 69.1401C73.1432 69.0448 73.0515 68.8937 73.0326 68.7392C73.0199 68.6538 73.0294 68.5684 73.0673 68.4895C73.1306 68.3581 73.257 68.2727 73.3898 68.2332C73.5226 68.1938 73.6617 68.1971 73.8008 68.2004C73.9273 68.2037 74.0569 68.207 74.1833 68.2102C74.2213 68.2102 74.2592 68.2135 74.294 68.23C74.3414 68.253 74.3762 68.3022 74.4015 68.3515C74.4868 68.5125 74.5279 68.6998 74.5216 68.8838C74.6892 68.9462 74.8536 68.7787 74.9452 68.6144C75.0527 68.4238 75.1286 68.2168 75.1697 68C75.1855 67.9178 75.195 67.8225 75.1571 67.7502C75.1349 67.7108 75.1002 67.678 75.0654 67.6517C74.9231 67.54 74.7556 67.4578 74.5817 67.4381C74.2813 67.4052 73.9905 67.5564 73.7439 67.747C73.5068 67.9277 73.1242 68.1445 72.8587 67.885C72.7227 67.7502 72.7196 67.5071 72.8144 67.3362C72.9693 67.0602 73.3645 66.9157 73.6206 66.7744C73.7407 66.7087 73.8166 66.574 73.8514 66.4327C73.8862 66.2914 73.883 66.1468 73.8798 65.999C73.5258 65.8478 73.1053 65.8774 72.7733 66.0778C72.7259 66.1074 72.6753 66.1468 72.669 66.2027C72.6627 66.2618 72.7069 66.3111 72.7417 66.3604C73.0484 66.7777 72.7733 67.1161 72.4098 67.3527C72.4003 66.2914 72.4003 65.2268 72.3971 64.1655C72.6121 64.0965 72.8271 64.0012 73.0326 63.8895Z" fill="white"/>
<path d="M69.8174 64.787C69.868 64.718 69.966 64.7344 70.0482 64.7344C70.3074 64.7377 70.5161 64.5012 70.7658 64.4223C70.8954 64.3829 71.0346 64.3862 71.1705 64.3829C71.5846 64.3763 71.9988 64.304 72.394 64.166C72.394 65.2273 72.3971 66.2919 72.4066 67.3532C72.1822 67.501 71.9229 67.6094 71.7522 67.6719C71.572 67.7376 71.3981 67.8493 71.2021 67.8066C71.0219 67.7672 70.8607 67.5569 70.6741 67.5043C70.5382 67.4649 70.3928 67.4846 70.2568 67.455C70.1209 67.4254 69.9755 67.3137 69.9818 67.1626C69.9849 67.041 70.0861 66.949 70.1873 66.8866C70.1873 66.8997 70.3612 66.7519 70.377 66.719C70.5287 66.4036 70.3074 66.1276 70.2252 65.8582C70.1051 65.4672 70.2821 65.2339 69.9091 65.017C69.8269 64.9809 69.7636 64.8659 69.8174 64.787Z" fill="white"/>
<path d="M74.8662 74.7259C74.7998 74.8671 74.7492 75.0018 74.7334 75.1168C74.6734 75.6163 75.0717 76.2274 75.2393 76.6809C75.2867 76.8057 75.3341 76.9404 75.312 77.0751C75.3025 77.131 75.2835 77.1836 75.2614 77.2394C75.1065 77.6304 74.8061 77.982 74.5374 78.281C74.4457 78.0247 74.4521 77.4037 74.4773 77.131C74.4868 77.039 74.4995 76.947 74.4679 76.8616C74.3699 76.5889 74.0442 76.2176 73.8198 76.0533C73.6016 75.8956 73.3139 75.7674 73.257 75.4914C73.2349 75.3863 73.2539 75.2713 73.2223 75.1661C73.2033 75.1037 73.1653 75.0511 73.1369 74.992C72.9946 74.7094 72.9156 74.164 73.197 73.9636C73.5131 73.7401 73.962 74.0687 74.2339 73.7007C74.275 73.6449 74.3066 73.5824 74.3509 73.5298C74.4362 73.4378 74.569 73.4083 74.6923 73.4313C75.4985 73.5758 75.1033 74.2034 74.8662 74.7259Z" fill="white"/>
<path d="M69.8332 70.6123C69.5803 70.7865 69.144 70.4053 68.9828 69.9585C68.9638 69.9026 68.9448 69.8435 68.9069 69.8008C68.831 69.7088 68.7046 69.6989 68.5907 69.7153C68.4769 69.7318 68.3663 69.7712 68.2525 69.7548C68.0912 69.7318 67.9585 69.6003 67.8826 69.4426C67.8067 69.2882 67.7814 69.1108 67.753 68.9399C67.6328 68.9071 67.5032 68.9202 67.3926 68.9728C67.3072 69.0155 67.2187 69.1042 67.244 69.2028C67.2566 69.2488 67.2882 69.2849 67.3167 69.3178C67.4115 69.4229 67.5 69.5346 67.5791 69.6529C67.6297 69.7252 67.6771 69.8205 67.6391 69.9026C67.538 70.1228 67.3515 70.0078 67.4052 70.3232C67.4716 70.7175 67.9711 70.8785 67.6866 71.3516C67.5822 71.5258 67.3926 71.6276 67.1997 71.6375C67.0638 71.6441 66.893 71.5685 66.893 71.4206C66.893 71.3779 66.9089 71.3319 66.8962 71.2892C66.8804 71.2366 66.8235 71.2071 66.7698 71.2005C66.599 71.1709 66.4315 71.2662 66.2734 71.3418C66.226 71.3648 66.1691 71.3878 66.1248 71.3582C65.9762 71.2662 66.0458 71.1906 65.8434 71.1709C65.6727 71.1545 65.4704 71.2958 65.3756 71.4371C65.3534 71.4699 65.3313 71.5159 65.3471 71.5521C65.3597 71.5849 65.3945 71.6046 65.4135 71.6342C65.4419 71.6868 65.4135 71.7558 65.3661 71.7886C65.3186 71.8215 65.2617 71.8281 65.208 71.8412C64.9519 71.8971 64.9456 72.1632 64.7622 72.2946C64.6136 72.4031 64.2374 72.4228 64.2722 72.1139C64.2849 72.0022 64.3892 71.9102 64.3734 71.7985C64.3576 71.6999 64.2564 71.6473 64.1647 71.6342C64.073 71.6211 63.975 71.6309 63.8928 71.5849C63.8391 71.5553 63.798 71.5028 63.7474 71.4633C63.4407 71.2235 62.7105 71.4272 62.4765 71.6966C62.2552 71.9496 62.2299 72.3833 61.9485 72.5476C61.9802 72.2125 62.1382 71.8938 62.3785 71.6769C62.4228 71.6375 62.4702 71.5981 62.4955 71.5422C62.5144 71.4929 62.5144 71.4403 62.5113 71.3878C62.4986 71.1216 62.4512 70.8752 62.3817 70.6288C62.3912 70.6583 62.2015 70.1195 62.3374 70.2213C62.094 70.0406 61.566 69.7383 61.2625 69.7581C61.1044 69.7679 60.9495 69.8665 60.8831 70.0209C60.8168 70.1753 60.8578 70.3823 60.9875 70.4776C61.1139 70.5696 61.2846 70.5532 61.4143 70.6419C61.5376 70.7273 61.5881 70.9113 61.5312 71.0559C61.4522 70.9376 61.3321 70.8522 61.1993 70.8193C61.0222 70.7766 60.8199 70.8226 60.6682 70.7175C60.5544 70.6386 60.4974 70.4908 60.4943 70.3462C60.4943 70.2016 60.5417 70.0603 60.6081 69.9355C60.6555 69.8435 60.7156 69.7581 60.7409 69.6562C60.782 69.4952 60.7346 69.3178 60.646 69.1798C60.3236 68.6639 59.7261 68.4405 59.1728 68.6311C59.1349 68.6442 59.0969 68.6606 59.078 68.6968C59.0495 68.7493 59.078 68.8151 59.0653 68.8742C59.0463 68.9662 58.9136 69.0023 58.8598 68.9301C58.8219 68.8808 58.8219 68.8085 58.8092 68.7428C58.7713 68.5785 58.6132 68.4766 58.4615 68.4273C58.2749 68.3682 57.7723 68.1021 57.7217 68.4569C57.7185 68.4865 57.7185 68.5193 57.7059 68.5489C57.6711 68.6278 57.5541 68.6179 57.4972 68.5522C57.3834 68.4208 57.3613 68.2006 57.2506 68.0528C57.1526 67.9213 57.0072 67.8425 56.925 67.6979C56.7195 67.3365 56.8776 66.8601 57.2317 66.6859C57.5731 66.5183 57.9683 66.5939 58.3382 66.6629C58.5911 66.7122 59.4637 66.8995 59.5269 66.4592C59.5332 66.4231 59.53 66.3836 59.5458 66.3508C59.5648 66.3113 59.6091 66.2916 59.6344 66.2555C59.666 66.2095 59.6691 66.1471 59.685 66.0912C59.7482 65.8941 59.9916 65.8546 60.1876 65.8546C60.1687 65.7331 60.156 65.5819 60.2509 65.5063C60.3014 65.4636 60.3741 65.4571 60.4374 65.4571C60.6081 65.4505 61.0191 65.5162 61.1613 65.4078C61.3479 65.2665 61.2183 65.0233 61.3005 64.8262C61.3858 64.6192 61.7114 64.5896 61.7462 64.3629C61.7525 64.3136 61.7462 64.2643 61.7494 64.2151C61.762 64.0968 61.8537 64.0048 61.9391 63.9259C62.094 63.7846 62.2679 63.6335 62.4702 63.6368C62.5081 63.6696 62.4733 63.7386 62.4322 63.7616C62.388 63.7846 62.3342 63.7978 62.3121 63.8438C62.271 63.9325 62.3911 64.0081 62.4828 64.0245C62.486 64.1559 62.3659 64.2413 62.271 64.3235C62.1098 64.4615 61.9991 64.6619 61.9549 64.8788C62.2773 64.9412 62.6061 64.9543 62.9349 64.9215C63.3269 64.8821 63.5799 65.5523 64.0446 65.3651C64.1141 65.3388 64.1742 65.2895 64.2469 65.2731C64.4271 65.2369 64.5757 65.4209 64.7369 65.5129C64.9835 65.6542 65.2902 65.5819 65.5558 65.4833C65.8719 65.3683 66.2608 65.2008 66.5801 65.4012C66.7002 65.4768 66.795 65.5918 66.9215 65.6542C67.1871 65.7823 67.4906 65.6246 67.7783 65.5951C68.4927 65.5228 68.9227 66.2719 69.1535 66.8995C69.1883 66.9948 69.2199 67.0933 69.2167 67.1952C69.2135 67.2971 69.163 67.4022 69.0776 67.4449C68.948 67.5073 68.7994 67.4088 68.7172 67.2872C68.6318 67.1656 68.5813 67.0178 68.4801 66.9126C68.3789 66.8075 68.1892 66.7746 68.107 66.8995C68.0659 66.9619 68.0659 67.0408 68.0659 67.1163C68.0659 67.2576 68.0659 67.3989 68.0659 67.5402C68.0659 67.6191 68.0659 67.6979 68.0944 67.7702C68.145 67.8885 68.262 67.9542 68.3694 68.0101C68.6065 68.1316 68.8437 68.2565 69.0776 68.3781C69.1566 68.4208 69.2388 68.4602 69.3052 68.5226C69.6151 68.8019 69.4064 69.1896 69.6435 69.4591C69.7383 69.5675 69.8996 69.6003 69.9786 69.7252C70.0355 69.8172 70.0355 69.9355 70.0355 70.0472C70.0134 70.3692 69.9407 70.5401 69.8332 70.6123Z" fill="white"/>
<path d="M61.5913 72.9683C61.6862 73.1555 61.6735 73.3987 61.8917 73.5005C62.0371 73.5695 62.2205 73.5367 62.3374 73.6517C62.4702 73.7798 62.4354 74.0098 62.4101 74.2004C62.407 74.2333 62.4007 74.2694 62.4133 74.3023C62.4481 74.3877 62.5714 74.3844 62.6125 74.4633C62.6504 74.5323 62.603 74.6177 62.5492 74.6703C62.3849 74.8313 62.1161 74.851 61.9296 74.7195C61.879 74.6834 61.8284 74.6374 61.7684 74.6505C61.702 74.667 61.6798 74.7557 61.6609 74.828C61.6229 74.9791 61.5439 75.127 61.4238 75.219C61.0412 75.5015 60.507 75.1565 60.0833 75.5574C60.0327 75.6067 59.9822 75.6658 59.9663 75.7381C59.9505 75.817 59.9758 75.9057 59.9347 75.9747C59.8841 76.0601 59.7577 76.047 59.6881 75.978C59.6186 75.909 59.5901 75.8071 59.5617 75.7118C59.5332 75.6165 59.4953 75.5147 59.4163 75.4621C59.2835 75.3734 59.1317 75.4063 59.0559 75.2223C58.9642 74.989 59.2392 74.7951 59.1507 74.5815C59.1128 74.4863 59.0495 74.3811 59.0875 74.2858C59.1064 74.2365 59.1507 74.2037 59.1855 74.1675C59.3499 73.9934 59.3752 73.8258 59.5933 73.7207C59.7324 73.6517 60.0201 73.7404 60.077 73.4907C60.0928 73.425 60.0707 73.3461 60.1181 73.3001C60.1434 73.2738 60.1845 73.2738 60.2193 73.2738C60.4627 73.2738 60.7504 73.2771 60.8895 73.0635C61.0412 72.827 61.0602 72.6561 61.3732 72.7711C61.4838 72.8171 61.5471 72.8861 61.5913 72.9683Z" fill="white"/>
<path d="M68.8405 71.6601C68.8911 71.7357 68.9195 71.8277 68.9733 71.9C69.125 72.107 69.1882 71.923 69.359 71.992C69.419 72.015 69.4696 72.0577 69.5297 72.0741C69.653 72.1037 69.7763 72.015 69.9027 72.015C70.3927 72.0117 70.1367 72.8594 69.8996 73.0204C69.8553 73.05 69.8016 73.05 69.7478 73.05C69.5866 73.0467 69.4253 73.0467 69.2641 73.0434C69.2167 73.0434 69.1693 73.0434 69.1313 73.073C69.0144 73.1584 69.125 73.372 69.0555 73.5034C69.008 73.5954 68.8942 73.6118 68.7994 73.6283C68.597 73.6677 68.5528 73.9043 68.4295 74.0488C68.2714 74.2361 68.1197 74.3117 68.028 74.5844C67.9742 74.7454 67.9553 74.9195 67.8857 75.074C67.7403 75.3894 67.3672 75.5603 67.0543 75.4518C66.7413 75.3434 66.5326 74.9688 66.5864 74.6206C66.618 74.4168 66.7286 74.2394 66.8045 74.0488C66.9563 73.6644 66.8551 73.1978 66.4315 73.1256C66.324 73.1058 66.188 73.0993 66.1501 72.9908C66.0932 72.8364 66.3145 72.6524 66.2228 72.5177C66.1912 72.4684 66.1248 72.452 66.0963 72.3994C66.0584 72.3304 66.1027 72.2417 66.1564 72.1825C66.2102 72.1234 66.2797 72.0774 66.3018 72.0018C66.4283 71.5648 66.8456 71.8376 67.1207 71.8967C67.3672 71.9493 67.5095 71.9131 67.715 71.7883C68.0375 71.601 68.518 71.1804 68.8405 71.6601Z" fill="white"/>
<path d="M67.7878 64.8391C67.7498 64.7668 67.6613 64.7471 67.5854 64.7438C67.3199 64.7241 67.0511 64.7438 66.7887 64.7996C67.0069 64.9836 67.2472 65.1742 67.5222 65.1643C67.6487 65.1611 67.7783 65.1151 67.8953 65.1611C67.9237 65.0723 67.9079 64.9705 67.8573 64.8949L67.7878 64.8391Z" fill="white"/>
<path d="M70.867 68.2069C70.5951 68.4369 69.6372 68.1281 70.0829 67.8323C70.1556 67.7831 70.241 67.7699 70.3263 67.7568C70.4402 67.7371 70.554 67.7206 70.6678 67.7436C70.7784 67.7699 70.8891 67.8455 70.9207 67.9638C70.9523 68.0755 70.927 68.1543 70.867 68.2069Z" fill="white"/>
<path d="M59.0274 66.1733C58.8598 66.331 58.6227 66.3704 58.4014 66.4033C58.2907 66.4197 58.1453 66.4164 58.1074 66.3014C58.0663 66.1831 58.1959 66.0714 58.3129 66.0583C58.4298 66.0451 58.5531 66.078 58.6638 66.0287C58.7586 65.986 58.8345 65.8809 58.9388 65.8809C59.059 65.8809 59.1348 66.0714 59.0495 66.1667L59.0274 66.1733Z" fill="white"/>
</g>
<path d="M25.3832 77.6779H23.9132V70.2227H25.3832V77.6779Z" fill="url(#paint4_linear_370_5706)"/>
<path d="M27.8365 77.6775H26.3696V71.9209H27.8365V77.6775Z" fill="url(#paint5_linear_370_5706)"/>
<path d="M30.293 77.6777H28.8229V65.1689H30.293V77.6777Z" fill="url(#paint6_linear_370_5706)"/>
<path d="M32.7463 77.6781H31.2794V66.4902H32.7463V77.6781Z" fill="url(#paint7_linear_370_5706)"/>
<path d="M35.2027 77.6777H33.7326V68.4941H35.2027V77.6777Z" fill="url(#paint8_linear_370_5706)"/>
<path d="M37.656 77.6773H36.1891V75.4102H37.656V77.6773Z" fill="url(#paint9_linear_370_5706)"/>
<path d="M40.1124 77.6772H38.6424V71.0039H40.1124V77.6772Z" fill="url(#paint10_linear_370_5706)"/>
<path opacity="0.54" d="M50.7854 64.1143H43.2517C42.9198 64.1143 42.651 64.3935 42.651 64.7385C42.651 65.0835 42.9198 65.3628 43.2517 65.3628H50.7854C51.1174 65.3628 51.3861 65.0835 51.3861 64.7385C51.3829 64.3935 51.1142 64.1143 50.7854 64.1143Z" fill="white"/>
<path opacity="0.54" d="M50.7854 62.165H43.2517C42.9198 62.165 42.651 62.4443 42.651 62.7893C42.651 63.1343 42.9198 63.4136 43.2517 63.4136H50.7854C51.1174 63.4136 51.3861 63.1343 51.3861 62.7893C51.3829 62.4443 51.1142 62.165 50.7854 62.165Z" fill="white"/>
<path opacity="0.54" d="M50.7854 76.2051H43.2517C42.9198 76.2051 42.651 76.4844 42.651 76.8294C42.651 77.1744 42.9198 77.4536 43.2517 77.4536H50.7854C51.1174 77.4536 51.3861 77.1744 51.3861 76.8294C51.3829 76.4844 51.1142 76.2051 50.7854 76.2051Z" fill="white"/>
<path opacity="0.54" d="M50.7854 74.2568H43.2517C42.9198 74.2568 42.651 74.5361 42.651 74.8811C42.651 75.2261 42.9198 75.5054 43.2517 75.5054H50.7854C51.1174 75.5054 51.3861 75.2261 51.3861 74.8811C51.3829 74.5361 51.1142 74.2568 50.7854 74.2568Z" fill="white"/>
<path d="M44.2571 45.2608V50.1729C44.2571 50.6231 43.7987 50.9155 43.413 50.7118L39.3031 48.5432C38.9016 48.3329 38.8731 47.7481 39.2525 47.4983L43.3624 44.7548C43.7513 44.4952 44.2571 44.7843 44.2571 45.2608Z" fill="white"/>
<path opacity="0.6" d="M8.85521 41.4649H24.3558C24.517 41.4649 24.6498 41.3269 24.6498 41.1594V38.5702C24.6498 38.4027 24.517 38.2646 24.3558 38.2646H8.86785C8.73823 38.2646 8.63706 38.3731 8.63706 38.5045V41.2349C8.6339 41.3631 8.73191 41.4649 8.85521 41.4649Z" fill="white"/>
<path opacity="0.6" d="M63.2289 49.5482H81.0373C81.1985 49.5482 81.3313 49.4102 81.3313 49.2426V37.4042C81.3313 37.2366 81.1985 37.0986 81.0373 37.0986H63.2384C63.1087 37.0986 63.0076 37.2071 63.0076 37.3385V49.3182C63.0076 49.4463 63.1056 49.5482 63.2289 49.5482Z" fill="white"/>
<path opacity="0.6" d="M63.2162 53.0413H81.0247C81.1859 53.0413 81.3187 52.9033 81.3187 52.7357V50.5507C81.3187 50.3831 81.1859 50.2451 81.0247 50.2451H63.2257C63.0961 50.2451 62.9949 50.3535 62.9949 50.485V52.808C62.9949 52.9394 63.0929 53.0413 63.2162 53.0413Z" fill="white"/>
<path opacity="0.6" d="M63.2257 58.3642H81.0373C81.1985 58.3642 81.3313 58.2262 81.3313 58.0586V56.4355C81.3313 56.2679 81.1985 56.1299 81.0373 56.1299H63.2384C63.1087 56.1299 63.0076 56.2383 63.0076 56.3697V58.1342C63.0044 58.2623 63.1056 58.3642 63.2257 58.3642Z" fill="white"/>
<path opacity="0.6" d="M8.86468 45.546H24.3526C24.5138 45.546 24.6466 45.408 24.6466 45.2404V42.6513C24.6466 42.4837 24.5138 42.3457 24.3526 42.3457H8.85203C8.72873 42.3457 8.63073 42.4476 8.63073 42.5757V45.3061C8.63389 45.4376 8.73822 45.546 8.86468 45.546Z" fill="white"/>
<path opacity="0.6" d="M10.5972 58.1242H22.4715C23.6729 58.1242 24.6498 57.1122 24.6498 55.8603V48.2276C24.6498 47.4095 24.0143 46.749 23.2271 46.749H10.0566C9.26936 46.749 8.63391 47.4095 8.63391 48.2276L9.02277 56.5635C9.06386 57.4375 9.75622 58.1242 10.5972 58.1242Z" fill="white"/>
<path opacity="0.6" d="M76.2034 55.1137H80.5188C80.5884 55.1137 80.6453 55.0546 80.6453 54.9823V54.2857C80.6453 54.2134 80.5884 54.1543 80.5188 54.1543H76.2034C76.1339 54.1543 76.077 54.2134 76.077 54.2857V54.9823C76.077 55.0546 76.1339 55.1137 76.2034 55.1137Z" fill="white"/>
<g opacity="0.64">
<path d="M78.799 24.4948C78.8907 24.4948 78.9761 24.4324 79.0013 24.3371C79.033 24.2221 79.0646 24.1071 79.0962 23.9954C79.1278 23.8771 79.0614 23.7555 78.9476 23.726C78.8338 23.6931 78.7168 23.7621 78.6884 23.8804C78.6599 23.9921 78.6283 24.1038 78.5967 24.2155C78.5651 24.3338 78.6283 24.4554 78.7389 24.4882C78.7579 24.4915 78.78 24.4948 78.799 24.4948Z" fill="white"/>
<path d="M79.1499 23.0424C79.248 23.0424 79.3365 22.9701 79.3586 22.8682C79.406 22.6349 79.4471 22.4016 79.4851 22.1684C79.504 22.0468 79.4282 21.9351 79.3112 21.9154C79.1942 21.8956 79.0867 21.9745 79.0678 22.0961C79.0298 22.3228 78.9887 22.5528 78.9445 22.7795C78.9192 22.8978 78.995 23.0161 79.1088 23.0391C79.1215 23.0391 79.1341 23.0424 79.1499 23.0424ZM79.425 21.2155C79.5325 21.2155 79.6242 21.1301 79.6368 21.0184C79.6621 20.7851 79.6811 20.5452 79.6969 20.3086C79.7064 20.1871 79.6178 20.0819 79.5009 20.0721C79.3839 20.0655 79.2827 20.1542 79.2732 20.2758C79.2574 20.5058 79.2385 20.7391 79.2163 20.9691C79.2037 21.0906 79.2891 21.1991 79.406 21.2122C79.4092 21.2155 79.4155 21.2155 79.425 21.2155ZM79.5262 19.3722C79.6431 19.3722 79.738 19.2736 79.738 19.1521C79.738 19.1028 79.738 19.0568 79.738 19.0075C79.738 18.8202 79.7348 18.6296 79.7285 18.4391C79.7253 18.3175 79.6273 18.2255 79.5104 18.2255C79.3934 18.2288 79.3017 18.3306 79.3049 18.4522C79.3112 18.6362 79.3143 18.8235 79.3143 19.0075C79.3143 19.0535 79.3143 19.1028 79.3143 19.1488C79.3112 19.2704 79.406 19.3689 79.5262 19.3722C79.523 19.3722 79.523 19.3722 79.5262 19.3722ZM79.4503 17.5256C79.4566 17.5256 79.4629 17.5256 79.4693 17.5256C79.5862 17.5158 79.6716 17.4074 79.6621 17.2858C79.6431 17.0492 79.6178 16.8126 79.5894 16.5761C79.5736 16.4545 79.4693 16.3691 79.3523 16.3855C79.2353 16.4019 79.1531 16.5104 79.1689 16.6319C79.1974 16.8619 79.2227 17.0952 79.2416 17.3252C79.2511 17.4369 79.3428 17.5256 79.4503 17.5256ZM79.2069 15.6955C79.2195 15.6955 79.2321 15.6955 79.248 15.6922C79.3618 15.6692 79.4376 15.5542 79.4155 15.4359C79.3744 15.2026 79.327 14.9694 79.2764 14.7394C79.2511 14.6211 79.1373 14.5455 79.0235 14.5751C78.9097 14.6014 78.837 14.7196 78.8654 14.8379C78.916 15.0646 78.9603 15.2914 79.0014 15.5181C79.0172 15.6199 79.1057 15.6955 79.2069 15.6955ZM78.7895 13.8982C78.8085 13.8982 78.8306 13.8949 78.8496 13.8884C78.9634 13.8555 79.0267 13.7306 78.9919 13.6156C78.9286 13.3889 78.8591 13.1589 78.7864 12.9355C78.7484 12.8205 78.6283 12.7581 78.5177 12.7975C78.407 12.8369 78.3469 12.9618 78.3849 13.0768C78.4544 13.2969 78.524 13.5204 78.5872 13.7405C78.6157 13.8358 78.6979 13.8982 78.7895 13.8982ZM78.2047 12.1535C78.23 12.1535 78.2584 12.1469 78.2837 12.1371C78.3912 12.0911 78.4449 11.9629 78.4007 11.8512C78.3153 11.6311 78.2236 11.4109 78.1288 11.1941C78.0814 11.0824 77.9549 11.0331 77.8474 11.0824C77.7399 11.1316 77.6925 11.2631 77.7399 11.3748C77.8316 11.5851 77.9201 11.8019 78.0023 12.0155C78.0434 12.1009 78.1225 12.1535 78.2047 12.1535ZM77.4554 10.4745C77.4902 10.4745 77.5218 10.4679 77.5534 10.4482C77.6577 10.3924 77.6957 10.2576 77.6419 10.1492C77.5344 9.93893 77.4238 9.72864 77.31 9.52493C77.2531 9.41979 77.1203 9.38364 77.0191 9.44279C76.918 9.50193 76.8832 9.63993 76.9401 9.74507C77.0507 9.9455 77.1614 10.1525 77.2626 10.3562C77.3037 10.4318 77.3795 10.4745 77.4554 10.4745ZM76.5481 8.88093C76.5892 8.88093 76.6303 8.86779 76.6651 8.84479C76.7631 8.77907 76.7883 8.64107 76.7251 8.53921C76.5987 8.34207 76.469 8.14493 76.3363 7.95107C76.2667 7.8525 76.1371 7.8295 76.0391 7.8985C75.9442 7.97079 75.9221 8.1055 75.9885 8.20736C76.1181 8.39464 76.2446 8.5885 76.3679 8.78236C76.4121 8.84807 76.4785 8.88093 76.5481 8.88093ZM75.4953 7.38921C75.5427 7.38921 75.5902 7.37279 75.6281 7.33993C75.7198 7.26436 75.7324 7.12307 75.6597 7.03107C75.5174 6.84707 75.3689 6.66307 75.2171 6.48564C75.1412 6.39364 75.0053 6.38379 74.9168 6.46593C74.8283 6.54479 74.8188 6.68607 74.8978 6.77807C75.0432 6.95222 75.1887 7.12964 75.3309 7.31036C75.3752 7.36293 75.4353 7.38921 75.4953 7.38921ZM74.3098 6.0125C74.3635 6.0125 74.4173 5.99279 74.4584 5.95007C74.5406 5.86464 74.5437 5.72336 74.4584 5.63793C74.2971 5.47036 74.1327 5.30279 73.9683 5.14179C73.883 5.05964 73.7502 5.06293 73.668 5.15164C73.589 5.24036 73.5921 5.38164 73.6775 5.46379C73.8387 5.6215 74 5.78579 74.158 5.95007C74.1991 5.99279 74.2529 6.0125 74.3098 6.0125ZM72.9978 4.76393C73.0578 4.76393 73.1179 4.73764 73.1622 4.68507C73.238 4.58979 73.2254 4.45179 73.1337 4.37293C72.9598 4.22179 72.7796 4.07064 72.5994 3.92936C72.5078 3.85379 72.3718 3.8735 72.3023 3.96879C72.2295 4.06407 72.2485 4.20536 72.3402 4.27764C72.5172 4.41893 72.6911 4.5635 72.8618 4.71136C72.9029 4.7475 72.9504 4.76393 72.9978 4.76393ZM71.5751 3.65664C71.6447 3.65664 71.7111 3.62379 71.7522 3.55807C71.8186 3.45622 71.7933 3.3215 71.6953 3.2525C71.5056 3.12107 71.3127 2.98964 71.1199 2.86479C71.0219 2.79907 70.8891 2.83193 70.829 2.93379C70.7658 3.03564 70.7974 3.17364 70.8954 3.23607C71.0851 3.35764 71.2716 3.48579 71.455 3.61393C71.4929 3.6435 71.534 3.65664 71.5751 3.65664ZM52.3915 2.97979C52.4263 2.97979 52.4642 2.96993 52.499 2.95022C52.6918 2.83522 52.8878 2.72022 53.0838 2.61179C53.1882 2.55593 53.2261 2.42122 53.1724 2.31279C53.1186 2.20436 52.989 2.16493 52.8847 2.22079C52.6823 2.3325 52.4832 2.4475 52.2872 2.56907C52.186 2.6315 52.1512 2.76622 52.2113 2.87136C52.2461 2.94036 52.3188 2.97979 52.3915 2.97979ZM70.0576 2.69722C70.1335 2.69722 70.2062 2.6545 70.2442 2.58222C70.3011 2.47379 70.2631 2.34236 70.1588 2.28322C69.9596 2.1715 69.7541 2.05979 69.5518 1.95464C69.4475 1.90207 69.321 1.94479 69.2673 2.05322C69.2167 2.16164 69.2578 2.29307 69.3621 2.34893C69.5613 2.45079 69.7605 2.55922 69.9565 2.66764C69.9881 2.69064 70.0229 2.69722 70.0576 2.69722ZM53.969 2.12879C53.9975 2.12879 54.0291 2.12222 54.0576 2.10907C54.2599 2.01379 54.4654 1.92179 54.6709 1.83307C54.7784 1.78707 54.8321 1.65893 54.7879 1.54393C54.7436 1.43222 54.6203 1.37636 54.5096 1.42236C54.2978 1.51436 54.086 1.60964 53.8805 1.70493C53.773 1.75422 53.7256 1.88564 53.7762 1.99736C53.811 2.08279 53.89 2.12879 53.969 2.12879ZM68.4548 1.89879C68.537 1.89879 68.616 1.8495 68.6508 1.76407C68.6951 1.65236 68.6445 1.52093 68.537 1.47493C68.3283 1.38293 68.1133 1.29422 67.9015 1.21207C67.7909 1.16936 67.6707 1.22522 67.6296 1.34022C67.5885 1.45522 67.6423 1.58007 67.7529 1.62279C67.9616 1.70493 68.1703 1.79036 68.3726 1.87907C68.401 1.8955 68.4295 1.89879 68.4548 1.89879ZM55.6225 1.44536C55.6446 1.44536 55.6667 1.44207 55.692 1.43222C55.9038 1.35664 56.1157 1.28764 56.3306 1.21864C56.4445 1.1825 56.5077 1.06093 56.4729 0.942644C56.4381 0.824358 56.3212 0.758644 56.2073 0.794787C55.9892 0.863787 55.7711 0.936072 55.5529 1.01164C55.4423 1.05107 55.3822 1.17593 55.4201 1.29093C55.4518 1.3895 55.534 1.44536 55.6225 1.44536ZM66.7887 1.26793C66.8804 1.26793 66.9626 1.2055 66.991 1.1135C67.0258 0.998501 66.9626 0.873644 66.8519 0.837501C66.6338 0.768501 66.4125 0.702787 66.1943 0.640358C66.0805 0.607501 65.9636 0.679787 65.9351 0.798072C65.9035 0.916358 65.973 1.03793 66.0869 1.0675C66.3018 1.12664 66.5168 1.19236 66.7286 1.26136C66.7476 1.26464 66.7666 1.26793 66.7887 1.26793ZM57.3328 0.936073C57.3486 0.936073 57.3644 0.932787 57.3802 0.929501C57.5952 0.87693 57.8165 0.827644 58.0347 0.78493C58.1485 0.76193 58.2243 0.64693 58.2022 0.525358C58.1801 0.403787 58.0694 0.328215 57.9525 0.351215C57.728 0.397215 57.5035 0.446501 57.2822 0.499073C57.1684 0.525358 57.0989 0.64693 57.1242 0.765215C57.1495 0.870358 57.2348 0.936073 57.3328 0.936073ZM65.0657 0.814501C65.1637 0.814501 65.2522 0.742215 65.2744 0.637073C65.2965 0.518787 65.2238 0.400501 65.11 0.377501C64.8855 0.331501 64.661 0.288787 64.4366 0.249358C64.3196 0.229644 64.2121 0.311787 64.1932 0.430073C64.1742 0.551644 64.2532 0.663358 64.367 0.683072C64.5852 0.719215 64.8065 0.76193 65.0246 0.80793C65.0373 0.811215 65.0499 0.814501 65.0657 0.814501ZM59.0811 0.604215C59.0906 0.604215 59.1001 0.604215 59.1096 0.60093C59.3309 0.571358 59.5522 0.545073 59.7766 0.522073C59.8936 0.512215 59.9789 0.403787 59.9663 0.282215C59.9568 0.160644 59.8525 0.0719297 59.7355 0.0850725C59.5079 0.108073 59.2803 0.134358 59.0526 0.16393C58.9357 0.180358 58.8535 0.292073 58.8693 0.410358C58.8851 0.525358 58.9768 0.604215 59.0811 0.604215ZM63.308 0.535215C63.4154 0.535215 63.5071 0.449787 63.5198 0.338073C63.5324 0.216501 63.4471 0.108073 63.3301 0.0949297C63.1056 0.0719297 62.8748 0.0522154 62.6472 0.0357868C62.5302 0.0292154 62.4291 0.121215 62.4227 0.242787C62.4164 0.364358 62.5049 0.469501 62.6219 0.476073C62.8432 0.489215 63.0677 0.50893 63.289 0.53193C63.2921 0.535215 63.3016 0.535215 63.308 0.535215ZM60.8547 0.453073C60.8578 0.453073 60.861 0.453073 60.861 0.453073C61.0696 0.446501 61.2783 0.443215 61.4838 0.443215H61.5281C61.645 0.443215 61.7399 0.344644 61.7399 0.223073C61.7399 0.101501 61.645 0.00292969 61.5281 0.00292969H61.4806C61.2688 0.00292969 61.0538 0.0062154 60.842 0.0127868C60.7251 0.0160725 60.6334 0.11793 60.6365 0.239501C60.646 0.357787 60.7409 0.453073 60.8547 0.453073Z" fill="white"/>
<path d="M51.168 3.78802C51.2091 3.78802 51.2533 3.77488 51.2881 3.74859C51.3798 3.68288 51.4715 3.61717 51.5663 3.55145C51.6643 3.48245 51.6896 3.34774 51.6264 3.24588C51.56 3.14402 51.4304 3.11774 51.3324 3.18345C51.2375 3.24917 51.1427 3.31488 51.0478 3.38388C50.953 3.45288 50.9277 3.59088 50.9941 3.68945C51.0352 3.75517 51.1016 3.78802 51.168 3.78802Z" fill="white"/>
</g>
<g opacity="0.64">
<path d="M43.7038 15.8105C43.805 15.8105 43.8935 15.735 43.9125 15.6298C43.9315 15.5148 43.9536 15.3998 43.9757 15.2881C43.9978 15.1698 43.9251 15.0515 43.8113 15.0285C43.6975 15.0055 43.5837 15.0811 43.5616 15.1994C43.5394 15.3144 43.5173 15.4327 43.4952 15.551C43.473 15.6692 43.5489 15.7842 43.6659 15.8072C43.6785 15.8105 43.6912 15.8105 43.7038 15.8105Z" fill="white"/>
<path d="M61.3226 37.9762C61.4396 37.9762 61.5344 37.8777 61.5344 37.7561C61.5344 37.6345 61.4396 37.536 61.3226 37.5327C61.1044 37.5327 60.8831 37.5261 60.665 37.5162C60.548 37.513 60.45 37.6049 60.4437 37.7265C60.4374 37.8481 60.5291 37.9499 60.646 37.9565C60.8737 37.9697 61.0981 37.9762 61.3226 37.9762ZM62.407 37.9499C62.4101 37.9499 62.4133 37.9499 62.4196 37.9499C62.5239 37.9434 62.6251 37.9368 62.7294 37.9302C62.8527 37.9204 62.9729 37.9105 63.093 37.9007C63.21 37.8908 63.2953 37.7824 63.2858 37.6608C63.2764 37.5392 63.172 37.4505 63.0551 37.4604C62.9381 37.4702 62.8179 37.4801 62.6978 37.4899C62.5966 37.4965 62.4955 37.5031 62.3943 37.5097C62.2773 37.5162 62.1888 37.6214 62.192 37.7429C62.2015 37.8612 62.2963 37.9499 62.407 37.9499ZM59.5775 37.8777C59.685 37.8777 59.7766 37.7922 59.7893 37.6805C59.8019 37.559 59.7166 37.4505 59.5996 37.4374C59.3815 37.4144 59.1602 37.3848 58.9452 37.3552C58.8282 37.3388 58.7207 37.4209 58.7049 37.5425C58.6891 37.6641 58.7681 37.7758 58.8851 37.7922C59.1064 37.8251 59.3309 37.8547 59.5553 37.8777C59.5617 37.8777 59.5711 37.8777 59.5775 37.8777ZM64.1489 37.7692C64.1584 37.7692 64.171 37.7692 64.1805 37.766C64.4018 37.7331 64.6263 37.6937 64.8476 37.651C64.9614 37.628 65.0373 37.5129 65.0183 37.3947C64.9962 37.2764 64.8855 37.1975 64.7717 37.2172C64.5567 37.2599 64.3386 37.2961 64.1205 37.3322C64.0035 37.3487 63.9244 37.4637 63.9434 37.582C63.9561 37.6904 64.0477 37.7692 64.1489 37.7692ZM57.8482 37.6017C57.9462 37.6017 58.0347 37.5294 58.0568 37.4242C58.0789 37.3059 58.0062 37.1877 57.8924 37.1647C57.6774 37.1187 57.4625 37.0694 57.2506 37.0168C57.1368 36.9872 57.023 37.0595 56.9946 37.1778C56.9661 37.2961 57.0357 37.4144 57.1495 37.4439C57.3676 37.4998 57.5889 37.5491 57.8071 37.5984C57.8197 37.5984 57.8323 37.6017 57.8482 37.6017ZM65.8656 37.4144C65.8814 37.4144 65.9004 37.4111 65.9162 37.4078C66.1343 37.3519 66.3524 37.2895 66.5674 37.2238C66.6812 37.191 66.7445 37.0661 66.7128 36.9511C66.6812 36.8328 66.5611 36.7671 66.4504 36.7999C66.2418 36.8624 66.0268 36.9215 65.815 36.9774C65.7012 37.007 65.6316 37.1252 65.6601 37.2435C65.6854 37.3487 65.7707 37.4144 65.8656 37.4144ZM56.1536 37.1515C56.2453 37.1515 56.3275 37.0891 56.356 36.9971C56.3907 36.8821 56.3275 36.7572 56.2168 36.7211C56.0082 36.6554 55.7995 36.5831 55.594 36.5075C55.4834 36.4681 55.3633 36.5272 55.3253 36.6422C55.2874 36.7572 55.3443 36.8821 55.4549 36.9215C55.6668 36.9971 55.8817 37.0727 56.0936 37.1384C56.1094 37.1482 56.1315 37.1515 56.1536 37.1515ZM67.5411 36.8887C67.5633 36.8887 67.5886 36.8854 67.6139 36.8755C67.8257 36.7967 68.0375 36.7145 68.2461 36.6291C68.3536 36.5831 68.4074 36.4549 68.3631 36.3432C68.3189 36.2315 68.1956 36.1757 68.0881 36.2217C67.8857 36.3071 67.6771 36.386 67.4716 36.4648C67.3609 36.5042 67.304 36.6324 67.342 36.7474C67.3736 36.8328 67.4558 36.8887 67.5411 36.8887ZM54.5097 36.5338C54.5919 36.5338 54.6709 36.4845 54.7057 36.3991C54.7499 36.2874 54.6994 36.1559 54.5919 36.1099C54.3895 36.0212 54.1872 35.9292 53.9912 35.8339C53.8837 35.7814 53.7572 35.8307 53.7098 35.9424C53.6592 36.0541 53.7067 36.1855 53.8142 36.2348C54.0165 36.3334 54.2251 36.4287 54.4306 36.5174C54.4559 36.5272 54.4812 36.5338 54.5097 36.5338ZM69.1598 36.1921C69.1914 36.1921 69.2199 36.1855 69.2515 36.1724C69.4538 36.0738 69.6593 35.9687 69.8553 35.8602C69.9596 35.8044 70.0007 35.6697 69.947 35.5645C69.8933 35.4561 69.7636 35.4134 69.6625 35.4692C69.4696 35.5744 69.2705 35.6762 69.0713 35.7715C68.9638 35.8241 68.9195 35.9555 68.9701 36.0639C69.0049 36.1461 69.0808 36.1921 69.1598 36.1921ZM52.9321 35.7518C53.008 35.7518 53.0807 35.7091 53.1186 35.6368C53.1755 35.5284 53.1344 35.3969 53.0333 35.3378C52.8404 35.2294 52.6476 35.1177 52.4579 35.0027C52.3567 34.9402 52.2271 34.9764 52.167 35.0815C52.107 35.1867 52.1417 35.3214 52.2429 35.3838C52.4358 35.5021 52.6349 35.6171 52.8309 35.7255C52.8626 35.742 52.8973 35.7518 52.9321 35.7518ZM70.7057 35.3378C70.7437 35.3378 70.7816 35.3279 70.8132 35.3082C71.0061 35.1899 71.1989 35.0651 71.3855 34.937C71.4835 34.8712 71.5119 34.7332 71.4487 34.6314C71.3855 34.5295 71.2527 34.4999 71.1547 34.5657C70.9713 34.6905 70.7816 34.8121 70.5951 34.9271C70.4939 34.9895 70.4623 35.1242 70.5224 35.2294C70.5635 35.3017 70.633 35.3378 70.7057 35.3378ZM51.4336 34.8154C51.5031 34.8154 51.5695 34.7825 51.6106 34.7168C51.677 34.6149 51.6486 34.4802 51.5537 34.4112C51.3735 34.2864 51.1902 34.155 51.0131 34.0202C50.9183 33.948 50.7855 33.971 50.7159 34.0695C50.6464 34.1681 50.6685 34.3061 50.7634 34.3784C50.9436 34.5164 51.1301 34.6511 51.3166 34.7792C51.3514 34.8022 51.3925 34.8154 51.4336 34.8154ZM50.0267 33.7311C50.0868 33.7311 50.15 33.7048 50.1911 33.6489C50.2638 33.5537 50.2512 33.4157 50.1627 33.3401C49.9951 33.1955 49.8244 33.0477 49.66 32.8965C49.5715 32.8144 49.4387 32.8242 49.3597 32.9162C49.2806 33.0082 49.2901 33.1462 49.3786 33.2284C49.5462 33.3828 49.7201 33.5339 49.894 33.6818C49.9319 33.7147 49.9825 33.7311 50.0267 33.7311ZM48.7305 32.5121C48.7843 32.5121 48.838 32.4891 48.8823 32.4464C48.9645 32.3609 48.9645 32.2197 48.8823 32.1342C48.7274 31.9732 48.5725 31.8089 48.4239 31.6414C48.3449 31.5527 48.2089 31.5461 48.1236 31.6315C48.0382 31.7137 48.0319 31.8549 48.1141 31.9437C48.2658 32.1145 48.4239 32.2821 48.5851 32.4464C48.6199 32.4924 48.6768 32.5121 48.7305 32.5121ZM47.5482 31.1682C47.5956 31.1682 47.643 31.1518 47.6841 31.1189C47.7758 31.0401 47.7884 30.9021 47.7126 30.8101C47.5735 30.6359 47.4344 30.4552 47.3016 30.2745C47.2289 30.1792 47.0961 30.1595 47.0044 30.2351C46.9127 30.3107 46.8937 30.4487 46.9665 30.5439C47.1024 30.7279 47.2447 30.9119 47.3869 31.0927C47.428 31.1419 47.4881 31.1682 47.5482 31.1682ZM46.4986 29.7127C46.5397 29.7127 46.5808 29.6995 46.6187 29.6732C46.7167 29.6042 46.742 29.4695 46.6756 29.3677C46.5523 29.1771 46.4322 28.9865 46.3152 28.7927C46.252 28.6908 46.1224 28.6579 46.0244 28.7237C45.9263 28.7894 45.8947 28.9241 45.958 29.0259C46.0749 29.2231 46.2014 29.4202 46.3247 29.6141C46.3626 29.6765 46.4322 29.7127 46.4986 29.7127ZM45.5881 28.1552C45.6228 28.1552 45.6576 28.1454 45.6892 28.1289C45.7936 28.0698 45.8315 27.9384 45.7746 27.8299C45.6703 27.6295 45.5691 27.4258 45.4711 27.2221C45.4205 27.1137 45.2909 27.0677 45.1866 27.1235C45.0822 27.1761 45.038 27.3108 45.0917 27.4192C45.1929 27.6295 45.2972 27.8398 45.4047 28.0435C45.4395 28.1158 45.5122 28.1552 45.5881 28.1552ZM44.8293 26.5157C44.8578 26.5157 44.8862 26.5091 44.9115 26.4992C45.019 26.4532 45.0696 26.3218 45.0253 26.2101C44.94 25.9998 44.8578 25.7862 44.7787 25.5727C44.7376 25.4577 44.6143 25.4018 44.5037 25.4445C44.393 25.4872 44.3393 25.6154 44.3804 25.7304C44.4594 25.9472 44.5448 26.1674 44.6333 26.3842C44.6681 26.4631 44.7471 26.5157 44.8293 26.5157ZM44.2255 24.8038C44.2476 24.8038 44.2666 24.8005 44.2887 24.7939C44.3994 24.7578 44.4626 24.6329 44.4278 24.5179C44.3614 24.3011 44.3014 24.0809 44.2445 23.8608C44.2128 23.7425 44.0959 23.6735 43.9852 23.7064C43.8714 23.7392 43.805 23.8608 43.8366 23.9758C43.8967 24.1992 43.9599 24.4259 44.0263 24.6494C44.0516 24.7447 44.137 24.8038 44.2255 24.8038ZM43.7892 23.0427C43.805 23.0427 43.8177 23.0427 43.8335 23.0394C43.9473 23.0131 44.0232 22.8981 43.9979 22.7798C43.9536 22.5564 43.9125 22.3297 43.8746 22.1062C43.8556 21.9847 43.745 21.9058 43.6311 21.9255C43.5142 21.9452 43.4383 22.0602 43.4573 22.1785C43.4952 22.4085 43.5363 22.6385 43.5806 22.8685C43.6027 22.9737 43.688 23.0427 43.7892 23.0427ZM43.5173 21.2487C43.5236 21.2487 43.5331 21.2487 43.5395 21.2487C43.6564 21.2355 43.7386 21.1271 43.726 21.0055C43.7039 20.7821 43.6817 20.5521 43.6659 20.3221C43.6564 20.2005 43.5553 20.1085 43.4383 20.1184C43.3213 20.1282 43.2328 20.2334 43.2423 20.3549C43.2581 20.5882 43.2802 20.8215 43.3023 21.0515C43.3182 21.1632 43.4098 21.2487 43.5173 21.2487ZM43.4098 19.4317C43.53 19.4317 43.6248 19.3298 43.6217 19.2082C43.6217 19.1294 43.6217 19.0472 43.6217 18.9684C43.6217 18.8205 43.6248 18.6694 43.628 18.5215C43.6311 18.3999 43.5395 18.2981 43.4225 18.2948C43.3023 18.2915 43.2075 18.3868 43.2043 18.5084C43.2012 18.6595 43.198 18.8139 43.198 18.9651C43.198 19.0472 43.198 19.1294 43.198 19.2082C43.198 19.3364 43.2929 19.4317 43.4098 19.4317ZM43.4731 17.6147C43.5837 17.6147 43.6754 17.5292 43.6849 17.4142C43.7039 17.1875 43.726 16.9575 43.7513 16.7341C43.7639 16.6125 43.6817 16.5041 43.5647 16.4877C43.4478 16.4745 43.3434 16.5599 43.3276 16.6815C43.2992 16.9115 43.2771 17.1481 43.2581 17.3781C43.2486 17.4997 43.334 17.6048 43.4509 17.6147C43.4604 17.6147 43.4667 17.6147 43.4731 17.6147Z" fill="white"/>
<path d="M72.1695 34.3286C72.2137 34.3286 72.258 34.3154 72.2959 34.2859C72.3876 34.2169 72.4793 34.1446 72.571 34.0723C72.6627 33.9967 72.6816 33.8587 72.6089 33.7634C72.5362 33.6681 72.4034 33.6484 72.3118 33.724C72.2232 33.793 72.1347 33.8653 72.043 33.9343C71.9482 34.0066 71.9292 34.1446 71.9988 34.2431C72.0399 34.2957 72.1063 34.3286 72.1695 34.3286Z" fill="white"/>
</g>
<path d="M71.2179 29.2421C71.161 29.3177 71.063 29.344 70.9745 29.3111L68.4991 28.3648C67.5222 29.1468 66.4188 29.7711 65.2206 30.1983L64.6168 32.8663C64.5947 32.9583 64.5188 33.0306 64.4271 33.0404L61.2783 33.3723C61.1866 33.3821 61.0981 33.3296 61.0602 33.2441L59.9537 30.7568C58.6954 30.586 57.4941 30.2048 56.3876 29.643L54.1493 31.0821C54.0702 31.1314 53.9691 31.1248 53.8995 31.0657L51.4494 28.9858C51.3767 28.9234 51.3514 28.8248 51.383 28.7328L52.2935 26.1601C51.5411 25.1448 50.9404 23.9981 50.5294 22.7528L47.9623 22.1253C47.8738 22.1023 47.8042 22.0234 47.7979 21.9281L47.4786 18.6556C47.4691 18.5603 47.5197 18.4683 47.6019 18.4288L49.9951 17.2788C50.1595 15.9711 50.5262 14.7226 51.0668 13.5726L49.679 11.243C49.6316 11.1608 49.6379 11.0557 49.6948 10.9834L51.696 8.43699C51.7529 8.36142 51.8509 8.33513 51.9394 8.36799L54.4148 9.31427C55.3917 8.53227 56.495 7.90799 57.6932 7.48085L58.2971 4.81285C58.3192 4.72085 58.3951 4.64856 58.4868 4.6387L61.6356 4.30685C61.7272 4.29699 61.8158 4.34956 61.8537 4.43499L62.9602 6.92227C64.2185 7.09313 65.4198 7.47427 66.5263 8.03613L68.7678 6.5937C68.8468 6.54442 68.948 6.55099 69.0175 6.61013L71.4677 8.68999C71.5404 8.74913 71.5657 8.85099 71.534 8.94299L70.6235 11.5157C71.376 12.531 71.9766 13.6777 72.3876 14.923L74.9516 15.5538C75.0401 15.5768 75.1096 15.6557 75.116 15.751L75.4353 19.0236C75.4447 19.1188 75.3942 19.2108 75.312 19.2503L72.9188 20.4003C72.7544 21.708 72.3876 22.9566 71.847 24.1066L73.2349 26.4361C73.2823 26.5183 73.276 26.6234 73.2191 26.6957L71.2179 29.2421Z" fill="url(#paint11_linear_370_5706)"/>
<path d="M61.4617 21.9375C62.0972 21.9375 62.7136 21.7272 63.2321 21.3264C63.8707 20.8335 64.288 20.1107 64.4018 19.2925C64.5188 18.4744 64.3196 17.6595 63.8454 16.9958C63.3712 16.3321 62.6757 15.8984 61.8885 15.7801C61.1013 15.6585 60.3173 15.8655 59.6786 16.3584C59.04 16.8512 58.6227 17.5741 58.5089 18.3922C58.2686 20.0811 59.3973 21.6582 61.0223 21.908C61.1677 21.9244 61.3163 21.9375 61.4617 21.9375ZM61.4491 16.0955C61.5787 16.0955 61.7083 16.1054 61.8411 16.1251C62.5398 16.2335 63.1531 16.6147 63.5735 17.2028C63.994 17.791 64.1679 18.5138 64.0667 19.24C63.9624 19.9661 63.5957 20.6035 63.0298 21.0405C62.4639 21.4775 61.7684 21.6582 61.0697 21.5531C59.6312 21.333 58.6322 19.9365 58.844 18.4382C58.9484 17.7121 59.3151 17.0747 59.881 16.6377C60.3394 16.2828 60.8863 16.0955 61.4491 16.0955Z" fill="white"/>
<path d="M61.4016 26.8138C61.6608 26.8138 61.9232 26.8007 62.1856 26.7711C62.7326 26.712 63.2763 26.597 63.7948 26.4196C63.8296 26.4064 63.8549 26.3736 63.8549 26.3341C63.8549 26.3243 63.8549 26.3144 63.8517 26.3078C63.8359 26.2618 63.7885 26.2356 63.7442 26.252C63.2352 26.4228 62.7073 26.5378 62.1698 26.5937C58.0283 27.0307 54.3168 23.883 53.8963 19.5787C53.871 19.3093 53.8584 19.0431 53.8584 18.7803C53.8584 14.8078 56.7638 11.3907 60.6492 10.98C64.7907 10.543 68.5022 13.6907 68.9227 17.995C68.948 18.2611 68.9606 18.5273 68.9606 18.7901C68.9606 19.9401 68.7172 21.0737 68.2493 22.1153C68.243 22.1284 68.2398 22.1416 68.2398 22.1514C68.2398 22.1843 68.2588 22.2171 68.2872 22.2303C68.3283 22.25 68.3789 22.2336 68.401 22.1876C68.8816 21.123 69.1282 19.9631 69.1282 18.7868C69.1282 18.5174 69.1155 18.2447 69.0902 17.972C68.6603 13.5691 64.8665 10.3524 60.6334 10.7993C56.6626 11.2166 53.6908 14.7126 53.6908 18.7737C53.6908 19.0431 53.7035 19.3158 53.7319 19.5886C54.1271 23.7286 57.4909 26.8138 61.4016 26.8138Z" fill="white"/>
<g opacity="0.64">
<path d="M48.5029 39.9038C48.5598 39.9038 48.6104 39.8676 48.6262 39.8085C48.6578 39.7 48.6863 39.5916 48.7116 39.4832C48.7305 39.4109 48.6894 39.3386 48.6199 39.3222C48.5503 39.3025 48.4808 39.3452 48.465 39.4175C48.4397 39.5226 48.4112 39.6278 48.3796 39.7329C48.3606 39.8019 48.3986 39.8775 48.465 39.8972C48.4776 39.9005 48.4903 39.9038 48.5029 39.9038Z" fill="white"/>
<path d="M48.7274 38.9481C48.7874 38.9481 48.8412 38.9054 48.8538 38.8397C48.8949 38.6261 48.9297 38.406 48.9581 38.1891C48.9676 38.1168 48.9202 38.0478 48.8475 38.038C48.7779 38.0281 48.7116 38.0774 48.7021 38.153C48.6736 38.3632 48.6388 38.5768 48.5977 38.7871C48.5851 38.8594 48.6294 38.9284 48.6989 38.9448C48.7116 38.9481 48.721 38.9481 48.7274 38.9481ZM48.8981 37.6601C48.9645 37.6601 49.0214 37.6075 49.0245 37.5385C49.0403 37.3217 49.053 37.0982 49.0562 36.8814C49.0562 36.8091 49.0024 36.7467 48.9297 36.7467C48.857 36.7467 48.8001 36.8025 48.8001 36.8781C48.7969 37.0917 48.7843 37.3085 48.7685 37.5221C48.7621 37.5944 48.8159 37.6601 48.8854 37.6667C48.8918 37.6601 48.8949 37.6601 48.8981 37.6601ZM48.9234 36.359C48.9265 36.359 48.9265 36.359 48.9297 36.359C48.9992 36.3557 49.0562 36.2932 49.053 36.221C49.0498 36.1027 49.0435 35.9844 49.034 35.8661C49.0277 35.7642 49.0182 35.6624 49.0087 35.5638C49.0024 35.4915 48.9392 35.4357 48.8696 35.4455C48.8001 35.4521 48.7463 35.5178 48.7558 35.5901C48.7653 35.6887 48.7716 35.7872 48.7779 35.8858C48.7843 36.0008 48.7906 36.1158 48.7969 36.2308C48.8001 36.2998 48.857 36.359 48.9234 36.359ZM48.8032 35.0611C48.8096 35.0611 48.8159 35.0611 48.8222 35.0611C48.8918 35.0512 48.9392 34.9822 48.9297 34.91C48.8981 34.6931 48.8601 34.4762 48.8159 34.2627C48.8001 34.1904 48.7337 34.1444 48.6641 34.1608C48.5946 34.1772 48.5503 34.2462 48.5661 34.3185C48.6104 34.5255 48.6483 34.7391 48.6799 34.9527C48.6894 35.0151 48.7432 35.0611 48.8032 35.0611ZM48.5408 33.7895C48.5535 33.7895 48.563 33.7895 48.5756 33.783C48.6452 33.7632 48.6831 33.691 48.6641 33.6187C48.6072 33.4084 48.544 33.1948 48.4776 32.9878C48.4555 32.9188 48.3828 32.8827 48.3164 32.9057C48.25 32.9287 48.2152 33.0042 48.2373 33.0732C48.3037 33.277 48.367 33.4807 48.4207 33.6877C48.4333 33.7501 48.4839 33.7895 48.5408 33.7895ZM48.1362 32.5574C48.152 32.5574 48.1678 32.5541 48.1836 32.5475C48.25 32.5212 48.2816 32.4424 48.2531 32.3734C48.1741 32.1697 48.0856 31.966 47.9939 31.7688C47.9623 31.7031 47.8864 31.6735 47.8232 31.7064C47.76 31.7392 47.7315 31.8181 47.7631 31.8838C47.8516 32.0777 47.937 32.2748 48.016 32.472C48.0382 32.5278 48.0856 32.5574 48.1362 32.5574ZM47.5924 31.3844C47.6145 31.3844 47.6335 31.3778 47.6556 31.368C47.7189 31.3318 47.741 31.2497 47.7062 31.1872C47.605 30.9967 47.4944 30.8061 47.3806 30.6188C47.3426 30.5564 47.2636 30.54 47.2035 30.5794C47.1435 30.6188 47.1277 30.701 47.1656 30.7634C47.2763 30.9441 47.3837 31.1314 47.4818 31.3154C47.5039 31.3581 47.5481 31.3844 47.5924 31.3844ZM46.919 30.2837C46.9443 30.2837 46.9696 30.2771 46.9949 30.2574C47.0518 30.2147 47.0644 30.1325 47.0233 30.0701C46.9 29.8927 46.7704 29.7152 46.6376 29.5477C46.5934 29.4918 46.5112 29.482 46.4574 29.528C46.4037 29.574 46.3942 29.6594 46.4385 29.7152C46.5681 29.8795 46.6946 30.0537 46.8147 30.2245C46.84 30.264 46.8811 30.2837 46.919 30.2837ZM46.1287 29.275C46.1603 29.275 46.1919 29.2618 46.214 29.2388C46.2646 29.1895 46.2709 29.1041 46.2235 29.0515C46.0812 28.8905 45.9326 28.7295 45.7809 28.5784C45.7303 28.5258 45.6481 28.5291 45.6007 28.5817C45.5501 28.6342 45.5533 28.7197 45.6039 28.769C45.7524 28.9168 45.8979 29.0745 46.0338 29.229C46.0591 29.2585 46.0939 29.275 46.1287 29.275ZM45.2308 28.3648C45.2656 28.3648 45.3035 28.3484 45.3288 28.3188C45.3762 28.263 45.3699 28.1775 45.3162 28.1315C45.1581 27.987 44.9905 27.849 44.8261 27.7142C44.7692 27.6682 44.6902 27.6814 44.6459 27.7372C44.6017 27.7964 44.6143 27.8785 44.6681 27.9245C44.8325 28.056 44.9937 28.1907 45.1486 28.332C45.1707 28.355 45.2024 28.3648 45.2308 28.3648ZM44.2381 27.573C44.2792 27.573 44.3203 27.5532 44.3456 27.5138C44.3867 27.4514 44.3709 27.3692 44.3108 27.3298C44.1369 27.2082 43.9567 27.0867 43.7765 26.975C43.7165 26.9388 43.6374 26.9585 43.5995 27.021C43.5647 27.0834 43.5837 27.1655 43.6438 27.205C43.8208 27.3134 43.9947 27.4317 44.1654 27.55C44.1875 27.5664 44.2128 27.573 44.2381 27.573ZM32.9486 27.1162C32.9707 27.1162 32.9929 27.1097 33.0118 27.0998C33.1889 26.9947 33.3722 26.8928 33.5588 26.7975C33.622 26.7647 33.6473 26.6858 33.6157 26.6201C33.584 26.5544 33.5082 26.5281 33.4449 26.561C33.2553 26.6595 33.0687 26.7614 32.8854 26.8698C32.8253 26.906 32.8032 26.9881 32.8379 27.0505C32.8601 27.09 32.9043 27.1162 32.9486 27.1162ZM43.1632 26.9092C43.2106 26.9092 43.2549 26.883 43.277 26.837C43.3086 26.7712 43.2865 26.6924 43.2233 26.6562C43.0368 26.5544 42.8439 26.4591 42.6542 26.3704C42.591 26.3408 42.5151 26.3704 42.4835 26.4361C42.4551 26.5018 42.4835 26.5807 42.5467 26.6135C42.7333 26.7022 42.9229 26.7942 43.1032 26.8928C43.1221 26.9027 43.1411 26.9092 43.1632 26.9092ZM34.0709 26.538C34.0867 26.538 34.1057 26.5347 34.1215 26.5281C34.3112 26.446 34.504 26.3671 34.7 26.2948C34.7664 26.2718 34.8012 26.193 34.7791 26.124C34.7569 26.055 34.6811 26.0188 34.6147 26.0418C34.4155 26.1141 34.2163 26.1962 34.0235 26.2817C33.9571 26.3112 33.9286 26.3868 33.9539 26.4558C33.9729 26.5084 34.0203 26.538 34.0709 26.538ZM42.0188 26.377C42.0694 26.377 42.1199 26.3441 42.1389 26.2915C42.1642 26.2225 42.1294 26.147 42.063 26.1207C41.867 26.0418 41.6647 25.9695 41.4655 25.9071C41.3991 25.8841 41.3264 25.9235 41.3043 25.9958C41.2822 26.0648 41.3201 26.1404 41.3897 26.1634C41.5857 26.2258 41.7817 26.2981 41.9745 26.3737C41.9903 26.3737 42.0061 26.377 42.0188 26.377ZM35.2501 26.101C35.2628 26.101 35.2754 26.0977 35.2849 26.0944C35.4809 26.0352 35.6832 25.9794 35.8856 25.9334C35.9551 25.917 35.9994 25.8447 35.9836 25.7757C35.9678 25.7034 35.8982 25.6574 35.8318 25.6738C35.6263 25.7231 35.4208 25.779 35.2185 25.8381C35.1521 25.8578 35.111 25.9334 35.13 26.0024C35.1458 26.0648 35.1964 26.101 35.2501 26.101ZM40.8269 25.9892C40.8838 25.9892 40.9376 25.9498 40.9502 25.8874C40.966 25.8151 40.9249 25.7428 40.8554 25.7264C40.6499 25.6738 40.4412 25.6278 40.2357 25.5851C40.1662 25.572 40.0998 25.618 40.0871 25.6902C40.0745 25.7625 40.1187 25.8315 40.1883 25.8447C40.3906 25.8841 40.593 25.9301 40.7921 25.9827C40.8048 25.986 40.8143 25.9892 40.8269 25.9892ZM36.4736 25.8151C36.4799 25.8151 36.4862 25.8151 36.4957 25.8118C36.6981 25.7757 36.9036 25.7461 37.1091 25.7264C37.1786 25.7198 37.2292 25.6541 37.2229 25.5785C37.2165 25.5062 37.1533 25.4504 37.0806 25.4602C36.8719 25.4832 36.6601 25.5128 36.4515 25.549C36.3819 25.5621 36.3345 25.6311 36.3471 25.7034C36.3566 25.7658 36.4104 25.8151 36.4736 25.8151ZM39.5939 25.7494C39.6572 25.7494 39.7141 25.7001 39.7204 25.6344C39.7299 25.5621 39.6793 25.4964 39.6098 25.4865C39.4011 25.4602 39.1893 25.4372 38.9775 25.4241C38.9079 25.4175 38.8447 25.4734 38.8415 25.549C38.8352 25.6212 38.8889 25.687 38.9617 25.6902C39.1672 25.7034 39.3726 25.7264 39.5781 25.7527C39.5845 25.7494 39.5908 25.7494 39.5939 25.7494ZM37.7192 25.6738C37.7224 25.6738 37.7224 25.6738 37.7255 25.6738C37.8994 25.664 38.0765 25.6607 38.2503 25.6607H38.3452C38.4211 25.6574 38.4748 25.6015 38.4748 25.5292C38.4748 25.457 38.4179 25.3945 38.3483 25.3945H38.2535C38.0765 25.3945 37.8931 25.3978 37.716 25.4077C37.6465 25.411 37.5896 25.4734 37.5959 25.5457C37.5959 25.618 37.6497 25.6738 37.7192 25.6738Z" fill="white"/>
<path d="M32.1424 27.6451C32.1677 27.6451 32.193 27.6385 32.2152 27.6221C32.3005 27.5597 32.389 27.4973 32.4776 27.4381C32.5376 27.3987 32.5534 27.3165 32.5155 27.2541C32.4776 27.1917 32.3985 27.1753 32.3384 27.2147C32.2468 27.2771 32.1582 27.3395 32.0697 27.402C32.0128 27.4447 31.997 27.5268 32.0381 27.586C32.0602 27.6254 32.1013 27.6451 32.1424 27.6451Z" fill="white"/>
</g>
<g opacity="0.64">
<path d="M27.7006 34.8837C27.7607 34.8837 27.8176 34.8377 27.8271 34.772C27.846 34.6636 27.865 34.5551 27.884 34.45C27.8966 34.3777 27.8523 34.3087 27.7828 34.2923C27.7132 34.2791 27.6468 34.3251 27.631 34.3974C27.6089 34.5059 27.5899 34.6176 27.571 34.7293C27.5583 34.8016 27.6057 34.8706 27.6753 34.8837C27.6848 34.8837 27.6943 34.8837 27.7006 34.8837Z" fill="white"/>
<path d="M38.4116 47.8854C38.4147 47.8854 38.4147 47.8854 38.4116 47.8854C38.6044 47.8822 38.7973 47.8723 38.9838 47.8592L39.0692 47.8526C39.1387 47.846 39.1925 47.7836 39.1861 47.708C39.1798 47.6357 39.1198 47.5799 39.047 47.5864L38.9648 47.593C38.7815 47.6062 38.5918 47.616 38.4084 47.6193C38.3389 47.6193 38.282 47.6817 38.282 47.754C38.2851 47.8296 38.342 47.8854 38.4116 47.8854ZM37.7635 47.8789C37.833 47.8789 37.8899 47.823 37.8899 47.7507C37.8931 47.6784 37.8394 47.616 37.7667 47.6127C37.5548 47.6029 37.3399 47.5864 37.128 47.5634C37.0585 47.5569 36.9953 47.6094 36.9889 47.6817C36.9826 47.754 37.0332 47.8197 37.1028 47.8263C37.3209 47.8493 37.539 47.8657 37.7572 47.8756C37.7603 47.8789 37.7635 47.8789 37.7635 47.8789ZM39.7046 47.7836C39.7109 47.7836 39.7173 47.7836 39.7236 47.7836C39.9386 47.754 40.1567 47.7146 40.3717 47.6719C40.4412 47.6587 40.4855 47.5864 40.4728 47.5142C40.4602 47.4419 40.3907 47.3959 40.3211 47.409C40.1124 47.4517 39.9006 47.4879 39.6888 47.5207C39.6193 47.5306 39.5687 47.5963 39.5782 47.6719C39.5876 47.7343 39.6414 47.7836 39.7046 47.7836ZM36.4768 47.7376C36.5369 47.7376 36.5938 47.6916 36.6032 47.6259C36.6159 47.5536 36.5685 47.4846 36.4989 47.4714C36.2903 47.4353 36.0784 47.3926 35.8698 47.3433C35.8002 47.3269 35.7307 47.3729 35.7149 47.4419C35.6991 47.5142 35.7433 47.5864 35.8097 47.6029C36.0215 47.6522 36.2365 47.6982 36.4547 47.7343C36.461 47.7376 36.4705 47.7376 36.4768 47.7376ZM40.9755 47.5207C40.985 47.5207 40.9976 47.5207 41.0071 47.5174C41.219 47.4583 41.4308 47.3959 41.6363 47.3236C41.7026 47.3006 41.7406 47.225 41.7185 47.156C41.6963 47.087 41.6236 47.0476 41.5572 47.0706C41.3549 47.1396 41.1494 47.202 40.9439 47.2612C40.8744 47.2809 40.8333 47.3532 40.8522 47.4222C40.868 47.4813 40.9186 47.5207 40.9755 47.5207ZM35.2122 47.4353C35.2659 47.4353 35.3197 47.3992 35.3355 47.34C35.3545 47.271 35.3165 47.1954 35.2501 47.1757C35.0478 47.1133 34.8423 47.0443 34.6431 46.9687C34.5768 46.9424 34.504 46.9786 34.4788 47.0476C34.4535 47.1166 34.4882 47.1922 34.5546 47.2184C34.7601 47.294 34.9688 47.3663 35.1774 47.432C35.1901 47.4353 35.2027 47.4353 35.2122 47.4353ZM42.2085 47.0969C42.2243 47.0969 42.2401 47.0936 42.2559 47.087C42.4582 47.0049 42.6606 46.9129 42.8566 46.8143C42.9198 46.7814 42.9483 46.7026 42.9166 46.6369C42.885 46.5712 42.8092 46.5416 42.7459 46.5744C42.5531 46.6697 42.3571 46.7584 42.1579 46.8406C42.0915 46.8669 42.0599 46.9457 42.0852 47.0147C42.1073 47.064 42.1547 47.0969 42.2085 47.0969ZM33.9982 46.9786C34.0488 46.9786 34.0962 46.949 34.1152 46.8997C34.1436 46.8307 34.112 46.7552 34.0488 46.7256C33.8528 46.6369 33.6599 46.5416 33.4702 46.443C33.407 46.4102 33.3311 46.4364 33.2995 46.5022C33.2679 46.5679 33.2932 46.6467 33.3564 46.6796C33.5493 46.7814 33.7485 46.88 33.9508 46.9687C33.9634 46.9753 33.9792 46.9786 33.9982 46.9786ZM43.3782 46.5219C43.4003 46.5219 43.4193 46.5153 43.4383 46.5054C43.628 46.397 43.8208 46.2787 44.0042 46.1604C44.0642 46.121 44.0832 46.0389 44.0453 45.9764C44.0073 45.914 43.9283 45.8943 43.8682 45.9337C43.688 46.052 43.5015 46.1637 43.315 46.2722C43.2518 46.3083 43.2296 46.3872 43.2644 46.4529C43.2897 46.4989 43.334 46.5219 43.3782 46.5219ZM32.8411 46.3707C32.8854 46.3707 32.9265 46.3477 32.9518 46.305C32.9865 46.2426 32.9676 46.1604 32.9075 46.1243C32.7241 46.0126 32.5408 45.8943 32.3637 45.7694C32.3037 45.73 32.2246 45.7432 32.1867 45.8056C32.1488 45.868 32.1646 45.9502 32.2215 45.9896C32.4017 46.1144 32.5882 46.236 32.7779 46.351C32.7969 46.3642 32.819 46.3707 32.8411 46.3707ZM31.7662 45.6216C31.8042 45.6216 31.8421 45.6019 31.8674 45.569C31.9117 45.5099 31.899 45.4277 31.8421 45.3817C31.6745 45.247 31.507 45.1057 31.3458 44.9644C31.292 44.9152 31.2098 44.9217 31.1656 44.9776C31.1181 45.0334 31.1245 45.1189 31.1782 45.1649C31.3426 45.3127 31.5133 45.4573 31.6872 45.5953C31.7125 45.6117 31.7378 45.6216 31.7662 45.6216ZM30.783 44.741C30.8178 44.741 30.8494 44.7279 30.8747 44.7016C30.9253 44.649 30.9221 44.5636 30.8715 44.5143C30.7198 44.3599 30.568 44.1989 30.4258 44.0346C30.3784 43.982 30.2962 43.9754 30.2456 44.0247C30.1918 44.074 30.1887 44.1594 30.2361 44.212C30.3815 44.3796 30.5364 44.5439 30.6913 44.7016C30.7198 44.7279 30.7514 44.741 30.783 44.741ZM29.9105 43.7454C29.9389 43.7454 29.9674 43.7356 29.9895 43.7159C30.0432 43.6699 30.0527 43.5844 30.0085 43.5286C29.8757 43.3577 29.7461 43.177 29.6228 42.9963C29.5817 42.9372 29.5026 42.9207 29.4426 42.9634C29.3825 43.0062 29.373 43.0883 29.411 43.1507C29.5374 43.3347 29.6702 43.5187 29.8061 43.6929C29.8377 43.729 29.8725 43.7454 29.9105 43.7454ZM29.1612 42.648C29.1833 42.648 29.2086 42.6414 29.2276 42.6283C29.2877 42.5889 29.3066 42.5067 29.2687 42.4443C29.1549 42.257 29.0474 42.0632 28.9462 41.8693C28.9114 41.8036 28.8356 41.7806 28.7723 41.8167C28.7091 41.8529 28.687 41.9317 28.7218 41.9974C28.8261 42.1979 28.9367 42.395 29.0505 42.5856C29.0758 42.625 29.1169 42.648 29.1612 42.648ZM28.5416 41.4619C28.5605 41.4619 28.5795 41.4586 28.5953 41.4487C28.6585 41.4192 28.687 41.337 28.6585 41.2713C28.57 41.0709 28.4846 40.8639 28.4056 40.6602C28.3803 40.5912 28.3044 40.5583 28.2381 40.5846C28.1717 40.6109 28.1401 40.6897 28.1653 40.7587C28.2444 40.969 28.3329 41.1793 28.4246 41.3863C28.4467 41.4356 28.4941 41.4619 28.5416 41.4619ZM28.0673 40.21C28.08 40.21 28.0926 40.2067 28.1084 40.2034C28.1748 40.1804 28.2128 40.1049 28.1906 40.0359C28.1242 39.8256 28.0642 39.612 28.0104 39.3984C27.9915 39.3262 27.9219 39.2834 27.8555 39.3032C27.786 39.3229 27.7449 39.3952 27.7638 39.4642C27.8176 39.6843 27.8808 39.9044 27.9472 40.118C27.963 40.1739 28.0136 40.21 28.0673 40.21ZM27.7449 38.9056C27.7544 38.9056 27.7607 38.9056 27.7702 38.9023C27.8397 38.8892 27.884 38.8169 27.8713 38.7479C27.8302 38.531 27.7955 38.3109 27.767 38.0907C27.7575 38.0184 27.6911 37.9659 27.6247 37.9757C27.5552 37.9856 27.5046 38.0513 27.5141 38.1236C27.5425 38.347 27.5773 38.5737 27.6184 38.7972C27.6311 38.8596 27.6848 38.9056 27.7449 38.9056ZM27.5742 37.5683C27.5773 37.5683 27.5805 37.5683 27.5836 37.5683C27.6532 37.5617 27.7069 37.4993 27.7006 37.427L27.6975 37.4007C27.6848 37.1904 27.6753 36.9769 27.6722 36.7633C27.6722 36.691 27.6153 36.6319 27.5457 36.6319C27.4762 36.6319 27.4192 36.6943 27.4192 36.7666C27.4224 36.9834 27.4319 37.2036 27.4445 37.4204L27.4477 37.45C27.4509 37.5157 27.5078 37.5683 27.5742 37.5683ZM27.5583 36.2244C27.6247 36.2244 27.6816 36.1686 27.6848 36.0963C27.6943 35.8762 27.7133 35.6527 27.7354 35.4326C27.7417 35.3603 27.6911 35.2946 27.6216 35.2847C27.552 35.2782 27.4888 35.3307 27.4793 35.403C27.454 35.6297 27.4382 35.8564 27.4287 36.0832C27.4256 36.1554 27.4793 36.2179 27.552 36.2212C27.5552 36.2244 27.5583 36.2244 27.5583 36.2244Z" fill="white"/>
<path d="M44.4815 45.7989C44.5068 45.7989 44.5321 45.7923 44.5574 45.7726C44.6459 45.7069 44.7313 45.6412 44.8167 45.5722C44.8736 45.5262 44.883 45.444 44.8388 45.3849C44.7945 45.3258 44.7155 45.3159 44.6586 45.3619C44.5764 45.4276 44.491 45.4933 44.4057 45.559C44.3488 45.6018 44.3361 45.6839 44.3772 45.7463C44.4025 45.7792 44.4404 45.7989 44.4815 45.7989Z" fill="white"/>
</g>
<path d="M44.0136 42.7137C43.9788 42.7565 43.9219 42.7729 43.8714 42.7532L42.4044 42.1913C41.8259 42.6546 41.1746 43.0226 40.4633 43.2789L40.1061 44.8593C40.0934 44.9152 40.0492 44.9546 39.9954 44.9612L38.1302 45.1583C38.0764 45.1649 38.0227 45.132 38.0005 45.0827L37.3461 43.6107C36.6032 43.5089 35.8919 43.2822 35.2343 42.9503L33.9065 43.8046C33.8591 43.8342 33.799 43.8309 33.7579 43.7947L32.3068 42.5626C32.2657 42.5265 32.2499 42.4673 32.2689 42.4147L32.8095 40.8902C32.3637 40.2889 32.0096 39.612 31.763 38.8727L30.2424 38.5015C30.1886 38.4883 30.1507 38.4423 30.1444 38.3865L29.9547 36.4479C29.9484 36.392 29.98 36.3362 30.0274 36.3132L31.4437 35.633C31.5417 34.8609 31.7599 34.1216 32.0792 33.4382L31.2572 32.0582C31.2287 32.0089 31.2319 31.9465 31.2667 31.9037L32.4522 30.3956C32.487 30.3529 32.5439 30.3365 32.5945 30.3562L34.0614 30.918C34.6399 30.4547 35.2912 30.0867 36.0025 29.8305L36.3598 28.25C36.3724 28.1942 36.4167 28.1547 36.4704 28.1482L38.3357 27.951C38.3894 27.9445 38.4432 27.9773 38.4653 28.0266L39.1197 29.4986C39.8626 29.6005 40.574 29.8272 41.2315 30.159L42.5594 29.3047C42.6068 29.2752 42.6668 29.2785 42.7079 29.3146L44.159 30.5467C44.2001 30.5829 44.2159 30.642 44.197 30.6946L43.6564 32.2192C44.1021 32.8205 44.4562 33.4973 44.7028 34.2366L46.2235 34.6079C46.2772 34.621 46.3151 34.667 46.3215 34.7229L46.5112 36.6615C46.5175 36.7173 46.4859 36.7732 46.4384 36.7962L45.0221 37.4763C44.9241 38.2485 44.706 38.9877 44.3867 39.6712L45.2086 41.0512C45.2371 41.1005 45.2339 41.1629 45.1992 41.2056L44.0136 42.7137Z" fill="url(#paint12_linear_370_5706)"/>
<path opacity="0.56" d="M38.2345 38.4161C38.617 38.4161 38.9869 38.2879 39.2999 38.0481C39.6825 37.7523 39.9354 37.3153 40.0049 36.8258C40.0745 36.3329 39.9575 35.8433 39.6698 35.4425C39.3853 35.0449 38.9648 34.7821 38.4938 34.7098C38.0195 34.6375 37.5485 34.7591 37.1628 35.0581C36.7802 35.3538 36.5273 35.7908 36.4578 36.2803C36.3882 36.7699 36.5052 37.2628 36.7929 37.6636C37.0774 38.0612 37.4979 38.3241 37.9689 38.3963C38.0606 38.4095 38.1492 38.4161 38.2345 38.4161ZM38.2282 34.9562C38.3041 34.9562 38.3799 34.9628 38.4558 34.9726C38.8605 35.0351 39.2209 35.2585 39.4643 35.6002C39.7077 35.9419 39.8121 36.3625 39.752 36.7863C39.6919 37.2069 39.477 37.5815 39.1482 37.8345C38.8194 38.0875 38.4147 38.1959 38.0069 38.1335C37.6022 38.0711 37.2418 37.8476 36.9984 37.5059C36.755 37.1642 36.6506 36.7436 36.7107 36.3198C36.7708 35.8992 36.9857 35.5246 37.3145 35.2716C37.5833 35.0679 37.9026 34.9562 38.2282 34.9562Z" fill="white"/>
<path opacity="0.56" d="M38.1997 41.3568C38.3546 41.3568 38.5127 41.3502 38.6708 41.3305C38.7719 41.3206 38.8699 41.3075 38.9711 41.2878C39.164 41.2549 39.3537 41.2089 39.5402 41.1498C39.5433 41.1498 39.5497 41.1465 39.5528 41.1465C39.5813 41.1367 39.6097 41.1268 39.6382 41.1202C39.6919 41.1005 39.7267 41.0512 39.7267 40.9954C39.7267 40.9822 39.7235 40.9691 39.7204 40.9526C39.6982 40.8836 39.6255 40.8442 39.5591 40.8672C39.2651 40.9658 38.9553 41.0348 38.6423 41.0676C38.617 41.0709 38.5917 41.0742 38.5696 41.0742C38.5696 41.0742 38.5696 41.0742 38.5664 41.0742C37.8235 41.1399 37.0932 41.0118 36.4262 40.7029C36.423 40.7029 36.4198 40.6996 36.4167 40.6996C36.091 40.5485 35.7781 40.3546 35.4904 40.1181C35.4809 40.1115 35.4714 40.1017 35.4619 40.0951C35.4588 40.0918 35.4524 40.0885 35.4493 40.0852C35.4398 40.0786 35.4303 40.0688 35.424 40.0622C34.5135 39.2901 33.9476 38.1992 33.8306 36.9868C33.8148 36.8291 33.8085 36.6747 33.8085 36.5169C33.8085 35.4688 34.1531 34.4634 34.798 33.6386C35.5409 32.6924 36.5905 32.1042 37.7571 31.9827C40.1661 31.7297 42.3254 33.5598 42.5688 36.0635C42.5846 36.2179 42.591 36.3724 42.591 36.5268C42.591 37.1938 42.4487 37.8542 42.1768 38.4621C42.1673 38.4818 42.1642 38.4982 42.1642 38.5179C42.1642 38.5672 42.1926 38.6165 42.2369 38.6395C42.3001 38.6691 42.376 38.6428 42.4076 38.5771C42.6985 37.9364 42.847 37.2365 42.847 36.5301C42.847 36.3658 42.8407 36.2048 42.8218 36.0405C42.6953 34.7558 42.0978 33.5992 41.1367 32.7844C40.1756 31.9695 38.9648 31.5917 37.7287 31.7198C36.4925 31.8512 35.3797 32.4722 34.5957 33.4711C33.9128 34.3418 33.5492 35.4064 33.5492 36.5169C33.5492 36.6812 33.5587 36.8488 33.5745 37.0131C33.8211 39.4971 35.8444 41.3568 38.1997 41.3568Z" fill="white"/>
<path d="M12.4908 88.8592C12.4908 88.8592 12.1273 89.6379 12.2348 91.6849C12.2442 91.8755 12.4055 92.0201 12.5888 92.0003L16.0569 91.5929C16.196 91.5765 16.2814 91.4221 16.2213 91.2906C15.9495 90.6893 15.1717 89.2371 13.7048 88.5273L12.4908 88.8592Z" fill="url(#paint13_linear_370_5706)"/>
<path d="M12.1905 87.499L12.573 89.1845C12.6047 89.3291 12.7311 89.4342 12.8734 89.4342C13.0662 89.4342 13.3444 89.4178 13.6068 89.3422C13.8471 89.2732 13.9957 89.0268 13.9704 88.7705L13.7902 87.1211L12.1905 87.499Z" fill="url(#paint14_linear_370_5706)"/>
<path d="M21.0425 87.7743C21.0425 87.7743 20.4008 88.8718 20.4514 90.3503C20.464 90.6986 20.7517 90.9713 21.0868 90.9615L26.5055 90.8202C26.7584 90.8136 26.8533 90.4719 26.6415 90.3273C25.5982 89.6045 23.5496 88.2606 22.0763 87.748L21.0425 87.7743Z" fill="url(#paint15_linear_370_5706)"/>
<path d="M20.5778 86.1553L21.0836 88.2614C21.1405 88.498 21.3713 88.6458 21.5958 88.5834C21.7317 88.544 21.893 88.475 22.0637 88.3567C22.2249 88.2417 22.3008 88.0314 22.2597 87.8342L21.7191 85.2812L20.5778 86.1553Z" fill="url(#paint16_linear_370_5706)"/>
<path d="M9.70248 57.3916C9.70248 57.3916 8.39048 58.8965 8.29247 60.5327C8.19131 62.169 12.0704 88.1196 12.0704 88.1196C12.0704 88.1196 13.5531 88.2017 14.2518 87.6399C14.2518 87.6399 13.3065 70.6133 13.5563 66.6245C13.5563 66.6245 19.0034 83.7365 20.3313 86.7889C20.3313 86.7889 21.7539 86.802 22.1744 86.4702C22.1744 86.4702 18.779 63.8579 17.1761 59.9545L9.70248 57.3916Z" fill="url(#paint17_linear_370_5706)"/>
<path d="M13.4361 66.0564C13.4519 66.0564 13.4709 66.0531 13.4867 66.0466C13.5594 66.017 13.5942 65.9348 13.5657 65.8626L12.6805 63.4706C12.6679 63.4377 12.6426 63.4081 12.6141 63.3917L11.182 62.659C11.1124 62.6228 11.0302 62.6524 10.9955 62.7247C10.9607 62.797 10.9891 62.8824 11.0587 62.9186L12.4434 63.6283L13.3096 65.9677C13.3286 66.0236 13.3823 66.0564 13.4361 66.0564Z" fill="#666694"/>
<path d="M22.4273 40.6413C16.2435 40.8319 14.786 42.3367 14.786 42.3367L18.2542 46.8217C18.2542 46.8217 24.2609 45.9937 28.1969 42.0311C27.2927 41.2229 26.6225 40.2897 26.1799 39.5537C25.1208 40.1649 23.8689 40.5986 22.4273 40.6413Z" fill="url(#paint18_linear_370_5706)"/>
<path d="M31.0074 30.1731C30.9758 29.9694 30.7039 29.9464 30.6407 30.1402L30.0463 31.9638C29.9325 32.3154 29.923 32.6965 30.0242 33.0547L30.4067 34.0305C30.5427 34.5135 30.4731 35.0327 30.2139 35.4565C29.5974 36.4751 28.2538 38.3578 26.1767 39.5538C26.6193 40.2898 27.2896 41.2229 28.1937 42.0312C29.6385 40.5789 30.8051 38.7028 31.2951 36.2944C31.6365 36.1399 31.8389 35.7654 31.782 35.3809L31.0074 30.1731Z" fill="url(#paint19_linear_370_5706)"/>
<path d="M24.7477 43.2069C22.3292 41.0449 18.1024 40.4337 15.6776 40.2662C14.6153 40.1906 13.6542 40.9134 13.395 41.9879C12.6489 45.1027 10.5813 53.2217 10.164 54.6247C9.81939 55.7747 9.45267 56.905 9.21872 57.6082C9.07962 58.0287 9.29143 58.4887 9.69609 58.6366C11.8048 59.4054 15.529 60.1152 17.037 60.3879C17.3689 60.447 17.6598 60.1612 17.6218 59.8129C17.5902 59.5172 17.6345 59.2182 17.7546 58.9487L22.2439 48.7269C26.1198 52.2952 29.1769 52.3017 31.3994 51.1616C30.8746 49.9557 30.4826 48.7302 30.2234 47.4882C26.7331 47.2844 24.7477 43.2069 24.7477 43.2069Z" fill="url(#paint20_linear_370_5706)"/>
<path d="M35.8128 46.1642L35.1015 45.3789C33.2552 47.0415 31.6207 47.5771 30.2234 47.4916C30.4826 48.7336 30.8746 49.9592 31.3994 51.165C34.3301 49.6635 35.8128 46.1642 35.8128 46.1642Z" fill="url(#paint21_linear_370_5706)"/>
<path d="M35.3765 46.2303L38.8731 45.9642L41.8765 43.7266C41.3833 43.4802 38.8478 44.3969 38.8478 44.3969C38.8478 44.3969 36.0815 44.2885 35.3449 44.3739C34.7348 44.4462 34.9213 45.3498 35.0003 45.6521C35.0161 45.7145 35.0288 45.7506 35.0288 45.7506L35.3765 46.2303Z" fill="url(#paint22_linear_370_5706)"/>
<path d="M18.466 35.4463L17.135 40.319C17.135 40.319 19.4112 41.5906 21.0931 41.2456L21.5547 36.9479L18.466 35.4463Z" fill="url(#paint23_linear_370_5706)"/>
<path d="M21.5104 31.0693C21.5104 31.0693 23.1133 33.7341 23.4073 35.2192C23.7013 36.7043 24.1534 37.6243 22.5316 38.1862C20.9098 38.7448 19.3859 38.1008 18.4122 36.7306C18.4122 36.7306 16.8916 34.6179 17.0243 33.6388C17.1571 32.6531 21.5104 31.0693 21.5104 31.0693Z" fill="url(#paint24_linear_370_5706)"/>
<path d="M18.8264 35.568L18.9149 35.5088C19.0287 35.4332 19.0572 35.2788 18.9781 35.1638C18.6746 34.7301 18.0645 33.7214 18.6177 33.3764C19.3322 32.9328 22.2597 31.8255 22.7497 30.6131C23.2208 29.4467 22.4684 28.1521 21.58 27.8892C21.5199 27.8728 21.4567 27.9024 21.4377 27.9648L21.3871 28.1127C21.3524 28.2145 21.2196 28.2211 21.1753 28.1225C21.1342 28.0305 21.0078 28.0305 20.9667 28.1225C20.8149 28.4872 20.3502 29.1115 18.9465 29.611C16.9485 30.324 15.7155 31.3984 15.8957 32.877C15.9084 32.9722 15.8198 33.038 15.7345 33.0018C15.5701 32.9295 15.3203 32.923 15.0358 33.2548C14.5426 33.8364 14.9568 35.0784 16.3446 35.936C16.411 35.9754 16.4237 36.0707 16.3668 36.1265C16.1644 36.3138 15.8831 36.7245 16.8157 37.0728C17.7831 37.431 18.4438 37.2864 18.6968 37.2042C18.76 37.1845 18.7916 37.1122 18.7663 37.0498L18.3047 35.798C18.2794 35.7257 18.3237 35.6501 18.3933 35.637L18.8264 35.568Z" fill="url(#paint25_linear_370_5706)"/>
<path d="M18.918 35.8336C18.918 35.8336 18.2004 34.0823 17.4891 34.7165C16.7777 35.3473 18.1909 36.6945 18.8295 36.6649L18.918 35.8336Z" fill="url(#paint26_linear_370_5706)"/>
</g>
<defs>
<linearGradient id="paint0_linear_370_5706" x1="-5.5077" y1="92.3366" x2="61.2074" y2="36.1688" gradientUnits="userSpaceOnUse">
<stop stop-color="#B37CFF"/>
<stop offset="1" stop-color="#F895E7"/>
</linearGradient>
<linearGradient id="paint1_linear_370_5706" x1="12.3175" y1="85.8674" x2="83.8111" y2="17.2948" gradientUnits="userSpaceOnUse">
<stop stop-color="#CB236D"/>
<stop offset="0.0721043" stop-color="#C2236D"/>
<stop offset="1" stop-color="#4C246D"/>
</linearGradient>
<linearGradient id="paint2_linear_370_5706" x1="8.89302" y1="96.5865" x2="93.4255" y2="-0.511612" gradientUnits="userSpaceOnUse">
<stop stop-color="#FDF53F"/>
<stop offset="1" stop-color="#D93C65"/>
</linearGradient>
<linearGradient id="paint3_linear_370_5706" x1="38.5069" y1="55.5546" x2="60.6404" y2="-20.365" gradientUnits="userSpaceOnUse">
<stop stop-color="#2B3582"/>
<stop offset="1" stop-color="#150E42"/>
</linearGradient>
<linearGradient id="paint4_linear_370_5706" x1="1446.72" y1="-318.542" x2="1395.39" y2="-305.425" gradientUnits="userSpaceOnUse">
<stop stop-color="#FDF53F"/>
<stop offset="1" stop-color="#D93C65"/>
</linearGradient>
<linearGradient id="paint5_linear_370_5706" x1="1447.07" y1="-317.112" x2="1395.74" y2="-303.996" gradientUnits="userSpaceOnUse">
<stop stop-color="#FDF53F"/>
<stop offset="1" stop-color="#D93C65"/>
</linearGradient>
<linearGradient id="paint6_linear_370_5706" x1="1446.43" y1="-319.633" x2="1395.1" y2="-306.517" gradientUnits="userSpaceOnUse">
<stop stop-color="#FDF53F"/>
<stop offset="1" stop-color="#D93C65"/>
</linearGradient>
<linearGradient id="paint7_linear_370_5706" x1="1446.76" y1="-318.383" x2="1395.42" y2="-305.267" gradientUnits="userSpaceOnUse">
<stop stop-color="#FDF53F"/>
<stop offset="1" stop-color="#D93C65"/>
</linearGradient>
<linearGradient id="paint8_linear_370_5706" x1="1447.16" y1="-316.816" x2="1395.83" y2="-303.699" gradientUnits="userSpaceOnUse">
<stop stop-color="#FDF53F"/>
<stop offset="1" stop-color="#D93C65"/>
</linearGradient>
<linearGradient id="paint9_linear_370_5706" x1="1448.14" y1="-312.95" x2="1396.8" y2="-299.834" gradientUnits="userSpaceOnUse">
<stop stop-color="#FDF53F"/>
<stop offset="1" stop-color="#D93C65"/>
</linearGradient>
<linearGradient id="paint10_linear_370_5706" x1="1447.77" y1="-314.376" x2="1396.44" y2="-301.26" gradientUnits="userSpaceOnUse">
<stop stop-color="#FDF53F"/>
<stop offset="1" stop-color="#D93C65"/>
</linearGradient>
<linearGradient id="paint11_linear_370_5706" x1="45.6722" y1="18.8514" x2="132.067" y2="18.7939" gradientUnits="userSpaceOnUse">
<stop stop-color="#CB236D"/>
<stop offset="1" stop-color="#4C246D"/>
</linearGradient>
<linearGradient id="paint12_linear_370_5706" x1="28.912" y1="20.3825" x2="43.6628" y2="44.0775" gradientUnits="userSpaceOnUse">
<stop stop-color="#CB236D"/>
<stop offset="0.0721043" stop-color="#C2236D"/>
<stop offset="1" stop-color="#4C246D"/>
</linearGradient>
<linearGradient id="paint13_linear_370_5706" x1="12.0928" y1="90.3851" x2="16.0881" y2="89.9518" gradientUnits="userSpaceOnUse">
<stop stop-color="#2B3582"/>
<stop offset="1" stop-color="#150E42"/>
</linearGradient>
<linearGradient id="paint14_linear_370_5706" x1="12.2885" y1="88.4099" x2="13.9089" y2="88.2342" gradientUnits="userSpaceOnUse">
<stop stop-color="#FEBBBA"/>
<stop offset="1" stop-color="#FF928E"/>
</linearGradient>
<linearGradient id="paint15_linear_370_5706" x1="20.426" y1="89.3857" x2="26.7269" y2="89.2341" gradientUnits="userSpaceOnUse">
<stop stop-color="#2B3582"/>
<stop offset="1" stop-color="#150E42"/>
</linearGradient>
<linearGradient id="paint16_linear_370_5706" x1="20.6104" y1="86.9802" x2="22.2293" y2="86.9142" gradientUnits="userSpaceOnUse">
<stop stop-color="#FEBBBA"/>
<stop offset="1" stop-color="#FF928E"/>
</linearGradient>
<linearGradient id="paint17_linear_370_5706" x1="9.5911" y1="72.9386" x2="20.5777" y2="71.7471" gradientUnits="userSpaceOnUse">
<stop stop-color="#2B3582"/>
<stop offset="1" stop-color="#150E42"/>
</linearGradient>
<linearGradient id="paint18_linear_370_5706" x1="23.0337" y1="1.00226" x2="20.542" y2="62.6178" gradientUnits="userSpaceOnUse">
<stop stop-color="#53D8FF"/>
<stop offset="1" stop-color="#3840F7"/>
</linearGradient>
<linearGradient id="paint19_linear_370_5706" x1="25.8427" y1="36.4487" x2="31.8315" y2="35.7992" gradientUnits="userSpaceOnUse">
<stop stop-color="#FEBBBA"/>
<stop offset="1" stop-color="#FF928E"/>
</linearGradient>
<linearGradient id="paint20_linear_370_5706" x1="20.1572" y1="35.4223" x2="20.3958" y2="68.0435" gradientUnits="userSpaceOnUse">
<stop stop-color="#53D8FF"/>
<stop offset="1" stop-color="#3840F7"/>
</linearGradient>
<linearGradient id="paint21_linear_370_5706" x1="39.5383" y1="36.2167" x2="27.8013" y2="54.0381" gradientUnits="userSpaceOnUse">
<stop stop-color="#FEBBBA"/>
<stop offset="1" stop-color="#FF928E"/>
</linearGradient>
<linearGradient id="paint22_linear_370_5706" x1="42.2114" y1="37.9773" x2="30.4742" y2="55.7991" gradientUnits="userSpaceOnUse">
<stop stop-color="#FEBBBA"/>
<stop offset="1" stop-color="#FF928E"/>
</linearGradient>
<linearGradient id="paint23_linear_370_5706" x1="23.8979" y1="27.8189" x2="13.2947" y2="52.9105" gradientUnits="userSpaceOnUse">
<stop stop-color="#FEBBBA"/>
<stop offset="1" stop-color="#FF928E"/>
</linearGradient>
<linearGradient id="paint24_linear_370_5706" x1="22.1216" y1="33.5403" x2="15.8357" y2="39.7836" gradientUnits="userSpaceOnUse">
<stop stop-color="#FEBBBA"/>
<stop offset="1" stop-color="#FF928E"/>
</linearGradient>
<linearGradient id="paint25_linear_370_5706" x1="14.7347" y1="25.3721" x2="5.24702" y2="11.5618" gradientUnits="userSpaceOnUse">
<stop stop-color="#CB236D"/>
<stop offset="1" stop-color="#4C246D"/>
</linearGradient>
<linearGradient id="paint26_linear_370_5706" x1="21.11" y1="32.5219" x2="14.8241" y2="38.7652" gradientUnits="userSpaceOnUse">
<stop stop-color="#FEBBBA"/>
<stop offset="1" stop-color="#FF928E"/>
</linearGradient>
<clipPath id="clip0_370_5706">
<rect width="90" height="92" fill="white" transform="matrix(-1 0 0 1 90 0)"/>
</clipPath>
</defs>
</svg>
