<svg width="33" height="30" viewBox="0 0 33 30" fill="none" xmlns="http://www.w3.org/2000/svg">
<g id="Group 64">
<ellipse id="Ellipse 11" cx="16.5" cy="15" rx="16.5" ry="15" transform="matrix(-1 0 0 1 33 0)" fill="#05579B"/>
<path id="Vector" d="M20.6452 8.59636L15.9311 14.5027L20.6452 20.4091C20.7577 20.55 20.8469 20.7173 20.9078 20.9015C20.9687 21.0856 21 21.283 21 21.4823C21 21.6816 20.9687 21.8789 20.9078 22.0631C20.8469 22.2472 20.7577 22.4145 20.6452 22.5555C20.5327 22.6964 20.3992 22.8082 20.2522 22.8845C20.1052 22.9607 19.9477 23 19.7886 23C19.6296 23 19.4721 22.9607 19.3251 22.8845C19.1781 22.8082 19.0446 22.6964 18.9321 22.5555L13.3554 15.5683C12.8815 14.9746 12.8815 14.0156 13.3554 13.4219L18.9321 6.43475C19.0445 6.29363 19.178 6.18167 19.325 6.10529C19.472 6.0289 19.6295 5.98958 19.7886 5.98958C19.9478 5.98958 20.1053 6.0289 20.2523 6.10529C20.3993 6.18167 20.5328 6.29363 20.6452 6.43475C21.1069 7.02843 21.119 8.00268 20.6452 8.59636Z" fill="white"/>
</g>
</svg>
