<svg width="33" height="30" viewBox="0 0 33 30" fill="none" xmlns="http://www.w3.org/2000/svg">
<g id="Group 63">
<ellipse id="Ellipse 11" cx="16.5" cy="15" rx="16.5" ry="15" fill="#05579B"/>
<path id="Vector" d="M13.3548 8.59636L18.0689 14.5027L13.3548 20.4091C13.2423 20.55 13.1531 20.7173 13.0922 20.9015C13.0313 21.0856 13 21.283 13 21.4823C13 21.6816 13.0313 21.8789 13.0922 22.0631C13.1531 22.2472 13.2423 22.4145 13.3548 22.5555C13.4673 22.6964 13.6008 22.8082 13.7478 22.8845C13.8948 22.9607 14.0523 23 14.2114 23C14.3704 23 14.5279 22.9607 14.6749 22.8845C14.8219 22.8082 14.9554 22.6964 15.0679 22.5555L20.6446 15.5683C21.1185 14.9746 21.1185 14.0156 20.6446 13.4219L15.0679 6.43475C14.9555 6.29363 14.822 6.18167 14.675 6.10529C14.528 6.0289 14.3705 5.98958 14.2114 5.98958C14.0522 5.98958 13.8947 6.0289 13.7477 6.10529C13.6007 6.18167 13.4672 6.29363 13.3548 6.43475C12.8931 7.02843 12.881 8.00268 13.3548 8.59636Z" fill="white"/>
</g>
</svg>
