<svg width="20" height="24" viewBox="0 0 20 24" fill="none" xmlns="http://www.w3.org/2000/svg">
<path fill-rule="evenodd" clip-rule="evenodd" d="M19.4434 20.2717C19.4434 21.9166 15.2155 23.25 10.0001 23.25C4.78465 23.25 0.556763 21.9166 0.556763 20.2717C0.556763 18.9795 3.16611 17.8798 6.8134 17.4674C7.25047 18.0551 7.67698 18.6106 8.07429 19.1193C6.68651 19.3165 5.73528 19.7202 5.73528 20.1863C5.73528 20.8465 7.64468 21.3818 10.0001 21.3818C12.3554 21.3818 14.2648 20.8465 14.2648 20.1863C14.2648 19.7206 13.3153 19.3172 11.9295 19.1198C12.3291 18.6104 12.7574 18.0552 13.1958 17.4684C16.8383 17.8815 19.4434 18.9806 19.4434 20.2717ZM10.0001 0C5.8745 0 2.53006 3.34444 2.53006 7.47C2.53006 10.8984 7.50973 17.2301 9.81734 20.1106C9.86323 20.168 9.92646 20.1983 10 20.1983C10.0735 20.1984 10.1367 20.1681 10.1827 20.1109C12.3947 17.3544 17.47 10.9926 17.47 7.47C17.4701 3.34444 14.1256 0 10.0001 0ZM10.0001 3.54675C12.1617 3.54675 13.9142 5.29922 13.9142 7.46091C13.9142 9.62264 12.1618 11.3751 10.0001 11.3751C7.83832 11.3751 6.0859 9.62264 6.0859 7.46091C6.0859 5.29922 7.83832 3.54675 10.0001 3.54675Z" fill="#05579B"/>
</svg>
