<svg width="22" height="26" viewBox="0 0 22 26" fill="none" xmlns="http://www.w3.org/2000/svg">
<path id="name" d="M14.533 15.744C14.374 15.692 13.369 15.239 13.997 13.33H13.988C15.625 11.644 16.876 8.931 16.876 6.26C16.876 2.153 14.145 0 10.971 0C7.795 0 5.079 2.152 5.079 6.26C5.079 8.942 6.323 11.666 7.97 13.348C8.612 15.032 7.464 15.657 7.224 15.745C3.9 16.947 0 19.138 0 21.301V22.112C0 25.059 5.714 25.729 11.002 25.729C16.298 25.729 21.94 25.059 21.94 22.112V21.301C21.94 19.073 18.021 16.899 14.533 15.744Z" fill="#B3B3B3"/>
</svg>
