<svg width="265" height="100" viewBox="0 0 265 100" fill="none" xmlns="http://www.w3.org/2000/svg">
<g clip-path="url(#clip0_370_2678)">
<path d="M258.169 100.09H3.05219C2.30425 100.09 1.58693 99.7937 1.05806 99.2668C0.529177 98.7398 0.232056 98.0252 0.232056 97.28C0.232056 96.5348 0.529177 95.8201 1.05806 95.2932C1.58693 94.7662 2.30425 94.4702 3.05219 94.4702H258.169C258.917 94.4702 259.634 94.7662 260.163 95.2932C260.692 95.8201 260.989 96.5348 260.989 97.28C260.989 98.0251 260.692 98.7397 260.163 99.2667C259.634 99.7936 258.917 100.09 258.169 100.09Z" fill="#444E59"/>
<path d="M100.722 94.3081H144.849V96.9458H100.722V94.3081Z" fill="#444E59"/>
<path d="M175.508 77.1616H71.3869C69.3103 77.1616 67.6267 75.4842 67.6267 73.4153V3.96997C67.6267 1.90106 69.3103 0.223633 71.3869 0.223633H175.508C177.585 0.223633 179.268 1.90106 179.268 3.96997V73.4156C179.268 75.4845 177.585 77.1616 175.508 77.1616Z" fill="#BBBFC2"/>
<path d="M172.649 7.25781V63.9721L74.6871 63.9721V7.25781L172.649 7.25781Z" fill="#28A8E0"/>
<path opacity="0.4" d="M175.738 77.162H159.411V47.5783C159.411 45.2206 161.33 43.3091 163.696 43.3091H175.738V77.162ZM75.5591 48.5849H67.6267V71.8862C67.6267 74.7999 70.1445 77.162 73.069 77.162H82.1887V55.2964C82.1887 51.6631 79.2059 48.5849 75.5591 48.5849Z" fill="#848484"/>
<path d="M175.802 77.1616H71.5342C69.4577 77.1616 67.774 75.4842 67.774 73.4153V3.96997C67.774 1.90106 69.4577 0.223633 71.5342 0.223633H175.803C177.879 0.223633 179.563 1.90106 179.563 3.96997V73.4156C179.562 75.4845 177.879 77.1616 175.802 77.1616Z" stroke="#444E59" stroke-width="4" stroke-miterlimit="10" stroke-linecap="round" stroke-linejoin="round"/>
<path d="M172.502 7.25781V63.9706L74.834 63.9706V7.25781L172.502 7.25781Z" stroke="#444E59" stroke-width="4" stroke-miterlimit="10" stroke-linecap="round" stroke-linejoin="round"/>
<path opacity="0.32" d="M153.516 61.2425H99.6836C99.0981 61.2425 98.5366 61.0108 98.1227 60.5983C97.7087 60.1859 97.4761 59.6264 97.4761 59.0431V20.7961C97.4761 20.2128 97.7087 19.6533 98.1227 19.2409C98.5366 18.8284 99.0981 18.5967 99.6836 18.5967H153.516C154.102 18.5967 154.663 18.8284 155.077 19.2409C155.491 19.6533 155.724 20.2128 155.724 20.7961V59.0431C155.724 59.6264 155.491 60.1859 155.077 60.5983C154.663 61.0108 154.102 61.2425 153.516 61.2425Z" fill="#848484"/>
<path d="M151.026 59.1363H97.1929C96.903 59.1363 96.6159 59.0794 96.3481 58.9688C96.0803 58.8583 95.8369 58.6963 95.6319 58.4921C95.4269 58.2878 95.2643 58.0454 95.1534 57.7785C95.0425 57.5117 94.9854 57.2257 94.9854 56.9368V18.6901C94.9854 18.4013 95.0425 18.1153 95.1534 17.8485C95.2643 17.5816 95.4269 17.3392 95.6319 17.1349C95.8369 16.9307 96.0803 16.7687 96.3481 16.6581C96.6159 16.5476 96.903 16.4907 97.1929 16.4907H151.026C151.611 16.4907 152.173 16.7225 152.587 17.1349C153.001 17.5474 153.233 18.1068 153.233 18.6901V56.9372C153.233 57.5204 153 58.0798 152.586 58.4922C152.172 58.9046 151.611 59.1363 151.026 59.1363Z" fill="#AFB1B2"/>
<path d="M151.026 59.1363H97.1929C96.903 59.1363 96.6159 59.0794 96.3481 58.9688C96.0803 58.8583 95.8369 58.6963 95.6319 58.4921C95.4269 58.2878 95.2643 58.0454 95.1534 57.7785C95.0425 57.5117 94.9854 57.2257 94.9854 56.9368V18.6901C94.9854 18.4013 95.0425 18.1153 95.1534 17.8485C95.2643 17.5816 95.4269 17.3392 95.6319 17.1349C95.8369 16.9307 96.0803 16.7687 96.3481 16.6581C96.6159 16.5476 96.903 16.4907 97.1929 16.4907H151.026C151.611 16.4907 152.173 16.7225 152.587 17.1349C153.001 17.5474 153.233 18.1068 153.233 18.6901V56.9372C153.233 57.5204 153 58.0798 152.586 58.4922C152.172 58.9046 151.611 59.1363 151.026 59.1363Z" stroke="#444E59" stroke-width="4" stroke-miterlimit="10" stroke-linecap="round" stroke-linejoin="round"/>
<path d="M136.785 94.308H110.552L113.8 77.1616H133.537L136.785 94.308Z" fill="#AEAEAF"/>
<path opacity="0.32" d="M134.422 81.9978L133.536 77.1616H113.8L112.914 81.9978H134.422Z" fill="#848484"/>
<path d="M136.785 94.308H110.551L113.8 77.1616H133.536L136.785 94.308ZM100.722 94.308H144.849V96.9457H100.722V94.308Z" stroke="#444E59" stroke-width="4" stroke-miterlimit="10" stroke-linecap="round" stroke-linejoin="round"/>
<path d="M123.506 71.2605C124.585 71.2605 125.461 70.3883 125.461 69.3124C125.461 68.2364 124.585 67.3643 123.506 67.3643C122.426 67.3643 121.55 68.2364 121.55 69.3124C121.55 70.3883 122.426 71.2605 123.506 71.2605Z" fill="#444E59"/>
<path d="M146.613 55.1795H92.7806C92.1951 55.1795 91.6336 54.9478 91.2196 54.5354C90.8056 54.1229 90.5731 53.5635 90.5731 52.9801V14.7331C90.5731 14.1498 90.8056 13.5903 91.2196 13.1779C91.6336 12.7654 92.1951 12.5337 92.7806 12.5337H146.613C147.199 12.5337 147.76 12.7654 148.174 13.1779C148.588 13.5903 148.821 14.1498 148.821 14.7331V52.9801C148.821 53.5635 148.588 54.1229 148.174 54.5354C147.76 54.9478 147.199 55.1795 146.613 55.1795Z" fill="white"/>
<path d="M146.613 55.1795H92.7806C92.1951 55.1795 91.6336 54.9478 91.2196 54.5354C90.8056 54.1229 90.5731 53.5635 90.5731 52.9801V14.7331C90.5731 14.1498 90.8056 13.5903 91.2196 13.1779C91.6336 12.7654 92.1951 12.5337 92.7806 12.5337H146.613C147.199 12.5337 147.76 12.7654 148.174 13.1779C148.588 13.5903 148.821 14.1498 148.821 14.7331V52.9801C148.821 53.5635 148.588 54.1229 148.174 54.5354C147.76 54.9478 147.199 55.1795 146.613 55.1795Z" stroke="#444E59" stroke-width="4" stroke-miterlimit="10" stroke-linecap="round" stroke-linejoin="round"/>
<path d="M148.821 19.1287H90.5731V14.8288C90.5731 13.5666 91.6096 12.5342 92.8762 12.5342H146.668C147.239 12.5342 147.786 12.7602 148.19 13.1626C148.594 13.5649 148.821 14.1106 148.821 14.6796V19.1287Z" fill="#BBBFC2"/>
<path d="M148.821 19.1287H90.5731V14.8288C90.5731 13.5666 91.6096 12.5342 92.8762 12.5342H146.668C147.239 12.5342 147.786 12.7602 148.19 13.1626C148.594 13.5649 148.821 14.1106 148.821 14.6796V19.1287Z" stroke="#444E59" stroke-width="4" stroke-miterlimit="10" stroke-linecap="round" stroke-linejoin="round"/>
<path d="M96.2017 16.892C96.7697 16.892 97.2301 16.4333 97.2301 15.8674C97.2301 15.3015 96.7697 14.8428 96.2017 14.8428C95.6337 14.8428 95.1733 15.3015 95.1733 15.8674C95.1733 16.4333 95.6337 16.892 96.2017 16.892Z" fill="#444E59"/>
<path d="M99.5996 16.892C100.168 16.892 100.628 16.4333 100.628 15.8674C100.628 15.3015 100.168 14.8428 99.5996 14.8428C99.0316 14.8428 98.5712 15.3015 98.5712 15.8674C98.5712 16.4333 99.0316 16.892 99.5996 16.892Z" fill="#444E59"/>
<path d="M102.998 16.892C103.566 16.892 104.026 16.4333 104.026 15.8674C104.026 15.3015 103.566 14.8428 102.998 14.8428C102.43 14.8428 101.969 15.3015 101.969 15.8674C101.969 16.4333 102.43 16.892 102.998 16.892Z" fill="#444E59"/>
<path d="M143.34 30.5593H95.612C95.4458 30.5593 95.2864 30.4936 95.1689 30.3765C95.0514 30.2594 94.9854 30.1006 94.9854 29.935V23.2699C94.9854 23.1043 95.0514 22.9455 95.1689 22.8284C95.2864 22.7113 95.4458 22.6455 95.612 22.6455H143.34C143.506 22.6455 143.665 22.7113 143.783 22.8284C143.9 22.9455 143.966 23.1043 143.966 23.2699V29.9346C143.966 30.0167 143.95 30.0979 143.919 30.1737C143.887 30.2495 143.841 30.3183 143.783 30.3764C143.725 30.4344 143.656 30.4804 143.58 30.5118C143.504 30.5432 143.422 30.5593 143.34 30.5593Z" fill="#6567C3"/>
<path opacity="0.2" d="M109.362 38.9124H95.612C95.4458 38.9124 95.2864 38.8466 95.1689 38.7295C95.0514 38.6124 94.9854 38.4536 94.9854 38.288V34.7006C94.9854 34.535 95.0514 34.3761 95.1689 34.2591C95.2864 34.142 95.4458 34.0762 95.612 34.0762H109.362C109.528 34.0762 109.687 34.142 109.805 34.2591C109.922 34.3761 109.988 34.535 109.988 34.7006V38.288C109.988 38.4536 109.922 38.6124 109.805 38.7295C109.687 38.8466 109.528 38.9124 109.362 38.9124Z" fill="#444E59"/>
<path opacity="0.2" d="M97.1919 42.4297H108.224M97.1919 45.9469H108.224" stroke="#444E59" stroke-width="4" stroke-miterlimit="10" stroke-linecap="round" stroke-linejoin="round"/>
<path opacity="0.2" d="M126.572 38.9124H112.822C112.656 38.9124 112.496 38.8466 112.379 38.7295C112.261 38.6124 112.195 38.4536 112.195 38.288V34.7006C112.195 34.535 112.261 34.3761 112.379 34.2591C112.496 34.142 112.656 34.0762 112.822 34.0762H126.572C126.738 34.0762 126.897 34.142 127.015 34.2591C127.132 34.3761 127.198 34.535 127.198 34.7006V38.288C127.198 38.4536 127.132 38.6124 127.015 38.7295C126.897 38.8466 126.738 38.9124 126.572 38.9124Z" fill="#444E59"/>
<path opacity="0.2" d="M114.402 42.4297H124.992M114.402 45.9469H124.992" stroke="#444E59" stroke-width="4" stroke-miterlimit="10" stroke-linecap="round" stroke-linejoin="round"/>
<g opacity="0.2">
<path d="M143.781 46.3863H130.031C129.865 46.3863 129.706 46.3206 129.588 46.2035C129.471 46.0864 129.405 45.9275 129.405 45.7619V34.7006C129.405 34.535 129.471 34.3761 129.588 34.2591C129.706 34.142 129.865 34.0762 130.031 34.0762H143.781C143.947 34.0762 144.107 34.142 144.224 34.2591C144.342 34.3761 144.408 34.535 144.408 34.7006V45.7619C144.408 45.9275 144.342 46.0864 144.224 46.2035C144.107 46.3206 143.947 46.3863 143.781 46.3863Z" fill="#444E59"/>
</g>
<g opacity="0.09">
<path d="M143.341 49.9038H130.229C129.995 49.9038 129.771 49.8112 129.605 49.6463C129.44 49.4814 129.347 49.2578 129.347 49.0246C129.347 48.7915 129.44 48.5679 129.605 48.403C129.771 48.2381 129.995 48.1455 130.229 48.1455H143.341C143.575 48.1455 143.799 48.2381 143.965 48.403C144.13 48.5679 144.223 48.7915 144.223 49.0246C144.223 49.2578 144.13 49.4814 143.965 49.6463C143.799 49.8112 143.575 49.9038 143.341 49.9038Z" fill="#444E59"/>
</g>
<path d="M44.8889 83.5782H19.6236C19.3235 83.5758 19.0327 83.6824 18.8058 83.8782L12.7086 89.2005C12.5758 89.3163 12.4694 89.4592 12.3964 89.6193C12.3235 89.7795 12.2858 89.9534 12.2858 90.1293C12.2858 90.3052 12.3235 90.479 12.3964 90.6392C12.4694 90.7994 12.5758 90.9422 12.7086 91.058L18.8058 96.4618C19.032 96.6595 19.3228 96.8468 19.6236 96.8468H44.8889C46.3193 96.8468 47.5057 95.5331 47.5057 94.1079V86.1457C47.5057 84.7205 46.3193 83.5782 44.8889 83.5782ZM18.9615 91.6749C18.7556 91.6779 18.5512 91.64 18.3601 91.5635C18.169 91.487 17.9951 91.3734 17.8485 91.2294C17.7019 91.0854 17.5854 90.9137 17.5059 90.7245C17.4265 90.5352 17.3855 90.3321 17.3855 90.1269C17.3855 89.9218 17.4265 89.7186 17.5059 89.5294C17.5854 89.3401 17.7019 89.1685 17.8485 89.0244C17.9951 88.8804 18.169 88.7668 18.3601 88.6904C18.5512 88.6139 18.7556 88.576 18.9615 88.5789C19.3698 88.5847 19.7593 88.7503 20.046 89.04C20.3326 89.3297 20.4933 89.7201 20.4933 90.1269C20.4933 90.5337 20.3326 90.9242 20.046 91.2139C19.7593 91.5035 19.3698 91.6692 18.9615 91.6749Z" fill="white"/>
<path d="M25.4265 83.5781H32.7861V96.8467H25.4265V83.5781Z" fill="#F09F54"/>
<path d="M32.7861 83.5781H40.1458V96.8467H32.7861V83.5781Z" fill="#ED8B3B"/>
<path d="M44.2299 96.8467H40.1458V83.5781H44.3481C46.0846 83.5781 47.5057 84.9936 47.5057 86.7241V93.5833C47.5057 95.3782 46.0317 96.8467 44.2299 96.8467Z" fill="#FF6C37"/>
<path opacity="0.4" d="M45.5836 84.2271C45.4572 84.2097 45.3297 84.2015 45.2022 84.2028H19.9369C19.6367 84.2004 19.346 84.307 19.1191 84.5028L13.0219 89.8251C12.8891 89.941 12.7826 90.0838 12.7097 90.2439C12.6368 90.4041 12.5991 90.578 12.5991 90.7539C12.5991 90.9298 12.6368 91.1036 12.7097 91.2638C12.7826 91.424 12.8891 91.5668 13.0219 91.6827L16.83 95.0078L20.9691 96.0515C21.1725 96.1029 21.3815 96.1288 21.5914 96.1286C21.992 96.1282 22.3868 96.0336 22.7439 95.8526L45.2495 84.4157C45.3651 84.3567 45.4764 84.2955 45.5836 84.2271ZM19.2748 92.2992C19.0689 92.3021 18.8645 92.2643 18.6734 92.1878C18.4823 92.1113 18.3084 91.9977 18.1618 91.8537C18.0152 91.7097 17.8987 91.538 17.8192 91.3488C17.7398 91.1595 17.6988 90.9564 17.6988 90.7512C17.6988 90.5461 17.7398 90.3429 17.8192 90.1537C17.8987 89.9644 18.0152 89.7928 18.1618 89.6487C18.3084 89.5047 18.4823 89.3911 18.6734 89.3146C18.8645 89.2382 19.0689 89.2003 19.2748 89.2032C19.683 89.209 20.0726 89.3746 20.3593 89.6643C20.6459 89.954 20.8066 90.3444 20.8066 90.7512C20.8066 91.158 20.6459 91.5485 20.3593 91.8381C20.0726 92.1278 19.683 92.2935 19.2748 92.2992Z" fill="#848484"/>
<path d="M44.8889 83.5782H19.6236C19.3235 83.5758 19.0327 83.6824 18.8058 83.8782L12.7086 89.2005C12.5758 89.3163 12.4694 89.4592 12.3964 89.6193C12.3235 89.7795 12.2858 89.9534 12.2858 90.1293C12.2858 90.3052 12.3235 90.479 12.3964 90.6392C12.4694 90.7994 12.5758 90.9422 12.7086 91.058L18.8058 96.4618C19.032 96.6595 19.3228 96.8468 19.6236 96.8468H44.8889C46.3193 96.8468 47.5057 95.5331 47.5057 94.1079V86.1457C47.5057 84.7205 46.3193 83.5782 44.8889 83.5782ZM18.9615 91.6749C18.7556 91.6779 18.5512 91.64 18.3601 91.5635C18.169 91.487 17.9951 91.3734 17.8485 91.2294C17.7019 91.0854 17.5854 90.9137 17.5059 90.7245C17.4265 90.5352 17.3855 90.3321 17.3855 90.1269C17.3855 89.9218 17.4265 89.7186 17.5059 89.5294C17.5854 89.3401 17.7019 89.1685 17.8485 89.0244C17.9951 88.8804 18.169 88.7668 18.3601 88.6904C18.5512 88.6139 18.7556 88.576 18.9615 88.5789C19.3698 88.5847 19.7593 88.7503 20.046 89.04C20.3326 89.3297 20.4933 89.7201 20.4933 90.1269C20.4933 90.5337 20.3326 90.9242 20.046 91.2139C19.7593 91.5035 19.3698 91.6692 18.9615 91.6749Z" stroke="#444E59" stroke-width="4" stroke-miterlimit="10" stroke-linecap="round" stroke-linejoin="round"/>
<path d="M32.7861 83.5781H25.4265V96.8467H32.7861M32.7861 83.5781V96.8467M32.7861 83.5781H40.1457M32.7861 96.8467H40.1457M40.1457 83.5781V96.8467M40.1457 83.5781H44.348C46.0846 83.5781 47.5056 84.9936 47.5056 86.7241V93.5833C47.5056 95.3782 46.0316 96.8467 44.2299 96.8467H40.1457" stroke="#444E59" stroke-width="4" stroke-miterlimit="10" stroke-linecap="round" stroke-linejoin="round"/>
<path d="M38.3613 70.9488L15.856 82.3889C15.5879 82.5252 15.3787 82.7539 15.2672 83.0324L12.2653 90.5369C12.1999 90.7004 12.1703 90.8759 12.1784 91.0517C12.1866 91.2275 12.2324 91.3995 12.3126 91.5563C12.3929 91.7131 12.5059 91.851 12.6439 91.9607C12.782 92.0705 12.942 92.1496 13.1132 92.1928L20.9733 94.1759C21.2651 94.2495 21.5737 94.215 21.8419 94.0788L44.3472 82.6387C44.6502 82.4847 44.9198 82.2727 45.1405 82.0149C45.3613 81.7572 45.5289 81.4586 45.6338 81.1362C45.7387 80.8139 45.7789 80.4741 45.752 80.1363C45.7252 79.7985 45.6317 79.4692 45.4771 79.1674L41.8451 72.0749C41.6906 71.7731 41.4779 71.5045 41.2192 71.2845C40.9605 71.0645 40.6609 70.8975 40.3373 70.7929C40.0138 70.6883 39.6728 70.6483 39.3338 70.675C38.9947 70.7018 38.6643 70.7948 38.3613 70.9488Z" fill="white"/>
<path d="M27.5638 76.4365L34.1187 73.1045L40.1048 84.7941L33.55 88.1261L27.5638 76.4365Z" fill="#8D91DB"/>
<path d="M38.3613 70.9488L15.856 82.3889C15.5879 82.5252 15.3787 82.7539 15.2672 83.0324L12.2653 90.5369C12.1999 90.7004 12.1703 90.8759 12.1784 91.0517C12.1866 91.2275 12.2324 91.3995 12.3126 91.5563C12.3929 91.7131 12.5059 91.851 12.6439 91.9607C12.782 92.0705 12.942 92.1496 13.1132 92.1928L20.9733 94.1759C21.2651 94.2495 21.5737 94.215 21.8419 94.0788L44.3472 82.6387C44.6502 82.4847 44.9198 82.2727 45.1405 82.0149C45.3613 81.7572 45.5289 81.4586 45.6338 81.1362C45.7387 80.8139 45.7789 80.4741 45.752 80.1363C45.7252 79.7985 45.6317 79.4692 45.4771 79.1674L41.8451 72.0749C41.6906 71.7731 41.4779 71.5045 41.2192 71.2845C40.9605 71.0645 40.6609 70.8975 40.3373 70.7929C40.0138 70.6883 39.6728 70.6483 39.3338 70.675C38.9947 70.7018 38.6643 70.7948 38.3613 70.9488Z" stroke="#444E59" stroke-width="4" stroke-miterlimit="10" stroke-linecap="round" stroke-linejoin="round"/>
<path d="M18.2589 90.3416C19.2613 90.3416 20.0739 89.532 20.0739 88.5333C20.0739 87.5347 19.2613 86.7251 18.2589 86.7251C17.2566 86.7251 16.444 87.5347 16.444 88.5333C16.444 89.532 17.2566 90.3416 18.2589 90.3416Z" fill="#444E59"/>
<path d="M21.0092 79.7686L27.564 76.4365L33.5501 88.1261L26.9953 91.4581L21.0092 79.7686Z" fill="#BECCD5" stroke="#444E59" stroke-width="4" stroke-miterlimit="10" stroke-linecap="round" stroke-linejoin="round"/>
<path d="M21.0092 79.7686L27.564 76.4365L33.5501 88.1261L26.9953 91.4581L21.0092 79.7686Z" stroke="#444E59" stroke-width="4" stroke-miterlimit="10" stroke-linecap="round" stroke-linejoin="round"/>
<path d="M27.5638 76.4365L34.1187 73.1045L40.1048 84.7941L33.55 88.1261L27.5638 76.4365Z" stroke="#444E59" stroke-width="4" stroke-miterlimit="10" stroke-linecap="round" stroke-linejoin="round"/>
<path d="M43.8634 82.8848L40.0997 84.7979L34.1135 73.1084L37.8772 71.1952C39.4188 70.4116 41.3058 71.0213 42.0923 72.5573L45.2302 78.6851C46.017 80.2208 45.4047 82.1012 43.8634 82.8848Z" fill="#6567C3"/>
<path d="M43.8634 82.8848L40.0997 84.7979L34.1135 73.1084L37.8772 71.1952C39.4188 70.4116 41.3058 71.0213 42.0923 72.5573L45.2302 78.6851C46.017 80.2208 45.4047 82.1012 43.8634 82.8848Z" stroke="#444E59" stroke-width="4" stroke-miterlimit="10" stroke-linecap="round" stroke-linejoin="round"/>
<path d="M75.525 96.9462H54.4332C52.7025 96.9462 51.2997 95.5485 51.2997 93.8242V51.7069C51.2997 49.9827 52.7025 48.585 54.4332 48.585H75.525C77.2556 48.585 78.6585 49.9827 78.6585 51.7069V93.8242C78.6585 95.5485 77.2556 96.9462 75.525 96.9462Z" fill="white"/>
<path d="M79.0997 63.0933H51.2997V51.6382C51.2997 49.9521 52.6718 48.585 54.3642 48.585H75.8606C77.642 48.585 79.0997 50.0373 79.0997 51.8121V63.0933Z" fill="#6567C3"/>
<path d="M75.525 96.9462H54.4332C52.7025 96.9462 51.2997 95.5485 51.2997 93.8242V51.7069C51.2997 49.9827 52.7025 48.585 54.4332 48.585H75.525C77.2556 48.585 78.6585 49.9827 78.6585 51.7069V93.8242C78.6585 95.5485 77.2556 96.9462 75.525 96.9462Z" stroke="#444E59" stroke-width="4" stroke-miterlimit="10" stroke-linecap="round" stroke-linejoin="round"/>
<path d="M75.5591 96.9459H54.5435C52.7593 96.9459 51.2997 95.4917 51.2997 93.7141V87.7134H78.6585V93.858C78.6585 95.5635 77.271 96.9459 75.5591 96.9459Z" fill="#BBBFC2"/>
<path d="M75.6218 96.9459H54.5435C52.7593 96.9459 51.2997 95.4917 51.2997 93.7141V87.7134H78.6585V93.9204C78.6585 95.5913 77.2989 96.9459 75.6218 96.9459Z" stroke="#444E59" stroke-width="4" stroke-miterlimit="10" stroke-linecap="round" stroke-linejoin="round"/>
<path d="M65.203 93.6758C66.0641 93.6758 66.7622 92.9803 66.7622 92.1223C66.7622 91.2644 66.0641 90.5688 65.203 90.5688C64.3418 90.5688 63.6437 91.2644 63.6437 92.1223C63.6437 92.9803 64.3418 93.6758 65.203 93.6758Z" fill="#444E59"/>
<path opacity="0.3" d="M57.4775 67.9292H72.9221M60.5665 72.7654H70.2746M57.4775 77.1617H72.9221" stroke="#444E59" stroke-width="4" stroke-miterlimit="10" stroke-linecap="round" stroke-linejoin="round"/>
<path opacity="0.62" d="M65.203 60.4438C67.1417 60.4438 68.7134 58.8779 68.7134 56.9463C68.7134 55.0146 67.1417 53.4487 65.203 53.4487C63.2642 53.4487 61.6925 55.0146 61.6925 56.9463C61.6925 58.8779 63.2642 60.4438 65.203 60.4438Z" fill="white"/>
<path d="M70.2745 81.9979C70.2745 82.4643 70.0885 82.9116 69.7575 83.2414C69.4265 83.5712 68.9775 83.7565 68.5094 83.7565H61.8902C61.4221 83.7565 60.9731 83.5712 60.6421 83.2414C60.3111 82.9116 60.1251 82.4643 60.1251 81.9979C60.1251 81.5315 60.3111 81.0841 60.6421 80.7543C60.9731 80.4245 61.4221 80.2393 61.8902 80.2393H68.5094C68.9775 80.2393 69.4265 80.4245 69.7575 80.7543C70.0885 81.0841 70.2745 81.5315 70.2745 81.9979Z" fill="#ED8B3B"/>
<path d="M238.84 91.2307H162.941V45.7514C162.941 45.1036 163.2 44.4824 163.659 44.0244C164.119 43.5664 164.743 43.3091 165.393 43.3091H236.47C237.098 43.3091 237.701 43.5579 238.146 44.0009C238.591 44.4439 238.84 45.0447 238.84 45.6712V91.2307H238.84Z" fill="#BBBFC2"/>
<path d="M239.032 91.3101H163.133V45.729C163.133 45.0666 163.397 44.4313 163.868 43.963C164.338 43.4946 164.975 43.2314 165.64 43.2314H236.525C237.19 43.2314 237.827 43.4946 238.297 43.963C238.768 44.4313 239.032 45.0666 239.032 45.729V91.3101Z" stroke="#444E59" stroke-width="4" stroke-miterlimit="10" stroke-linecap="round" stroke-linejoin="round"/>
<path opacity="0.71" d="M234.868 47.2666V87.2744H167.354V47.2666L234.868 47.2666Z" fill="#5D5D5D"/>
<path opacity="0.32" d="M183.87 79.6773H178.04C177.877 79.6773 177.72 79.6127 177.605 79.4978C177.489 79.3829 177.425 79.227 177.425 79.0644V59.187C177.425 58.8486 177.7 58.5741 178.04 58.5741H183.87C184.21 58.5741 184.485 58.8486 184.485 59.187V79.0644C184.485 79.227 184.42 79.3829 184.305 79.4978C184.19 79.6127 184.033 79.6773 183.87 79.6773ZM225.959 83.6937H192.282C191.949 83.6937 191.631 83.5621 191.396 83.3279C191.16 83.0937 191.028 82.7761 191.028 82.4449V56.8049C191.028 56.4737 191.16 56.1561 191.396 55.9219C191.631 55.6877 191.949 55.5562 192.282 55.5562H225.959C226.292 55.5562 226.61 55.6877 226.846 55.9219C227.081 56.1561 227.213 56.4737 227.213 56.8049V82.4449C227.213 82.7761 227.081 83.0937 226.846 83.3279C226.61 83.5621 226.292 83.6937 225.959 83.6937Z" fill="#848484"/>
<path d="M234.815 47.4321V87.1084H167.35V47.4321L234.815 47.4321Z" stroke="#444E59" stroke-width="4" stroke-miterlimit="10" stroke-linecap="round" stroke-linejoin="round"/>
<path d="M247.315 91.3096H154.85V94.2486C154.85 94.911 155.114 95.5462 155.584 96.0146C156.054 96.483 156.691 96.7461 157.356 96.7461H244.809C245.473 96.7461 246.111 96.483 246.581 96.0146C247.051 95.5462 247.315 94.911 247.315 94.2486V91.3096Z" fill="white"/>
<path opacity="0.8" d="M158.379 96.9458H243.785C245.5 96.9458 246.928 95.6268 247.247 93.8682H154.917C155.236 95.6268 156.665 96.9458 158.379 96.9458Z" fill="#BBBFC2"/>
<path d="M247.315 91.3096H154.85V94.2486C154.85 94.911 155.114 95.5462 155.584 96.0146C156.054 96.483 156.691 96.7461 157.356 96.7461H244.809C245.473 96.7461 246.111 96.483 246.581 96.0146C247.051 95.5462 247.315 94.911 247.315 94.2486V91.3096Z" stroke="#444E59" stroke-width="4" stroke-miterlimit="10" stroke-linecap="round" stroke-linejoin="round"/>
<path d="M175.738 56.938H182.799V63.9724H175.738V56.938Z" fill="#F09F54"/>
<path d="M175.858 57.0132H182.918V64.0476H175.858V57.0132Z" stroke="#444E59" stroke-width="4" stroke-miterlimit="10" stroke-linecap="round" stroke-linejoin="round"/>
<path d="M175.858 57.0132H182.918V64.0476H175.858V57.0132Z" stroke="#444E59" stroke-width="4" stroke-miterlimit="10" stroke-linecap="round" stroke-linejoin="round"/>
<path d="M175.738 63.9727H182.799V71.007H175.738V63.9727Z" fill="#8D91DB"/>
<path d="M175.858 64.0474H182.918V71.0818H175.858V64.0474Z" stroke="#444E59" stroke-width="4" stroke-miterlimit="10" stroke-linecap="round" stroke-linejoin="round"/>
<path d="M175.738 71.0068H182.799V78.0412H175.738V71.0068Z" fill="#6567C3"/>
<path d="M175.858 71.082H182.918V78.1164H175.858V71.082Z" stroke="#444E59" stroke-width="4" stroke-miterlimit="10" stroke-linecap="round" stroke-linejoin="round"/>
<path d="M223.907 81.5584H190.23C189.897 81.5584 189.579 81.4269 189.343 81.1927C189.108 80.9585 188.976 80.6408 188.976 80.3096V54.6697C188.976 54.3385 189.108 54.0208 189.343 53.7867C189.579 53.5525 189.897 53.4209 190.23 53.4209H223.907C224.24 53.4209 224.558 53.5525 224.794 53.7867C225.029 54.0208 225.161 54.3385 225.161 54.6697V80.3096C225.161 80.6408 225.029 80.9585 224.794 81.1927C224.558 81.4269 224.24 81.5584 223.907 81.5584Z" fill="white"/>
<path d="M223.907 81.5584H190.23C189.897 81.5584 189.579 81.4269 189.343 81.1927C189.108 80.9585 188.976 80.6408 188.976 80.3096V54.6697C188.976 54.3385 189.108 54.0208 189.343 53.7867C189.579 53.5525 189.897 53.4209 190.23 53.4209H223.907C224.24 53.4209 224.558 53.5525 224.794 53.7867C225.029 54.0208 225.161 54.3385 225.161 54.6697V80.3096C225.161 80.6408 225.029 80.9585 224.794 81.1927C224.558 81.4269 224.24 81.5584 223.907 81.5584Z" stroke="#444E59" stroke-width="4" stroke-miterlimit="10" stroke-linecap="round" stroke-linejoin="round"/>
<g opacity="0.3">
<path d="M214.57 74.1309V74.5992H214.1" stroke="#444E59" stroke-width="2" stroke-linejoin="round"/>
<path d="M213.503 74.5991H200.368" stroke="#444E59" stroke-width="2" stroke-linejoin="round" stroke-dasharray="2.86 1.91"/>
<path d="M200.07 74.5992H199.6V74.1309" stroke="#444E59" stroke-width="2" stroke-linejoin="round"/>
<path d="M199.6 73.5056V61.3115" stroke="#444E59" stroke-width="2" stroke-linejoin="round" stroke-dasharray="3 2"/>
<path d="M199.6 60.9986V60.5303H200.07" stroke="#444E59" stroke-width="2" stroke-linejoin="round"/>
<path d="M200.667 60.5303H213.802" stroke="#444E59" stroke-width="2" stroke-linejoin="round" stroke-dasharray="2.86 1.91"/>
<path d="M214.1 60.5303H214.57V60.9986" stroke="#444E59" stroke-width="2" stroke-linejoin="round"/>
<path d="M214.57 61.624V73.8181" stroke="#444E59" stroke-width="2" stroke-linejoin="round" stroke-dasharray="3 2"/>
</g>
<path d="M198.558 59.4263H200.774V61.6338H198.558V59.4263Z" fill="white"/>
<path d="M198.464 59.356H200.67V61.5541H198.464V59.356Z" stroke="#444E59" stroke-miterlimit="10" stroke-linejoin="round"/>
<path d="M198.558 73.4951H200.774V75.7026H198.558V73.4951Z" fill="white"/>
<path d="M198.464 73.4248H200.67V75.623H198.464V73.4248Z" stroke="#444E59" stroke-miterlimit="10" stroke-linejoin="round"/>
<path d="M213.462 59.4263H215.677V61.6338H213.462V59.4263Z" fill="white"/>
<path d="M213.467 59.356H215.673V61.5541H213.467V59.356Z" stroke="#444E59" stroke-miterlimit="10" stroke-linejoin="round"/>
<path d="M213.462 73.4951H215.677V75.7026H213.462V73.4951Z" fill="white"/>
<path d="M213.467 73.4248H215.673V75.623H213.467V73.4248Z" stroke="#444E59" stroke-miterlimit="10" stroke-linejoin="round"/>
<path d="M179.427 67.6787L181.634 72.4297L183.814 73.5455L185.315 72.0497L184.195 69.8781L179.427 67.6787Z" fill="white"/>
<path d="M179.427 67.6787L181.634 72.4297L183.814 73.5455L185.315 72.0497L184.195 69.8781L179.427 67.6787Z" stroke="#444E59" stroke-miterlimit="10" stroke-linejoin="round"/>
<path d="M182.217 70.9599C182.549 70.9599 182.818 70.6917 182.818 70.3608C182.818 70.0299 182.549 69.7617 182.217 69.7617C181.885 69.7617 181.616 70.0299 181.616 70.3608C181.616 70.6917 181.885 70.9599 182.217 70.9599Z" fill="#444E59"/>
<path d="M179.427 67.6787L181.894 70.1372" stroke="#444E59" stroke-miterlimit="10" stroke-linecap="round" stroke-linejoin="round"/>
<path d="M183.811 73.5459L185.324 72.0388L186.407 73.1183L184.895 74.6254L183.811 73.5459Z" fill="white"/>
<path d="M183.811 73.5459L185.324 72.0388L186.407 73.1183L184.895 74.6254L183.811 73.5459Z" stroke="#444E59" stroke-miterlimit="10" stroke-linejoin="round"/>
</g>
<defs>
<clipPath id="clip0_370_2678">
<rect width="265" height="100" fill="white"/>
</clipPath>
</defs>
</svg>
