<svg width="272" height="122" viewBox="0 0 272 122" fill="none" xmlns="http://www.w3.org/2000/svg">
<g clip-path="url(#clip0_370_2893)">
<path opacity="0.28" d="M268.163 122.112H3.83713C2.90337 122.112 2.00787 121.742 1.3476 121.083C0.687341 120.424 0.316406 119.53 0.316406 118.599C0.316406 117.667 0.687341 116.773 1.3476 116.114C2.00787 115.455 2.90337 115.085 3.83713 115.085H268.163C269.097 115.085 269.993 115.455 270.653 116.114C271.313 116.773 271.684 117.667 271.684 118.599C271.684 119.53 271.313 120.424 270.653 121.083C269.993 121.742 269.097 122.112 268.163 122.112Z" fill="#848484"/>
<path d="M256.663 86.035C256.663 71.502 245.63 59.5631 231.343 58.2104V54.9268H222.771V117.663H231.343V113.86C245.63 112.507 256.663 100.568 256.663 86.035ZM231.343 104.842V67.229C240.487 68.5388 247.689 76.471 247.689 86.0354C247.689 95.5998 240.487 103.532 231.343 104.842Z" fill="#F09F54"/>
<path opacity="0.29" d="M231.343 58.2104V54.9268H222.771V117.663H231.343V113.86C245.63 112.507 256.663 100.568 256.663 86.0354C256.663 71.5024 245.63 59.5631 231.343 58.2104ZM231.343 110.987V114.241H223.343V57.7782H231.343V61.0834C243.916 62.2963 254.049 73.0027 254.049 86.0346C254.049 99.0673 243.916 109.774 231.343 110.987Z" fill="#F09F54"/>
<path d="M256.663 86.035C256.663 71.502 245.63 59.5631 231.343 58.2104V54.9268H222.771V117.663H231.343V113.86C245.63 112.507 256.663 100.568 256.663 86.035ZM231.343 104.842V67.229C240.487 68.5388 247.689 76.471 247.689 86.0354C247.689 95.5998 240.487 103.532 231.343 104.842Z" stroke="#444E59" stroke-width="2" stroke-miterlimit="10" stroke-linecap="round" stroke-linejoin="round"/>
<path d="M226.2 111.39H222.771M226.2 105.116H222.771M226.2 98.8427H222.771M226.2 92.5689H222.771M226.2 86.2952H222.771M226.2 80.0215H222.771M226.2 73.7478H222.771M226.2 67.4744H222.771M226.2 61.2007H222.771" stroke="#444E59" stroke-width="2" stroke-miterlimit="10" stroke-linecap="round" stroke-linejoin="round"/>
<path d="M203.776 23.1802H216.718V117.518H203.776V23.1802Z" fill="#F09F54"/>
<path d="M203.776 23.1802H216.718V117.518H203.776V23.1802Z" fill="#F09F54"/>
<path opacity="0.29" d="M211.091 23.1802H216.718V117.518H211.091V23.1802Z" fill="#F09F54"/>
<path d="M203.776 23.1802H216.718V117.518H203.776V23.1802Z" stroke="#444E59" stroke-width="2" stroke-miterlimit="10" stroke-linecap="round" stroke-linejoin="round"/>
<path d="M208.278 107.971H203.776M206.59 112.464H203.776M208.278 98.987H203.776M206.59 103.479H203.776M208.278 90.0023H203.776M206.59 94.4947H203.776M208.278 81.0177H203.776M206.59 85.51H203.776M208.278 72.0334H203.776M206.59 76.5257H203.776M208.278 63.0487H203.776M206.59 67.5411H203.776M208.278 54.0645H203.776M206.59 58.5564H203.776M208.278 45.0798H203.776M206.59 49.5721H203.776M208.278 36.0951H203.776M206.59 40.5875H203.776M208.278 27.1108H203.776M206.59 31.6032H203.776" stroke="#444E59" stroke-width="2" stroke-miterlimit="10" stroke-linecap="round" stroke-linejoin="round"/>
<path d="M179.856 46.0015H184.919V59.3219H179.856V46.0015Z" fill="#848484"/>
<path opacity="0.25" d="M179.856 46.0015H181.726V59.3219H179.856V46.0015Z" fill="#848484"/>
<path d="M179.856 46.0015H184.919V59.3219H179.856V46.0015Z" stroke="#444E59" stroke-width="2" stroke-miterlimit="10" stroke-linecap="round" stroke-linejoin="round"/>
<path d="M181.237 59.3218H183.539V65.7525H181.237V59.3218Z" fill="white"/>
<path d="M181.237 59.3218H183.539V65.7525H181.237V59.3218Z" stroke="#444E59" stroke-width="4" stroke-miterlimit="10" stroke-linecap="round" stroke-linejoin="round"/>
<path d="M178.498 71.5278L166.764 117.472L184.593 72.1294L178.498 71.5278Z" fill="white"/>
<path d="M178.498 71.5278L166.764 117.472L184.593 72.1294L178.498 71.5278Z" stroke="#444E59" stroke-width="2" stroke-miterlimit="10" stroke-linecap="round" stroke-linejoin="round"/>
<path d="M186.32 71.5278L198.054 117.472L180.224 72.1294L186.32 71.5278Z" fill="white"/>
<path d="M186.32 71.5278L198.054 117.472L180.224 72.1294L186.32 71.5278Z" stroke="#444E59" stroke-width="2" stroke-miterlimit="10" stroke-linecap="round" stroke-linejoin="round"/>
<path d="M182.411 80.5201C186.732 80.5201 190.235 77.0242 190.235 72.7117C190.235 68.3993 186.732 64.9033 182.411 64.9033C178.09 64.9033 174.587 68.3993 174.587 72.7117C174.587 77.0242 178.09 80.5201 182.411 80.5201Z" fill="#71A850"/>
<path opacity="0.4" d="M176.769 72.7117C176.769 68.7699 179.699 65.519 183.502 64.9881C183.14 64.9345 182.776 64.9061 182.41 64.9033C178.089 64.9033 174.586 68.3994 174.586 72.7117C174.586 77.0241 178.089 80.5201 182.41 80.5201C182.782 80.5201 183.144 80.4854 183.502 80.4354C179.699 79.9045 176.769 76.6536 176.769 72.7117Z" fill="#71A850"/>
<path d="M182.411 80.5201C186.732 80.5201 190.235 77.0242 190.235 72.7117C190.235 68.3993 186.732 64.9033 182.411 64.9033C178.09 64.9033 174.587 68.3993 174.587 72.7117C174.587 77.0242 178.09 80.5201 182.411 80.5201Z" stroke="#444E59" stroke-width="2" stroke-miterlimit="10" stroke-linecap="round" stroke-linejoin="round"/>
<path d="M182.411 75.3571C183.875 75.3571 185.062 74.1727 185.062 72.7118C185.062 71.2508 183.875 70.0664 182.411 70.0664C180.947 70.0664 179.76 71.2508 179.76 72.7118C179.76 74.1727 180.947 75.3571 182.411 75.3571Z" fill="#444E59"/>
<path d="M182.411 75.3571C183.875 75.3571 185.062 74.1727 185.062 72.7118C185.062 71.2508 183.875 70.0664 182.411 70.0664C180.947 70.0664 179.76 71.2508 179.76 72.7118C179.76 74.1727 180.947 75.3571 182.411 75.3571Z" stroke="#444E59" stroke-width="2" stroke-miterlimit="10" stroke-linecap="round" stroke-linejoin="round"/>
<path d="M154.158 117.375H102.52C99.4958 117.375 97.0438 114.928 97.0438 111.909V5.72048C97.0438 2.70191 99.4958 0.254883 102.52 0.254883H154.158C157.182 0.254883 159.634 2.70191 159.634 5.72048V111.909C159.634 114.928 157.182 117.375 154.158 117.375Z" fill="#848484"/>
<path opacity="0.28" d="M154.158 0.254883H150.85C153.874 0.254883 156.326 2.70191 156.326 5.72048V111.909C156.326 114.928 153.874 117.375 150.85 117.375H154.158C157.182 117.375 159.634 114.928 159.634 111.909V5.72048C159.634 2.70191 157.182 0.254883 154.158 0.254883Z" fill="#848484"/>
<path opacity="0.48" d="M100.304 111.909V5.72048C100.304 2.70191 102.756 0.254883 105.78 0.254883H102.52C99.4958 0.254883 97.0438 2.70191 97.0438 5.72048V111.909C97.0438 114.928 99.4958 117.375 102.52 117.375H105.78C102.756 117.375 100.304 114.928 100.304 111.909Z" fill="#848484"/>
<path d="M154.158 117.375H102.52C99.4958 117.375 97.0438 114.928 97.0438 111.909V5.72048C97.0438 2.70191 99.4958 0.254883 102.52 0.254883H154.158C157.182 0.254883 159.634 2.70191 159.634 5.72048V111.909C159.634 114.928 157.182 117.375 154.158 117.375Z" stroke="#444E59" stroke-width="4" stroke-miterlimit="10" stroke-linecap="round" stroke-linejoin="round"/>
<path d="M159.634 14.9087V102.358H97.0437V14.9087L159.634 14.9087Z" fill="#E9FBFF"/>
<path d="M159.312 43.0789H154.43C151.775 43.0789 149.622 40.9309 149.622 38.2813V26.3733C149.622 23.7237 151.775 21.5757 154.43 21.5757H159.312V43.0789ZM100.623 91.3581H97.0438V53.3831H100.623C103.318 53.3831 105.502 55.5631 105.502 58.2522V86.4895C105.502 89.1785 103.318 91.3581 100.623 91.3581Z" fill="#C9C9C9"/>
<path d="M159.634 14.9087V102.358H97.0437V14.9087L159.634 14.9087Z" stroke="#444E59" stroke-width="4" stroke-miterlimit="10" stroke-linecap="round" stroke-linejoin="round"/>
<path d="M136.945 8.07666H139.683M116.994 8.07666H132.642" stroke="#444E59" stroke-width="3" stroke-miterlimit="10" stroke-linecap="round" stroke-linejoin="round"/>
<path opacity="0.29" d="M128.339 113.226C130.705 113.226 132.624 111.312 132.624 108.95C132.624 106.589 130.705 104.674 128.339 104.674C125.973 104.674 124.054 106.589 124.054 108.95C124.054 111.312 125.973 113.226 128.339 113.226Z" fill="#848484"/>
<path d="M128.339 112.231C130.154 112.231 131.626 110.762 131.626 108.951C131.626 107.139 130.154 105.67 128.339 105.67C126.524 105.67 125.052 107.139 125.052 108.951C125.052 110.762 126.524 112.231 128.339 112.231Z" fill="#444E59"/>
<g opacity="0.3">
<path d="M114.037 91.8906H107.778C106.948 91.8906 106.152 91.5615 105.565 90.9758C104.978 90.3901 104.648 89.5957 104.648 88.7674V82.521C104.648 81.6927 104.978 80.8983 105.565 80.3125C106.152 79.7268 106.948 79.3978 107.778 79.3978H114.037C114.867 79.3978 115.663 79.7268 116.25 80.3125C116.837 80.8983 117.167 81.6927 117.167 82.521V88.7674C117.167 89.5957 116.837 90.3901 116.25 90.9758C115.663 91.5615 114.867 91.8906 114.037 91.8906ZM148.681 91.8906H142.422C141.592 91.8906 140.796 91.5615 140.209 90.9758C139.622 90.3901 139.292 89.5957 139.292 88.7674V82.521C139.292 81.6927 139.622 80.8983 140.209 80.3125C140.796 79.7268 141.592 79.3978 142.422 79.3978H148.681C149.511 79.3978 150.307 79.7268 150.894 80.3125C151.481 80.8983 151.81 81.6927 151.81 82.521V88.7674C151.81 89.5957 151.481 90.3901 150.894 90.9758C150.307 91.5615 149.511 91.8906 148.681 91.8906ZM131.468 91.8906H125.209C124.379 91.8906 123.583 91.5615 122.997 90.9758C122.41 90.3901 122.08 89.5957 122.08 88.7674V82.521C122.08 81.6927 122.41 80.8983 122.997 80.3125C123.583 79.7268 124.379 79.3978 125.209 79.3978H131.468C132.298 79.3978 133.095 79.7268 133.681 80.3125C134.268 80.8983 134.598 81.6927 134.598 82.521V88.7674C134.598 89.5957 134.268 90.3901 133.681 90.9758C133.095 91.5615 132.298 91.8906 131.468 91.8906ZM114.037 73.1514H107.778C106.948 73.1514 106.152 72.8223 105.565 72.2366C104.978 71.6509 104.648 70.8565 104.648 70.0282V63.7818C104.648 62.9535 104.978 62.1591 105.565 61.5733C106.152 60.9876 106.948 60.6586 107.778 60.6586H114.037C114.867 60.6586 115.663 60.9876 116.25 61.5733C116.837 62.1591 117.167 62.9535 117.167 63.7818V70.0282C117.167 70.8565 116.837 71.6509 116.25 72.2366C115.663 72.8223 114.867 73.1514 114.037 73.1514ZM148.681 73.1514H142.422C141.592 73.1514 140.796 72.8223 140.209 72.2366C139.622 71.6509 139.292 70.8565 139.292 70.0282V63.7818C139.292 62.9535 139.622 62.1591 140.209 61.5733C140.796 60.9876 141.592 60.6586 142.422 60.6586H148.681C149.511 60.6586 150.307 60.9876 150.894 61.5733C151.481 62.1591 151.81 62.9535 151.81 63.7818V70.0282C151.81 70.8565 151.481 71.6509 150.894 72.2366C150.307 72.8223 149.511 73.1514 148.681 73.1514ZM131.468 73.1514H125.209C124.379 73.1514 123.583 72.8223 122.997 72.2366C122.41 71.6509 122.08 70.8565 122.08 70.0282V63.7818C122.08 62.9535 122.41 62.1591 122.997 61.5733C123.583 60.9876 124.379 60.6586 125.209 60.6586H131.468C132.298 60.6586 133.095 60.9876 133.681 61.5733C134.268 62.1591 134.598 62.9535 134.598 63.7818V70.0282C134.598 70.8565 134.268 71.6509 133.681 72.2366C133.095 72.8223 132.298 73.1514 131.468 73.1514ZM114.037 54.4122H107.778C106.948 54.4122 106.152 54.0831 105.565 53.4974C104.978 52.9117 104.648 52.1173 104.648 51.289V45.0426C104.648 44.2143 104.978 43.4199 105.565 42.8341C106.152 42.2484 106.948 41.9194 107.778 41.9194H114.037C114.867 41.9194 115.663 42.2484 116.25 42.8341C116.837 43.4199 117.167 44.2143 117.167 45.0426V51.289C117.167 52.1173 116.837 52.9117 116.25 53.4974C115.663 54.0831 114.867 54.4122 114.037 54.4122ZM148.681 54.4122H142.422C141.592 54.4122 140.796 54.0831 140.209 53.4974C139.622 52.9117 139.292 52.1173 139.292 51.289V45.0426C139.292 44.2143 139.622 43.4199 140.209 42.8341C140.796 42.2484 141.592 41.9194 142.422 41.9194H148.681C149.511 41.9194 150.307 42.2484 150.894 42.8341C151.481 43.4199 151.81 44.2143 151.81 45.0426V51.289C151.81 52.1173 151.481 52.9117 150.894 53.4974C150.307 54.0831 149.511 54.4122 148.681 54.4122ZM131.468 54.4122H125.209C124.379 54.4122 123.583 54.0831 122.997 53.4974C122.41 52.9117 122.08 52.1173 122.08 51.289V45.0426C122.08 44.2143 122.41 43.4199 122.997 42.8341C123.583 42.2484 124.379 41.9194 125.209 41.9194H131.468C132.298 41.9194 133.095 42.2484 133.681 42.8341C134.268 43.4199 134.598 44.2143 134.598 45.0426V51.289C134.598 52.1173 134.268 52.9117 133.681 53.4974C133.095 54.0831 132.298 54.4122 131.468 54.4122ZM114.037 35.673H107.778C106.948 35.673 106.152 35.3439 105.565 34.7582C104.978 34.1725 104.648 33.3781 104.648 32.5498V26.3034C104.648 25.4751 104.978 24.6807 105.565 24.0949C106.152 23.5092 106.948 23.1802 107.778 23.1802H114.037C114.867 23.1802 115.663 23.5092 116.25 24.0949C116.837 24.6807 117.167 25.4751 117.167 26.3034V32.5498C117.167 33.3781 116.837 34.1725 116.25 34.7582C115.663 35.3439 114.867 35.673 114.037 35.673ZM148.681 35.673H142.422C141.592 35.673 140.796 35.3439 140.209 34.7582C139.622 34.1725 139.292 33.3781 139.292 32.5498V26.3034C139.292 25.4751 139.622 24.6807 140.209 24.0949C140.796 23.5092 141.592 23.1802 142.422 23.1802H148.681C149.511 23.1802 150.307 23.5092 150.894 24.0949C151.481 24.6807 151.81 25.4751 151.81 26.3034V32.5498C151.81 33.3781 151.481 34.1725 150.894 34.7582C150.307 35.3439 149.511 35.673 148.681 35.673ZM131.468 35.673H125.209C124.379 35.673 123.583 35.3439 122.997 34.7582C122.41 34.1725 122.08 33.3781 122.08 32.5498V26.3034C122.08 25.4751 122.41 24.6807 122.997 24.0949C123.583 23.5092 124.379 23.1802 125.209 23.1802H131.468C132.298 23.1802 133.095 23.5092 133.681 24.0949C134.268 24.6807 134.598 25.4751 134.598 26.3034V32.5498C134.598 33.3781 134.268 34.1725 133.681 34.7582C133.095 35.3439 132.298 35.673 131.468 35.673Z" stroke="#444E59" stroke-linecap="round" stroke-linejoin="round" stroke-dasharray="4.08 4.08"/>
</g>
<path d="M114.037 91.8907H107.778C106.948 91.8907 106.152 91.5617 105.565 90.976C104.978 90.3903 104.648 89.5959 104.648 88.7675V82.5211C104.648 81.6928 104.978 80.8984 105.565 80.3127C106.152 79.727 106.948 79.3979 107.778 79.3979H114.037C114.867 79.3979 115.663 79.727 116.25 80.3127C116.837 80.8984 117.167 81.6928 117.167 82.5211V88.7675C117.167 89.5959 116.837 90.3903 116.25 90.976C115.663 91.5617 114.867 91.8907 114.037 91.8907Z" fill="#71A850"/>
<path opacity="0.52" d="M114.035 79.3979H107.776C107.182 79.3983 106.599 79.5677 106.098 79.8864C105.596 80.2051 105.196 80.6598 104.945 81.1973L117.165 83.3933V82.5208C117.165 81.6925 116.835 80.8982 116.248 80.3126C115.661 79.7269 114.865 79.3979 114.035 79.3979Z" fill="#5F8C42"/>
<path d="M114.037 91.8907H107.778C106.948 91.8907 106.152 91.5617 105.565 90.976C104.978 90.3903 104.648 89.5959 104.648 88.7675V82.5211C104.648 81.6928 104.978 80.8984 105.565 80.3127C106.152 79.727 106.948 79.3979 107.778 79.3979H114.037C114.867 79.3979 115.663 79.727 116.25 80.3127C116.837 80.8984 117.167 81.6928 117.167 82.5211V88.7675C117.167 89.5959 116.837 90.3903 116.25 90.976C115.663 91.5617 114.867 91.8907 114.037 91.8907Z" stroke="#444E59" stroke-width="2" stroke-miterlimit="10" stroke-linecap="round" stroke-linejoin="round"/>
<path d="M131.468 91.8907H125.209C124.379 91.8907 123.583 91.5617 122.996 90.976C122.409 90.3903 122.08 89.5959 122.08 88.7675V82.5211C122.08 81.6928 122.409 80.8984 122.996 80.3127C123.583 79.727 124.379 79.3979 125.209 79.3979H131.468C132.298 79.3979 133.094 79.727 133.681 80.3127C134.268 80.8984 134.598 81.6928 134.598 82.5211V88.7675C134.598 89.5959 134.268 90.3903 133.681 90.976C133.094 91.5617 132.298 91.8907 131.468 91.8907Z" fill="#F09F54"/>
<path opacity="0.52" d="M131.468 79.3979H125.209C124.615 79.3983 124.033 79.5677 123.531 79.8864C123.03 80.2051 122.63 80.6598 122.378 81.1973L134.598 83.3933V82.5208C134.598 81.6925 134.268 80.8982 133.681 80.3126C133.094 79.7269 132.298 79.3979 131.468 79.3979Z" fill="#D38444"/>
<path d="M131.468 91.8907H125.209C124.379 91.8907 123.583 91.5617 122.996 90.976C122.409 90.3903 122.08 89.5959 122.08 88.7675V82.5211C122.08 81.6928 122.409 80.8984 122.996 80.3127C123.583 79.727 124.379 79.3979 125.209 79.3979H131.468C132.298 79.3979 133.094 79.727 133.681 80.3127C134.268 80.8984 134.598 81.6928 134.598 82.5211V88.7675C134.598 89.5959 134.268 90.3903 133.681 90.976C133.094 91.5617 132.298 91.8907 131.468 91.8907Z" stroke="#444E59" stroke-width="2" stroke-miterlimit="10" stroke-linecap="round" stroke-linejoin="round"/>
<path d="M148.681 73.1515H142.422C141.592 73.1515 140.796 72.8224 140.209 72.2367C139.622 71.651 139.292 70.8566 139.292 70.0283V63.7819C139.292 62.9536 139.622 62.1592 140.209 61.5735C140.796 60.9877 141.592 60.6587 142.422 60.6587H148.681C149.511 60.6587 150.307 60.9877 150.894 61.5735C151.481 62.1592 151.81 62.9536 151.81 63.7819V70.0283C151.81 70.8566 151.481 71.651 150.894 72.2367C150.307 72.8224 149.511 73.1515 148.681 73.1515Z" fill="#2FA9ED"/>
<path opacity="0.52" d="M148.681 60.6587H142.422C141.827 60.659 141.245 60.8285 140.744 61.1472C140.242 61.4658 139.842 61.9206 139.59 62.458L151.81 64.654V63.7815C151.81 62.9533 151.481 62.159 150.894 61.5733C150.307 60.9877 149.511 60.6587 148.681 60.6587Z" fill="#288FBC"/>
<path d="M148.681 73.1515H142.422C141.592 73.1515 140.796 72.8224 140.209 72.2367C139.622 71.651 139.292 70.8566 139.292 70.0283V63.7819C139.292 62.9536 139.622 62.1592 140.209 61.5735C140.796 60.9877 141.592 60.6587 142.422 60.6587H148.681C149.511 60.6587 150.307 60.9877 150.894 61.5735C151.481 62.1592 151.81 62.9536 151.81 63.7819V70.0283C151.81 70.8566 151.481 71.651 150.894 72.2367C150.307 72.8224 149.511 73.1515 148.681 73.1515Z" stroke="#444E59" stroke-width="2" stroke-miterlimit="10" stroke-linecap="round" stroke-linejoin="round"/>
<path d="M131.468 54.4122H125.209C124.379 54.4122 123.583 54.0832 122.996 53.4975C122.409 52.9118 122.08 52.1174 122.08 51.289V45.0426C122.08 44.2143 122.409 43.4199 122.996 42.8342C123.583 42.2485 124.379 41.9194 125.209 41.9194H131.468C132.298 41.9194 133.094 42.2485 133.681 42.8342C134.268 43.4199 134.598 44.2143 134.598 45.0426V51.289C134.598 52.1174 134.268 52.9118 133.681 53.4975C133.094 54.0832 132.298 54.4122 131.468 54.4122Z" fill="#E7534E"/>
<path opacity="0.52" d="M131.468 41.9194H125.209C124.615 41.9198 124.033 42.0892 123.531 42.4079C123.03 42.7266 122.63 43.1813 122.378 43.7188L134.598 45.9148V45.0423C134.598 44.214 134.268 43.4197 133.681 42.8341C133.094 42.2484 132.298 41.9194 131.468 41.9194Z" fill="#BF4040"/>
<path d="M131.468 54.4122H125.209C124.379 54.4122 123.583 54.0832 122.996 53.4975C122.409 52.9118 122.08 52.1174 122.08 51.289V45.0426C122.08 44.2143 122.409 43.4199 122.996 42.8342C123.583 42.2485 124.379 41.9194 125.209 41.9194H131.468C132.298 41.9194 133.094 42.2485 133.681 42.8342C134.268 43.4199 134.598 44.2143 134.598 45.0426V51.289C134.598 52.1174 134.268 52.9118 133.681 53.4975C133.094 54.0832 132.298 54.4122 131.468 54.4122Z" stroke="#444E59" stroke-width="2" stroke-miterlimit="10" stroke-linecap="round" stroke-linejoin="round"/>
<path d="M144.11 64.105L147.707 66.1772C148.225 66.4755 148.225 67.2208 147.707 67.5186L144.11 69.5909C143.593 69.8891 142.946 69.5163 142.946 68.9202V64.7757C142.946 64.1796 143.593 63.8067 144.11 64.105ZM129.566 83.1635H126.268C126.102 83.1635 125.937 83.1963 125.783 83.2599C125.629 83.3235 125.489 83.4167 125.371 83.5342C125.254 83.6518 125.16 83.7913 125.097 83.9448C125.033 84.0984 125 84.263 125 84.4292V86.8442C125 87.0104 125.033 87.175 125.097 87.3286C125.16 87.4821 125.254 87.6217 125.371 87.7392C125.489 87.8567 125.629 87.9499 125.783 88.0135C125.937 88.0772 126.102 88.1099 126.268 88.1099H126.368L126.095 89.2022C126.091 89.2198 126.092 89.2383 126.098 89.2553C126.105 89.2722 126.116 89.2868 126.131 89.297C126.146 89.3072 126.164 89.3126 126.182 89.3124C126.201 89.3122 126.218 89.3065 126.233 89.2959L127.9 88.1103H129.566C129.902 88.1103 130.225 87.9769 130.462 87.7396C130.7 87.5022 130.834 87.1803 130.834 86.8446V84.4296C130.834 84.2634 130.801 84.0987 130.737 83.9451C130.674 83.7915 130.58 83.652 130.463 83.5344C130.345 83.4168 130.205 83.3235 130.051 83.2599C129.897 83.1963 129.732 83.1635 129.566 83.1635Z" fill="white"/>
<path d="M108.514 85.6371L109.951 87.0715C110.046 87.1658 110.174 87.2187 110.308 87.2187C110.442 87.2187 110.57 87.1658 110.665 87.0715L113.895 83.8472" stroke="white" stroke-width="2" stroke-miterlimit="10" stroke-linecap="round" stroke-linejoin="round"/>
<path d="M128.339 51.0765C129.95 51.0765 131.255 49.7733 131.255 48.1657C131.255 46.5581 129.95 45.2549 128.339 45.2549C126.728 45.2549 125.422 46.5581 125.422 48.1657C125.422 49.7733 126.728 51.0765 128.339 51.0765Z" stroke="white" stroke-width="2" stroke-miterlimit="10" stroke-linecap="round" stroke-linejoin="round"/>
<path d="M104.717 32.9552L104.655 27.1137L100.736 27.155C100.518 26.4339 100.221 25.7388 99.8511 25.082L102.593 22.2879L98.4096 18.2008L95.6681 20.9949C95.0024 20.6399 94.2998 20.3585 93.5729 20.1556L93.5315 16.2441L87.6781 16.3058L87.7195 20.2176C86.997 20.4358 86.3005 20.7319 85.6423 21.1007L82.8422 18.3648L78.7468 22.5393L81.5465 25.2753C81.1908 25.9396 80.9087 26.6408 80.7055 27.3663L76.7861 27.4076L76.8479 33.2492L80.7677 33.2078C80.9861 33.9289 81.2828 34.624 81.6525 35.2808L78.9111 38.0749L83.0937 42.162L85.8352 39.3679C86.501 39.723 87.2037 40.0044 87.9308 40.2073L87.9722 44.1191L93.8256 44.0574L93.7842 40.146C94.5067 39.928 95.2033 39.6319 95.8614 39.2629L98.6611 41.9988L102.757 37.8235L99.9568 35.0876C100.313 34.4232 100.595 33.7221 100.798 32.9966L104.717 32.9552ZM90.7998 34.7409C88.2766 34.7674 86.2091 32.7475 86.1825 30.2294C86.1559 27.7114 88.18 25.6481 90.7032 25.6215C93.2263 25.595 95.2938 27.6149 95.3204 30.133C95.3474 32.6515 93.3233 34.7144 90.7998 34.7409Z" fill="white"/>
<path d="M104.717 32.9552L104.655 27.1137L100.736 27.155C100.518 26.4339 100.221 25.7388 99.8511 25.082L102.593 22.2879L98.4096 18.2008L95.6681 20.9949C95.0024 20.6399 94.2998 20.3585 93.5729 20.1556L93.5315 16.2441L87.6781 16.3058L87.7195 20.2176C86.997 20.4358 86.3005 20.7319 85.6423 21.1007L82.8422 18.3648L78.7468 22.5393L81.5465 25.2753C81.1908 25.9396 80.9087 26.6408 80.7055 27.3663L76.7861 27.4076L76.8479 33.2492L80.7677 33.2078C80.9861 33.9289 81.2828 34.624 81.6525 35.2808L78.9111 38.0749L83.0937 42.162L85.8352 39.3679C86.501 39.723 87.2037 40.0044 87.9308 40.2073L87.9722 44.1191L93.8256 44.0574L93.7842 40.146C94.5067 39.928 95.2033 39.6319 95.8614 39.2629L98.6611 41.9988L102.757 37.8235L99.9568 35.0876C100.313 34.4232 100.595 33.7221 100.798 32.9966L104.717 32.9552ZM90.7998 34.7409C88.2766 34.7674 86.2091 32.7475 86.1825 30.2294C86.1559 27.7114 88.18 25.6481 90.7032 25.6215C93.2263 25.595 95.2938 27.6149 95.3204 30.133C95.3474 32.6515 93.3233 34.7144 90.7998 34.7409Z" fill="#F09F54"/>
<path d="M104.717 32.9552L104.655 27.1137L100.736 27.155C100.518 26.4339 100.221 25.7388 99.8511 25.082L102.593 22.2879L98.4096 18.2008L95.6681 20.9949C95.0024 20.6399 94.2998 20.3585 93.5729 20.1556L93.5315 16.2441L87.6781 16.3058L87.7195 20.2176C86.997 20.4358 86.3005 20.7319 85.6423 21.1007L82.8422 18.3648L78.7468 22.5393L81.5465 25.2753C81.1908 25.9396 80.9087 26.6408 80.7055 27.3663L76.7861 27.4076L76.8479 33.2492L80.7677 33.2078C80.9861 33.9289 81.2828 34.624 81.6525 35.2808L78.9111 38.0749L83.0937 42.162L85.8352 39.3679C86.501 39.723 87.2037 40.0044 87.9308 40.2073L87.9722 44.1191L93.8256 44.0574L93.7842 40.146C94.5067 39.928 95.2033 39.6319 95.8614 39.2629L98.6611 41.9988L102.757 37.8235L99.9568 35.0876C100.313 34.4232 100.595 33.7221 100.798 32.9966L104.717 32.9552ZM90.7998 34.7409C88.2766 34.7674 86.2091 32.7475 86.1825 30.2294C86.1559 27.7114 88.18 25.6481 90.7032 25.6215C93.2263 25.595 95.2938 27.6149 95.3204 30.133C95.3474 32.6515 93.3233 34.7144 90.7998 34.7409Z" fill="#F09F54"/>
<g opacity="0.29">
<path d="M103.201 27.1288L103.21 27.1546L104.656 27.1393L104.655 27.1132L103.201 27.1288ZM98.142 20.9948L99.6724 19.4348L98.4092 18.2003L96.3879 20.2609C96.994 20.4512 97.5812 20.6969 98.142 20.9948ZM93.1774 25.6214C92.7767 25.6269 92.3784 25.6852 91.9929 25.7948C93.8945 26.33 95.2985 28.0615 95.3204 30.1333C95.3427 32.2415 93.9258 34.0256 91.9839 34.5679C92.3939 34.6834 92.8261 34.7459 93.2737 34.7412C95.7972 34.7147 97.8209 32.6518 97.7943 30.1333C97.7677 27.6148 95.701 25.5949 93.1774 25.6214ZM87.3409 20.3429L88.1162 21.1002C88.7743 20.7311 89.4708 20.435 90.1934 20.2171L90.152 16.3053L93.5315 16.2698L93.5311 16.2437L87.6777 16.3053L87.7191 20.2171C87.5916 20.2558 87.4664 20.2995 87.3409 20.3429ZM90.4047 40.2064C89.6776 40.0035 88.9749 39.722 88.3091 39.367L87.5893 40.101C87.7027 40.1369 87.8154 40.1744 87.9304 40.2064L87.9719 44.1182L90.4457 44.0921L90.4047 40.2064ZM79.2604 27.4071L83.1798 27.3658C83.3829 26.6402 83.6649 25.9391 84.0208 25.2748L81.2211 22.5389L84.1053 19.5987L82.8422 18.3643L78.7468 22.5389L81.5465 25.2748C81.1908 25.9391 80.9087 26.6403 80.7055 27.3658L76.7861 27.4071L76.8479 33.2487L79.3218 33.2225L79.2604 27.4071ZM98.3353 39.2616C97.793 39.5646 97.2243 39.8181 96.6363 40.019L98.6611 41.9976L99.8723 40.7631L98.3353 39.2616ZM81.3854 38.0744L84.1268 35.2803C83.757 34.6236 83.4603 33.9285 83.242 33.2073L80.7767 33.2331C80.9942 33.9448 81.288 34.6311 81.6529 35.28L78.9115 38.074L83.0941 42.1611L84.3052 40.9267L81.3854 38.0744Z" fill="#F09F54"/>
</g>
<path d="M104.717 32.9552L104.655 27.1137L100.736 27.155C100.518 26.4339 100.221 25.7388 99.8511 25.082L102.593 22.2879L98.4096 18.2008L95.6681 20.9949C95.0024 20.6399 94.2998 20.3585 93.5729 20.1556L93.5315 16.2441L87.6781 16.3058L87.7195 20.2176C86.997 20.4358 86.3005 20.7319 85.6423 21.1007L82.8422 18.3648L78.7468 22.5393L81.5465 25.2753C81.1908 25.9396 80.9087 26.6408 80.7055 27.3663L76.7861 27.4076L76.8479 33.2492L80.7677 33.2078C80.9861 33.9289 81.2828 34.624 81.6525 35.2808L78.9111 38.0749L83.0937 42.162L85.8352 39.3679C86.501 39.723 87.2037 40.0044 87.9308 40.2073L87.9722 44.1191L93.8256 44.0574L93.7842 40.146C94.5067 39.928 95.2033 39.6319 95.8614 39.2629L98.6611 41.9988L102.757 37.8235L99.9568 35.0876C100.313 34.4232 100.595 33.7221 100.798 32.9966L104.717 32.9552ZM90.7998 34.7409C88.2766 34.7674 86.2091 32.7475 86.1825 30.2294C86.1559 27.7114 88.18 25.6481 90.7032 25.6215C93.2263 25.595 95.2938 27.6149 95.3204 30.133C95.3474 32.6515 93.3233 34.7144 90.7998 34.7409Z" stroke="#444E59" stroke-width="2" stroke-miterlimit="10" stroke-linecap="round" stroke-linejoin="round"/>
<path d="M80.2672 117.375H31.855C31.0915 117.375 30.3593 117.072 29.8195 116.533C29.2796 115.995 28.9763 115.264 28.9762 114.502V81.4589C28.9763 80.697 29.2796 79.9663 29.8195 79.4275C30.3593 78.8888 31.0915 78.586 31.855 78.5859H80.2676C81.0311 78.586 81.7632 78.8888 82.3031 79.4275C82.8429 79.9663 83.1463 80.697 83.1464 81.4589V114.502C83.1463 115.264 82.8429 115.995 82.3029 116.533C81.763 117.072 81.0307 117.375 80.2672 117.375Z" fill="#444E59"/>
<path d="M83.1464 84.8636H28.9762V81.4589C28.9763 80.697 29.2796 79.9663 29.8195 79.4275C30.3593 78.8888 31.0915 78.586 31.855 78.5859H80.2672C81.0308 78.5859 81.7631 78.8887 82.3031 79.4275C82.843 79.9664 83.1464 80.6972 83.1464 81.4593V84.8636Z" fill="#BCBCBC"/>
<path d="M80.2672 117.375H31.855C31.0915 117.375 30.3593 117.072 29.8195 116.533C29.2796 115.995 28.9763 115.264 28.9762 114.502V81.4589C28.9763 80.697 29.2796 79.9663 29.8195 79.4275C30.3593 78.8888 31.0915 78.586 31.855 78.5859H80.2676C81.0311 78.586 81.7632 78.8888 82.3031 79.4275C82.8429 79.9663 83.1463 80.697 83.1464 81.4589V114.502C83.1463 115.264 82.8429 115.995 82.3029 116.533C81.763 117.072 81.0307 117.375 80.2672 117.375Z" stroke="#444E59" stroke-width="4" stroke-miterlimit="10" stroke-linecap="round" stroke-linejoin="round"/>
<path d="M80.2672 117.375H31.855C31.0915 117.375 30.3593 117.072 29.8195 116.533C29.2796 115.995 28.9763 115.264 28.9762 114.502V81.4589C28.9763 80.697 29.2796 79.9663 29.8195 79.4275C30.3593 78.8888 31.0915 78.586 31.855 78.5859H80.2676C81.0311 78.586 81.7632 78.8888 82.3031 79.4275C82.8429 79.9663 83.1463 80.697 83.1464 81.4589V114.502C83.1463 115.264 82.8429 115.995 82.3029 116.533C81.763 117.072 81.0307 117.375 80.2672 117.375Z" stroke="#444E59" stroke-width="4" stroke-miterlimit="10" stroke-linecap="round" stroke-linejoin="round"/>
<path d="M83.1464 84.8636H28.9762V81.4589C28.9763 80.697 29.2796 79.9663 29.8195 79.4275C30.3593 78.8888 31.0915 78.586 31.855 78.5859H80.2672C81.0308 78.5859 81.7631 78.8887 82.3031 79.4275C82.843 79.9664 83.1464 80.6972 83.1464 81.4593V84.8636Z" stroke="#444E59" stroke-width="4" stroke-miterlimit="10" stroke-linecap="round" stroke-linejoin="round"/>
<path d="M36.4574 112.427H42.5521M32.1414 112.427H32.5666M36.4574 109.06H51.9031M32.1414 109.06H32.5666" stroke="white" stroke-width="2" stroke-miterlimit="10" stroke-linecap="round" stroke-linejoin="round"/>
<path d="M59.259 105.693H63.4616" stroke="#64BDFF" stroke-width="2" stroke-miterlimit="10" stroke-linecap="round" stroke-linejoin="round"/>
<path d="M47.7528 105.693H55.5813" stroke="white" stroke-width="2" stroke-miterlimit="10" stroke-linecap="round" stroke-linejoin="round"/>
<path d="M36.4574 105.693H44.1803" stroke="#FF5F5F" stroke-width="2" stroke-miterlimit="10" stroke-linecap="round" stroke-linejoin="round"/>
<path d="M32.1414 105.693H32.5666M49.4864 102.326H68.3273" stroke="white" stroke-width="2" stroke-miterlimit="10" stroke-linecap="round" stroke-linejoin="round"/>
<path d="M36.4574 102.326H46.2818" stroke="#64BDFF" stroke-width="2" stroke-miterlimit="10" stroke-linecap="round" stroke-linejoin="round"/>
<path d="M32.1414 102.326H32.5666" stroke="white" stroke-width="2" stroke-miterlimit="10" stroke-linecap="round" stroke-linejoin="round"/>
<path d="M49.4865 98.9585H56.5263" stroke="#FF5F5F" stroke-width="2" stroke-miterlimit="10" stroke-linecap="round" stroke-linejoin="round"/>
<path d="M36.4574 98.9585H46.2818" stroke="#FFBE78" stroke-width="2" stroke-miterlimit="10" stroke-linecap="round" stroke-linejoin="round"/>
<path d="M32.1414 98.9585H32.5666" stroke="white" stroke-width="2" stroke-miterlimit="10" stroke-linecap="round" stroke-linejoin="round"/>
<path d="M50.8527 95.5913H52.7441" stroke="#64BDFF" stroke-width="2" stroke-miterlimit="10" stroke-linecap="round" stroke-linejoin="round"/>
<path d="M43.3923 95.5913H47.7529" stroke="#FF5F5F" stroke-width="2" stroke-miterlimit="10" stroke-linecap="round" stroke-linejoin="round"/>
<path d="M36.4574 95.5913H40.0298" stroke="#C383F2" stroke-width="2" stroke-miterlimit="10" stroke-linecap="round" stroke-linejoin="round"/>
<path d="M32.1414 95.5913H32.5666" stroke="white" stroke-width="2" stroke-miterlimit="10" stroke-linecap="round" stroke-linejoin="round"/>
<path d="M64.9326 92.2241H68.3274" stroke="#64BDFF" stroke-width="2" stroke-miterlimit="10" stroke-linecap="round" stroke-linejoin="round"/>
<path d="M47.2802 92.2241H60.6249" stroke="#FF5F5F" stroke-width="2" stroke-miterlimit="10" stroke-linecap="round" stroke-linejoin="round"/>
<path d="M36.4574 92.2241H44.3908" stroke="#FFBE78" stroke-width="2" stroke-miterlimit="10" stroke-linecap="round" stroke-linejoin="round"/>
<path d="M32.1414 92.2241H32.5666" stroke="white" stroke-width="2" stroke-miterlimit="10" stroke-linecap="round" stroke-linejoin="round"/>
<path d="M56.5262 88.8569H63.4613" stroke="#FFBE78" stroke-width="2" stroke-miterlimit="10" stroke-linecap="round" stroke-linejoin="round"/>
<path d="M47.7532 88.8569H53.1645" stroke="#6DBF7B" stroke-width="2" stroke-miterlimit="10" stroke-linecap="round" stroke-linejoin="round"/>
<path d="M41.8688 88.8569H44.9162" stroke="#FFBE78" stroke-width="2" stroke-miterlimit="10" stroke-linecap="round" stroke-linejoin="round"/>
<path d="M36.4574 88.8569H38.9266" stroke="#6DBF7B" stroke-width="2" stroke-miterlimit="10" stroke-linecap="round" stroke-linejoin="round"/>
<path d="M32.1414 88.8569H32.5666" stroke="white" stroke-width="2" stroke-miterlimit="10" stroke-linecap="round" stroke-linejoin="round"/>
<path d="M34.3167 82.7134C34.8642 82.7134 35.308 82.2705 35.308 81.7241C35.308 81.1778 34.8642 80.7349 34.3167 80.7349C33.7692 80.7349 33.3254 81.1778 33.3254 81.7241C33.3254 82.2705 33.7692 82.7134 34.3167 82.7134Z" fill="#E7534E"/>
<path d="M37.8662 82.7134C38.4136 82.7134 38.8574 82.2705 38.8574 81.7241C38.8574 81.1778 38.4136 80.7349 37.8662 80.7349C37.3187 80.7349 36.8749 81.1778 36.8749 81.7241C36.8749 82.2705 37.3187 82.7134 37.8662 82.7134Z" fill="#444E59"/>
<path d="M41.4155 82.7134C41.9629 82.7134 42.4067 82.2705 42.4067 81.7241C42.4067 81.1778 41.9629 80.7349 41.4155 80.7349C40.868 80.7349 40.4242 81.1778 40.4242 81.7241C40.4242 82.2705 40.868 82.7134 41.4155 82.7134Z" fill="#444E59"/>
<path d="M99.5356 88.304H64.49C63.66 88.304 62.864 87.9749 62.2771 87.3892C61.6902 86.8035 61.3605 86.0091 61.3605 85.1808V53.6154C61.3605 52.7871 61.6902 51.9927 62.2771 51.4069C62.864 50.8212 63.66 50.4922 64.49 50.4922H99.5356C100.366 50.4922 101.162 50.8212 101.749 51.4069C102.335 51.9927 102.665 52.7871 102.665 53.6154V85.1804C102.665 85.5906 102.584 85.9967 102.427 86.3757C102.27 86.7547 102.039 87.099 101.749 87.3891C101.458 87.6791 101.113 87.9092 100.733 88.0662C100.354 88.2232 99.9466 88.304 99.5356 88.304Z" fill="white"/>
<path d="M99.5356 88.304H64.49C63.66 88.304 62.864 87.9749 62.2771 87.3892C61.6902 86.8035 61.3605 86.0091 61.3605 85.1808V53.6154C61.3605 52.7871 61.6902 51.9927 62.2771 51.4069C62.864 50.8212 63.66 50.4922 64.49 50.4922H99.5356C100.366 50.4922 101.162 50.8212 101.749 51.4069C102.335 51.9927 102.665 52.7871 102.665 53.6154V85.1804C102.665 85.5906 102.584 85.9967 102.427 86.3757C102.27 86.7547 102.039 87.099 101.749 87.3891C101.458 87.6791 101.113 87.9092 100.733 88.0662C100.354 88.2232 99.9466 88.304 99.5356 88.304Z" fill="white"/>
<path d="M99.5356 88.304H64.49C63.66 88.304 62.864 87.9749 62.2771 87.3892C61.6902 86.8035 61.3605 86.0091 61.3605 85.1808V53.6154C61.3605 52.7871 61.6902 51.9927 62.2771 51.4069C62.864 50.8212 63.66 50.4922 64.49 50.4922H99.5356C100.366 50.4922 101.162 50.8212 101.749 51.4069C102.335 51.9927 102.665 52.7871 102.665 53.6154V85.1804C102.665 85.5906 102.584 85.9967 102.427 86.3757C102.27 86.7547 102.039 87.099 101.749 87.3891C101.458 87.6791 101.113 87.9092 100.733 88.0662C100.354 88.2232 99.9466 88.304 99.5356 88.304Z" stroke="#444E59" stroke-width="2" stroke-miterlimit="10" stroke-linecap="round" stroke-linejoin="round"/>
<path d="M64.9326 53.6885H98.8688V76.2017H64.9326V53.6885Z" fill="#9483C4"/>
<path d="M64.9326 79.7883H86.3507M64.9326 83.3936H77.6142M64.9326 53.6885H98.8688V76.2017H64.9326V53.6885Z" stroke="#444E59" stroke-width="2" stroke-miterlimit="10" stroke-linecap="round" stroke-linejoin="round"/>
<path d="M68.3275 72.1673L75.642 64.9449L82.4456 71.7351M95.218 72.1673L86.3509 60.6587L79.2605 68.5561" stroke="#444E59" stroke-width="2" stroke-miterlimit="10" stroke-linecap="round" stroke-linejoin="round"/>
<path d="M95.1237 83.3412C96.1838 83.3412 97.0432 82.4835 97.0432 81.4255C97.0432 80.3675 96.1838 79.5098 95.1237 79.5098C94.0635 79.5098 93.2041 80.3675 93.2041 81.4255C93.2041 82.4835 94.0635 83.3412 95.1237 83.3412Z" stroke="#444E59" stroke-width="2" stroke-miterlimit="10" stroke-linecap="round" stroke-linejoin="round"/>
<path d="M77.7945 63.0742C79.1245 63.0742 80.2027 61.9982 80.2027 60.6709C80.2027 59.3436 79.1245 58.2676 77.7945 58.2676C76.4645 58.2676 75.3864 59.3436 75.3864 60.6709C75.3864 61.9982 76.4645 63.0742 77.7945 63.0742Z" fill="#F09F54"/>
<path d="M77.7945 63.0742C79.1245 63.0742 80.2027 61.9982 80.2027 60.6709C80.2027 59.3436 79.1245 58.2676 77.7945 58.2676C76.4645 58.2676 75.3864 59.3436 75.3864 60.6709C75.3864 61.9982 76.4645 63.0742 77.7945 63.0742Z" stroke="#444E59" stroke-width="2" stroke-miterlimit="10" stroke-linecap="round" stroke-linejoin="round"/>
<path d="M60.7007 39.3526H71.1757M55.1122 39.3526H57.8795M65.9384 34.5019H71.1757M61.7221 34.5019H63.2865M49.3558 69.967H57.5184M45.0015 69.967H47.1577M54.1894 65.1159H57.5184M50.1519 65.1159H51.3708M179.725 13.318H187.496M174.979 13.318H177.135M184.166 8.46729H187.496M180.129 8.46729H181.348" stroke="#444E59" stroke-width="2" stroke-miterlimit="10" stroke-linecap="round" stroke-linejoin="round"/>
<path d="M185.767 40.5877H155.182C154.288 40.5877 153.43 40.2332 152.798 39.602C152.165 38.9709 151.81 38.115 151.81 37.2225V22.4497C151.81 21.5572 152.165 20.7012 152.798 20.0701C153.43 19.439 154.288 19.0845 155.182 19.0845H185.767C186.661 19.0845 187.519 19.439 188.151 20.0701C188.784 20.7012 189.139 21.5572 189.139 22.4497V37.2225C189.139 38.115 188.784 38.9709 188.151 39.602C187.519 40.2332 186.661 40.5877 185.767 40.5877Z" fill="#2FA9ED"/>
<path d="M185.767 40.5877H155.182C154.288 40.5877 153.43 40.2332 152.798 39.602C152.165 38.9709 151.81 38.115 151.81 37.2225V22.4497C151.81 21.5572 152.165 20.7012 152.798 20.0701C153.43 19.439 154.288 19.0845 155.182 19.0845H185.767C186.661 19.0845 187.519 19.439 188.151 20.0701C188.784 20.7012 189.139 21.5572 189.139 22.4497V37.2225C189.139 38.115 188.784 38.9709 188.151 39.602C187.519 40.2332 186.661 40.5877 185.767 40.5877Z" stroke="#444E59" stroke-miterlimit="10" stroke-linecap="round" stroke-linejoin="round"/>
<path opacity="0.56" d="M170.475 24.8623H183.692M170.475 29.1095H179.22" stroke="white" stroke-miterlimit="10" stroke-linecap="round" stroke-linejoin="round"/>
<g opacity="0.56">
<path d="M177.119 35.4811H171.779C171.433 35.4811 171.101 35.344 170.857 35.0999C170.612 34.8558 170.475 34.5247 170.475 34.1795C170.475 33.8343 170.612 33.5033 170.857 33.2592C171.101 33.0151 171.433 32.8779 171.779 32.8779H177.119C177.459 32.8863 177.783 33.027 178.02 33.2702C178.258 33.5134 178.391 33.8397 178.391 34.1795C178.391 34.5193 178.258 34.8456 178.02 35.0888C177.783 35.332 177.459 35.4728 177.119 35.4811Z" fill="white"/>
<path d="M177.119 35.4811H171.779C171.433 35.4811 171.101 35.344 170.857 35.0999C170.612 34.8558 170.475 34.5247 170.475 34.1795C170.475 33.8343 170.612 33.5033 170.857 33.2592C171.101 33.0151 171.433 32.8779 171.779 32.8779H177.119C177.465 32.8779 177.796 33.0151 178.041 33.2592C178.285 33.5033 178.423 33.8343 178.423 34.1795C178.423 34.5247 178.285 34.8557 178.041 35.0998C177.796 35.3438 177.464 35.481 177.119 35.4811Z" stroke="white" stroke-miterlimit="10" stroke-linecap="round" stroke-linejoin="round"/>
</g>
<path d="M164.951 35.6728H157.946C157.465 35.6728 157.004 35.4821 156.664 35.1427C156.323 34.8033 156.132 34.3429 156.132 33.8629V25.6981C156.132 25.2181 156.323 24.7577 156.664 24.4183C157.004 24.0789 157.465 23.8882 157.946 23.8882H164.951C165.432 23.8882 165.893 24.0789 166.233 24.4183C166.573 24.7577 166.765 25.2181 166.765 25.6981V33.8629C166.765 34.3429 166.573 34.8033 166.233 35.1427C165.893 35.4821 165.432 35.6728 164.951 35.6728Z" stroke="white" stroke-miterlimit="10" stroke-linecap="round" stroke-linejoin="round"/>
<path d="M161.448 30.3172C162.483 30.3172 163.322 29.4799 163.322 28.4472C163.322 27.4144 162.483 26.5771 161.448 26.5771C160.414 26.5771 159.575 27.4144 159.575 28.4472C159.575 29.4799 160.414 30.3172 161.448 30.3172Z" stroke="white" stroke-miterlimit="10" stroke-linecap="round" stroke-linejoin="round"/>
<path d="M157.897 35.4815C157.911 34.5506 158.291 33.6624 158.956 33.009C159.62 32.3556 160.516 31.9893 161.448 31.9893C162.381 31.9893 163.277 32.3556 163.941 33.009C164.606 33.6624 164.986 34.5506 165 35.4815" stroke="white" stroke-miterlimit="10" stroke-linecap="round" stroke-linejoin="round"/>
</g>
<defs>
<clipPath id="clip0_370_2893">
<rect width="272" height="122" fill="white"/>
</clipPath>
</defs>
</svg>
