<svg width="220" height="130" viewBox="0 0 220 130" fill="none" xmlns="http://www.w3.org/2000/svg">
<g clip-path="url(#clip0_370_3002)">
<path d="M187.652 39.9443H128.779L99.3427 84.9414L128.779 129.938H187.652L217.088 84.9414L187.652 39.9443Z" fill="#D9EBFF"/>
<path d="M97.0749 0.00390625H59.143L40.1774 28.9953L59.143 57.9868H97.0749L116.04 28.9953L97.0749 0.00390625Z" fill="#D9EBFF"/>
<path d="M58.7532 65.2021H23.4776L5.83972 92.1635L23.4776 119.125H58.7532L76.3914 92.1635L58.7532 65.2021Z" fill="#D9EBFF"/>
<path d="M184.069 115.606H108.229C108.1 115.606 107.976 115.561 107.885 115.48C107.793 115.399 107.742 115.29 107.742 115.176V14.722C107.742 14.6079 107.793 14.4986 107.885 14.4179C107.976 14.3373 108.1 14.292 108.229 14.292H174.259C174.388 14.292 174.512 14.3373 174.603 14.4179C174.695 14.4986 174.746 14.6079 174.746 14.722V33.845C174.746 33.9591 174.695 34.0684 174.603 34.1491C174.512 34.2297 174.388 34.275 174.259 34.275C174.13 34.275 174.006 34.2297 173.914 34.1491C173.823 34.0684 173.772 33.9591 173.772 33.845V15.1519H108.716V114.746H184.069C184.198 114.746 184.322 114.791 184.413 114.872C184.505 114.953 184.556 115.062 184.556 115.176C184.556 115.29 184.505 115.399 184.413 115.48C184.322 115.561 184.198 115.606 184.069 115.606Z" fill="#A9C0FF"/>
<path d="M79.048 100.021V127.573H104.304V100.021H79.048ZM95.5217 111.547C95.5217 112.509 95.0885 113.432 94.3174 114.113C93.5462 114.793 92.5003 115.176 91.4098 115.176C90.3192 115.176 89.2733 114.793 88.5022 114.113C87.731 113.432 87.2978 112.509 87.2978 111.547V107.918H95.5217V111.547Z" fill="#4D76B8"/>
<path d="M79.048 112.046H87.3412C87.3138 111.881 87.2993 111.714 87.2978 111.547V107.918H95.5217V111.547C95.5203 111.714 95.5058 111.881 95.4784 112.046H104.304V100.021H79.048V112.046Z" fill="#4469A0"/>
<path d="M144.612 42.5518H38.7399C35.8698 42.5518 33.5431 44.6052 33.5431 47.1381V103.332C33.5431 105.865 35.8698 107.918 38.7399 107.918H144.612C147.482 107.918 149.809 105.865 149.809 103.332V47.1381C149.809 44.6052 147.482 42.5518 144.612 42.5518Z" fill="#4D76B8"/>
<path d="M142.416 46.8589H40.9362C39.6805 46.8589 38.6626 47.7572 38.6626 48.8654V101.605C38.6626 102.713 39.6805 103.611 40.9362 103.611H142.416C143.672 103.611 144.69 102.713 144.69 101.605V48.8654C144.69 47.7572 143.672 46.8589 142.416 46.8589Z" fill="white"/>
<path d="M142.829 46.8589H40.5233C40.0298 46.8589 39.5565 47.0319 39.2076 47.3399C38.8586 47.6478 38.6626 48.0655 38.6626 48.501V51.2504H144.69V48.501C144.69 48.0655 144.494 47.6478 144.145 47.3399C143.796 47.0319 143.322 46.8589 142.829 46.8589Z" fill="#A9C0FF"/>
<path d="M202.586 113.702H162.846V111.193C162.846 111.041 162.915 110.895 163.036 110.788C163.158 110.68 163.324 110.62 163.496 110.62H201.936C202.109 110.62 202.274 110.68 202.396 110.788C202.518 110.895 202.586 111.041 202.586 111.193V113.702Z" fill="#4469A0"/>
<path d="M162.846 113.702H202.586V127C202.586 127.152 202.518 127.298 202.396 127.406C202.274 127.513 202.109 127.574 201.936 127.574H163.496C163.324 127.574 163.158 127.513 163.036 127.406C162.915 127.298 162.846 127.152 162.846 127V113.702Z" fill="#042354"/>
<path d="M169.742 108.762H195.69C195.862 108.762 196.027 108.823 196.149 108.93C196.271 109.038 196.339 109.183 196.339 109.336V110.62H169.093V109.336C169.093 109.183 169.161 109.038 169.283 108.93C169.405 108.823 169.57 108.762 169.742 108.762Z" fill="#4D76B8"/>
<path d="M171.276 88.3701H194.156C194.414 88.3701 194.662 88.4607 194.845 88.622C195.028 88.7833 195.13 89.002 195.13 89.2301V108.762H170.302V89.2301C170.302 89.002 170.405 88.7833 170.587 88.622C170.77 88.4607 171.018 88.3701 171.276 88.3701Z" fill="#92B1EF"/>
<path d="M197.951 95.6019C202.069 95.6019 205.407 92.6559 205.407 89.0219C205.407 85.3879 202.069 82.4419 197.951 82.4419C193.834 82.4419 190.496 85.3879 190.496 89.0219C190.496 92.6559 193.834 95.6019 197.951 95.6019Z" fill="#48952D"/>
<path d="M196.609 92.9413L192.274 89.4453C192.211 89.3945 192.16 89.3333 192.124 89.2651C192.087 89.1969 192.067 89.1231 192.063 89.0478C192.059 88.9725 192.072 88.8973 192.101 88.8265C192.13 88.7556 192.174 88.6905 192.232 88.6349C192.29 88.5793 192.359 88.5342 192.436 88.5023C192.514 88.4703 192.597 88.4522 192.683 88.4488C192.768 88.4455 192.853 88.457 192.933 88.4827C193.014 88.5084 193.087 88.5479 193.15 88.5988L196.607 91.3863L202.751 86.4064C202.878 86.3035 203.046 86.2494 203.218 86.2559C203.39 86.2624 203.552 86.3289 203.669 86.4409C203.785 86.5529 203.847 86.7012 203.839 86.8531C203.832 87.005 203.757 87.1481 203.63 87.2509L196.609 92.9413Z" fill="white"/>
<path d="M178.105 77.8184H177.455V85.5247H178.105V77.8184Z" fill="#4D76B8"/>
<path d="M183.041 73.8662H182.391V85.5245H183.041V73.8662Z" fill="#4D76B8"/>
<path d="M187.977 78.8062H187.327V85.5245H187.977V78.8062Z" fill="#4D76B8"/>
<path d="M180.041 99.4946H175.608V108.762H180.041V99.4946Z" fill="#A9C0FF"/>
<path d="M163.591 70.9131H125.789C125.43 70.9131 125.139 71.1698 125.139 71.4864V93.5669C125.139 93.8835 125.43 94.1402 125.789 94.1402H163.591C163.95 94.1402 164.24 93.8835 164.24 93.5669V71.4864C164.24 71.1698 163.95 70.9131 163.591 70.9131Z" fill="#F09F54"/>
<path d="M164.24 74.4341H125.139V79.3007H164.24V74.4341Z" fill="#4D76B8"/>
<path d="M76.1189 59.2646H52.1618C51.803 59.2646 51.5122 59.5213 51.5122 59.8379V73.8608C51.5122 74.1775 51.803 74.4341 52.1618 74.4341H76.1189C76.4777 74.4341 76.7685 74.1775 76.7685 73.8608V59.8379C76.7685 59.5213 76.4777 59.2646 76.1189 59.2646Z" fill="#92B1EF"/>
<path d="M110.62 61.1064H84.8958V61.9664H110.62V61.1064Z" fill="#456BA3"/>
<path d="M123.611 66.562H84.8958V67.422H123.611V66.562Z" fill="#456BA3"/>
<path d="M117.115 72.0176H84.8958V72.8775H117.115V72.0176Z" fill="#456BA3"/>
<path d="M68.6356 87.3291H52.1618C51.803 87.3291 51.5122 87.5858 51.5122 87.9024V92.5347C51.5122 92.8513 51.803 93.108 52.1618 93.108H68.6356C68.9943 93.108 69.2852 92.8513 69.2852 92.5347V87.9024C69.2852 87.5858 68.9943 87.3291 68.6356 87.3291Z" fill="#9483C4"/>
<path d="M92.4887 87.3291H76.015C75.6562 87.3291 75.3654 87.5858 75.3654 87.9024V92.5347C75.3654 92.8513 75.6562 93.108 76.015 93.108H92.4887C92.8475 93.108 93.1383 92.8513 93.1383 92.5347V87.9024C93.1383 87.5858 92.8475 87.3291 92.4887 87.3291Z" fill="#9483C4"/>
<path d="M116.466 87.3291H99.9921C99.6334 87.3291 99.3425 87.5858 99.3425 87.9024V92.5347C99.3425 92.8513 99.6334 93.108 99.9921 93.108H116.466C116.825 93.108 117.115 92.8513 117.115 92.5347V87.9024C117.115 87.5858 116.825 87.3291 116.466 87.3291Z" fill="#9483C4"/>
<g opacity="0.61">
<path d="M152.304 85.8332C153.757 85.8332 154.934 84.7936 154.934 83.5113C154.934 82.229 153.757 81.1895 152.304 81.1895C150.851 81.1895 149.673 82.229 149.673 83.5113C149.673 84.7936 150.851 85.8332 152.304 85.8332Z" fill="#A9C0FF"/>
</g>
<g opacity="0.61">
<path d="M155.636 85.8332C157.089 85.8332 158.267 84.7936 158.267 83.5113C158.267 82.229 157.089 81.1895 155.636 81.1895C154.183 81.1895 153.005 82.229 153.005 83.5113C153.005 84.7936 154.183 85.8332 155.636 85.8332Z" fill="#A9C0FF"/>
</g>
<path d="M145.808 85.833H130.035C129.677 85.833 129.386 86.0897 129.386 86.4063V90.0582C129.386 90.3749 129.677 90.6315 130.035 90.6315H145.808C146.166 90.6315 146.457 90.3749 146.457 90.0582V86.4063C146.457 86.0897 146.166 85.833 145.808 85.833Z" fill="#A9C0FF"/>
<g opacity="0.28">
<path d="M68.2518 22.5278H21.0672C20.7084 22.5278 20.4176 22.7845 20.4176 23.1011V55.0295C20.4176 55.3461 20.7084 55.6028 21.0672 55.6028H68.2518C68.6106 55.6028 68.9014 55.3461 68.9014 55.0295V23.1011C68.9014 22.7845 68.6106 22.5278 68.2518 22.5278Z" fill="#6299E8"/>
</g>
<path d="M61.8705 17.4639H14.6859C14.3271 17.4639 14.0363 17.7205 14.0363 18.0372V49.9655C14.0363 50.2821 14.3271 50.5388 14.6859 50.5388H61.8705C62.2292 50.5388 62.5201 50.2821 62.5201 49.9655V18.0372C62.5201 17.7205 62.2292 17.4639 61.8705 17.4639Z" fill="white"/>
<path d="M61.8706 50.9691H14.6857C14.3844 50.9688 14.0954 50.863 13.8823 50.6749C13.6692 50.4868 13.5493 50.2318 13.549 49.9658V18.0375C13.5493 17.7715 13.6692 17.5165 13.8823 17.3284C14.0954 17.1403 14.3844 17.0345 14.6857 17.0342H61.8706C62.172 17.0345 62.4609 17.1403 62.674 17.3284C62.8871 17.5165 63.007 17.7715 63.0074 18.0375V49.9658C63.007 50.2318 62.8871 50.4868 62.674 50.6749C62.4609 50.863 62.172 50.9688 61.8706 50.9691ZM14.6857 17.8941C14.6427 17.8942 14.6014 17.9093 14.571 17.9362C14.5405 17.963 14.5234 17.9995 14.5233 18.0375V49.9658C14.5234 50.0038 14.5405 50.0403 14.571 50.0671C14.6014 50.094 14.6427 50.1091 14.6857 50.1092H61.8706C61.9137 50.1091 61.9549 50.094 61.9854 50.0671C62.0158 50.0403 62.0329 50.0038 62.033 49.9658V18.0375C62.0329 17.9995 62.0158 17.963 61.9854 17.9362C61.9549 17.9093 61.9137 17.8942 61.8706 17.8941H14.6857Z" fill="#4D76B8"/>
<path d="M51.6881 22.5278H28.6664C28.3077 22.5278 28.0168 22.7845 28.0168 23.1011V36.4017C28.0168 36.7183 28.3077 36.975 28.6664 36.975H51.6881C52.0469 36.975 52.3377 36.7183 52.3377 36.4017V23.1011C52.3377 22.7845 52.0469 22.5278 51.6881 22.5278Z" fill="#A9C0FF"/>
<path d="M52.3378 24.7178H28.0168V27.7448H52.3378V24.7178Z" fill="#E6524D"/>
<path d="M48.4791 29.6597C48.4918 29.4957 48.4307 29.3338 48.3091 29.2093C48.1875 29.0848 48.0152 29.0077 47.8295 28.9946H28.0168V36.3099C28.004 36.4739 28.0651 36.6357 28.1867 36.7603C28.3084 36.8848 28.4807 36.9619 28.6664 36.9749H50.7772L48.4791 29.6597Z" fill="#4D76B8"/>
<path d="M46.0756 30.9727H23.0539C22.6951 30.9727 22.4043 31.2293 22.4043 31.546V44.8465C22.4043 45.1631 22.6951 45.4198 23.0539 45.4198H46.0756C46.4343 45.4198 46.7252 45.1631 46.7252 44.8465V31.546C46.7252 31.2293 46.4343 30.9727 46.0756 30.9727Z" fill="#F09F54"/>
<path d="M44.6594 41.1543H24.3141V43.4246H44.6594V41.1543Z" fill="#4D76B8"/>
<g opacity="0.61">
<path d="M26.3799 37.1469C27.4131 37.1469 28.2507 36.4077 28.2507 35.4958C28.2507 34.5839 27.4131 33.8447 26.3799 33.8447C25.3466 33.8447 24.509 34.5839 24.509 35.4958C24.509 36.4077 25.3466 37.1469 26.3799 37.1469Z" fill="#A9C0FF"/>
</g>
<g opacity="0.61">
<path d="M28.7184 37.1469C29.7516 37.1469 30.5892 36.4077 30.5892 35.4958C30.5892 34.5839 29.7516 33.8447 28.7184 33.8447C27.6851 33.8447 26.8475 34.5839 26.8475 35.4958C26.8475 36.4077 27.6851 37.1469 28.7184 37.1469Z" fill="#A9C0FF"/>
</g>
<path d="M205.02 60.0483H160.565C160.456 60.0483 160.351 60.0101 160.273 59.9421C160.196 59.8741 160.152 59.7818 160.152 59.6854L160.001 35.6084L198.747 38.7683H205.02C205.129 38.7683 205.235 38.8067 205.312 38.8752C205.39 38.9436 205.433 39.0364 205.433 39.1332V59.6834C205.433 59.7802 205.39 59.873 205.312 59.9414C205.235 60.0098 205.129 60.0483 205.02 60.0483Z" fill="#4D76B8"/>
<path d="M198.748 32.8123V38.7689H163.546C163.468 38.7689 163.387 38.766 163.309 38.7631C158.788 38.5596 158.944 32.5285 163.472 32.4482H198.332C198.387 32.448 198.441 32.4573 198.491 32.4754C198.541 32.4936 198.587 32.5204 198.626 32.5542C198.664 32.588 198.695 32.6282 198.716 32.6725C198.737 32.7168 198.748 32.7643 198.748 32.8123Z" fill="#4469A0"/>
<path d="M201.956 42.0522H162.989C162.63 42.0522 162.339 42.3089 162.339 42.6255V45.0256C162.339 45.3422 162.63 45.5989 162.989 45.5989H201.956C202.314 45.5989 202.605 45.3422 202.605 45.0256V42.6255C202.605 42.3089 202.314 42.0522 201.956 42.0522Z" fill="#92B1EF"/>
<path d="M205.436 48.8828H160.104V55.3194H205.436V48.8828Z" fill="#92B1EF"/>
<path d="M182.151 17.2042V38.7688H163.677V17.2042C163.676 17.0912 163.701 16.9793 163.75 16.8749C163.799 16.7705 163.871 16.6756 163.962 16.5958C164.052 16.5159 164.159 16.4525 164.278 16.4094C164.396 16.3662 164.523 16.3441 164.651 16.3442H181.177C181.305 16.3441 181.431 16.3662 181.55 16.4094C181.668 16.4525 181.775 16.5159 181.866 16.5958C181.957 16.6756 182.028 16.7705 182.077 16.8749C182.126 16.9793 182.151 17.0912 182.151 17.2042Z" fill="#779DD8"/>
<path d="M179.5 19.5518V38.7688H166.248V19.5518C166.248 19.4389 166.273 19.327 166.322 19.2226C166.371 19.1182 166.442 19.0233 166.533 18.9434C166.623 18.8635 166.731 18.8002 166.849 18.757C166.968 18.7139 167.094 18.6917 167.222 18.6919H178.525C178.653 18.6917 178.78 18.7139 178.898 18.757C179.017 18.8002 179.124 18.8635 179.215 18.9434C179.305 19.0233 179.377 19.1182 179.426 19.2226C179.475 19.327 179.5 19.4389 179.5 19.5518Z" fill="#A9C0FF"/>
<path d="M172.562 28.4922C174.392 28.4922 175.875 27.1831 175.875 25.5684C175.875 23.9536 174.392 22.6445 172.562 22.6445C170.732 22.6445 169.249 23.9536 169.249 25.5684C169.249 27.1831 170.732 28.4922 172.562 28.4922Z" fill="#779DD8"/>
<path d="M197.141 38.7691H177.948L175.938 32.4485L172.95 23.0664C172.915 22.9577 172.905 22.8439 172.92 22.7316C172.935 22.6194 172.975 22.5109 173.038 22.4123C173.101 22.3138 173.185 22.2272 173.286 22.1574C173.386 22.0877 173.502 22.0362 173.625 22.0058L189.534 18.0587C189.657 18.028 189.786 18.019 189.913 18.0324C190.04 18.0457 190.163 18.0811 190.275 18.1365C190.387 18.1919 190.485 18.2662 190.564 18.3552C190.643 18.4441 190.701 18.546 190.736 18.6549L195.127 32.4485L197.141 38.7691Z" fill="#92B1EF"/>
<path d="M194.389 38.7689H180.621L178.611 32.4483L176.145 24.7116C176.111 24.6028 176.101 24.4891 176.116 24.3768C176.131 24.2646 176.171 24.1561 176.234 24.0575C176.297 23.959 176.381 23.8723 176.481 23.8026C176.582 23.7328 176.698 23.6813 176.821 23.651L187.702 20.9508C187.825 20.92 187.954 20.9111 188.081 20.9245C188.208 20.9378 188.331 20.9732 188.443 21.0286C188.555 21.084 188.653 21.1583 188.732 21.2473C188.811 21.3363 188.869 21.4381 188.904 21.547L192.376 32.4483L194.389 38.7689Z" fill="#A9C0FF"/>
<path d="M184.069 31.9194C185.898 31.9194 187.382 30.6104 187.382 28.9956C187.382 27.3808 185.898 26.0718 184.069 26.0718C182.239 26.0718 180.756 27.3808 180.756 28.9956C180.756 30.6104 182.239 31.9194 184.069 31.9194Z" fill="#92B1EF"/>
<path d="M129.386 38.1966C129.257 38.1966 129.133 38.1513 129.041 38.0706C128.95 37.99 128.899 37.8806 128.899 37.7666V8.43514H40.6645V14.63C40.6645 14.7441 40.6131 14.8534 40.5218 14.9341C40.4304 15.0147 40.3065 15.06 40.1773 15.06C40.048 15.06 39.9241 15.0147 39.8328 14.9341C39.7414 14.8534 39.6901 14.7441 39.6901 14.63V8.00517C39.6901 7.89113 39.7414 7.78177 39.8328 7.70114C39.9241 7.6205 40.048 7.5752 40.1773 7.5752H129.386C129.515 7.5752 129.639 7.6205 129.73 7.70114C129.822 7.78177 129.873 7.89113 129.873 8.00517V37.7666C129.873 37.8806 129.822 37.99 129.73 38.0706C129.639 38.1513 129.515 38.1966 129.386 38.1966Z" fill="#A9C0FF"/>
<path d="M12.652 87.0654V78.0509C12.652 77.2058 12.2716 76.3952 11.5945 75.7976C10.9173 75.2 9.99892 74.8643 9.04129 74.8643C8.08366 74.8643 7.16525 75.2 6.4881 75.7976C5.81096 76.3952 5.43054 77.2058 5.43054 78.0509V87.0654H12.652Z" fill="#4D76B8"/>
<path d="M43.5875 74.8643C44.5451 74.8643 45.4635 75.2 46.1407 75.7976C46.8178 76.3952 47.1982 77.2058 47.1982 78.0509V124.387C47.1982 125.232 47.5786 126.042 48.2558 126.64C48.9329 127.238 49.8513 127.573 50.809 127.573C51.7666 127.573 52.685 127.238 53.3621 126.64C54.0393 126.042 54.4197 125.232 54.4197 124.387H19.8736C19.8736 125.232 19.4932 126.042 18.8161 126.64C18.1389 127.238 17.2205 127.573 16.2629 127.573C15.3052 127.573 14.3868 127.238 13.7097 126.64C13.0325 126.042 12.6521 125.232 12.6521 124.387V78.0509C12.6521 77.2058 12.2717 76.3952 11.5946 75.7976C10.9174 75.2 9.99901 74.8643 9.04138 74.8643H43.5875Z" fill="#92B1EF"/>
<path d="M50.8089 127.573C51.7665 127.573 52.6849 127.238 53.3621 126.64C54.0392 126.042 54.4197 125.232 54.4197 124.387H19.8736C19.8736 125.232 19.4931 126.042 18.816 126.64C18.1389 127.238 17.2204 127.573 16.2628 127.573H50.8089Z" fill="#A9C0FF"/>
<path d="M35.3412 81.3105H16.2628V82.1705H35.3412V81.3105Z" fill="#456BA3"/>
<path d="M35.3412 85.4028H16.2628V86.2628H35.3412V85.4028Z" fill="#456BA3"/>
<path d="M35.3412 89.4956H16.2628V90.3556H35.3412V89.4956Z" fill="#456BA3"/>
<path d="M35.3412 93.5884H16.2628V94.4483H35.3412V93.5884Z" fill="#456BA3"/>
<path d="M35.3412 97.6807H16.2628V98.5406H35.3412V97.6807Z" fill="#456BA3"/>
<path d="M35.3412 101.773H16.2628V102.633H35.3412V101.773Z" fill="#456BA3"/>
<path d="M35.3412 105.866H16.2628V106.726H35.3412V105.866Z" fill="#456BA3"/>
<path d="M35.3412 109.958H16.2628V110.818H35.3412V109.958Z" fill="#456BA3"/>
<path d="M44.0946 81.3105H38.6625V82.1705H44.0946V81.3105Z" fill="#456BA3"/>
<path d="M44.0946 85.4028H38.6625V86.2628H44.0946V85.4028Z" fill="#456BA3"/>
<path d="M44.0946 89.4956H38.6625V90.3556H44.0946V89.4956Z" fill="#456BA3"/>
<path d="M44.0946 93.5884H38.6625V94.4483H44.0946V93.5884Z" fill="#456BA3"/>
<path d="M44.0946 97.6807H38.6625V98.5406H44.0946V97.6807Z" fill="#456BA3"/>
<path d="M44.0946 101.773H38.6625V102.633H44.0946V101.773Z" fill="#456BA3"/>
<path d="M44.0946 105.866H38.6625V106.726H44.0946V105.866Z" fill="#456BA3"/>
<path d="M44.0946 109.958H38.6625V110.818H44.0946V109.958Z" fill="#456BA3"/>
<path d="M19.1868 121.842C19.6265 121.094 20.0718 120.349 20.5226 119.607L20.691 119.329C20.7525 119.224 20.8308 119.127 20.9235 119.041C21.1242 118.866 21.3881 118.759 21.6691 118.739C21.9553 118.716 22.2414 118.783 22.4776 118.928C22.5968 119 22.7002 119.092 22.7829 119.197C22.8723 119.31 22.9143 119.388 22.9794 119.483L23.3352 120.03C23.422 120.168 23.5613 120.274 23.7286 120.33C23.888 120.384 24.0636 120.387 24.2254 120.339C24.3872 120.291 24.5251 120.195 24.6154 120.068C24.6365 120.036 24.6551 120.003 24.6709 119.969L24.7339 119.826L24.863 119.532L25.1239 118.945L25.6455 117.77L25.7758 117.476L25.8085 117.403L25.8599 117.307C25.8932 117.242 25.9353 117.179 25.9852 117.122C26.1809 116.881 26.4692 116.711 26.7965 116.643C27.1222 116.576 27.4641 116.608 27.7668 116.733C28.0724 116.865 28.3151 117.089 28.4518 117.364L28.5001 117.463L28.5303 117.537L28.5907 117.686L28.7114 117.983L28.9529 118.577L29.4358 119.764L29.674 120.349C29.7177 120.457 29.8044 120.547 29.9181 120.603C30.0316 120.659 30.1632 120.679 30.2911 120.659C30.419 120.64 30.5355 120.582 30.6215 120.497C30.6622 120.452 30.6946 120.401 30.7174 120.347C30.7521 120.269 30.7937 120.154 30.8316 120.059L31.0639 119.463L31.5286 118.27L32.4791 115.89L32.7168 115.295L32.8356 114.997C32.8671 114.93 32.9025 114.86 32.9385 114.793C32.9816 114.727 33.0319 114.664 33.0812 114.601C33.3025 114.363 33.6103 114.199 33.9525 114.138C34.2948 114.077 34.6504 114.123 34.959 114.267C35.2675 114.413 35.5057 114.653 35.63 114.942C35.6547 115.006 35.6901 115.095 35.7007 115.14L35.7431 115.293L35.8276 115.6L36.1659 116.826C36.3941 117.642 36.6157 118.46 36.8307 119.28L36.9944 119.894C37.0265 120.03 37.1106 120.152 37.2326 120.24C37.3637 120.324 37.5226 120.367 37.6846 120.363C37.8465 120.359 38.0023 120.307 38.1275 120.216C38.16 120.195 38.1883 120.17 38.2111 120.14C38.2631 120.083 38.3032 120.017 38.3295 119.947L38.3514 119.893L38.3832 119.803C38.4473 119.611 38.5673 119.437 38.7313 119.299C38.8953 119.16 39.0974 119.062 39.3177 119.014C39.5379 118.966 39.7686 118.97 39.9867 119.025C40.2047 119.08 40.4026 119.185 40.5606 119.329C40.6063 119.38 40.6544 119.429 40.6948 119.482C40.7294 119.537 40.7673 119.595 40.7965 119.647L40.9419 119.936L41.2328 120.512C41.3031 120.682 41.4383 120.825 41.615 120.917C41.7918 121.009 41.9992 121.043 42.2016 121.015C42.4137 120.983 42.6072 120.888 42.7502 120.747L43.2553 120.3L44.2743 119.412L43.3639 120.387L42.9045 120.871C42.7406 121.062 42.5065 121.196 42.2425 121.251C41.9786 121.306 41.7012 121.277 41.4583 121.171C41.2109 121.06 41.0122 120.88 40.8934 120.659L40.5573 120.101L40.3892 119.823L40.3112 119.715C40.2822 119.683 40.2487 119.656 40.2195 119.625C40.0857 119.519 39.915 119.456 39.7356 119.448C39.5562 119.439 39.3787 119.484 39.2324 119.576C39.0945 119.667 38.9979 119.798 38.96 119.946L38.9122 120.104C38.8954 120.17 38.8688 120.233 38.8331 120.293C38.7666 120.419 38.6747 120.533 38.5617 120.63C38.3299 120.822 38.0301 120.938 37.7127 120.959C37.3953 120.979 37.0796 120.902 36.8186 120.742C36.5566 120.574 36.3682 120.331 36.2854 120.055L36.0942 119.447C35.8374 118.637 35.5857 117.825 35.339 117.013L34.9672 115.794L34.8743 115.49L34.8278 115.337C34.8116 115.28 34.7996 115.272 34.788 115.236C34.7398 115.128 34.6483 115.04 34.5311 114.988C34.4134 114.937 34.2798 114.922 34.1512 114.945C34.0226 114.968 33.9061 115.027 33.8201 115.115C33.8047 115.14 33.7857 115.163 33.7681 115.187C33.7559 115.216 33.7421 115.244 33.7267 115.271L33.6105 115.569L33.3781 116.166L32.4483 118.552L31.9728 119.742L31.7351 120.337C31.6929 120.44 31.6618 120.526 31.6104 120.643C31.5488 120.786 31.4605 120.919 31.3494 121.037C31.1204 121.271 30.8064 121.428 30.461 121.48C30.1156 121.533 29.7602 121.478 29.4555 121.325C29.1508 121.171 28.9179 120.927 28.7986 120.636C28.7096 120.42 28.6443 120.232 28.5663 120.029L27.6708 117.664C27.6192 117.548 27.5229 117.453 27.3992 117.394C27.2675 117.339 27.1193 117.321 26.9757 117.344C26.8326 117.367 26.7041 117.435 26.6152 117.537C26.5899 117.561 26.5691 117.589 26.5536 117.619L26.5245 117.665L26.4885 117.737L26.345 118.026L25.7711 119.182L25.484 119.76L25.3392 120.048L25.2628 120.196C25.2297 120.258 25.1912 120.317 25.1478 120.374C24.972 120.599 24.7127 120.763 24.4146 120.838C24.1164 120.913 23.7981 120.894 23.5143 120.784C23.238 120.675 23.0133 120.485 22.879 120.246L22.5599 119.681C22.4904 119.509 22.3755 119.355 22.2248 119.23C22.0734 119.123 21.8841 119.066 21.6901 119.07C21.4907 119.072 21.2983 119.136 21.1466 119.25C21.07 119.313 21.0034 119.384 20.9486 119.463L20.754 119.728C20.2379 120.436 19.7155 121.14 19.1868 121.842Z" fill="#456BA3"/>
<path d="M63.9492 8.00549L60.7761 5.20508L57.603 8.00549L60.7761 10.8059L63.9492 8.00549Z" fill="#A9C0FF"/>
<path d="M70.809 8.00549L67.6359 5.20508L64.4628 8.00549L67.6359 10.8059L70.809 8.00549Z" fill="#A9C0FF"/>
<path d="M77.6687 8.00549L74.4956 5.20508L71.3225 8.00549L74.4956 10.8059L77.6687 8.00549Z" fill="#A9C0FF"/>
<path d="M144.733 14.7218L141.56 11.9214L138.387 14.7218L141.56 17.5222L144.733 14.7218Z" fill="#A9C0FF"/>
<path d="M151.593 14.7218L148.42 11.9214L145.247 14.7218L148.42 17.5222L151.593 14.7218Z" fill="#A9C0FF"/>
<path d="M158.453 14.7218L155.279 11.9214L152.106 14.7218L155.279 17.5222L158.453 14.7218Z" fill="#A9C0FF"/>
<path d="M136.397 115.176L133.796 112.88L131.195 115.176L133.796 117.471L136.397 115.176Z" fill="#A9C0FF"/>
<path d="M142.02 115.176L139.419 112.88L136.818 115.176L139.419 117.471L142.02 115.176Z" fill="#A9C0FF"/>
<path d="M147.642 115.176L145.042 112.88L142.441 115.176L145.042 117.471L147.642 115.176Z" fill="#A9C0FF"/>
<path d="M108.229 27.1398L110.776 24.8921L108.229 22.6444L105.682 24.8921L108.229 27.1398Z" fill="#A9C0FF"/>
<path d="M108.229 31.9992L110.776 29.7515L108.229 27.5037L105.682 29.7515L108.229 31.9992Z" fill="#A9C0FF"/>
<path d="M108.229 36.8586L110.776 34.6108L108.229 32.3631L105.682 34.6108L108.229 36.8586Z" fill="#A9C0FF"/>
<path d="M219.888 127.573H-0.169678V130.153H219.888V127.573Z" fill="#456BA3"/>
<path d="M104.304 120.638H79.048V125.357H104.304V120.638Z" fill="#456BA3"/>
<path d="M110.151 127.716H73.2015V124.43C73.2015 124.05 73.3726 123.686 73.6772 123.417C73.9817 123.148 74.3948 122.997 74.8255 122.997H108.527C108.957 122.997 109.37 123.148 109.675 123.417C109.979 123.686 110.151 124.05 110.151 124.43V127.716Z" fill="#4D76B8"/>
</g>
<defs>
<clipPath id="clip0_370_3002">
<rect width="220" height="130" fill="white"/>
</clipPath>
</defs>
</svg>
