<svg width="18" height="18" viewBox="0 0 18 18" fill="none" xmlns="http://www.w3.org/2000/svg">
<g clip-path="url(#clip0_370_2815)">
<path d="M16.5411 5.01754V7.99633H14.2134V2.95703H14.4771C15.0238 2.95712 15.5482 3.17413 15.9352 3.56043C16.3222 3.94673 16.54 4.47076 16.5411 5.01754Z" fill="#F44336"/>
<path d="M16.5411 11.4902V14.1776C16.5405 14.6074 16.4061 15.0263 16.1564 15.3761C15.9066 15.726 15.5541 15.9893 15.1478 16.1295C14.9321 16.2041 14.7054 16.2421 14.4771 16.242H14.2134V11.4902H16.5411Z" fill="#558B2F"/>
<path d="M16.5411 7.46875H14.2134V12.0173H16.5411V7.46875Z" fill="#FF9800"/>
<path opacity="0.2" d="M15.1478 3.06813V16.1294C14.9321 16.204 14.7054 16.242 14.4771 16.2419H14.2134V2.95703H14.4771C14.7052 2.95672 14.9319 2.99426 15.1478 3.06813Z" fill="black"/>
<path d="M14.7421 0.395977V17.6036C14.7415 17.696 14.7044 17.7845 14.639 17.8498C14.5736 17.9152 14.4851 17.9521 14.3927 17.9527H1.80673C1.71428 17.9521 1.62577 17.9152 1.56036 17.8498C1.49496 17.7845 1.45792 17.696 1.45728 17.6036V0.395977C1.45792 0.303528 1.49496 0.215054 1.56036 0.149714C1.62577 0.084374 1.71428 0.0474275 1.80673 0.046875H14.3927C14.4851 0.0474275 14.5736 0.084374 14.639 0.149714C14.7044 0.215054 14.7415 0.303528 14.7421 0.395977Z" fill="#0A5593"/>
<path d="M12.5859 12.2569C12.419 12.676 12.0073 12.9724 11.5362 13.0075C11.4697 13.0128 11.3956 13.0153 11.3203 13.0153C10.1602 13.0153 7.86692 12.4046 5.92559 10.6366L5.91821 10.6299C3.84047 8.58769 3.56837 6.63511 3.59122 5.65285C3.60212 5.1807 3.87247 4.7532 4.28309 4.563C4.7809 4.33343 5.3761 4.203 6.35274 4.7989C6.3607 4.80352 6.36834 4.80869 6.37559 4.81437C6.62649 5.02272 6.82413 5.28786 6.95215 5.58781C7.14165 6.03816 7.2334 6.75394 6.59321 7.60789C6.52275 7.70126 6.48351 7.81445 6.48105 7.93139C6.47859 8.04834 6.51303 8.16308 6.5795 8.25933C7.40286 9.44656 8.26172 10.2302 8.93813 10.4088C8.97909 10.4192 9.02205 10.419 9.06287 10.408C9.1037 10.3971 9.14101 10.3758 9.17122 10.3462C9.70137 9.81324 10.2547 9.54359 10.8179 9.54359C10.8397 9.54359 10.8619 9.54359 10.8837 9.54359C11.6895 9.57382 12.1971 10.1553 12.2196 10.1803C12.2256 10.1873 12.2312 10.1947 12.2365 10.2021C12.8841 11.1443 12.7867 11.7472 12.5859 12.2569Z" fill="#2E76CC"/>
<path d="M12.6563 12.0109C12.4893 12.4299 12.0776 12.7263 11.6065 12.7614C11.54 12.7667 11.4659 12.7692 11.3906 12.7692C10.2305 12.7692 7.93723 12.1585 5.9959 10.3905L5.98852 10.3838C3.91079 8.3416 3.63868 6.38902 3.66153 5.40675C3.67243 4.9346 3.94278 4.50711 4.3534 4.31691C4.85122 4.08734 5.44641 3.95691 6.42305 4.55281C6.43102 4.55743 6.43865 4.5626 6.4459 4.56828C6.6968 4.77663 6.89445 5.04176 7.02247 5.34171C7.21196 5.79207 7.30372 6.50785 6.66352 7.36179C6.59307 7.45516 6.55382 7.56836 6.55136 7.6853C6.5489 7.80224 6.58335 7.91699 6.64981 8.01324C7.47317 9.20046 8.33204 9.9841 9.00844 10.1627C9.0494 10.1732 9.09236 10.1729 9.13318 10.1619C9.17401 10.151 9.21132 10.1297 9.24153 10.1001C9.77169 9.56714 10.325 9.2975 10.8882 9.2975C10.91 9.2975 10.9322 9.2975 10.954 9.2975C11.7598 9.32773 12.2674 9.90921 12.2899 9.93417C12.2959 9.94121 12.3015 9.94859 12.3068 9.95597C12.9544 10.8982 12.857 11.5011 12.6563 12.0109Z" fill="#DFF2FD"/>
<path d="M2.1954 17.9527H1.80868C1.71623 17.9521 1.62772 17.9152 1.56232 17.8498C1.49691 17.7845 1.45987 17.696 1.45923 17.6036V0.395977C1.45987 0.303528 1.49691 0.215054 1.56232 0.149714C1.62772 0.084374 1.71623 0.0474275 1.80868 0.046875H2.1954C2.10295 0.0474275 2.01444 0.084374 1.94903 0.149714C1.88363 0.215054 1.84659 0.303528 1.84595 0.395977V17.6036C1.84659 17.696 1.88363 17.7845 1.94903 17.8498C2.01444 17.9152 2.10295 17.9521 2.1954 17.9527Z" fill="#2E77CE"/>
<path d="M4.61047 0.978516H13.7191" stroke="#9FC7F7" stroke-width="4" stroke-miterlimit="10"/>
</g>
<defs>
<clipPath id="clip0_370_2815">
<rect width="18" height="18" fill="white"/>
</clipPath>
</defs>
</svg>
